<?xml version="1.0" encoding="UTF-8" standalone="no"?>
<!-- Created with Inkscape (http://www.inkscape.org/) -->

<svg
   xmlns:dc="http://purl.org/dc/elements/1.1/"
   xmlns:cc="http://creativecommons.org/ns#"
   xmlns:rdf="http://www.w3.org/1999/02/22-rdf-syntax-ns#"
   xmlns:svg="http://www.w3.org/2000/svg"
   xmlns="http://www.w3.org/2000/svg"
   xmlns:sodipodi="http://sodipodi.sourceforge.net/DTD/sodipodi-0.dtd"
   xmlns:inkscape="http://www.inkscape.org/namespaces/inkscape"
   width="210mm"
   height="297mm"
   viewBox="0 0 744.09448819 1052.3622047"
   id="svg3449"
   version="1.1"
   inkscape:version="0.91 r13725"
   sodipodi:docname="idos_scaling.svg">
  <defs
     id="defs3451" />
  <sodipodi:namedview
     id="base"
     pagecolor="#ffffff"
     bordercolor="#666666"
     borderopacity="1.0"
     inkscape:pageopacity="0.0"
     inkscape:pageshadow="2"
     inkscape:zoom="1.4"
     inkscape:cx="124.47777"
     inkscape:cy="538.33564"
     inkscape:document-units="px"
     inkscape:current-layer="layer1"
     showgrid="false"
     inkscape:window-width="1920"
     inkscape:window-height="1011"
     inkscape:window-x="0"
     inkscape:window-y="27"
     inkscape:window-maximized="1" />
  <metadata
     id="metadata3454">
    <rdf:RDF>
      <cc:Work
         rdf:about="">
        <dc:format>image/svg+xml</dc:format>
        <dc:type
           rdf:resource="http://purl.org/dc/dcmitype/StillImage" />
        <dc:title />
      </cc:Work>
    </rdf:RDF>
  </metadata>
  <g
     inkscape:label="Layer 1"
     inkscape:groupmode="layer"
     id="layer1"
     style="display:inline">
    <g
       id="g5203"
       transform="matrix(2.9132209,0,0,2.9132209,-745.55727,-1531.4401)">
      <path
         inkscape:connector-curvature="0"
         id="path470"
         style="fill:none;stroke:#00688b;stroke-width:0.77499998;stroke-linecap:butt;stroke-linejoin:round;stroke-miterlimit:4;stroke-dasharray:none;stroke-opacity:0.94117599"
         d="m 299.96241,664.3639 c 0,8.94625 -7.24625,16.1925 -16.19125,16.1925 -8.94,0 -16.19125,-7.24625 -16.19125,-16.1925 0,-8.94 7.25125,-16.19125 16.19125,-16.19125 8.945,0 16.19125,7.25125 16.19125,16.19125 z" />
      <path
         inkscape:connector-curvature="0"
         id="path474"
         style="fill:none;stroke:#00688b;stroke-width:0.755;stroke-linecap:round;stroke-linejoin:miter;stroke-miterlimit:4;stroke-dasharray:none;stroke-opacity:0.94117599"
         d="m 503.85866,663.79265 c 0,38.79875 -31.455,70.255 -70.25375,70.255 -38.80375,0 -70.25875,-31.45625 -70.25875,-70.255 0,-38.80375 31.455,-70.25875 70.25875,-70.25875 38.79875,0 70.25375,31.455 70.25375,70.25875 z" />
      <path
         inkscape:connector-curvature="0"
         id="path478"
         style="fill:none;stroke:#00688b;stroke-width:0.755;stroke-linecap:round;stroke-linejoin:miter;stroke-miterlimit:4;stroke-dasharray:none;stroke-opacity:1"
         d="m 278.95116,648.79765 128.4475,-50.18" />
      <path
         inkscape:connector-curvature="0"
         id="path480"
         style="fill:none;stroke:#00688b;stroke-width:0.755;stroke-linecap:round;stroke-linejoin:miter;stroke-miterlimit:4;stroke-dasharray:none;stroke-opacity:1"
         d="m 279.15241,680.0339 129.69125,49.56" />
    </g>
    <path
       d="m -110.14643,293.85072 364.29908,0 0,247.92577 -364.29908,0 0,-247.92577 z"
       style="fill:none;stroke:#ffffff;stroke-width:0.03035825;stroke-linecap:butt;stroke-linejoin:miter;stroke-miterlimit:10;stroke-dasharray:none;stroke-opacity:1"
       id="path16-7"
       inkscape:connector-curvature="0" />
    <path
       d="m -90.670597,507.35023 0,-0.37948 0.004,-0.1265 0,-0.12649 0.004,-0.12649 0,-0.1265 0.0081,-0.12648 0,-0.12649 0.004,-0.1265 0,-0.12649 0.004,-0.12649 0.01919,-0.1265 0.004,-0.12649 0,-0.12649 0.0081,-0.1265 0,-0.12649 0.0081,-0.12649 0,-0.1265 0.0032,-0.12649 0.04348,-0.12952 0,-0.1265 0.004,-0.12649 0.0081,-0.12649 0,-0.1265 0.01619,-0.12649 0.0081,-0.25299 0.01117,-0.12649 0.01214,-0.37948 0,-0.12649 0.170006,-0.1265 0,-0.12648 0.004,-0.12649 0.0081,-0.1265 0.004,-0.12649 0.01117,-0.12649 0.0081,-0.1265 0,-0.12649 0.03943,-0.12649 0.004,-0.1265 0.02429,-0.37948 0.03133,-0.12649 0.0081,-0.12649 0.004,-0.1265 0.01514,-0.12648 0,-0.12649 0.01214,-0.1265 0,-0.12649 0.004,-0.12649 0.327869,-0.1265 0.004,-0.12649 0,-0.12649 0.01214,-0.1265 0,-0.12649 0.02324,-0.12649 0.004,-0.1265 0.01214,-0.12649 0.02728,-0.12649 0.01214,-0.1265 0.0081,-0.12648 0.01109,-0.12649 0,-0.1265 0.107265,-0.12649 0,-0.12649 0.01117,-0.1265 0.01619,-0.12649 0.0081,-0.12649 0.01619,-0.1265 0.01117,-0.12649 0.004,-0.1265 0.08298,-0.12649 0,-0.12649 0.01214,-0.1265 0.01619,-0.25297 0.02331,-0.1265 0.0081,-0.25298 0.01522,-0.1265 0.01214,-0.37948 0,-0.12649 1.304393,-0.12649 0,-0.1265 0.004,-0.12649 0.0081,-0.12649 0.004,-0.1265 0.01514,-0.12649 0.004,-0.12649 0.0081,-0.12649 0.04355,-0.12649 0.01214,-0.13054 0.0081,-0.12649 0.01927,-0.1265 0.004,-0.12649 0.07893,-0.12649 0.004,-0.1265 0.01619,-0.12649 0.02331,-0.12649 0.01214,-0.1265 0.03133,-0.25298 0,-0.1265 0.277272,-0.12649 0,-0.12648 0.01514,-0.1265 0.01214,-0.12649 0.01619,-0.1265 0.04348,-0.12649 0.01919,-0.12649 0.0081,-0.1265 0.05157,-0.12649 0.004,-0.12649 0.02324,-0.1265 0.01619,-0.25298 0.264116,-0.1265 0.01619,-0.25298 0.02331,-0.12649 0.0081,-0.12649 0.03238,-0.12649 0.0073,-0.1265 0.01214,-0.12649 0.07488,-0.12649 0.01214,-0.1265 0.0081,-0.12649 0.01927,-0.12649 0.004,-0.1265 0.0476,-0.12649 0.004,-0.12649 0.02331,-0.25299 0.004,-0.12649 0.0081,-0.12649 0.004,-0.12649 0,-0.12649 2.510629,-0.1265 0,-0.12649 0.0073,-0.12649 0.004,-0.1265 0.0081,-0.12649 0.02024,-0.12649 0.01117,-0.1265 0.004,-0.12649 0.0476,-0.12649 0.004,-0.1265 0.02024,-0.12649 0.01117,-0.12649 0.0081,-0.1265 0.142683,-0.12648 0.01522,-0.12649 0.0081,-0.1265 0.03943,-0.12649 0.0081,-0.12649 0.03943,-0.1265 0.0081,-0.12649 0.01214,-0.12649 0.209472,-0.1265 0.01522,-0.12649 0.01214,-0.12649 0.03141,-0.1265 0.0081,-0.12649 0.07084,-0.1265 0.0081,-0.12649 0.02429,-0.12648 0.04347,-0.1265 0.01514,-0.12649 0.01214,-0.13054 0.01619,-0.12649 0,-0.1265 0.770087,-0.12649 0.004,-0.12649 0.01214,-0.1265 0.01919,-0.12649 0.01619,-0.12649 0.03133,-0.1265 0.02429,-0.12649 0.004,-0.12649 0.114348,-0.1265 0.0081,-0.12648 0.03133,-0.12649 0.03951,-0.25299 0.107265,-0.12649 0.01927,-0.1265 0.0081,-0.12649 0.04355,-0.12649 0.0081,-0.1265 0.02728,-0.12649 0.004,-0.12649 0.0081,-0.1265 0.608176,-0.12649 0.004,-0.12649 0.0081,-0.1265 0.02024,-0.12648 0.0032,-0.12649 0.0476,-0.1265 0.0081,-0.12649 0.02024,-0.1265 0.0506,-0.12649 0.02024,-0.12649 0.01214,-0.1265 0.02331,-0.12649 0,-0.12649 0.174055,-0.1265 0.004,-0.12649 0.01514,-0.12649 0.02024,-0.1265 0.01619,-0.12649 0.01919,-0.12649 0.01619,-0.12649 0,-0.12649 0.09816,-0.12649 0.004,-0.1265 0.01214,-0.12649 0.01619,-0.25299 0.02331,-0.12649 0.0081,-0.12649 0.004,-0.1265 0.01514,-0.12649 0.01214,-0.37948 0,-0.12649 9.897806,-0.12649 0,-0.12649 0.004,-0.12649 0.0081,-0.1265 0.004,-0.12649 0.01619,-0.12649 0.004,-0.1265 0.0071,-0.12649 0.04756,-0.12649 0.01214,-0.1265 0.0081,-0.12649 0.01923,-0.12649 0.004,-0.1265 0.09107,-0.12649 0.0081,-0.12649 0.01927,-0.12649 0.02833,-0.12649 0.01518,-0.12649 0.02429,-0.1265 0.01619,-0.13054 0.003,-0.12649 0.332929,-0.1265 0.003,-0.12649 0.02833,-0.12649 0.01518,-0.1265 0.02429,-0.12649 0.06679,-0.12649 0.02833,-0.1265 0.01113,-0.12649 0.07893,-0.12649 0.0081,-0.12649 0.03542,-0.12649 0.02429,-0.25299 0.541389,-0.12649 0.02328,-0.25299 0.04756,-0.12649 0.0081,-0.12649 0.06375,-0.1265 0.01518,-0.12649 0.02833,-0.12649 0.157862,-0.1265 0.04756,-0.25298 0.04351,-0.1265 0.0071,-0.12648 0.127505,-0.12649 0.0072,-0.1265 0.02833,-0.12649 0.03137,-0.12649 0.03947,-0.25299 0.01214,-0.12649 0,-0.1265 2.01174,-0.12649 0.004,-0.12649 0.03137,-0.25299 0.02024,-0.12649 0.0506,-0.1265 0.02833,-0.12648 0.01214,-0.12649 0.102206,-0.1265 0.0081,-0.12649 0.05161,-0.1265 0.01923,-0.12649 0.02429,-0.12649 0.30763,-0.1265 0.02833,-0.12649 0.01113,-0.12649 0.07589,-0.1265 0.01518,-0.12649 0.07185,-0.12649 0.01518,-0.1265 0.02833,-0.12649 0.311678,-0.12648 0.02429,-0.1265 0.01923,-0.12649 0.05161,-0.12649 0.0081,-0.1265 0.106254,-0.12649 0.0081,-0.12649 0.03137,-0.1265 0.05566,-0.12649 0.01923,-0.12649 0.03238,-0.25299 0,-0.12649 1.98037,-0.1265 0.004,-0.12649 0.03137,-0.25298 0.01923,-0.12649 0.03643,-0.12649 0.02732,-0.1265 0.0081,-0.13054 0.133576,-0.12649 0.0081,-0.12649 0.04756,-0.1265 0.02024,-0.12649 0.02732,-0.12649 0.161911,-0.1265 0.02833,-0.12649 0.01518,-0.12649 0.0678,-0.1265 0.0071,-0.12649 0.05161,-0.12649 0.0081,-0.12649 0.01619,-0.12649 0.556567,-0.1265 0.01619,-0.12649 0.01214,-0.12649 0.03542,-0.1265 0.0081,-0.12649 0.07893,-0.12649 0.01214,-0.1265 0.02732,-0.12649 0.06679,-0.12649 0.02833,-0.1265 0.01518,-0.12649 0.02833,-0.12649 0.004,-0.12649 0.335965,-0.12649 0.003,-0.12649 0.01619,-0.1265 0.03947,-0.25298 0.02732,-0.1265 0.02024,-0.12649 0.0081,-0.12649 0.09108,-0.1265 0.004,-0.12649 0.01923,-0.12649 0.02429,-0.25299 0.04351,-0.12649 0.0071,-0.12649 0.004,-0.12649 0.02024,-0.12649 0,-0.1265 0.01113,-0.12649 0,-0.12649 0.004,-0.1265 17.594634,-0.12649 0.004,-0.12649 0,-0.1265 0.01214,-0.12649 0,-0.12649 0.02328,-0.1265 0.0081,-0.12649 0.01214,-0.12649 0.03542,-0.12649 0.02328,-0.25298 0.02024,-0.1265 0.004,-0.12649 0.149767,-0.12649 0.004,-0.1265 0.02428,-0.12649 0.03137,-0.1265 0.02328,-0.12649 0.02833,-0.12649 0.02328,-0.1265 0.004,-0.12649 0.272213,-0.12649 0.0081,-0.1265 0.03238,-0.12648 0.02328,-0.12649 0.02732,-0.1265 0.07893,-0.12649 0.03643,-0.12649 0.01113,-0.1265 0.07589,-0.13054 0.0072,-0.12649 0.03542,-0.12649 0.0081,-0.1265 0.01214,-0.12649 0.991703,-0.12649 0.01619,-0.1265 0.0081,-0.12649 0.05161,-0.12649 0.0071,-0.1265 0.07589,-0.12648 0.01518,-0.12649 0.03643,-0.1265 0.185185,-0.12649 0.03542,-0.12649 0.03238,-0.1265 0.0587,-0.12649 0.01214,-0.12649 0.19733,-0.1265 0.01214,-0.12649 0.04351,-0.12649 0.05161,-0.1265 0.03542,-0.12649 0.02732,-0.12649 0.02428,-0.1265 0.003,-0.12648 1.45922,-0.1265 0.004,-0.12649 0.02732,-0.12649 0.02024,-0.1265 0.03137,-0.12649 0.08298,-0.12649 0.04756,-0.1265 0.01518,-0.12649 0.138637,-0.12649 0.01214,-0.1265 0.06679,-0.12649 0.02428,-0.12649 0.02732,-0.1265 0.41085,-0.12649 0.03238,-0.12648 0.01518,-0.1265 0.07893,-0.12649 0.01619,-0.12649 0.08298,-0.1265 0.01619,-0.12649 0.02732,-0.12649 0.292451,-0.1265 0.02327,-0.12649 0.02024,-0.12649 0.04756,-0.1265 0.0081,-0.12649 0.09411,-0.12649 0.0081,-0.1265 0.02833,-0.12649 0.0425,-0.12648 0.01619,-0.1265 0.02429,-0.25298 0,-0.1265 5.288408,-0.12649 0.004,-0.12649 0.0081,-0.1265 0.01923,-0.12649 0.01619,-0.12649 0.03137,-0.1265 0.02428,-0.12649 0.0081,-0.12649 0.129529,-0.1265 0.0081,-0.12649 0.04756,-0.12648 0.02428,-0.1265 0.02732,-0.12649 0.193281,-0.12649 0.03542,-0.1265 0.01619,-0.12649 0.08703,-0.13054 0.01214,-0.1265 0.06679,-0.12649 0.01214,-0.12649 0.01923,-0.1265 0.696217,-0.12649 0.02328,-0.12649 0.02024,-0.1265 0.0587,-0.12649 0.01619,-0.12649 0.134588,-0.12649 0.01923,-0.12649 0.05161,-0.12649 0.111313,-0.1265 0.04351,-0.12649 0.03137,-0.12649 0.03947,-0.1265 0.0081,-0.12649 0.722527,-0.12649 0.0081,-0.1265 0.03238,-0.12649 0.04355,-0.12649 0.03943,-0.1265 0.0587,-0.12649 0.04752,-0.12649 0.01214,-0.12649 0.209472,-0.12649 0.0081,-0.12649 0.0506,-0.1265 0.02428,-0.12649 0.02736,-0.12649 0.122445,-0.1265 0.02429,-0.12649 0.0081,-0.12649 0.04655,-0.1265 0.004,-0.12649 0.02833,-0.12649 0.004,-0.1265 0.0073,-0.12649 3.976931,-0.12649 0.0081,-0.12649 0.004,-0.12649 0.01927,-0.1265 0.004,-0.12649 0.05157,-0.12649 0.0081,-0.1265 0.02332,-0.12649 0.06776,-0.12649 0.02728,-0.1265 0.02024,-0.12649 0.03546,-0.12649 0.004,-0.1265 0.260068,-0.12649 0.0081,-0.12649 0.03546,-0.1265 0.04347,-0.12648 0.03943,-0.12649 0.04355,-0.1265 0.03643,-0.12649 0.0073,-0.12649 0.331917,-0.1265 0.0081,-0.12649 0.03943,-0.12649 0.02833,-0.1265 0.03133,-0.12649 0.09108,-0.12649 0.03141,-0.1265 0.01619,-0.12649 0.07488,-0.12649 0.0081,-0.1265 0.03133,-0.12649 0.0081,-0.12648 0.01117,-0.1265 1.091884,-0.12649 0.01514,-0.25299 0.03141,-0.12649 0.0081,-0.13054 0.0476,-0.12649 0.01214,-0.1265 0.02332,-0.12649 0.118398,-0.1265 0.0476,-0.25298 0.03943,-0.1265 0.0081,-0.12649 0.130541,-0.12648 0.0081,-0.1265 0.02728,-0.12649 0.03546,-0.12649 0.02024,-0.1265 0.02332,-0.12649 0.01214,-0.12649 0.004,-0.1265 0.609189,-0.12649 0,-0.12649 0.02332,-0.25299 0.01619,-0.12649 0.03538,-0.1265 0.01927,-0.12649 0.0081,-0.12648 0.05966,-0.1265 0.004,-0.12649 0.02728,-0.12649 0.01619,-0.25299 0.157863,-0.12649 0.0081,-0.1265 0.004,-0.12649 0.02736,-0.12649 0.004,-0.1265 0.02332,-0.12649 0.01619,-0.25299 0.07893,-0.12649 0.0081,-0.12648 0.004,-0.1265 0.01117,-0.12649 0.004,-0.12649 0.02428,-0.1265 0,-0.12649 0.0081,-0.12649 0.01117,-0.1265 0.0081,-0.25298 0,-0.25299 69.274506,-0.12649 0,-0.1265 0.0081,-0.25298 0.02332,-0.37948 0,-0.12649 0.04048,-0.12649 0,-0.1265 0.01522,-0.12649 0.01619,-0.25299 0.06679,-0.12649 0.01214,-0.12649 0.004,-0.1265 0.03133,-0.12649 0.004,-0.12649 0.02332,-0.1265 0.01619,-0.25297 0.257033,-0.1265 0.01214,-0.12649 0.0073,-0.12649 0.02833,-0.1265 0.0081,-0.12649 0.06274,-0.13054 0.01214,-0.12649 0.02331,-0.1265 0.05157,-0.12649 0.02332,-0.12649 0.01214,-0.1265 0.02428,-0.12649 0,-0.12649 0.493827,-0.12649 0.004,-0.12649 0.02331,-0.12649 0.05562,-0.25299 0.0395,-0.12649 0.03538,-0.1265 0.0081,-0.12649 0.161911,-0.12649 0.004,-0.1265 0.04355,-0.12649 0.0476,-0.25299 0.118397,-0.12649 0.02428,-0.1265 0.0073,-0.12648 0.0476,-0.12649 0.0081,-0.1265 0.02728,-0.12649 0.01619,-0.25299 1.8812,-0.12649 0.0081,-0.12649 0.01214,-0.1265 0.03133,-0.12649 0.004,-0.12649 0.07893,-0.1265 0.01214,-0.12649 0.03943,-0.12649 0.09917,-0.1265 0.0395,-0.12649 0.02728,-0.12648 0.05157,-0.1265 0.0081,-0.12649 0.383525,-0.12649 0.0073,-0.1265 0.0476,-0.12649 0.05562,-0.12649 0.05157,-0.1265 0.05465,-0.12649 0.0476,-0.12649 0.01214,-0.1265 0.37543,-0.12649 0.0081,-0.12649 0.0476,-0.1265 0.03141,-0.12649 0.03943,-0.12648 0.103218,-0.1265 0.03546,-0.12649 0.01109,-0.12649 0.0799,-0.1265 0.0073,-0.12649 0.02833,-0.12649 0.01214,-0.1265 0.0073,-0.12649 3.114757,-0.12649 0.01214,-0.1265 0.0081,-0.12649 0.03951,-0.12649 0.0081,-0.1265 0.06679,-0.12649 0.01619,-0.12648 0.03546,-0.1265 0.174055,-0.12649 0.03943,-0.1265 0.03141,-0.12649 0.07181,-0.12649 0.01117,-0.1265 0.269176,-0.12649 0.01522,-0.13054 0.05966,-0.12649 0.07084,-0.1265 0.103218,-0.25298 0.03546,-0.1265 0.0081,-0.12649 0.91682,-0.12648 0.0081,-0.1265 0.04348,-0.12649 0.03546,-0.12649 0.04348,-0.1265 0.122445,-0.12649 0.05562,-0.12649 0.01927,-0.1265 0.15078,-0.12649 0.01522,-0.12649 0.06371,-0.1265 0.0476,-0.25298 0.667883,-0.1265 0.02331,-0.12649 0.01214,-0.12649 0.06784,-0.12649 0.01109,-0.12649 0.07893,-0.12649 0.02024,-0.1265 0.03133,-0.12649 0.182149,-0.12649 0.0476,-0.25299 0.04355,-0.12649 0.0081,-0.1265 0.110301,-0.12649 0.0081,-0.12649 0.01927,-0.1265 0.02833,-0.12649 0.01522,-0.1265 0.02428,-0.25297 0,-0.1265 11.281125,-0.12649 0,-0.12649 0.02429,-0.25299 0.01522,-0.12649 0.03951,-0.1265 0.02428,-0.12649 0.01109,-0.12649 0.09108,-0.1265 0.0081,-0.12649 0.0476,-0.12649 0.01927,-0.1265 0.02429,-0.12648 0.292452,-0.12649 0.03133,-0.1265 0.01619,-0.12649 0.09107,-0.12649 0.01514,-0.1265 0.08703,-0.12649 0.01619,-0.12649 0.03133,-0.1265 0.486744,-0.12649 0.06274,-0.25299 0.07893,-0.12649 0.01619,-0.12649 0.170006,-0.1265 0.01919,-0.12648 0.05974,-0.12649 0.102206,-0.1265 0.04355,-0.12649 0.02833,-0.12649 0.03538,-0.1265 0.0081,-0.12649 1.76685,-0.12649 0.0081,-0.1265 0.03133,-0.12953 0.09512,-0.25299 0.07893,-0.1275 0.06274,-0.12547 0.02024,-0.12752 0.300546,-0.12547 0.01514,-0.1275 0.09108,-0.12549 0.04355,-0.1275 0.05562,-0.12548 0.272212,-0.12751 0.05157,-0.12548 0.02728,-0.1275 0.111314,-0.12549 0.01522,-0.1275 0.07189,-0.12548 0.01514,-0.12751 0.02024,-0.12547 1.758755,-0.12751 0.02024,-0.12548 0.01522,-0.12751 0.05562,-0.12547 0.01214,-0.12751 0.134589,-0.12548 0.01927,-0.1275 0.05562,-0.12549 0.141672,-0.1275 0.05562,-0.12548 0.03943,-0.12751 0.05974,-0.12548 0.01109,-0.1275 0.498887,-0.12549 0.01109,-0.1275 0.0476,-0.12547 0.05562,-0.12752 0.0476,-0.12547 0.0587,-0.1275 0.04752,-0.12549 0.0081,-0.1275 0.308642,-0.12548 0.004,-0.12751 0.04355,-0.12548 0.02331,-0.1275 0.02729,-0.12549 0.0799,-0.1275 0.02331,-0.12549 0.0081,-0.1275 0.05157,-0.12547 0.0073,-0.12751 0.02024,-0.12548 0.004,-0.12751 0.0081,-0.12548 11.277081,-0.1275 0.0081,-0.25299 0.02024,-0.12548 0.0073,-0.1275 0.03643,-0.12549 0.0073,-0.1275 0.02024,-0.12548 0.102206,-0.12751 0.02429,-0.12548 0.01927,-0.1275 0.04355,-0.12548 0.0081,-0.12751 0.197329,-0.12547 0.01214,-0.12751 0.04347,-0.12548 0.05562,-0.1275 0.03951,-0.12549 0.04355,-0.1275 0.03133,-0.12548 0.0081,-0.12751 0.680025,-0.12548 0.004,-0.1275 0.0476,-0.12549 0.03546,-0.13054 0.04347,-0.12649 0.122445,-0.12649 0.0587,-0.12649 0.02024,-0.12649 0.146732,-0.1265 0.01117,-0.12649 0.06776,-0.12649 0.01927,-0.1265 0.0243,-0.12649 0.904672,-0.12649 0.0243,-0.1265 0.01519,-0.12649 0.08301,-0.12649 0.01617,-0.1265 0.102208,-0.12649 0.0243,-0.12649 0.04351,-0.12649 0.252987,-0.12649 0.0394,-0.12649 0.03136,-0.1265 0.07086,-0.12649 0.01215,-0.12649 0.190245,-0.1265 0.01107,-0.12649 0.0395,-0.12649 0.04753,-0.1265 0.05567,-0.25298 0.01617,-0.1265 0.0039,-0.12649 3.118801,-0.12649 0.003,-0.12649 0.0203,-0.12649 0.0162,-0.12649 0.0233,-0.1265 0.0638,-0.12649 0.0354,-0.12649 0.0112,-0.1265 0.12346,-0.12649 0.0112,-0.12649 0.0598,-0.1265 0.0233,-0.12649 0.0283,-0.12649 0.36328,-0.1265 0.0314,-0.12649 0.0162,-0.12649 0.091,-0.12649 0.0112,-0.12649 0.091,-0.12649 0.0162,-0.1265 0.0314,-0.12649 0.37138,-0.12649 0.0475,-0.25299 0.0598,-0.12649 0.0122,-0.1265 0.12245,-0.12649 0.0112,-0.1265 0.0354,-0.12649 0.0638,-0.12649 0.0233,-0.1265 0.0162,-0.12649 0.0203,-0.12648 0.004,-0.1265 1.88525,-0.12649 0,-0.12649 0.0314,-0.25299 0.0203,-0.12649 0.0354,-0.1265 0.0272,-0.12649 0.008,-0.12649 0.1265,-0.1265 0.008,-0.12649 0.0435,-0.12649 0.0233,-0.13054 0.0243,-0.1265 0.14977,-0.12648 0.0233,-0.12649 0.0162,-0.1265 0.0598,-0.12649 0.007,-0.12649 0.0435,-0.1265 0.008,-0.12649 0.0121,-0.12649 0.48979,-0.1265 0.0122,-0.12649 0.008,-0.12649 0.0314,-0.1265 0.004,-0.12649 0.0668,-0.12649 0.008,-0.1265 0.0243,-0.12648 0.0547,-0.1265 0.0203,-0.12649 0.0162,-0.12649 0.0192,-0.1265 0,-0.12649 0.26512,-0.12649 0,-0.1265 0.0314,-0.25298 0.0121,-0.1265 0.0233,-0.12649 0.0162,-0.12649 0.004,-0.1265 0.0668,-0.12649 0.004,-0.12648 0.0162,-0.1265 0.0152,-0.25298 0.0324,-0.1265 0.007,-0.12649 0.004,-0.12649 0.0122,-0.1265 0,-0.12649 0.008,-0.12649 0,-0.1265 0.004,-0.12649 69.27046,-0.12649 0.004,-0.1265 0,-0.12649 0.008,-0.12649 0,-0.12649 0.0111,-0.12649 0.008,-0.25299 0.0233,-0.12649 0.008,-0.12649 0.004,-0.1265 0.0121,-0.12649 0.004,-0.12649 0.083,-0.1265 0,-0.12649 0.0627,-0.50597 0.0122,-0.12649 0.004,-0.12649 0.15787,-0.12649 0.004,-0.1265 0.0203,-0.12649 0.0111,-0.12649 0.0203,-0.1265 0.0475,-0.12649 0.0152,-0.12649 0.008,-0.1265 0.0476,-0.12649 0.004,-0.1265 0.0233,-0.12649 0.004,-0.12649 0.008,-0.13054 0.60109,-0.12649 0.0121,-0.12649 0.004,-0.12649 0.0314,-0.1265 0.008,-0.12649 0.0466,-0.12649 0.0122,-0.1265 0.0243,-0.12649 0.12245,-0.12649 0.0233,-0.1265 0.0202,-0.12649 0.0395,-0.12649 0.008,-0.1265 0.12952,-0.12649 0.008,-0.12649 0.0637,-0.25298 0.0233,-0.12649 0.0202,-0.1265 0.0152,-0.12649 0.004,-0.12649 1.09491,-0.1265 0.004,-0.12649 0.0202,-0.12649 0.0151,-0.1265 0.0243,-0.12649 0.0587,-0.12649 0.0365,-0.1265 0.0112,-0.12649 0.10726,-0.12649 0.0111,-0.1265 0.0516,-0.12648 0.0394,-0.25299 0.32483,-0.12649 0.0233,-0.1265 0.0162,-0.12649 0.0627,-0.12649 0.0121,-0.1265 0.0709,-0.12649 0.0121,-0.12649 0.0232,-0.1265 0.24894,-0.12649 0.0202,-0.12649 0.0162,-0.1265 0.0435,-0.12649 0.007,-0.12648 0.083,-0.1265 0.008,-0.12649 0.0243,-0.12649 0.0395,-0.1265 0.0354,-0.37948 0,-0.12649 3.98098,-0.12649 0.003,-0.1265 0.0121,-0.12649 0.0162,-0.12649 0.0193,-0.1265 0.0323,-0.12649 0.0273,-0.12648 0.008,-0.1265 0.13459,-0.12649 0.007,-0.12649 0.0476,-0.1265 0.0556,-0.25298 0.19733,-0.1265 0.0314,-0.12649 0.0203,-0.12649 0.083,-0.1265 0.0122,-0.12649 0.0668,-0.12649 0.0162,-0.1265 0.0193,-0.12649 0.71545,-0.13053 0.0394,-0.25299 0.0638,-0.12649 0.0122,-0.1265 0.13357,-0.12649 0.0203,-0.12649 0.0516,-0.1265 0.11031,-0.12649 0.0435,-0.12649 0.0314,-0.1265 0.0435,-0.12649 0.004,-0.12649 0.70736,-0.1265 0.004,-0.12649 0.0354,-0.12649 0.0436,-0.12649 0.0394,-0.12649 0.0557,-0.12649 0.0475,-0.1265 0.0122,-0.12649 0.20541,-0.12649 0.0121,-0.1265 0.0476,-0.12649 0.0233,-0.12649 0.0272,-0.1265 0.11536,-0.12649 0.0233,-0.12649 0.0121,-0.1265 0.0435,-0.12649 0.004,-0.12649 0.0233,-0.12649 0.008,-0.12649 0.004,-0.12649 5.28436,-0.1265 0.008,-0.12649 0.004,-0.12649 0.0243,-0.1265 0.003,-0.12649 0.0557,-0.12649 0.008,-0.1265 0.0272,-0.12649 0.0789,-0.12649 0.0556,-0.25299 0.0395,-0.12649 0.008,-0.12649 0.30055,-0.12649 0.0121,-0.12649 0.0395,-0.1265 0.0547,-0.12649 0.0475,-0.1265 0.0516,-0.12649 0.0435,-0.12649 0.008,-0.1265 0.42704,-0.12649 0.007,-0.12649 0.0516,-0.1265 0.0314,-0.12649 0.0435,-0.12649 0.11941,-0.1265 0.0435,-0.12648 0.0152,-0.12649 0.10321,-0.1265 0.0122,-0.12649 0.0394,-0.12649 0.0152,-0.1265 0.0122,-0.12649 1.45112,-0.12649 0.0152,-0.1265 0.008,-0.12649 0.0476,-0.12649 0.0121,-0.1265 0.0749,-0.12649 0.0152,-0.12649 0.0365,-0.1265 0.18113,-0.12648 0.0354,-0.13054 0.0283,-0.12649 0.0627,-0.1265 0.0122,-0.12649 0.20138,-0.12649 0.0121,-0.1265 0.0435,-0.12649 0.0516,-0.12649 0.0627,-0.25299 0.0243,-0.12649 0.003,-0.1265 1.00081,-0.12649 0,-0.12649 0.0233,-0.1265 0.0162,-0.12648 0.0272,-0.1265 0.0597,-0.12649 0.0355,-0.12649 0.0121,-0.1265 0.0941,-0.12649 0.008,-0.12649 0.0435,-0.1265 0.0162,-0.12649 0.0193,-0.12649 0.26513,-0.1265 0.0162,-0.12649 0.008,-0.12649 0.0425,-0.1265 0.008,-0.12649 0.0475,-0.12648 0.008,-0.1265 0.0162,-0.12649 0.14167,-0.12649 0.0122,-0.1265 0.008,-0.12649 0.0233,-0.12649 0.004,-0.1265 0.0435,-0.12649 0.004,-0.12649 0.0121,-0.1265 0.0193,-0.12649 0.008,-0.12649 0.004,-0.1265 0.008,-0.12649 0,-0.12648 17.59361,-0.1265 0.0121,-0.37948 0.008,-0.12649 0.0233,-0.25299 0,-0.12649 0.0516,-0.12649 0.004,-0.1265 0.0203,-0.12649 0.0111,-0.12649 0.008,-0.1265 0.087,-0.12649 0.0162,-0.12648 0.008,-0.1265 0.0394,-0.12649 0.007,-0.12649 0.0323,-0.1265 0.0152,-0.25299 0.33596,-0.12649 0.0243,-0.25299 0.0355,-0.12649 0.008,-0.12649 0.0789,-0.1265 0.0121,-0.12649 0.0315,-0.12649 0.0667,-0.12649 0.0243,-0.12649 0.0193,-0.13054 0.0243,-0.12649 0.004,-0.1265 0.56467,-0.12649 0.004,-0.12649 0.0233,-0.1265 0.0638,-0.25298 0.0435,-0.1265 0.0394,-0.12649 0.008,-0.12649 0.17811,-0.1265 0.007,-0.12649 0.0435,-0.12649 0.0243,-0.12649 0.0273,-0.12649 0.12245,-0.12649 0.0243,-0.1265 0.008,-0.12649 0.0506,-0.12649 0.004,-0.1265 0.0314,-0.12649 0.004,-0.12649 0.008,-0.1265 1.97632,-0.12649 0.0162,-0.25299 0.0272,-0.12649 0.008,-0.12649 0.0637,-0.12649 0.0112,-0.12649 0.0323,-0.1265 0.087,-0.12649 0.0354,-0.12649 0.0233,-0.1265 0.0435,-0.12649 0.004,-0.12649 0.32383,-0.1265 0.0121,-0.12649 0.0354,-0.12649 0.0516,-0.1265 0.0394,-0.12649 0.0516,-0.12649 0.0395,-0.1265 0.008,-0.12648 0.31978,-0.12649 0.004,-0.1265 0.0435,-0.12649 0.0232,-0.12649 0.0324,-0.1265 0.087,-0.12649 0.0314,-0.12649 0.0122,-0.1265 0.0627,-0.12649 0.008,-0.12649 0.0233,-0.1265 0.0162,-0.25298 2.00769,-0.1265 0.008,-0.12648 0.004,-0.12649 0.0272,-0.1265 0.008,-0.12649 0.0475,-0.12649 0.008,-0.1265 0.0233,-0.12649 0.11536,-0.12649 0.0273,-0.1265 0.0193,-0.12649 0.0475,-0.12649 0.008,-0.1265 0.17,-0.12649 0.008,-0.12649 0.0354,-0.1265 0.0435,-0.12649 0.0638,-0.25298 0.0233,-0.13054 0.004,-0.12649 0.54543,-0.1265 0.004,-0.12649 0.0233,-0.12649 0.0203,-0.1265 0.0233,-0.12649 0.0638,-0.12649 0.0314,-0.1265 0.008,-0.12649 0.083,-0.12649 0.004,-0.1265 0.0354,-0.12649 0.0233,-0.25298 0.33192,-0.12649 0.0162,-0.25299 0.0314,-0.12649 0.008,-0.12649 0.0394,-0.1265 0.008,-0.12649 0.0122,-0.12649 0.087,-0.1265 0.0233,-0.25298 0.0203,-0.1265 0,-0.12649 0.0506,-0.12648 0.004,-0.1265 0.0243,-0.25298 0.004,-0.1265 0.008,-0.12649 0.003,-0.12649 0,-0.1265 9.89881,-0.12649 0,-0.12649 0.0111,-0.37948 0.0121,-0.1265 0.008,-0.12649 0.004,-0.12649 0.0273,-0.12649 0.004,-0.12649 0.0162,-0.1265 0.004,-0.12649 0.007,-0.12649 0.0952,-0.1265 0.0121,-0.12649 0.004,-0.12649 0.0314,-0.1265 0.004,-0.12649 0.0272,-0.12649 0.0162,-0.25299 0.17,-0.12649 0.0121,-0.1265 0.007,-0.12648 0.0283,-0.12649 0.008,-0.1265 0.0587,-0.12649 0.008,-0.12649 0.0193,-0.1265 0.0405,-0.12649 0.0233,-0.25299 0.0162,-0.12649 0,-0.12649 0.60818,-0.1265 0.004,-0.12649 0.0121,-0.12649 0.0193,-0.1265 0.0162,-0.12648 0.0314,-0.12649 0.0243,-0.13054 0.007,-0.1265 0.11536,-0.12649 0.008,-0.12649 0.0354,-0.1265 0.0152,-0.12649 0.0202,-0.12649 0.10221,-0.1265 0.0202,-0.12649 0.0121,-0.1265 0.0395,-0.12649 0.008,-0.12649 0.0272,-0.1265 0.004,-0.12648 0.008,-0.12649 0.76605,-0.1265 0.0162,-0.25298 0.0202,-0.1265 0.007,-0.12649 0.0516,-0.12649 0.008,-0.1265 0.0233,-0.12649 0.0597,-0.12649 0.0233,-0.1265 0.0162,-0.12649 0.0273,-0.12649 0.004,-0.1265 0.21352,-0.12648 0.004,-0.12649 0.0709,-0.37948 0.0283,-0.1265 0.0192,-0.12649 0.004,-0.12649 0.14673,-0.1265 0.004,-0.12649 0.0193,-0.12649 0.0243,-0.25299 0.0395,-0.12649 0.0111,-0.1265 0.004,-0.12649 0.0283,-0.12648 0,-0.1265 0.0112,-0.12649 0.004,-0.12649 0,-0.1265 2.51063,-0.12649 0,-0.12649 0.004,-0.1265 0.008,-0.12649 0.003,-0.12649 0.0162,-0.1265 0.004,-0.12649 0.008,-0.12649 0.0476,-0.1265 0.007,-0.12649 0.0121,-0.12648 0.0162,-0.1265 0.004,-0.12649 0.083,-0.1265 0.004,-0.12649 0.0152,-0.12649 0.0243,-0.1265 0.0314,-0.25298 0.0122,-0.1265 0.004,-0.12649 0.26817,-0.12649 0.004,-0.1265 0.0162,-0.12649 0.0111,-0.12649 0.0162,-0.12649 0.0435,-0.12649 0.0203,-0.12649 0.007,-0.13054 0.0516,-0.1265 0.004,-0.12649 0.0243,-0.12649 0.0152,-0.25299 0.26917,-0.12649 0.0152,-0.25299 0.0243,-0.12649 0.004,-0.1265 0.0314,-0.12649 0.008,-0.12648 0.0121,-0.1265 0.0709,-0.12649 0.0121,-0.12649 0.007,-0.1265 0.0202,-0.12649 0.004,-0.12649 0.0475,-0.1265 0.004,-0.12649 0.0233,-0.25299 0.004,-0.12649 0.008,-0.1265 0.004,-0.12649 0,-0.12649 1.30439,-0.1265 0,-0.12648 0.0112,-0.37948 0.0121,-0.12649 0.008,-0.1265 0.004,-0.12649 0.0272,-0.12649 0,-0.1265 0.0162,-0.12649 0.004,-0.12649 0.008,-0.1265 0.0789,-0.12649 0.008,-0.12649 0.003,-0.1265 0.0243,-0.12648 0,-0.12649 0.0233,-0.1265 0.004,-0.12649 0.008,-0.12649 0.0992,-0.1265 0.0152,-0.25298 0.0162,-0.1265 0,-0.12649 0.0354,-0.12649 0.004,-0.1265 0.008,-0.12649 0.0193,-0.12649 0.008,-0.1265 0.004,-0.12648 0.008,-0.12649 0,-0.1265 0.32787,-0.12649 0.0122,-0.37948 0.0152,-0.25299 0.0121,-0.12649 0,-0.12649 0.0395,-0.1265 0,-0.12649 0.0122,-0.12649 0.008,-0.1265 0.004,-0.12648 0.0354,-0.12649 0.008,-0.1265 0.004,-0.12649 0.0111,-0.13054 0.004,-0.1265 0.008,-0.12649 0.004,-0.12649 0,-0.1265 0.17001,-0.12649 0.004,-0.12649 0,-0.1265 0.008,-0.25298 0.0112,-0.1265 0.008,-0.25297 0.0121,-0.1265 0.008,-0.12649 0,-0.12649 0.007,-0.1265 0,-0.12649 0.0435,-0.12649 0,-0.1265 0.0121,-0.37948 0.008,-0.12649 0.004,-0.12649 0,-0.1265 0.0233,-0.12649 0,-0.25298 0.004,-0.12649 0,-0.12649 0.008,-0.1265 0,-0.25298 0.004,-0.1265 0,-0.12649 0.004,-0.12649 0,-0.25299"
       style="fill:none;stroke:#00688b;stroke-width:1.61910701;stroke-linecap:square;stroke-linejoin:miter;stroke-miterlimit:3.25;stroke-dasharray:none;stroke-opacity:1"
       id="path18-5"
       inkscape:connector-curvature="0" />
    <path
       d="m 253.89966,511.82099 -351.602245,0"
       style="fill:none;stroke:#000000;stroke-width:0.50597095;stroke-linecap:square;stroke-linejoin:miter;stroke-miterlimit:3.25;stroke-dasharray:none;stroke-opacity:1"
       id="path20-3"
       inkscape:connector-curvature="0" />
    <path
       d="m -97.702585,511.82099 0,-217.30238"
       style="fill:none;stroke:#000000;stroke-width:0.50597095;stroke-linecap:square;stroke-linejoin:miter;stroke-miterlimit:3.25;stroke-dasharray:none;stroke-opacity:1"
       id="path22-5"
       inkscape:connector-curvature="0" />
    <path
       d="m -97.702585,294.51861 351.602245,0"
       style="fill:none;stroke:#000000;stroke-width:0.50597095;stroke-linecap:square;stroke-linejoin:miter;stroke-miterlimit:3.25;stroke-dasharray:none;stroke-opacity:1"
       id="path24-6"
       inkscape:connector-curvature="0" />
    <path
       d="m 253.89966,294.51861 0,217.30238"
       style="fill:none;stroke:#000000;stroke-width:0.50597095;stroke-linecap:square;stroke-linejoin:miter;stroke-miterlimit:3.25;stroke-dasharray:none;stroke-opacity:1"
       id="path26"
       inkscape:connector-curvature="0" />
    <path
       d="m -97.702585,507.47672 4.066998,0"
       style="fill:none;stroke:#000000;stroke-width:0.50597095;stroke-linecap:butt;stroke-linejoin:miter;stroke-miterlimit:3.25;stroke-dasharray:none;stroke-opacity:1"
       id="path28"
       inkscape:connector-curvature="0" />
    <text
       y="514.03021"
       x="-110.14643"
       style="font-variant:normal;font-weight:normal;font-size:20.2388382px;font-family:'Linux Libertine Display';-inkscape-font-specification:LinLibertineDisplay;writing-mode:lr-tb;fill:#000000;fill-opacity:1;fill-rule:nonzero;stroke:none"
       id="text30-2">
      <tspan
         x="-110.14643"
         y="514.03021"
         id="tspan32-9">0</tspan>
    </text>
    <path
       d="m -97.702585,305.38484 4.066998,0"
       style="fill:none;stroke:#000000;stroke-width:0.50597095;stroke-linecap:butt;stroke-linejoin:miter;stroke-miterlimit:3.25;stroke-dasharray:none;stroke-opacity:1"
       id="path34"
       inkscape:connector-curvature="0" />
    <text
       y="311.93921"
       x="-110.14643"
       style="font-variant:normal;font-weight:normal;font-size:20.2388382px;font-family:'Linux Libertine Display';-inkscape-font-specification:LinLibertineDisplay;writing-mode:lr-tb;fill:#000000;fill-opacity:1;fill-rule:nonzero;stroke:none"
       id="text36">
      <tspan
         x="-110.14643"
         y="311.93921"
         id="tspan38">1</tspan>
      <tspan
         x="72.361855"
         y="535.98254"
         id="tspan40">E</tspan>
    </text>
    <path
       d="m 312.6598,291.39902 383.53976,0 0,250.36623 -383.53976,0 0,-250.36623 z"
       style="fill:none;stroke:#ffffff;stroke-width:0.03196165;stroke-linecap:butt;stroke-linejoin:miter;stroke-miterlimit:10;stroke-dasharray:none;stroke-opacity:1"
       id="path16-2"
       inkscape:connector-curvature="0" />
    <path
       d="m 350.09008,499.8369 0.004,-0.52098 0.016,-0.5199 0.0256,-0.52418 0.0287,-0.51991 0.0544,-0.52524 0.0457,-0.5199 0.0128,-0.52417 0.22054,-0.51991 0.016,-0.52525 0.0874,-0.5199 0.0458,-0.51991 0.05,-0.52417 0.39099,-0.52098 0.0672,-0.52417 0.0373,-0.51991 0.17899,-0.52417 0.0246,-0.52098 0.15022,-0.52416 0.033,-0.51991 0.0457,-0.51991 1.53203,-0.52523 0.0576,-0.51992 0.0586,-0.52417 0.17046,-0.51991 0.033,-0.52417 0.39206,-0.52098 0.0533,-0.52416 0.15023,-0.51992 0.31216,-0.5199 0.12039,-0.52524 0.0916,-0.51991 0.12145,-0.52417 0.016,-0.51991 2.93835,-0.52524 0.0245,-0.5199 0.12572,-0.52417 0.16194,-0.51992 0.1662,-0.52523 0.24184,-0.51991 0.19923,-0.51992 0.0544,-0.52416 0.95352,-0.52098 0.0417,-0.52417 0.25782,-0.5199 0.12891,-0.52418 0.15022,-0.52097 0.69463,-0.52418 0.13743,-0.5199 0.0618,-0.51991 0.27913,-0.52417 0.0373,-0.52098 0.17473,-0.52417 0.0341,-0.51991 0.0458,-0.52417 11.17806,-0.52098 0.0543,-0.52417 0.0533,-0.51991 0.18751,-0.5199 0.0415,-0.52525 0.46239,-0.5199 0.0788,-0.52418 0.21627,-0.5199 0.59981,-0.52524 0.22054,-0.51991 0.18325,-0.52416 0.28658,-0.51992 0.0458,-0.52098 2.27673,-0.52416 0.0575,-0.51992 0.27061,-0.52417 0.34626,-0.52097 0.28658,-0.52417 0.34945,-0.51991 0.27061,-0.52417 0.0628,-0.51991 2.22986,-0.52097 0.0458,-0.52417 0.29618,-0.51992 0.18325,-0.52416 0.22799,-0.52098 0.60834,-0.52417 0.21627,-0.51991 0.0788,-0.52417 0.45812,-0.52098 0.0415,-0.5199 0.18325,-0.52418 0.0543,-0.51991 0.0533,-0.52524 18.4994,-0.5199 0.066,-0.52417 0.0415,-0.51991 0.24184,-0.52523 0.0501,-0.51992 0.39952,-0.51991 0.0916,-0.52417 0.20349,-0.52098 1.0281,-0.52417 0.23332,-0.5199 0.20349,-0.52418 0.40805,-0.5199 0.0661,-0.52524 1.61087,-0.51991 0.0874,-0.51991 0.34518,-0.52417 0.43256,-0.52098 0.29617,-0.52417 0.29937,-0.51991 0.23332,-0.52417 0.0458,-0.52097 5.43881,-0.52417 0.0373,-0.51992 0.27061,-0.5199 0.20455,-0.52524 0.2706,-0.51991 0.70742,-0.52417 0.33667,-0.51991 0.12465,-0.52524 0.88214,-0.5199 0.0842,-0.52417 0.39527,-0.51992 0.12891,-0.52097 0.13743,-0.52417 3.97817,-0.51991 0.12464,-0.52417 0.0788,-0.51991 0.39632,-0.52524 0.0703,-0.5199 0.48262,-0.52418 0.10015,-0.5199 0.1907,-0.52098 1.0867,-0.52417 0.15022,-0.51991 0.12465,-0.52417 0.26209,-0.52098 0.0415,-0.52417 0.66161,-0.51991 0.0415,-0.52417 0.13317,-0.52098 0.15875,-0.5199 0.0874,-0.52418 0.0788,-0.5199 0.0585,-0.52524 0.0117,-0.51991 66.96179,-0.52417 0.009,-0.51991 0.0746,-0.52417 0.0628,-0.52098 0.0874,-0.51991 0.24504,-0.52417 0.14596,-0.5199 0.0543,-0.52524 0.54015,-0.51992 0.0501,-0.52417 0.28339,-0.5199 0.11613,-0.52524 0.13317,-0.5199 1.7483,-0.51992 0.18325,-0.52417 0.10334,-0.52097 0.52843,-0.52417 0.0874,-0.51992 0.52525,-0.52416 0.10759,-0.52098 0.17899,-0.52417 2.89253,-0.51991 0.18751,-0.51991 0.17473,-0.52524 0.46983,-0.5199 0.0959,-0.52418 1.0068,-0.51991 0.12571,-0.52416 0.33666,-0.52098 0.62859,-0.52417 0.24504,-0.51991 0.17152,-0.51992 0.22053,-0.52523 0.0287,-0.51991 10.49514,-0.52417 0.0416,-0.5199 0.20455,-0.52525 0.27487,-0.5199 0.28659,-0.52418 0.46238,-0.5199 0.38247,-0.52098 0.10441,-0.52417 1.77707,-0.51991 0.0916,-0.52417 0.54868,-0.52098 0.2706,-0.52416 0.31216,-0.51992 1.63538,-0.52417 0.30469,-0.52097 0.1449,-0.52417 0.6616,-0.51992 0.0874,-0.5199 0.44107,-0.52417 0.0798,-0.52098 0.1204,-0.52417 10.45359,-0.51991 0.10441,-0.52417 0.10014,-0.52097 0.33666,-0.52417 0.0756,-0.51991 0.77774,-0.51991 0.12465,-0.52524 0.33773,-0.51991 0.84486,-0.52417 0.30789,-0.51991 0.24078,-0.52524 0.36649,-0.5199 0.0544,-0.52418 2.96711,-0.5199 0.0629,-0.52098 0.2738,-0.52417 0.34199,-0.51991 0.2866,-0.52417 0.34944,-0.52098 0.2706,-0.52417 0.0629,-0.51991 1.81436,-0.52417 0.0373,-0.51991 0.24184,-0.52097 0.1449,-0.52418 0.17472,-0.5199 0.45385,-0.52417 0.15022,-0.52098 0.0544,-0.52417 0.30789,-0.51991 0.0246,-0.52417 0.1204,-0.52098 0.0341,-0.51991 0.0331,-0.52417 66.94899,-0.5199 0.033,-0.52524 0.0213,-0.51991 0.12891,-0.52417 0.0287,-0.51991 0.22053,-0.52418 0.0544,-0.52096 0.11612,-0.51992 0.59556,-0.52417 0.14916,-0.52097 0.12997,-0.52417 0.25782,-0.51992 0.0458,-0.52416 1.1602,-0.51992 0.0672,-0.52523 0.25783,-0.51991 0.32494,-0.51991 0.23758,-0.52417 0.25356,-0.52097 0.19497,-0.52418 0.0415,-0.5199 4.03356,-0.52417 0.0414,-0.52098 0.27806,-0.52417 0.20457,-0.51991 0.2706,-0.51992 0.72767,-0.52523 0.33346,-0.51991 0.12464,-0.52417 0.8651,-0.5199 0.0841,-0.52418 0.39099,-0.52097 0.12465,-0.52418 0.13317,-0.5199 5.38554,-0.52098 0.14171,-0.52417 0.0906,-0.51991 0.47516,-0.52417 0.0917,-0.51991 0.62431,-0.52523 0.13744,-0.51992 0.26208,-0.52417 1.49367,-0.51991 0.23333,-0.52097 0.19923,-0.52418 0.40804,-0.5199 0.0703,-0.52417 1.13251,-0.52097 0.0703,-0.52417 0.24185,-0.51992 0.27913,-0.52416 0.16194,-0.52098 0.15449,-0.51992 0.1076,-0.52416 0.0213,-0.51991 18.52284,-0.52418 0.0128,-0.52096 0.11613,-0.52418 0.0959,-0.51991 0.1417,-0.52417 0.36223,-0.52097 0.21627,-0.51991 0.0788,-0.52417 0.72021,-0.51992 0.0703,-0.52523 0.35797,-0.51991 0.1417,-0.52417 0.15874,-0.51991 2.15954,-0.52524 0.18325,-0.51991 0.10761,-0.5199 0.52523,-0.52418 0.0916,-0.52097 0.5199,-0.52418 0.10334,-0.5199 0.18326,-0.52417 2.20641,-0.52098 0.15342,-0.52417 0.13743,-0.51991 0.35371,-0.51991 0.0672,-0.52417 0.71167,-0.52098 0.0745,-0.52417 0.21627,-0.5199 0.37076,-0.52418 0.13743,-0.52097 0.0991,-0.52417 0.11719,-0.51991 0.016,-0.51991 11.19936,-0.52523 0.0128,-0.51992 0.0788,-0.52417 0.10868,-0.51991 0.12039,-0.52523 0.19496,-0.51991 0.16727,-0.52417 0.0458,-0.51992 0.76175,-0.52096 0.0447,-0.52418 0.26315,-0.51991 0.12465,-0.52416 0.1449,-0.52098 0.8864,-0.52418 0.15448,-0.5199 0.0746,-0.52417 0.35371,-0.51992 0.0501,-0.52097 0.26209,-0.52417 0.05,-0.51991 0.0756,-0.52417 2.90851,-0.52098 0.0585,-0.52417 0.0575,-0.5199 0.17473,-0.52418 0.0384,-0.52097 0.38248,-0.52418 0.0544,-0.5199 0.14915,-0.51991 0.32068,-0.52524 0.1172,-0.51991 0.0874,-0.52417 0.12038,-0.51991 0.0159,-0.52417 1.55333,-0.52098 0.0159,-0.52417 0.0746,-0.51991 0.0959,-0.52097 0.0916,-0.52417 0.12039,-0.51991 0.0916,-0.52417 0.0255,-0.51991 0.41551,-0.52523 0.017,-0.51992 0.0874,-0.52416 0.0457,-0.51992 0.0501,-0.52098 0.2003,-0.52416 0.0373,-0.51991 0.0203,-0.52418 0.0714,-0.52096 0.008,-0.52418 0.0458,-0.5199 0.004,-0.52418 0.0128,-0.52097"
       style="fill:none;stroke:#00688b;stroke-width:1.70462108;stroke-linecap:square;stroke-linejoin:miter;stroke-miterlimit:3.25;stroke-dasharray:none;stroke-opacity:1"
       id="path18-7"
       inkscape:connector-curvature="0" />
    <path
       d="m 695.93321,510.74434 -352.90133,0"
       style="fill:none;stroke:#000000;stroke-width:0.5326941;stroke-linecap:square;stroke-linejoin:miter;stroke-miterlimit:3.25;stroke-dasharray:none;stroke-opacity:1"
       id="path20-09"
       inkscape:connector-curvature="0" />
    <path
       d="m 343.03188,510.74434 0,-218.1052"
       style="fill:none;stroke:#000000;stroke-width:0.5326941;stroke-linecap:square;stroke-linejoin:miter;stroke-miterlimit:3.25;stroke-dasharray:none;stroke-opacity:1"
       id="path22-3"
       inkscape:connector-curvature="0" />
    <path
       d="m 343.03188,292.63914 352.90133,0"
       style="fill:none;stroke:#000000;stroke-width:0.5326941;stroke-linecap:square;stroke-linejoin:miter;stroke-miterlimit:3.25;stroke-dasharray:none;stroke-opacity:1"
       id="path24-60"
       inkscape:connector-curvature="0" />
    <path
       d="m 695.93321,292.63914 0,218.1052"
       style="fill:none;stroke:#000000;stroke-width:0.5326941;stroke-linecap:square;stroke-linejoin:miter;stroke-miterlimit:3.25;stroke-dasharray:none;stroke-opacity:1"
       id="path26-6"
       inkscape:connector-curvature="0" />
    <path
       d="m 343.03188,500.36106 4.16568,0"
       style="fill:none;stroke:#000000;stroke-width:0.5326941;stroke-linecap:butt;stroke-linejoin:miter;stroke-miterlimit:3.25;stroke-dasharray:none;stroke-opacity:1"
       id="path28-2"
       inkscape:connector-curvature="0" />
    <text
       y="507.26044"
       x="312.65979"
       style="font-variant:normal;font-weight:normal;font-size:21.30776405px;font-family:Mathematica;-inkscape-font-specification:Mathematica;writing-mode:lr-tb;fill:#000000;fill-opacity:1;fill-rule:nonzero;stroke:none"
       id="text30-6">
      <tspan
         x="312.65979"
         y="507.26044"
         id="tspan32-1">τ</tspan>
    </text>
    <text
       style="font-variant:normal;font-weight:normal;font-size:15.12767982px;font-family:Mathematica;-inkscape-font-specification:Mathematica;writing-mode:lr-tb;fill:#000000;fill-opacity:1;fill-rule:nonzero;stroke:none"
       id="text34-8"
       x="326.17151"
       y="499.5896">
      <tspan
         x="326.17151"
         y="499.5896"
         id="tspan36-7">-</tspan>
    </text>
    <text
       y="499.5896"
       x="332.36835"
       style="font-variant:normal;font-weight:normal;font-size:15.12767982px;font-family:'Linux Libertine Display';-inkscape-font-specification:LinLibertineDisplay;writing-mode:lr-tb;fill:#000000;fill-opacity:1;fill-rule:nonzero;stroke:none"
       id="text38">
      <tspan
         x="332.36835"
         y="499.5896"
         id="tspan40-9">2</tspan>
    </text>
    <path
       d="m 343.03188,303.54232 4.16568,0"
       style="fill:none;stroke:#000000;stroke-width:0.5326941;stroke-linecap:butt;stroke-linejoin:miter;stroke-miterlimit:3.25;stroke-dasharray:none;stroke-opacity:1"
       id="path42"
       inkscape:connector-curvature="0" />
    <text
       y="310.44287"
       x="312.65979"
       style="font-variant:normal;font-weight:normal;font-size:21.30776405px;font-family:Mathematica;-inkscape-font-specification:Mathematica;writing-mode:lr-tb;fill:#000000;fill-opacity:1;fill-rule:nonzero;stroke:none"
       id="text44-2">
      <tspan
         x="312.65979"
         y="310.44287"
         id="tspan46-0">τ</tspan>
    </text>
    <text
       style="font-variant:normal;font-weight:normal;font-size:15.12767982px;font-family:Mathematica;-inkscape-font-specification:Mathematica;writing-mode:lr-tb;fill:#000000;fill-opacity:1;fill-rule:nonzero;stroke:none"
       id="text48-2"
       x="327.87613"
       y="302.77203">
      <tspan
         x="327.87613"
         y="302.77203"
         id="tspan50-3">-</tspan>
    </text>
    <text
       y="302.77203"
       x="332.36835"
       style="font-variant:normal;font-weight:normal;font-size:15.12767982px;font-family:'Linux Libertine Display';-inkscape-font-specification:LinLibertineDisplay;writing-mode:lr-tb;fill:#000000;fill-opacity:1;fill-rule:nonzero;stroke:none"
       id="text52">
      <tspan
         x="332.36835"
         y="302.77203"
         id="tspan54">1</tspan>
    </text>
    <text
       y="536.1795"
       x="513.44232"
       style="font-variant:normal;font-weight:normal;font-size:21.30776405px;font-family:'Linux Libertine Display';-inkscape-font-specification:LinLibertineDisplay;writing-mode:lr-tb;fill:#000000;fill-opacity:1;fill-rule:nonzero;stroke:none"
       id="text56">
      <tspan
         x="513.44232"
         y="536.1795"
         id="tspan58">E</tspan>
    </text>
  </g>
</svg>
