<?xml version="1.0" encoding="UTF-8" standalone="no"?>
<svg
   xmlns:ns1="http://www.iki.fi/pav/software/textext/"
   xmlns:dc="http://purl.org/dc/elements/1.1/"
   xmlns:cc="http://creativecommons.org/ns#"
   xmlns:rdf="http://www.w3.org/1999/02/22-rdf-syntax-ns#"
   xmlns:svg="http://www.w3.org/2000/svg"
   xmlns="http://www.w3.org/2000/svg"
   xmlns:xlink="http://www.w3.org/1999/xlink"
   xmlns:sodipodi="http://sodipodi.sourceforge.net/DTD/sodipodi-0.dtd"
   xmlns:inkscape="http://www.inkscape.org/namespaces/inkscape"
   version="1.0"
   width="900"
   height="900"
   id="svg84"
   sodipodi:docname="Sierpinski_carpet_5.svg"
   inkscape:version="0.92.4 5da689c313, 2019-01-14">
  <metadata
     id="metadata88">
    <rdf:RDF>
      <cc:Work
         rdf:about="">
        <dc:format>image/svg+xml</dc:format>
        <dc:type
           rdf:resource="http://purl.org/dc/dcmitype/StillImage" />
      </cc:Work>
    </rdf:RDF>
  </metadata>
  <sodipodi:namedview
     pagecolor="#ffffff"
     bordercolor="#666666"
     borderopacity="1"
     objecttolerance="10"
     gridtolerance="10"
     guidetolerance="10"
     inkscape:pageopacity="0"
     inkscape:pageshadow="2"
     inkscape:window-width="1920"
     inkscape:window-height="1029"
     id="namedview86"
     showgrid="false"
     showguides="false"
     inkscape:snap-bbox="true"
     inkscape:zoom="0.52444444"
     inkscape:cx="927.08158"
     inkscape:cy="572.85258"
     inkscape:window-x="0"
     inkscape:window-y="27"
     inkscape:window-maximized="1"
     inkscape:current-layer="svg84" />
  <defs
     id="defs62">
    <symbol
       id="s"
       viewBox="0 0 3 3">
      <rect
         fill="#000"
         width="1"
         height="1"
         x="1"
         y="1"
         id="rect2" />
    </symbol>
    <symbol
       id="s1"
       viewBox="0 0 900 900">
      <use
         xlink:href="#s"
         x="0"
         y="0"
         width="900"
         height="900"
         id="use5" />
      <use
         xlink:href="#s"
         x="0"
         y="0"
         width="300"
         height="300"
         id="use7" />
      <use
         xlink:href="#s"
         x="300"
         y="0"
         width="300"
         height="300"
         id="use9" />
      <use
         xlink:href="#s"
         x="600"
         y="0"
         width="300"
         height="300"
         id="use11" />
      <use
         xlink:href="#s"
         x="0"
         y="300"
         width="300"
         height="300"
         id="use13" />
      <use
         xlink:href="#s"
         x="600"
         y="300"
         width="300"
         height="300"
         id="use15" />
      <use
         xlink:href="#s"
         x="0"
         y="600"
         width="300"
         height="300"
         id="use17" />
      <use
         xlink:href="#s"
         x="300"
         y="600"
         width="300"
         height="300"
         id="use19" />
      <use
         xlink:href="#s"
         x="600"
         y="600"
         width="300"
         height="300"
         id="use21" />
    </symbol>
    <symbol
       id="s2"
       viewBox="0 0 900 900">
      <use
         xlink:href="#s"
         x="0"
         y="0"
         width="900"
         height="900"
         id="use24" />
      <use
         xlink:href="#s1"
         x="0"
         y="0"
         width="300"
         height="300"
         id="use26" />
      <use
         xlink:href="#s1"
         x="300"
         y="0"
         width="300"
         height="300"
         id="use28" />
      <use
         xlink:href="#s1"
         x="600"
         y="0"
         width="300"
         height="300"
         id="use30" />
      <use
         xlink:href="#s1"
         x="0"
         y="300"
         width="300"
         height="300"
         id="use32" />
      <use
         xlink:href="#s1"
         x="600"
         y="300"
         width="300"
         height="300"
         id="use34" />
      <use
         xlink:href="#s1"
         x="0"
         y="600"
         width="300"
         height="300"
         id="use36" />
      <use
         xlink:href="#s1"
         x="300"
         y="600"
         width="300"
         height="300"
         id="use38" />
      <use
         xlink:href="#s1"
         x="600"
         y="600"
         width="300"
         height="300"
         id="use40" />
    </symbol>
    <symbol
       id="s3"
       viewBox="0 0 900 900">
      <use
         xlink:href="#s"
         x="0"
         y="0"
         width="900"
         height="900"
         id="use43" />
      <use
         xlink:href="#s2"
         x="0"
         y="0"
         width="300"
         height="300"
         id="use45" />
      <use
         xlink:href="#s2"
         x="300"
         y="0"
         width="300"
         height="300"
         id="use47" />
      <use
         xlink:href="#s2"
         x="600"
         y="0"
         width="300"
         height="300"
         id="use49" />
      <use
         xlink:href="#s2"
         x="0"
         y="300"
         width="300"
         height="300"
         id="use51" />
      <use
         xlink:href="#s2"
         x="600"
         y="300"
         width="300"
         height="300"
         id="use53" />
      <use
         xlink:href="#s2"
         x="0"
         y="600"
         width="300"
         height="300"
         id="use55" />
      <use
         xlink:href="#s2"
         x="300"
         y="600"
         width="300"
         height="300"
         id="use57" />
      <use
         xlink:href="#s2"
         x="600"
         y="600"
         width="300"
         height="300"
         id="use59" />
    </symbol>
  </defs>
  <rect
     width="900"
     height="900"
     fill="#fff"
     id="rect64" />
  <use
     xlink:href="#s"
     x="0"
     y="0"
     width="900"
     height="900"
     id="use66" />
  <use
     xlink:href="#s3"
     x="0"
     y="0"
     width="300"
     height="300"
     id="use68" />
  <use
     xlink:href="#s3"
     x="300"
     y="0"
     width="300"
     height="300"
     id="use70"
     style="stroke:none;stroke-opacity:0.23574145" />
  <use
     xlink:href="#s3"
     x="600"
     y="0"
     width="300"
     height="300"
     id="use72" />
  <use
     xlink:href="#s3"
     x="0"
     y="300"
     width="300"
     height="300"
     id="use74" />
  <use
     xlink:href="#s3"
     x="600"
     y="300"
     width="300"
     height="300"
     id="use76" />
  <use
     xlink:href="#s3"
     x="0"
     y="600"
     width="300"
     height="300"
     id="use78" />
  <use
     xlink:href="#s3"
     x="300"
     y="600"
     width="300"
     height="300"
     id="use80" />
  <use
     xlink:href="#s3"
     x="600"
     y="600"
     width="300"
     height="300"
     id="use82" />
  <rect
     style="color:#000000;clip-rule:nonzero;display:inline;overflow:visible;visibility:visible;opacity:1;isolation:auto;mix-blend-mode:normal;color-interpolation:sRGB;color-interpolation-filters:linearRGB;solid-color:#000000;solid-opacity:1;fill:none;fill-opacity:1;fill-rule:evenodd;stroke:#ff5535;stroke-width:6;stroke-linecap:round;stroke-linejoin:miter;stroke-miterlimit:4;stroke-dasharray:none;stroke-dashoffset:0;stroke-opacity:1;paint-order:stroke fill markers;color-rendering:auto;image-rendering:auto;shape-rendering:auto;text-rendering:auto;enable-background:accumulate"
     id="rect900"
     width="311.51697"
     height="301.18231"
     x="289.84659"
     y="-0.12597437" />
  <g
     id="g957"
     transform="translate(333.14398,-384.2221)">
    <rect
       id="rect64-3"
       height="900"
       width="900"
       style="fill:#ffffff"
       x="775.60181"
       y="382.09613" />
    <use
       id="use66-6"
       height="900"
       width="900"
       y="0"
       x="0"
       xlink:href="#s"
       transform="translate(775.60182,382.09613)" />
    <use
       id="use68-7"
       height="300"
       width="300"
       y="0"
       x="0"
       xlink:href="#s3"
       transform="translate(775.60182,382.09613)" />
    <use
       style="stroke:none;stroke-opacity:0.23574147"
       id="use70-5"
       height="300"
       width="300"
       y="0"
       x="300"
       xlink:href="#s3"
       transform="translate(775.60182,382.09613)" />
    <use
       id="use72-3"
       height="300"
       width="300"
       y="0"
       x="600"
       xlink:href="#s3"
       transform="translate(775.60182,382.09613)" />
    <use
       id="use74-5"
       height="300"
       width="300"
       y="300"
       x="0"
       xlink:href="#s3"
       transform="translate(775.60182,382.09613)" />
    <use
       id="use76-6"
       height="300"
       width="300"
       y="300"
       x="600"
       xlink:href="#s3"
       transform="translate(775.60182,382.09613)" />
    <use
       id="use78-2"
       height="300"
       width="300"
       y="600"
       x="0"
       xlink:href="#s3"
       transform="translate(775.60182,382.09613)" />
    <use
       id="use80-9"
       height="300"
       width="300"
       y="600"
       x="300"
       xlink:href="#s3"
       transform="translate(775.60182,382.09613)" />
    <use
       id="use82-1"
       height="300"
       width="300"
       y="600"
       x="600"
       xlink:href="#s3"
       transform="translate(775.60182,382.09613)" />
  </g>
  <path
     style="fill:#ff5535;fill-rule:evenodd;stroke:#ff5535;stroke-width:6;stroke-linecap:butt;stroke-linejoin:miter;stroke-opacity:1;fill-opacity:1;stroke-miterlimit:4;stroke-dasharray:none"
     d="M 289.84659,-0.12597437 H 1109.7458"
     id="path959"
     inkscape:connector-curvature="0" />
  <path
     style="fill:#ff5535;fill-rule:evenodd;stroke:#ff5535;stroke-width:6;stroke-linecap:butt;stroke-linejoin:miter;stroke-opacity:1;fill-opacity:1;stroke-miterlimit:4;stroke-dasharray:none"
     d="M 289.84659,301.05634 1108.7458,897.87409"
     id="path961"
     inkscape:connector-curvature="0" />
  <rect
     style="color:#000000;clip-rule:nonzero;display:inline;overflow:visible;visibility:visible;opacity:1;isolation:auto;mix-blend-mode:normal;color-interpolation:sRGB;color-interpolation-filters:linearRGB;solid-color:#000000;solid-opacity:1;fill:none;fill-opacity:1;fill-rule:evenodd;stroke:#ff5535;stroke-width:6;stroke-linecap:round;stroke-linejoin:miter;stroke-miterlimit:4;stroke-dasharray:none;stroke-dashoffset:0;stroke-opacity:1;paint-order:stroke fill markers;color-rendering:auto;image-rendering:auto;shape-rendering:auto;text-rendering:auto;enable-background:accumulate"
     id="rect900-7"
     width="897.99994"
     height="899.00006"
     x="1110.7458"
     y="-1.12597" />
  <circle
     style="color:#000000;clip-rule:nonzero;display:inline;overflow:visible;visibility:visible;opacity:1;isolation:auto;mix-blend-mode:normal;color-interpolation:sRGB;color-interpolation-filters:linearRGB;solid-color:#000000;solid-opacity:1;fill:#ff5535;fill-opacity:1;fill-rule:evenodd;stroke:#ff5535;stroke-width:2.55240774;stroke-linecap:round;stroke-linejoin:miter;stroke-miterlimit:4;stroke-dasharray:none;stroke-dashoffset:0;stroke-opacity:1;paint-order:stroke fill markers;color-rendering:auto;image-rendering:auto;shape-rendering:auto;text-rendering:auto;enable-background:accumulate"
     id="path982"
     cx="426.12616"
     cy="161.12427"
     r="4.0050354" />
  <circle
     style="color:#000000;clip-rule:nonzero;display:inline;overflow:visible;visibility:visible;opacity:1;isolation:auto;mix-blend-mode:normal;color-interpolation:sRGB;color-interpolation-filters:linearRGB;solid-color:#000000;solid-opacity:1;fill:#ff5535;fill-opacity:1;fill-rule:evenodd;stroke:#ff5535;stroke-width:7.656;stroke-linecap:round;stroke-linejoin:miter;stroke-miterlimit:4;stroke-dasharray:none;stroke-dashoffset:0;stroke-opacity:1;paint-order:stroke fill markers;color-rendering:auto;image-rendering:auto;shape-rendering:auto;text-rendering:auto;enable-background:accumulate"
     id="path982-0"
     cx="1472.3401"
     cy="535.28571"
     r="4.0050354" />
  <g
     id="g1066"
     ns1:jacobian_sqrt="10.184626"
     ns1:alignment="middle center"
     ns1:scale="7.63846923561"
     ns1:preamble="/usr/share/inkscape/extensions/textext/default_packages.tex"
     ns1:text="$O$"
     ns1:pdfconverter="pdf2svg"
     ns1:texconverter="pdflatex"
     ns1:version="0.11.0"
     transform="matrix(6.466876,0,0,6.466876,-547.41731,-524.69164)">
    <g
       id="surface1">
      <g
         id="g1063"
         style="fill:#000000;fill-opacity:1">
        <path
           id="path1061"
           d="m 159.83848,100.04099 c 0,-1.609385 -1.0625,-2.687505 -2.54688,-2.687505 -2.14062,0 -4.34375,2.26562 -4.34375,4.593755 0,1.65625 1.125,2.65625 2.5625,2.65625 2.10938,0 4.32813,-2.1875 4.32813,-4.5625 z m -4.28125,4.29687 c -0.98438,0 -1.67188,-0.79687 -1.67188,-2.10937 0,-0.45313 0.14063,-1.90625 0.90625,-3.062505 0.6875,-1.04688 1.65625,-1.5625 2.45313,-1.5625 0.8125,0 1.70312,0.5625 1.70312,2.04687 0,0.718755 -0.26562,2.265635 -1.25,3.500005 -0.48437,0.60938 -1.29687,1.1875 -2.14062,1.1875 z m 0,0"
           style="fill:#ff5535;fill-opacity:1;stroke:none;stroke-width:0"
           inkscape:connector-curvature="0" />
      </g>
    </g>
  </g>
  <g
     id="g1455"
     style="fill:#ff5535;fill-opacity:1"
     ns1:jacobian_sqrt="10.184626"
     inkscapeversion="0.92.4"
     ns1:alignment="middle center"
     ns1:scale="7.63846923561"
     ns1:preamble="/usr/share/inkscape/extensions/textext/default_packages.tex"
     ns1:text="$s O \\sim O$"
     ns1:pdfconverter="pdf2svg"
     ns1:texconverter="pdflatex"
     ns1:version="0.11.0"
     transform="matrix(8.1389343,0,0,8.1389343,213.68565,-596.87333)">
    <g
       style="fill:#ff5535;fill-opacity:1"
       id="g1453">
      <g
         id="g1443"
         style="fill:#ff5535;fill-opacity:1">
        <path
           id="path1439"
           transform="translate(148.712,134.765)"
           d="M 3.890625,-3.734375 C 3.625,-3.71875 3.421875,-3.5 3.421875,-3.28125 c 0,0.140625 0.09375,0.296875 0.3125,0.296875 0.21875,0 0.453125,-0.171875 0.453125,-0.5625 C 4.1875,-4 3.765625,-4.40625 3,-4.40625 c -1.3125,0 -1.6875,1.015625 -1.6875,1.453125 0,0.78125 0.734375,0.921875 1.03125,0.984375 0.515625,0.109375 1.03125,0.21875 1.03125,0.765625 0,0.25 -0.21875,1.09375 -1.421875,1.09375 -0.140625,0 -0.90625,0 -1.140625,-0.53125 0.390625,0.046875 0.640625,-0.25 0.640625,-0.53125 0,-0.21875 -0.171875,-0.34375 -0.375,-0.34375 -0.265625,0 -0.5625,0.203125 -0.5625,0.65625 0,0.5625 0.578125,0.96875 1.421875,0.96875 1.625,0 2.015625,-1.203125 2.015625,-1.65625 0,-0.359375 -0.1875,-0.609375 -0.3125,-0.71875 -0.265625,-0.28125 -0.5625,-0.34375 -1,-0.421875 -0.359375,-0.078125 -0.75,-0.15625 -0.75,-0.609375 C 1.890625,-3.578125 2.125,-4.1875 3,-4.1875 c 0.25,0 0.75,0.078125 0.890625,0.453125 z m 0,0"
           style="fill:#ff5535;fill-opacity:1;stroke:none;stroke-width:0"
           inkscape:connector-curvature="0" />
        <path
           id="path1441"
           transform="translate(153.38247,134.765)"
           d="m 7.375,-4.34375 c 0,-1.609375 -1.0625,-2.6875 -2.546875,-2.6875 -2.140625,0 -4.34375,2.265625 -4.34375,4.59375 0,1.65625 1.125,2.65625 2.5625,2.65625 2.109375,0 4.328125,-2.1875 4.328125,-4.5625 z m -4.28125,4.296875 c -0.984375,0 -1.671875,-0.796875 -1.671875,-2.109375 0,-0.453125 0.140625,-1.90625 0.90625,-3.0625 0.6875,-1.046875 1.65625,-1.5625 2.453125,-1.5625 0.8125,0 1.703125,0.5625 1.703125,2.046875 0,0.71875 -0.265625,2.265625 -1.25,3.5 C 4.75,-0.625 3.9375,-0.046875 3.09375,-0.046875 Z m 0,0"
           style="fill:#ff5535;fill-opacity:1;stroke:none;stroke-width:0"
           inkscape:connector-curvature="0" />
      </g>
      <g
         id="g1447"
         style="fill:#ff5535;fill-opacity:1">
        <path
           id="path1445"
           transform="translate(164.026,134.765)"
           d="m 7.203125,-3.328125 c 0,-0.21875 -0.0625,-0.328125 -0.140625,-0.328125 -0.046875,0 -0.140625,0.078125 -0.140625,0.265625 -0.046875,0.953125 -0.703125,1.5 -1.40625,1.5 -0.625,0 -1.09375,-0.421875 -1.59375,-0.84375 -0.5,-0.46875 -1.015625,-0.921875 -1.703125,-0.921875 -1.078125,0 -1.671875,1.09375 -1.671875,2 0,0.328125 0.125,0.328125 0.140625,0.328125 0.109375,0 0.140625,-0.203125 0.140625,-0.234375 0.046875,-1.09375 0.78125,-1.53125 1.390625,-1.53125 0.625,0 1.109375,0.421875 1.59375,0.84375 0.515625,0.46875 1.03125,0.921875 1.703125,0.921875 1.09375,0 1.6875,-1.09375 1.6875,-2 z m 0,0"
           style="fill:#ff5535;fill-opacity:1;stroke:none;stroke-width:0"
           inkscape:connector-curvature="0" />
      </g>
      <g
         id="g1451"
         style="fill:#ff5535;fill-opacity:1">
        <path
           id="path1449"
           transform="translate(174.542,134.765)"
           d="m 7.375,-4.34375 c 0,-1.609375 -1.0625,-2.6875 -2.546875,-2.6875 -2.140625,0 -4.34375,2.265625 -4.34375,4.59375 0,1.65625 1.125,2.65625 2.5625,2.65625 2.109375,0 4.328125,-2.1875 4.328125,-4.5625 z m -4.28125,4.296875 c -0.984375,0 -1.671875,-0.796875 -1.671875,-2.109375 0,-0.453125 0.140625,-1.90625 0.90625,-3.0625 0.6875,-1.046875 1.65625,-1.5625 2.453125,-1.5625 0.8125,0 1.703125,0.5625 1.703125,2.046875 0,0.71875 -0.265625,2.265625 -1.25,3.5 C 4.75,-0.625 3.9375,-0.046875 3.09375,-0.046875 Z m 0,0"
           style="fill:#ff5535;fill-opacity:1;stroke:none;stroke-width:0"
           inkscape:connector-curvature="0" />
      </g>
    </g>
  </g>
</svg>
