<?xml version="1.0" encoding="UTF-8" standalone="no"?>
<!-- Created with Inkscape (http://www.inkscape.org/) -->

<svg
   xmlns:dc="http://purl.org/dc/elements/1.1/"
   xmlns:cc="http://creativecommons.org/ns#"
   xmlns:rdf="http://www.w3.org/1999/02/22-rdf-syntax-ns#"
   xmlns:svg="http://www.w3.org/2000/svg"
   xmlns="http://www.w3.org/2000/svg"
   xmlns:sodipodi="http://sodipodi.sourceforge.net/DTD/sodipodi-0.dtd"
   xmlns:inkscape="http://www.inkscape.org/namespaces/inkscape"
   id="svg2"
   version="1.1"
   inkscape:version="0.92.2 5c3e80d, 2017-08-06"
   xml:space="preserve"
   width="480"
   height="104"
   viewBox="0 0 450 97.5"
   sodipodi:docname="cut_and_project_perp_projections.svg"><metadata
     id="metadata8"><rdf:RDF><cc:Work
         rdf:about=""><dc:format>image/svg+xml</dc:format><dc:type
           rdf:resource="http://purl.org/dc/dcmitype/StillImage" /><dc:title></dc:title></cc:Work></rdf:RDF></metadata><defs
     id="defs6"><inkscape:path-effect
       effect="powerstroke"
       id="path-effect4440"
       is_visible="true"
       offset_points="0,0.4"
       sort_points="true"
       interpolator_type="CubicBezierJohan"
       interpolator_beta="0.2"
       start_linecap_type="zerowidth"
       linejoin_type="round"
       miter_limit="4"
       end_linecap_type="zerowidth"
       cusp_linecap_type="round" /></defs><sodipodi:namedview
     pagecolor="#ffffff"
     bordercolor="#666666"
     borderopacity="1"
     objecttolerance="10"
     gridtolerance="10"
     guidetolerance="10"
     inkscape:pageopacity="0"
     inkscape:pageshadow="2"
     inkscape:window-width="1920"
     inkscape:window-height="1029"
     id="namedview4"
     showgrid="false"
     inkscape:zoom="3.0169888"
     inkscape:cx="243.57805"
     inkscape:cy="84.522581"
     inkscape:window-x="0"
     inkscape:window-y="27"
     inkscape:window-maximized="1"
     inkscape:current-layer="g12" /><g
     id="g10"
     inkscape:groupmode="layer"
     inkscape:label="cut_and_project_perp_projections"
     transform="matrix(1.25,0,0,-1.25,0,97.5)"><g
       id="g12"><path
         d="M 0,0 H 360 V 78 H 0 Z"
         style="fill:#ffffff;fill-opacity:1;fill-rule:nonzero;stroke:none"
         id="path14"
         inkscape:connector-curvature="0" /><path
         style="fill:none;fill-rule:evenodd;stroke:#000000;stroke-width:0.75;stroke-linecap:butt;stroke-linejoin:miter;stroke-opacity:1;stroke-miterlimit:4;stroke-dasharray:1.5,1.5;stroke-dashoffset:0"
         d="m 125.809,37.531 -0.11,-21.203"
         id="path939"
         inkscape:connector-curvature="0" /><path
         style="fill:none;fill-rule:evenodd;stroke:#000000;stroke-width:0.75;stroke-linecap:butt;stroke-linejoin:miter;stroke-opacity:1;stroke-miterlimit:4;stroke-dasharray:2.25,2.25;stroke-dashoffset:0"
         d="m 243.395,40.988 -0.129,-25.25"
         id="path941"
         inkscape:connector-curvature="0" /><path
         d="M 0,78 H 360 V 0 H 0 Z"
         style="fill:none;stroke:#ffffff;stroke-width:0.03;stroke-linecap:butt;stroke-linejoin:miter;stroke-miterlimit:10;stroke-dasharray:none;stroke-opacity:1"
         id="path16"
         inkscape:connector-curvature="0" /><path
         d="M 35.891,16.781 53.18,44.449 80.848,27.156 98.141,54.824 153.477,20.238 170.766,47.906 198.434,30.613 215.727,58.281 243.395,40.988 271.059,23.695 288.352,51.363 316.02,34.07"
         style="fill:none;stroke:#808080;stroke-width:3.5999999;stroke-linecap:square;stroke-linejoin:miter;stroke-miterlimit:3.25;stroke-dasharray:none;stroke-opacity:0.5"
         id="path18"
         inkscape:connector-curvature="0" /><path
         d="M 35.883,15.148 53.035,15.062"
         style="fill:none;stroke:#000000;stroke-width:1.44000006;stroke-linecap:square;stroke-linejoin:miter;stroke-miterlimit:3.25;stroke-dasharray:none;stroke-opacity:1"
         id="path20"
         inkscape:connector-curvature="0" /><path
         d="M 35.898,18.41 53.051,18.324"
         style="fill:none;stroke:#000000;stroke-width:1.44000006;stroke-linecap:square;stroke-linejoin:miter;stroke-miterlimit:3.25;stroke-dasharray:none;stroke-opacity:1"
         id="path22"
         inkscape:connector-curvature="0" /><path
         d="m 53.043,16.695 27.754,-0.14"
         style="fill:none;stroke:#000000;stroke-width:1.44000006;stroke-linecap:square;stroke-linejoin:miter;stroke-miterlimit:3.25;stroke-dasharray:none;stroke-opacity:1"
         id="path24"
         inkscape:connector-curvature="0" /><path
         d="M 80.785,14.922 97.938,14.836"
         style="fill:none;stroke:#000000;stroke-width:1.44000006;stroke-linecap:square;stroke-linejoin:miter;stroke-miterlimit:3.25;stroke-dasharray:none;stroke-opacity:1"
         id="path26"
         inkscape:connector-curvature="0" /><path
         d="M 80.805,18.188 97.957,18.102"
         style="fill:none;stroke:#000000;stroke-width:1.44000006;stroke-linecap:square;stroke-linejoin:miter;stroke-miterlimit:3.25;stroke-dasharray:none;stroke-opacity:1"
         id="path28"
         inkscape:connector-curvature="0" /><path
         d="m 97.949,16.469 27.75,-0.141"
         style="fill:none;stroke:#000000;stroke-width:1.44000006;stroke-linecap:square;stroke-linejoin:miter;stroke-miterlimit:3.25;stroke-dasharray:none;stroke-opacity:1"
         id="path30"
         inkscape:connector-curvature="0" /><path
         d="m 125.699,16.328 27.754,-0.137"
         style="fill:none;stroke:#000000;stroke-width:1.44000006;stroke-linecap:square;stroke-linejoin:miter;stroke-miterlimit:3.25;stroke-dasharray:none;stroke-opacity:1"
         id="path32"
         inkscape:connector-curvature="0" /><path
         d="m 153.445,14.559 17.153,-0.086"
         style="fill:none;stroke:#000000;stroke-width:1.44000006;stroke-linecap:square;stroke-linejoin:miter;stroke-miterlimit:3.25;stroke-dasharray:none;stroke-opacity:1"
         id="path34"
         inkscape:connector-curvature="0" /><path
         d="m 153.461,17.82 17.152,-0.086"
         style="fill:none;stroke:#000000;stroke-width:1.44000006;stroke-linecap:square;stroke-linejoin:miter;stroke-miterlimit:3.25;stroke-dasharray:none;stroke-opacity:1"
         id="path36"
         inkscape:connector-curvature="0" /><path
         d="m 170.605,16.102 27.754,-0.137"
         style="fill:none;stroke:#000000;stroke-width:1.44000006;stroke-linecap:square;stroke-linejoin:miter;stroke-miterlimit:3.25;stroke-dasharray:none;stroke-opacity:1"
         id="path38"
         inkscape:connector-curvature="0" /><path
         d="m 198.352,14.332 17.152,-0.086"
         style="fill:none;stroke:#000000;stroke-width:1.44000006;stroke-linecap:square;stroke-linejoin:miter;stroke-miterlimit:3.25;stroke-dasharray:none;stroke-opacity:1"
         id="path40"
         inkscape:connector-curvature="0" /><path
         d="M 198.367,17.594 215.52,17.508"
         style="fill:none;stroke:#000000;stroke-width:1.44000006;stroke-linecap:square;stroke-linejoin:miter;stroke-miterlimit:3.25;stroke-dasharray:none;stroke-opacity:1"
         id="path42"
         inkscape:connector-curvature="0" /><path
         d="m 215.512,15.879 27.754,-0.141"
         style="fill:none;stroke:#000000;stroke-width:1.44000006;stroke-linecap:square;stroke-linejoin:miter;stroke-miterlimit:3.25;stroke-dasharray:none;stroke-opacity:1"
         id="path44"
         inkscape:connector-curvature="0" /><path
         d="m 243.266,15.738 27.754,-0.14"
         style="fill:none;stroke:#000000;stroke-width:1.44000006;stroke-linecap:square;stroke-linejoin:miter;stroke-miterlimit:3.25;stroke-dasharray:none;stroke-opacity:1"
         id="path46"
         inkscape:connector-curvature="0" /><path
         d="m 271.012,13.969 17.152,-0.086"
         style="fill:none;stroke:#000000;stroke-width:1.44000006;stroke-linecap:square;stroke-linejoin:miter;stroke-miterlimit:3.25;stroke-dasharray:none;stroke-opacity:1"
         id="path48"
         inkscape:connector-curvature="0" /><path
         d="M 271.027,17.23 288.18,17.145"
         style="fill:none;stroke:#000000;stroke-width:1.44000006;stroke-linecap:square;stroke-linejoin:miter;stroke-miterlimit:3.25;stroke-dasharray:none;stroke-opacity:1"
         id="path50"
         inkscape:connector-curvature="0" /><path
         d="m 288.172,15.512 27.754,-0.137"
         style="fill:none;stroke:#000000;stroke-width:1.44000006;stroke-linecap:square;stroke-linejoin:miter;stroke-miterlimit:3.25;stroke-dasharray:none;stroke-opacity:1"
         id="path52"
         inkscape:connector-curvature="0" /><path
         d="M 315.926,15.375 343.68,15.234"
         style="fill:none;stroke:#000000;stroke-width:1.44000006;stroke-linecap:square;stroke-linejoin:miter;stroke-miterlimit:3.25;stroke-dasharray:none;stroke-opacity:1"
         id="path54"
         inkscape:connector-curvature="0" /><path
         d="m 37,17 c 0,0.266 -0.105,0.52 -0.293,0.707 C 36.52,17.895 36.266,18 36,18 35.734,18 35.48,17.895 35.293,17.707 35.105,17.52 35,17.266 35,17 35,16.734 35.105,16.48 35.293,16.293 35.48,16.105 35.734,16 36,16 c 0.266,0 0.52,0.105 0.707,0.293 C 36.895,16.48 37,16.734 37,17 Z"
         style="fill:#000000;fill-opacity:1;fill-rule:evenodd;stroke:none"
         id="path56"
         inkscape:connector-curvature="0" /><path
         d="M 125.809,37.531 35.996,37.98"
         style="fill:none;stroke:#000000;stroke-width:0.75;stroke-linecap:square;stroke-linejoin:miter;stroke-miterlimit:3.25;stroke-dasharray:1.5,3;stroke-dashoffset:0;stroke-opacity:1"
         id="path64"
         inkscape:connector-curvature="0" /><path
         d="M 243.395,40.988 36.016,42.031"
         style="fill:none;stroke:#000000;stroke-width:0.75;stroke-linecap:square;stroke-linejoin:miter;stroke-miterlimit:3.25;stroke-dasharray:1.5,3;stroke-dashoffset:0;stroke-opacity:1"
         id="path74"
         inkscape:connector-curvature="0" /><path
         d="m 35.891,16.781 0.214,43.18"
         style="fill:none;stroke:#00688b;stroke-width:1.44000006;stroke-linecap:square;stroke-linejoin:miter;stroke-miterlimit:3.25;stroke-dasharray:none;stroke-opacity:1"
         id="path82"
         inkscape:connector-curvature="0" /><path
         d="m 38.59,16.781 c 0,0.715 -0.285,1.403 -0.793,1.907 -0.504,0.507 -1.192,0.792 -1.906,0.792 -0.719,0 -1.407,-0.285 -1.911,-0.792 -0.507,-0.504 -0.792,-1.192 -0.792,-1.907 0,-0.719 0.285,-1.402 0.792,-1.91 0.504,-0.508 1.192,-0.789 1.911,-0.789 0.714,0 1.402,0.281 1.906,0.789 0.508,0.508 0.793,1.191 0.793,1.91 z"
         style="fill:#000000;fill-opacity:1;fill-rule:evenodd;stroke:none"
         id="path84"
         inkscape:connector-curvature="0" /><path
         d="m 55.742,16.695 c 0,0.715 -0.285,1.403 -0.793,1.907 -0.504,0.507 -1.191,0.793 -1.906,0.793 -0.719,0 -1.402,-0.286 -1.91,-0.793 -0.508,-0.504 -0.793,-1.192 -0.793,-1.907 0,-0.718 0.285,-1.402 0.793,-1.91 0.508,-0.508 1.191,-0.793 1.91,-0.793 0.715,0 1.402,0.285 1.906,0.793 0.508,0.508 0.793,1.192 0.793,1.91 z"
         style="fill:#000000;fill-opacity:1;fill-rule:evenodd;stroke:none"
         id="path86"
         inkscape:connector-curvature="0" /><path
         d="m 83.496,16.555 c 0,0.715 -0.285,1.402 -0.793,1.91 -0.504,0.504 -1.191,0.789 -1.906,0.789 -0.719,0 -1.406,-0.285 -1.91,-0.789 -0.508,-0.508 -0.793,-1.195 -0.793,-1.91 0,-0.715 0.285,-1.403 0.793,-1.91 0.504,-0.504 1.191,-0.79 1.91,-0.79 0.715,0 1.402,0.286 1.906,0.79 0.508,0.507 0.793,1.195 0.793,1.91 z"
         style="fill:#000000;fill-opacity:1;fill-rule:evenodd;stroke:none"
         id="path88"
         inkscape:connector-curvature="0" /><path
         d="m 100.648,16.469 c 0,0.715 -0.285,1.402 -0.793,1.91 -0.503,0.504 -1.191,0.789 -1.906,0.789 -0.719,0 -1.406,-0.285 -1.91,-0.789 -0.508,-0.508 -0.793,-1.195 -0.793,-1.91 0,-0.715 0.285,-1.403 0.793,-1.91 0.504,-0.504 1.191,-0.789 1.91,-0.789 0.715,0 1.403,0.285 1.906,0.789 0.508,0.507 0.793,1.195 0.793,1.91 z"
         style="fill:#000000;fill-opacity:1;fill-rule:evenodd;stroke:none"
         id="path90"
         inkscape:connector-curvature="0" /><path
         d="m 156.156,16.191 c 0,0.715 -0.285,1.403 -0.793,1.907 -0.508,0.507 -1.191,0.793 -1.91,0.793 -0.715,0 -1.402,-0.286 -1.906,-0.793 -0.508,-0.504 -0.793,-1.192 -0.793,-1.907 0,-0.718 0.285,-1.406 0.793,-1.91 0.504,-0.508 1.191,-0.793 1.906,-0.793 0.719,0 1.402,0.285 1.91,0.793 0.508,0.504 0.793,1.192 0.793,1.91 z"
         style="fill:#000000;fill-opacity:1;fill-rule:evenodd;stroke:none"
         id="path94"
         inkscape:connector-curvature="0" /><path
         d="m 201.059,15.965 c 0,0.715 -0.282,1.402 -0.789,1.906 -0.508,0.508 -1.192,0.793 -1.911,0.793 -0.714,0 -1.402,-0.285 -1.91,-0.793 -0.504,-0.504 -0.789,-1.191 -0.789,-1.906 0,-0.719 0.285,-1.403 0.789,-1.91 0.508,-0.508 1.196,-0.789 1.91,-0.789 0.719,0 1.403,0.281 1.911,0.789 0.507,0.507 0.789,1.191 0.789,1.91 z"
         style="fill:#000000;fill-opacity:1;fill-rule:evenodd;stroke:none"
         id="path98"
         inkscape:connector-curvature="0" /><path
         d="m 218.211,15.879 c 0,0.715 -0.281,1.402 -0.789,1.906 -0.508,0.508 -1.192,0.793 -1.91,0.793 -0.715,0 -1.403,-0.285 -1.907,-0.793 -0.507,-0.504 -0.793,-1.191 -0.793,-1.906 0,-0.719 0.286,-1.402 0.793,-1.91 0.504,-0.508 1.192,-0.793 1.907,-0.793 0.718,0 1.402,0.285 1.91,0.793 0.508,0.508 0.789,1.191 0.789,1.91 z"
         style="fill:#000000;fill-opacity:1;fill-rule:evenodd;stroke:none"
         id="path100"
         inkscape:connector-curvature="0" /><path
         d="m 245.965,15.738 c 0,0.715 -0.281,1.403 -0.789,1.91 -0.508,0.504 -1.196,0.79 -1.91,0.79 -0.715,0 -1.403,-0.286 -1.911,-0.79 -0.503,-0.507 -0.789,-1.195 -0.789,-1.91 0,-0.715 0.286,-1.402 0.789,-1.91 0.508,-0.504 1.196,-0.789 1.911,-0.789 0.714,0 1.402,0.285 1.91,0.789 0.508,0.508 0.789,1.195 0.789,1.91 z"
         style="fill:#c82300;fill-opacity:1;fill-rule:evenodd;stroke:none"
         id="path102"
         inkscape:connector-curvature="0" /><path
         d="m 273.719,15.598 c 0,0.718 -0.285,1.402 -0.789,1.91 -0.508,0.508 -1.196,0.789 -1.91,0.789 -0.715,0 -1.403,-0.281 -1.911,-0.789 -0.504,-0.508 -0.789,-1.192 -0.789,-1.91 0,-0.715 0.285,-1.403 0.789,-1.907 0.508,-0.507 1.196,-0.793 1.911,-0.793 0.714,0 1.402,0.286 1.91,0.793 0.504,0.504 0.789,1.192 0.789,1.907 z"
         style="fill:#000000;fill-opacity:1;fill-rule:evenodd;stroke:none"
         id="path104"
         inkscape:connector-curvature="0" /><path
         d="m 290.871,15.512 c 0,0.718 -0.285,1.402 -0.789,1.91 -0.508,0.508 -1.195,0.789 -1.91,0.789 -0.715,0 -1.402,-0.281 -1.91,-0.789 -0.504,-0.508 -0.789,-1.192 -0.789,-1.91 0,-0.715 0.285,-1.403 0.789,-1.91 0.508,-0.504 1.195,-0.79 1.91,-0.79 0.715,0 1.402,0.286 1.91,0.79 0.504,0.507 0.789,1.195 0.789,1.91 z"
         style="fill:#000000;fill-opacity:1;fill-rule:evenodd;stroke:none"
         id="path106"
         inkscape:connector-curvature="0" /><path
         d="m 318.625,15.375 c 0,0.715 -0.285,1.402 -0.789,1.906 -0.508,0.508 -1.195,0.793 -1.91,0.793 -0.715,0 -1.403,-0.285 -1.91,-0.793 -0.504,-0.504 -0.789,-1.191 -0.789,-1.906 0,-0.719 0.285,-1.406 0.789,-1.91 0.507,-0.508 1.195,-0.793 1.91,-0.793 0.715,0 1.402,0.285 1.91,0.793 0.504,0.504 0.789,1.191 0.789,1.91 z"
         style="fill:#000000;fill-opacity:1;fill-rule:evenodd;stroke:none"
         id="path108"
         inkscape:connector-curvature="0" /><path
         d="m 38.59,16.781 c 0,0.715 -0.285,1.403 -0.793,1.907 -0.504,0.507 -1.192,0.792 -1.906,0.792 -0.719,0 -1.407,-0.285 -1.911,-0.792 -0.507,-0.504 -0.792,-1.192 -0.792,-1.907 0,-0.719 0.285,-1.402 0.792,-1.91 0.504,-0.508 1.192,-0.789 1.911,-0.789 0.714,0 1.402,0.281 1.906,0.789 0.508,0.508 0.793,1.191 0.793,1.91 z"
         style="fill:#00688b;fill-opacity:1;fill-rule:evenodd;stroke:none"
         id="path110"
         inkscape:connector-curvature="0" /><path
         d="m 55.883,44.449 c 0,0.715 -0.285,1.403 -0.793,1.906 -0.508,0.508 -1.192,0.793 -1.91,0.793 -0.715,0 -1.403,-0.285 -1.907,-0.793 -0.507,-0.503 -0.793,-1.191 -0.793,-1.906 0,-0.719 0.286,-1.406 0.793,-1.91 0.504,-0.508 1.192,-0.793 1.907,-0.793 0.718,0 1.402,0.285 1.91,0.793 0.508,0.504 0.793,1.191 0.793,1.91 z"
         style="fill:#00688b;fill-opacity:1;fill-rule:evenodd;stroke:none"
         id="path112"
         inkscape:connector-curvature="0" /><path
         d="m 83.547,27.156 c 0,0.715 -0.281,1.403 -0.789,1.91 -0.508,0.504 -1.196,0.789 -1.91,0.789 -0.715,0 -1.403,-0.285 -1.91,-0.789 -0.504,-0.507 -0.79,-1.195 -0.79,-1.91 0,-0.718 0.286,-1.402 0.79,-1.91 0.507,-0.508 1.195,-0.789 1.91,-0.789 0.714,0 1.402,0.281 1.91,0.789 0.508,0.508 0.789,1.192 0.789,1.91 z"
         style="fill:#00688b;fill-opacity:1;fill-rule:evenodd;stroke:none"
         id="path114"
         inkscape:connector-curvature="0" /><path
         d="m 100.84,54.824 c 0,0.715 -0.285,1.403 -0.789,1.906 -0.508,0.508 -1.196,0.793 -1.91,0.793 -0.715,0 -1.403,-0.285 -1.911,-0.793 -0.503,-0.503 -0.789,-1.191 -0.789,-1.906 0,-0.719 0.286,-1.406 0.789,-1.91 0.508,-0.508 1.196,-0.793 1.911,-0.793 0.714,0 1.402,0.285 1.91,0.793 0.504,0.504 0.789,1.191 0.789,1.91 z"
         style="fill:#00688b;fill-opacity:1;fill-rule:evenodd;stroke:none"
         id="path116"
         inkscape:connector-curvature="0" /><path
         d="m 156.176,20.238 c 0,0.715 -0.285,1.403 -0.793,1.91 -0.504,0.504 -1.192,0.79 -1.906,0.79 -0.719,0 -1.407,-0.286 -1.911,-0.79 -0.507,-0.507 -0.793,-1.195 -0.793,-1.91 0,-0.715 0.286,-1.402 0.793,-1.91 0.504,-0.504 1.192,-0.789 1.911,-0.789 0.714,0 1.402,0.285 1.906,0.789 0.508,0.508 0.793,1.195 0.793,1.91 z"
         style="fill:#00688b;fill-opacity:1;fill-rule:evenodd;stroke:none"
         id="path120"
         inkscape:connector-curvature="0" /><g
         id="g4432"
         style="fill:#00c99e;fill-opacity:1;stroke:none;stroke-opacity:0.97619042"><path
           inkscape:connector-curvature="0"
           id="path92"
           style="fill:#c82300;fill-opacity:1;fill-rule:evenodd;stroke:none;stroke-opacity:0.97619042"
           d="m 128.402,16.328 c 0,0.719 -0.285,1.402 -0.793,1.91 -0.504,0.508 -1.191,0.789 -1.91,0.789 -0.715,0 -1.402,-0.281 -1.906,-0.789 C 123.285,17.73 123,17.047 123,16.328 c 0,-0.715 0.285,-1.402 0.793,-1.91 0.504,-0.504 1.191,-0.789 1.906,-0.789 0.719,0 1.406,0.285 1.91,0.789 0.508,0.508 0.793,1.195 0.793,1.91 z" /><path
           inkscape:connector-curvature="0"
           id="path96"
           style="fill:#000000;fill-opacity:1;fill-rule:evenodd;stroke:none;stroke-opacity:0.97619042"
           d="m 173.309,16.102 c 0,0.718 -0.286,1.406 -0.793,1.91 -0.504,0.508 -1.192,0.793 -1.911,0.793 -0.714,0 -1.402,-0.285 -1.906,-0.793 -0.508,-0.504 -0.793,-1.192 -0.793,-1.91 0,-0.715 0.285,-1.403 0.793,-1.907 0.504,-0.507 1.192,-0.793 1.906,-0.793 0.719,0 1.407,0.286 1.911,0.793 0.507,0.504 0.793,1.192 0.793,1.907 z" /><path
           inkscape:connector-curvature="0"
           id="path118"
           style="fill:#c82300;fill-opacity:1;fill-rule:evenodd;stroke:none;stroke-opacity:0.97619042"
           d="m 128.508,37.531 c 0,0.715 -0.285,1.403 -0.793,1.91 -0.504,0.504 -1.192,0.789 -1.906,0.789 -0.719,0 -1.403,-0.285 -1.911,-0.789 -0.507,-0.507 -0.789,-1.195 -0.789,-1.91 0,-0.715 0.282,-1.402 0.789,-1.91 0.508,-0.508 1.192,-0.789 1.911,-0.789 0.714,0 1.402,0.281 1.906,0.789 0.508,0.508 0.793,1.195 0.793,1.91 z" /><path
           inkscape:connector-curvature="0"
           id="path122"
           style="fill:#00688b;fill-opacity:1;fill-rule:evenodd;stroke:none;stroke-opacity:0.97619042"
           d="m 173.465,47.906 c 0,0.715 -0.281,1.403 -0.789,1.91 -0.508,0.504 -1.192,0.789 -1.91,0.789 -0.715,0 -1.403,-0.285 -1.907,-0.789 -0.507,-0.507 -0.793,-1.195 -0.793,-1.91 0,-0.715 0.286,-1.402 0.793,-1.91 0.504,-0.504 1.192,-0.789 1.907,-0.789 0.718,0 1.402,0.285 1.91,0.789 0.508,0.508 0.789,1.195 0.789,1.91 z" /></g><path
         d="m 201.133,30.613 c 0,0.715 -0.285,1.403 -0.789,1.91 -0.508,0.508 -1.196,0.789 -1.91,0.789 -0.715,0 -1.403,-0.281 -1.911,-0.789 -0.503,-0.507 -0.789,-1.195 -0.789,-1.91 0,-0.715 0.286,-1.402 0.789,-1.91 0.508,-0.504 1.196,-0.789 1.911,-0.789 0.714,0 1.402,0.285 1.91,0.789 0.504,0.508 0.789,1.195 0.789,1.91 z"
         style="fill:#00688b;fill-opacity:1;fill-rule:evenodd;stroke:none"
         id="path124"
         inkscape:connector-curvature="0" /><path
         d="m 218.426,58.281 c 0,0.715 -0.285,1.403 -0.789,1.91 -0.508,0.504 -1.196,0.789 -1.91,0.789 -0.715,0 -1.403,-0.285 -1.911,-0.789 -0.507,-0.507 -0.789,-1.195 -0.789,-1.91 0,-0.715 0.282,-1.402 0.789,-1.91 0.508,-0.504 1.196,-0.789 1.911,-0.789 0.714,0 1.402,0.285 1.91,0.789 0.504,0.508 0.789,1.195 0.789,1.91 z"
         style="fill:#00688b;fill-opacity:1;fill-rule:evenodd;stroke:none"
         id="path126"
         inkscape:connector-curvature="0" /><path
         d="m 246.094,40.988 c 0,0.719 -0.285,1.403 -0.793,1.91 -0.504,0.508 -1.192,0.79 -1.906,0.79 -0.719,0 -1.403,-0.282 -1.911,-0.79 -0.507,-0.507 -0.793,-1.191 -0.793,-1.91 0,-0.715 0.286,-1.402 0.793,-1.91 0.508,-0.504 1.192,-0.789 1.911,-0.789 0.714,0 1.402,0.285 1.906,0.789 0.508,0.508 0.793,1.195 0.793,1.91 z"
         style="fill:#c82300;fill-opacity:1;fill-rule:evenodd;stroke:none"
         id="path128"
         inkscape:connector-curvature="0" /><path
         d="m 273.762,23.695 c 0,0.719 -0.285,1.407 -0.793,1.91 -0.504,0.508 -1.192,0.793 -1.91,0.793 -0.715,0 -1.403,-0.285 -1.907,-0.793 -0.507,-0.503 -0.793,-1.191 -0.793,-1.91 0,-0.715 0.286,-1.402 0.793,-1.906 0.504,-0.508 1.192,-0.793 1.907,-0.793 0.718,0 1.406,0.285 1.91,0.793 0.508,0.504 0.793,1.191 0.793,1.906 z"
         style="fill:#00688b;fill-opacity:1;fill-rule:evenodd;stroke:none"
         id="path130"
         inkscape:connector-curvature="0" /><path
         d="m 291.051,51.363 c 0,0.719 -0.281,1.403 -0.789,1.91 -0.508,0.508 -1.192,0.789 -1.91,0.789 -0.715,0 -1.403,-0.281 -1.911,-0.789 -0.503,-0.507 -0.789,-1.191 -0.789,-1.91 0,-0.715 0.286,-1.402 0.789,-1.91 0.508,-0.504 1.196,-0.789 1.911,-0.789 0.718,0 1.402,0.285 1.91,0.789 0.508,0.508 0.789,1.195 0.789,1.91 z"
         style="fill:#00688b;fill-opacity:1;fill-rule:evenodd;stroke:none"
         id="path132"
         inkscape:connector-curvature="0" /><path
         d="m 318.719,34.07 c 0,0.719 -0.285,1.407 -0.789,1.91 -0.508,0.508 -1.196,0.793 -1.91,0.793 -0.715,0 -1.403,-0.285 -1.911,-0.793 -0.504,-0.503 -0.789,-1.191 -0.789,-1.91 0,-0.715 0.285,-1.402 0.789,-1.906 0.508,-0.508 1.196,-0.793 1.911,-0.793 0.714,0 1.402,0.285 1.91,0.793 0.504,0.504 0.789,1.191 0.789,1.906 z"
         style="fill:#00688b;fill-opacity:1;fill-rule:evenodd;stroke:none"
         id="path134"
         inkscape:connector-curvature="0" /><path
         d="M 25.516,61.738 338.723,60.164"
         style="fill:none;stroke:#000000;stroke-width:0.5;stroke-linecap:square;stroke-linejoin:miter;stroke-miterlimit:3.25;stroke-dasharray:none;stroke-opacity:1"
         id="path136"
         inkscape:connector-curvature="0" /><path
         d="M -36.738,23.695 -9.07,6.406 8.223,34.07 -19.445,51.363 Z"
         style="fill:none;stroke:#000000;stroke-width:0.5;stroke-linecap:square;stroke-linejoin:miter;stroke-miterlimit:3.25;stroke-dasharray:none;stroke-opacity:0.1"
         id="path138"
         inkscape:connector-curvature="0" /><path
         d="M -19.445,51.363 8.223,34.07 25.516,61.738 -2.152,79.031 Z"
         style="fill:none;stroke:#000000;stroke-width:0.5;stroke-linecap:square;stroke-linejoin:miter;stroke-miterlimit:3.25;stroke-dasharray:none;stroke-opacity:0.1"
         id="path140"
         inkscape:connector-curvature="0" /><path
         d="M -2.152,79.031 25.516,61.738 42.805,89.406 15.141,106.699 Z"
         style="fill:none;stroke:#000000;stroke-width:0.5;stroke-linecap:square;stroke-linejoin:miter;stroke-miterlimit:3.25;stroke-dasharray:none;stroke-opacity:0.1"
         id="path142"
         inkscape:connector-curvature="0" /><path
         d="M -26.363,-21.262 1.305,-38.555 18.598,-10.887 -9.07,6.406 Z"
         style="fill:none;stroke:#000000;stroke-width:0.5;stroke-linecap:square;stroke-linejoin:miter;stroke-miterlimit:3.25;stroke-dasharray:none;stroke-opacity:0.1"
         id="path144"
         inkscape:connector-curvature="0" /><path
         d="M -9.07,6.406 18.598,-10.887 35.891,16.781 8.223,34.07 Z"
         style="fill:none;stroke:#000000;stroke-width:0.5;stroke-linecap:square;stroke-linejoin:miter;stroke-miterlimit:3.25;stroke-dasharray:none;stroke-opacity:0.1"
         id="path146"
         inkscape:connector-curvature="0" /><path
         d="M 8.223,34.07 35.891,16.781 53.18,44.449 25.516,61.738 Z"
         style="fill:none;stroke:#000000;stroke-width:0.5;stroke-linecap:square;stroke-linejoin:miter;stroke-miterlimit:3.25;stroke-dasharray:none;stroke-opacity:0.1"
         id="path148"
         inkscape:connector-curvature="0" /><path
         d="M 25.516,61.738 53.18,44.449 70.473,72.113 42.805,89.406 Z"
         style="fill:none;stroke:#000000;stroke-width:0.5;stroke-linecap:square;stroke-linejoin:miter;stroke-miterlimit:3.25;stroke-dasharray:none;stroke-opacity:0.1"
         id="path150"
         inkscape:connector-curvature="0" /><path
         d="M 42.805,89.406 70.473,72.113 87.766,99.781 60.098,117.074 Z"
         style="fill:none;stroke:#000000;stroke-width:0.5;stroke-linecap:square;stroke-linejoin:miter;stroke-miterlimit:3.25;stroke-dasharray:none;stroke-opacity:0.1"
         id="path152"
         inkscape:connector-curvature="0" /><path
         d="M 18.598,-10.887 46.266,-28.18 63.555,-0.512 35.891,16.781 Z"
         style="fill:none;stroke:#000000;stroke-width:0.5;stroke-linecap:square;stroke-linejoin:miter;stroke-miterlimit:3.25;stroke-dasharray:none;stroke-opacity:0.1"
         id="path154"
         inkscape:connector-curvature="0" /><path
         d="M 35.891,16.781 63.555,-0.512 80.848,27.156 53.18,44.449 Z"
         style="fill:none;stroke:#000000;stroke-width:0.5;stroke-linecap:square;stroke-linejoin:miter;stroke-miterlimit:3.25;stroke-dasharray:none;stroke-opacity:0.1"
         id="path156"
         inkscape:connector-curvature="0" /><path
         d="M 53.18,44.449 80.848,27.156 98.141,54.824 70.473,72.113 Z"
         style="fill:none;stroke:#000000;stroke-width:0.5;stroke-linecap:square;stroke-linejoin:miter;stroke-miterlimit:3.25;stroke-dasharray:none;stroke-opacity:0.1"
         id="path158"
         inkscape:connector-curvature="0" /><path
         d="M 70.473,72.113 98.141,54.824 115.434,82.488 87.766,99.781 Z"
         style="fill:none;stroke:#000000;stroke-width:0.5;stroke-linecap:square;stroke-linejoin:miter;stroke-miterlimit:3.25;stroke-dasharray:none;stroke-opacity:0.1"
         id="path160"
         inkscape:connector-curvature="0" /><path
         d="M 63.555,-0.512 91.223,-17.805 108.516,9.863 80.848,27.156 Z"
         style="fill:none;stroke:#000000;stroke-width:0.5;stroke-linecap:square;stroke-linejoin:miter;stroke-miterlimit:3.25;stroke-dasharray:none;stroke-opacity:0.1"
         id="path162"
         inkscape:connector-curvature="0" /><path
         d="M 80.848,27.156 108.516,9.863 125.809,37.531 98.141,54.824 Z"
         style="fill:none;stroke:#000000;stroke-width:0.5;stroke-linecap:square;stroke-linejoin:miter;stroke-miterlimit:3.25;stroke-dasharray:none;stroke-opacity:0.1"
         id="path164"
         inkscape:connector-curvature="0" /><path
         d="m 98.141,54.824 27.668,-17.293 17.289,27.668 -27.664,17.289 z"
         style="fill:none;stroke:#000000;stroke-width:0.5;stroke-linecap:square;stroke-linejoin:miter;stroke-miterlimit:3.25;stroke-dasharray:none;stroke-opacity:0.1"
         id="path166"
         inkscape:connector-curvature="0" /><path
         d="m 115.434,82.488 27.664,-17.289 17.293,27.664 -27.668,17.293 z"
         style="fill:none;stroke:#000000;stroke-width:0.5;stroke-linecap:square;stroke-linejoin:miter;stroke-miterlimit:3.25;stroke-dasharray:none;stroke-opacity:0.1"
         id="path168"
         inkscape:connector-curvature="0" /><path
         d="M 91.223,-17.805 118.891,-35.098 136.184,-7.43 108.516,9.863 Z"
         style="fill:none;stroke:#000000;stroke-width:0.5;stroke-linecap:square;stroke-linejoin:miter;stroke-miterlimit:3.25;stroke-dasharray:none;stroke-opacity:0.1"
         id="path170"
         inkscape:connector-curvature="0" /><path
         d="M 108.516,9.863 136.184,-7.43 153.477,20.238 125.809,37.531 Z"
         style="fill:none;stroke:#000000;stroke-width:0.5;stroke-linecap:square;stroke-linejoin:miter;stroke-miterlimit:3.25;stroke-dasharray:none;stroke-opacity:0.1"
         id="path172"
         inkscape:connector-curvature="0" /><path
         d="m 125.809,37.531 27.668,-17.293 17.289,27.668 -27.668,17.293 z"
         style="fill:none;stroke:#000000;stroke-width:0.5;stroke-linecap:square;stroke-linejoin:miter;stroke-miterlimit:3.25;stroke-dasharray:none;stroke-opacity:0.1"
         id="path174"
         inkscape:connector-curvature="0" /><path
         d="m 143.098,65.199 27.668,-17.293 17.293,27.668 -27.668,17.289 z"
         style="fill:none;stroke:#000000;stroke-width:0.5;stroke-linecap:square;stroke-linejoin:miter;stroke-miterlimit:3.25;stroke-dasharray:none;stroke-opacity:0.1"
         id="path176"
         inkscape:connector-curvature="0" /><path
         d="m 160.391,92.863 27.668,-17.289 17.293,27.668 -27.668,17.289 z"
         style="fill:none;stroke:#000000;stroke-width:0.5;stroke-linecap:square;stroke-linejoin:miter;stroke-miterlimit:3.25;stroke-dasharray:none;stroke-opacity:0.1"
         id="path178"
         inkscape:connector-curvature="0" /><path
         d="m 136.184,-7.43 27.668,-17.289 17.289,27.664 -27.664,17.293 z"
         style="fill:none;stroke:#000000;stroke-width:0.5;stroke-linecap:square;stroke-linejoin:miter;stroke-miterlimit:3.25;stroke-dasharray:none;stroke-opacity:0.1"
         id="path180"
         inkscape:connector-curvature="0" /><path
         d="M 153.477,20.238 181.141,2.945 198.434,30.613 170.766,47.906 Z"
         style="fill:none;stroke:#000000;stroke-width:0.5;stroke-linecap:square;stroke-linejoin:miter;stroke-miterlimit:3.25;stroke-dasharray:none;stroke-opacity:0.1"
         id="path182"
         inkscape:connector-curvature="0" /><path
         d="m 170.766,47.906 27.668,-17.293 17.293,27.668 -27.668,17.293 z"
         style="fill:none;stroke:#000000;stroke-width:0.5;stroke-linecap:square;stroke-linejoin:miter;stroke-miterlimit:3.25;stroke-dasharray:none;stroke-opacity:0.1"
         id="path184"
         inkscape:connector-curvature="0" /><path
         d="m 188.059,75.574 27.668,-17.293 17.293,27.668 -27.668,17.293 z"
         style="fill:none;stroke:#000000;stroke-width:0.5;stroke-linecap:square;stroke-linejoin:miter;stroke-miterlimit:3.25;stroke-dasharray:none;stroke-opacity:0.1"
         id="path186"
         inkscape:connector-curvature="0" /><path
         d="m 163.852,-24.719 27.664,-17.293 17.293,27.668 -27.668,17.289 z"
         style="fill:none;stroke:#000000;stroke-width:0.5;stroke-linecap:square;stroke-linejoin:miter;stroke-miterlimit:3.25;stroke-dasharray:none;stroke-opacity:0.1"
         id="path188"
         inkscape:connector-curvature="0" /><path
         d="m 181.141,2.945 27.668,-17.289 17.293,27.664 -27.668,17.293 z"
         style="fill:none;stroke:#000000;stroke-width:0.5;stroke-linecap:square;stroke-linejoin:miter;stroke-miterlimit:3.25;stroke-dasharray:none;stroke-opacity:0.1"
         id="path190"
         inkscape:connector-curvature="0" /><path
         d="M 198.434,30.613 226.102,13.32 243.395,40.988 215.727,58.281 Z"
         style="fill:none;stroke:#000000;stroke-width:0.5;stroke-linecap:square;stroke-linejoin:miter;stroke-miterlimit:3.25;stroke-dasharray:none;stroke-opacity:0.1"
         id="path192"
         inkscape:connector-curvature="0" /><path
         d="M 215.727,58.281 243.395,40.988 260.684,68.656 233.02,85.949 Z"
         style="fill:none;stroke:#000000;stroke-width:0.5;stroke-linecap:square;stroke-linejoin:miter;stroke-miterlimit:3.25;stroke-dasharray:none;stroke-opacity:0.1"
         id="path194"
         inkscape:connector-curvature="0" /><path
         d="m 233.02,85.949 27.664,-17.293 17.293,27.668 -27.668,17.293 z"
         style="fill:none;stroke:#000000;stroke-width:0.5;stroke-linecap:square;stroke-linejoin:miter;stroke-miterlimit:3.25;stroke-dasharray:none;stroke-opacity:0.1"
         id="path196"
         inkscape:connector-curvature="0" /><path
         d="M 208.809,-14.344 236.477,-31.637 253.77,-3.969 226.102,13.32 Z"
         style="fill:none;stroke:#000000;stroke-width:0.5;stroke-linecap:square;stroke-linejoin:miter;stroke-miterlimit:3.25;stroke-dasharray:none;stroke-opacity:0.1"
         id="path198"
         inkscape:connector-curvature="0" /><path
         d="M 226.102,13.32 253.77,-3.969 271.059,23.695 243.395,40.988 Z"
         style="fill:none;stroke:#000000;stroke-width:0.5;stroke-linecap:square;stroke-linejoin:miter;stroke-miterlimit:3.25;stroke-dasharray:none;stroke-opacity:0.1"
         id="path200"
         inkscape:connector-curvature="0" /><path
         d="m 243.395,40.988 27.664,-17.293 17.293,27.668 -27.668,17.293 z"
         style="fill:none;stroke:#000000;stroke-width:0.5;stroke-linecap:square;stroke-linejoin:miter;stroke-miterlimit:3.25;stroke-dasharray:none;stroke-opacity:0.1"
         id="path202"
         inkscape:connector-curvature="0" /><path
         d="m 260.684,68.656 27.668,-17.293 17.293,27.668 -27.668,17.293 z"
         style="fill:none;stroke:#000000;stroke-width:0.5;stroke-linecap:square;stroke-linejoin:miter;stroke-miterlimit:3.25;stroke-dasharray:none;stroke-opacity:0.1"
         id="path204"
         inkscape:connector-curvature="0" /><path
         d="m 253.77,-3.969 27.668,-17.293 17.289,27.668 -27.668,17.289 z"
         style="fill:none;stroke:#000000;stroke-width:0.5;stroke-linecap:square;stroke-linejoin:miter;stroke-miterlimit:3.25;stroke-dasharray:none;stroke-opacity:0.1"
         id="path206"
         inkscape:connector-curvature="0" /><path
         d="M 271.059,23.695 298.727,6.406 316.02,34.07 288.352,51.363 Z"
         style="fill:none;stroke:#000000;stroke-width:0.5;stroke-linecap:square;stroke-linejoin:miter;stroke-miterlimit:3.25;stroke-dasharray:none;stroke-opacity:0.1"
         id="path208"
         inkscape:connector-curvature="0" /><path
         d="M 288.352,51.363 316.02,34.07 333.312,61.738 305.645,79.031 Z"
         style="fill:none;stroke:#000000;stroke-width:0.5;stroke-linecap:square;stroke-linejoin:miter;stroke-miterlimit:3.25;stroke-dasharray:none;stroke-opacity:0.1"
         id="path210"
         inkscape:connector-curvature="0" /><path
         d="m 305.645,79.031 27.667,-17.293 17.293,27.668 -27.667,17.293 z"
         style="fill:none;stroke:#000000;stroke-width:0.5;stroke-linecap:square;stroke-linejoin:miter;stroke-miterlimit:3.25;stroke-dasharray:none;stroke-opacity:0.1"
         id="path212"
         inkscape:connector-curvature="0" /><path
         d="m 281.438,-21.262 27.664,-17.293 17.293,27.668 -27.668,17.293 z"
         style="fill:none;stroke:#000000;stroke-width:0.5;stroke-linecap:square;stroke-linejoin:miter;stroke-miterlimit:3.25;stroke-dasharray:none;stroke-opacity:0.1"
         id="path214"
         inkscape:connector-curvature="0" /><path
         d="M 298.727,6.406 326.395,-10.887 343.688,16.781 316.02,34.07 Z"
         style="fill:none;stroke:#000000;stroke-width:0.5;stroke-linecap:square;stroke-linejoin:miter;stroke-miterlimit:3.25;stroke-dasharray:none;stroke-opacity:0.1"
         id="path216"
         inkscape:connector-curvature="0" /><path
         d="M 316.02,34.07 343.688,16.781 360.98,44.449 333.312,61.738 Z"
         style="fill:none;stroke:#000000;stroke-width:0.5;stroke-linecap:square;stroke-linejoin:miter;stroke-miterlimit:3.25;stroke-dasharray:none;stroke-opacity:0.1"
         id="path218"
         inkscape:connector-curvature="0" /><path
         d="M 333.312,61.738 360.98,44.449 378.27,72.113 350.605,89.406 Z"
         style="fill:none;stroke:#000000;stroke-width:0.5;stroke-linecap:square;stroke-linejoin:miter;stroke-miterlimit:3.25;stroke-dasharray:none;stroke-opacity:0.1"
         id="path220"
         inkscape:connector-curvature="0" /><path
         d="m 326.395,-10.887 27.667,-17.293 17.293,27.668 -27.667,17.293 z"
         style="fill:none;stroke:#000000;stroke-width:0.5;stroke-linecap:square;stroke-linejoin:miter;stroke-miterlimit:3.25;stroke-dasharray:none;stroke-opacity:0.1"
         id="path222"
         inkscape:connector-curvature="0" /><path
         d="m 343.688,16.781 27.667,-17.293 17.29,27.668 -27.665,17.293 z"
         style="fill:none;stroke:#000000;stroke-width:0.5;stroke-linecap:square;stroke-linejoin:miter;stroke-miterlimit:3.25;stroke-dasharray:none;stroke-opacity:0.1"
         id="path224"
         inkscape:connector-curvature="0" /><ellipse
         style="color:#000000;clip-rule:nonzero;display:inline;overflow:visible;visibility:visible;opacity:1;isolation:auto;mix-blend-mode:normal;color-interpolation:sRGB;color-interpolation-filters:linearRGB;solid-color:#000000;solid-opacity:1;fill:none;fill-opacity:1;fill-rule:evenodd;stroke:#c82300;stroke-width:0.75;stroke-linecap:round;stroke-linejoin:miter;stroke-miterlimit:3.25;stroke-dasharray:0.075, 0.075;stroke-dashoffset:0;stroke-opacity:1;paint-order:stroke fill markers;color-rendering:auto;image-rendering:auto;shape-rendering:auto;text-rendering:auto;enable-background:accumulate"
         id="path922"
         cx="125.29048"
         cy="-16.282789"
         transform="scale(1,-1)"
         rx="51.458595"
         ry="10.56517" /><ellipse
         style="color:#000000;clip-rule:nonzero;display:inline;overflow:visible;visibility:visible;opacity:1;isolation:auto;mix-blend-mode:normal;color-interpolation:sRGB;color-interpolation-filters:linearRGB;solid-color:#000000;solid-opacity:1;fill:none;fill-opacity:1;fill-rule:evenodd;stroke:#c82300;stroke-width:0.75;stroke-linecap:round;stroke-linejoin:miter;stroke-miterlimit:3.25;stroke-dasharray:0.075, 0.075;stroke-dashoffset:0;stroke-opacity:1;paint-order:stroke fill markers;color-rendering:auto;image-rendering:auto;shape-rendering:auto;text-rendering:auto;enable-background:accumulate"
         id="path922-3"
         cx="243.37181"
         cy="-15.909903"
         rx="51.458595"
         ry="10.56517"
         transform="scale(1,-1)" /></g></g></svg>