<?xml version="1.0" encoding="UTF-8" standalone="no"?>
<svg
   xmlns:dc="http://purl.org/dc/elements/1.1/"
   xmlns:cc="http://creativecommons.org/ns#"
   xmlns:rdf="http://www.w3.org/1999/02/22-rdf-syntax-ns#"
   xmlns:svg="http://www.w3.org/2000/svg"
   xmlns="http://www.w3.org/2000/svg"
   xmlns:sodipodi="http://sodipodi.sourceforge.net/DTD/sodipodi-0.dtd"
   xmlns:inkscape="http://www.inkscape.org/namespaces/inkscape"
   width="200pt"
   height="200pt"
   viewBox="0 0 200 200"
   version="1.1"
   id="svg2"
   inkscape:version="0.91 r13725"
   sodipodi:docname="Penrose_star_2.svg">
  <metadata
     id="metadata512">
    <rdf:RDF>
      <cc:Work
         rdf:about="">
        <dc:format>image/svg+xml</dc:format>
        <dc:type
           rdf:resource="http://purl.org/dc/dcmitype/StillImage" />
      </cc:Work>
    </rdf:RDF>
  </metadata>
  <sodipodi:namedview
     pagecolor="#ffffff"
     bordercolor="#666666"
     borderopacity="1"
     objecttolerance="10"
     gridtolerance="10"
     guidetolerance="10"
     inkscape:pageopacity="0"
     inkscape:pageshadow="2"
     inkscape:window-width="1920"
     inkscape:window-height="1021"
     id="namedview510"
     showgrid="false"
     inkscape:zoom="3.776"
     inkscape:cx="121.586"
     inkscape:cy="114.08145"
     inkscape:window-x="0"
     inkscape:window-y="27"
     inkscape:window-maximized="1"
     inkscape:current-layer="svg2" />
  <defs
     id="defs4">
    <clipPath
       id="clip0">
      <rect
         width="200"
         height="200"
         id="rect7" />
    </clipPath>
  </defs>
  <g
     id="surface0"
     clip-path="url(#clip0)">
    <path
       style="stroke:none;fill-rule:nonzero;fill:#00688b;opacity:1;stroke-width:1.7192;stroke-miterlimit:10;stroke-dasharray:none;fill-opacity:1"
       d="M 82.811523 87.511841 L 65.623062 100 L 100 100 "
       id="path10" />
    <path
       style="fill: none; stroke-width: 0.05; stroke-linecap: round; stroke-linejoin: round; stroke: rgb(50%,0%,20%); opacity: 1;stroke-miterlimit: 10;"
       d="M -0 0 L -0.190983 0.587785 L 0.618034 0 "
       transform="matrix(27.811529,20.206259,-20.206259,27.811529,82.811529,87.511845)"
       id="path12" />
    <path
       style="fill: none; stroke-width: 0.005; stroke-linecap: round; stroke-linejoin: round; stroke: rgb(50%,0%,20%); opacity: 1;stroke-miterlimit: 10;"
       d="M 0.618034 0 L -0 0 "
       transform="matrix(27.811529,20.206259,-20.206259,27.811529,82.811529,87.511845)"
       id="path14" />
    <path
       style="stroke:none;fill-rule:nonzero;fill:#00688b;opacity:1;fill-opacity:0.39215687"
       d="M 55 67.305588 L 82.811523 87.511841 L 65.623062 100 "
       id="path20" />
    <path
       style="fill: none; stroke-width: 0.05; stroke-linecap: round; stroke-linejoin: round; stroke: rgb(50%,0%,20%); opacity: 1;stroke-miterlimit: 10;"
       d="M 0 -0 L 0.809017 0.587785 L 1 0 "
       transform="matrix(10.623059,32.694414,32.694414,-10.623059,55,67.305586)"
       id="path22" />
    <path
       style="fill: none; stroke-width: 0.005; stroke-linecap: round; stroke-linejoin: round; stroke: rgb(50%,0%,20%); opacity: 1;stroke-miterlimit: 10;"
       d="M 1 0 L 0 -0 "
       transform="matrix(10.623059,32.694414,32.694414,-10.623059,55,67.305586)"
       id="path24" />
    <path
       style="stroke:none;fill-rule:nonzero;fill:#00688b;opacity:1;fill-opacity:0.39215687"
       d="M 55 67.305588 L 44.376938 100 L 65.623062 100 "
       id="path30" />
    <path
       style="fill: none; stroke-width: 0.05; stroke-linecap: round; stroke-linejoin: round; stroke: rgb(50%,0%,20%); opacity: 1;stroke-miterlimit: 10;"
       d="M 0 0 L 0.809017 0.587785 L 1 -0 "
       transform="matrix(10.623059,32.694414,-32.694414,10.623059,55,67.305586)"
       id="path32" />
    <path
       style="fill: none; stroke-width: 0.005; stroke-linecap: round; stroke-linejoin: round; stroke: rgb(50%,0%,20%); opacity: 1;stroke-miterlimit: 10;"
       d="M 1 -0 L 0 0 "
       transform="matrix(10.623059,32.694414,-32.694414,10.623059,55,67.305586)"
       id="path34" />
    <path
       style="stroke:none;fill-rule:nonzero;fill:#00688b;opacity:1;fill-opacity:0.39215687"
       d="M 27.188477 47.099335 L 37.811523 79.793747 L 55 67.305588 "
       id="path40" />
    <path
       style="fill: none; stroke-width: 0.05; stroke-linecap: round; stroke-linejoin: round; stroke: rgb(50%,0%,20%); opacity: 1;stroke-miterlimit: 10;"
       d="M 0 0 L 0.809017 0.587785 L 1 0 "
       transform="matrix(27.811529,20.206259,-20.206259,27.811529,27.188471,47.099327)"
       id="path42" />
    <path
       style="fill: none; stroke-width: 0.005; stroke-linecap: round; stroke-linejoin: round; stroke: rgb(50%,0%,20%); opacity: 1;stroke-miterlimit: 10;"
       d="M 1 0 L 0 0 "
       transform="matrix(27.811529,20.206259,-20.206259,27.811529,27.188471,47.099327)"
       id="path44" />
    <path
       style="stroke:none;fill-rule:nonzero;fill:#00688b;opacity:1;stroke-width:1.7192;stroke-miterlimit:10;stroke-dasharray:none;fill-opacity:1"
       d="M 37.811523 79.793747 L 55 67.305588 L 44.376938 100 "
       id="path50" />
    <path
       style="fill: none; stroke-width: 0.05; stroke-linecap: round; stroke-linejoin: round; stroke: rgb(50%,0%,20%); opacity: 1;stroke-miterlimit: 10;"
       d="M 0 -0 L -0.190983 0.587785 L 0.618034 -0 "
       transform="matrix(10.623059,32.694414,32.694414,-10.623059,37.811529,79.793741)"
       id="path52" />
    <path
       style="fill: none; stroke-width: 0.005; stroke-linecap: round; stroke-linejoin: round; stroke: rgb(50%,0%,20%); opacity: 1;stroke-miterlimit: 10;"
       d="M 0.618034 -0 L 0 -0 "
       transform="matrix(10.623059,32.694414,32.694414,-10.623059,37.811529,79.793741)"
       id="path54" />
    <path
       style="stroke:none;fill-rule:nonzero;fill:#00688b;opacity:1;stroke-width:1.7192;stroke-miterlimit:10;stroke-dasharray:none;fill-opacity:1"
       d="M 82.811523 112.488159 L 65.623062 100 L 100 100 "
       id="path60" />
    <path
       style="fill: none; stroke-width: 0.05; stroke-linecap: round; stroke-linejoin: round; stroke: rgb(50%,0%,20%); opacity: 1;stroke-miterlimit: 10;"
       d="M -0 0 L -0.190983 0.587785 L 0.618034 0 "
       transform="matrix(27.811529,-20.206259,-20.206259,-27.811529,82.811529,112.488155)"
       id="path62" />
    <path
       style="fill: none; stroke-width: 0.005; stroke-linecap: round; stroke-linejoin: round; stroke: rgb(50%,0%,20%); opacity: 1;stroke-miterlimit: 10;"
       d="M 0.618034 0 L -0 0 "
       transform="matrix(27.811529,-20.206259,-20.206259,-27.811529,82.811529,112.488155)"
       id="path64" />
    <path
       style="stroke:none;fill-rule:nonzero;fill:#00688b;opacity:1;fill-opacity:0.39215687"
       d="M 55 132.694412 L 82.811523 112.488159 L 65.623062 100 "
       id="path70" />
    <path
       style="fill: none; stroke-width: 0.05; stroke-linecap: round; stroke-linejoin: round; stroke: rgb(50%,0%,20%); opacity: 1;stroke-miterlimit: 10;"
       d="M 0 -0 L 0.809017 0.587785 L 1 0 "
       transform="matrix(10.623059,-32.694414,32.694414,10.623059,55,132.694414)"
       id="path72" />
    <path
       style="fill: none; stroke-width: 0.005; stroke-linecap: round; stroke-linejoin: round; stroke: rgb(50%,0%,20%); opacity: 1;stroke-miterlimit: 10;"
       d="M 1 0 L 0 -0 "
       transform="matrix(10.623059,-32.694414,32.694414,10.623059,55,132.694414)"
       id="path74" />
    <path
       style="stroke:none;fill-rule:nonzero;fill:#00688b;opacity:1;fill-opacity:0.39215687"
       d="M 55 132.694412 L 44.376938 100 L 65.623062 100 "
       id="path80" />
    <path
       style="fill: none; stroke-width: 0.05; stroke-linecap: round; stroke-linejoin: round; stroke: rgb(50%,0%,20%); opacity: 1;stroke-miterlimit: 10;"
       d="M 0 0 L 0.809017 0.587785 L 1 -0 "
       transform="matrix(10.623059,-32.694414,-32.694414,-10.623059,55,132.694414)"
       id="path82" />
    <path
       style="fill: none; stroke-width: 0.005; stroke-linecap: round; stroke-linejoin: round; stroke: rgb(50%,0%,20%); opacity: 1;stroke-miterlimit: 10;"
       d="M 1 -0 L 0 0 "
       transform="matrix(10.623059,-32.694414,-32.694414,-10.623059,55,132.694414)"
       id="path84" />
    <path
       style="stroke:none;fill-rule:nonzero;fill:#00688b;opacity:1;fill-opacity:0.39215687"
       d="M 27.188477 152.900665 L 37.811523 120.206253 L 55 132.694412 "
       id="path90" />
    <path
       style="fill: none; stroke-width: 0.05; stroke-linecap: round; stroke-linejoin: round; stroke: rgb(50%,0%,20%); opacity: 1;stroke-miterlimit: 10;"
       d="M 0 0 L 0.809017 0.587785 L 1 0 "
       transform="matrix(27.811529,-20.206259,-20.206259,-27.811529,27.188471,152.900673)"
       id="path92" />
    <path
       style="fill: none; stroke-width: 0.005; stroke-linecap: round; stroke-linejoin: round; stroke: rgb(50%,0%,20%); opacity: 1;stroke-miterlimit: 10;"
       d="M 1 0 L 0 0 "
       transform="matrix(27.811529,-20.206259,-20.206259,-27.811529,27.188471,152.900673)"
       id="path94" />
    <path
       style="stroke:none;fill-rule:nonzero;fill:#00688b;opacity:1;fill-opacity:1"
       d="M 37.811523 120.206253 L 55 132.694412 L 44.376938 100 "
       id="path100" />
    <path
       style="fill:none;stroke-width:0.05001027;stroke-linecap:round;stroke-linejoin:round;stroke:rgb(50%, 0%, 20%);opacity:1;stroke-miterlimit:10;stroke-dasharray:none"
       d="M 0 -0 L -0.190983 0.587785 L 0.618034 -0 "
       transform="matrix(10.623059,-32.694414,32.694414,10.623059,37.811529,120.206259)"
       id="path102" />
    <path
       style="fill: none; stroke-width: 0.005; stroke-linecap: round; stroke-linejoin: round; stroke: rgb(50%,0%,20%); opacity: 1;stroke-miterlimit: 10;"
       d="M 0.618034 -0 L 0 -0 "
       transform="matrix(10.623059,-32.694414,32.694414,10.623059,37.811529,120.206259)"
       id="path104" />
    <path
       style="stroke:none;fill-rule:nonzero;fill:#00688b;opacity:1;stroke-width:1.7192;stroke-miterlimit:10;stroke-dasharray:none;fill-opacity:1"
       d="M 82.811523 112.488159 L 89.376938 132.694412 L 100 100 "
       id="path110" />
    <path
       style="fill: none; stroke-width: 0.05; stroke-linecap: round; stroke-linejoin: round; stroke: rgb(50%,0%,20%); opacity: 1;stroke-miterlimit: 10;"
       d="M -0 -0 L -0.190983 0.587785 L 0.618034 -0 "
       transform="matrix(27.811529,-20.206259,20.206259,27.811529,82.811529,112.488155)"
       id="path112" />
    <path
       style="fill: none; stroke-width: 0.005; stroke-linecap: round; stroke-linejoin: round; stroke: rgb(50%,0%,20%); opacity: 1;stroke-miterlimit: 10;"
       d="M 0.618034 -0 L -0 -0 "
       transform="matrix(27.811529,-20.206259,20.206259,27.811529,82.811529,112.488155)"
       id="path114" />
    <path
       style="stroke:none;fill-rule:nonzero;fill:#00688b;opacity:1;fill-opacity:0.39215687"
       d="M 55 132.694412 L 82.811523 112.488159 L 89.376938 132.694412 "
       id="path120" />
    <path
       style="fill: none; stroke-width: 0.05; stroke-linecap: round; stroke-linejoin: round; stroke: rgb(50%,0%,20%); opacity: 1;stroke-miterlimit: 10;"
       d="M 0 0 L 0.809017 0.587785 L 1 0 "
       transform="matrix(34.376941,0,0,-34.376941,55,132.694414)"
       id="path122" />
    <path
       style="fill: none; stroke-width: 0.005; stroke-linecap: round; stroke-linejoin: round; stroke: rgb(50%,0%,20%); opacity: 1;stroke-miterlimit: 10;"
       d="M 1 0 L 0 0 "
       transform="matrix(34.376941,0,0,-34.376941,55,132.694414)"
       id="path124" />
    <path
       style="stroke:none;fill-rule:nonzero;fill:#00688b;opacity:1;fill-opacity:0.39215687"
       d="M 55 132.694412 L 82.811523 152.900665 L 89.376938 132.694412 "
       id="path130" />
    <path
       style="fill: none; stroke-width: 0.05; stroke-linecap: round; stroke-linejoin: round; stroke: rgb(50%,0%,20%); opacity: 1;stroke-miterlimit: 10;"
       d="M 0 -0 L 0.809017 0.587785 L 1 -0 "
       transform="matrix(34.376941,0,-0,34.376941,55,132.694414)"
       id="path132" />
    <path
       style="fill: none; stroke-width: 0.005; stroke-linecap: round; stroke-linejoin: round; stroke: rgb(50%,0%,20%); opacity: 1;stroke-miterlimit: 10;"
       d="M 1 -0 L 0 -0 "
       transform="matrix(34.376941,0,-0,34.376941,55,132.694414)"
       id="path134" />
    <path
       style="stroke:none;fill-rule:nonzero;fill:#00688b;opacity:1;fill-opacity:0.39215687"
       d="M 27.188477 152.900665 L 61.565414 152.900665 L 55 132.694412 "
       id="path140" />
    <path
       style="fill: none; stroke-width: 0.05; stroke-linecap: round; stroke-linejoin: round; stroke: rgb(50%,0%,20%); opacity: 1;stroke-miterlimit: 10;"
       d="M 0 -0 L 0.809017 0.587785 L 1 -0 "
       transform="matrix(27.811529,-20.206259,20.206259,27.811529,27.188471,152.900673)"
       id="path142" />
    <path
       style="fill: none; stroke-width: 0.005; stroke-linecap: round; stroke-linejoin: round; stroke: rgb(50%,0%,20%); opacity: 1;stroke-miterlimit: 10;"
       d="M 1 -0 L 0 -0 "
       transform="matrix(27.811529,-20.206259,20.206259,27.811529,27.188471,152.900673)"
       id="path144" />
    <path
       style="stroke:none;fill-rule:nonzero;fill:#00688b;opacity:1;stroke-width:1.7192;stroke-miterlimit:10;stroke-dasharray:none;fill-opacity:1"
       d="M 61.565414 152.900665 L 55 132.694412 L 82.811523 152.900665 "
       id="path150" />
    <path
       style="fill: none; stroke-width: 0.05; stroke-linecap: round; stroke-linejoin: round; stroke: rgb(50%,0%,20%); opacity: 1;stroke-miterlimit: 10;"
       d="M 0 0 L -0.190983 0.587785 L 0.618034 0 "
       transform="matrix(34.376941,0,0,-34.376941,61.565412,152.900673)"
       id="path152" />
    <path
       style="fill: none; stroke-width: 0.005; stroke-linecap: round; stroke-linejoin: round; stroke: rgb(50%,0%,20%); opacity: 1;stroke-miterlimit: 10;"
       d="M 0.618034 0 L 0 0 "
       transform="matrix(34.376941,0,0,-34.376941,61.565412,152.900673)"
       id="path154" />
    <path
       style="stroke:none;fill-rule:nonzero;fill:#00688b;opacity:1;stroke-width:1.7192;stroke-miterlimit:10;stroke-dasharray:none;fill-opacity:1"
       d="M 82.811523 87.511841 L 89.376938 67.305588 L 100 100 "
       id="path160" />
    <path
       style="fill: none; stroke-width: 0.05; stroke-linecap: round; stroke-linejoin: round; stroke: rgb(50%,0%,20%); opacity: 1;stroke-miterlimit: 10;"
       d="M -0 -0 L -0.190983 0.587785 L 0.618034 0 "
       transform="matrix(27.811529,20.206259,20.206259,-27.811529,82.811529,87.511845)"
       id="path162" />
    <path
       style="fill: none; stroke-width: 0.005; stroke-linecap: round; stroke-linejoin: round; stroke: rgb(50%,0%,20%); opacity: 1;stroke-miterlimit: 10;"
       d="M 0.618034 0 L -0 -0 "
       transform="matrix(27.811529,20.206259,20.206259,-27.811529,82.811529,87.511845)"
       id="path164" />
    <path
       style="stroke:none;fill-rule:nonzero;fill:#00688b;opacity:1;fill-opacity:0.39215687"
       d="M 55 67.305588 L 82.811523 87.511841 L 89.376938 67.305588 "
       id="path170" />
    <path
       style="fill: none; stroke-width: 0.05; stroke-linecap: round; stroke-linejoin: round; stroke: rgb(50%,0%,20%); opacity: 1;stroke-miterlimit: 10;"
       d="M -0 0 L 0.809017 0.587785 L 1 0 "
       transform="matrix(34.376941,-0,0,34.376941,55,67.305586)"
       id="path172" />
    <path
       style="fill: none; stroke-width: 0.005; stroke-linecap: round; stroke-linejoin: round; stroke: rgb(50%,0%,20%); opacity: 1;stroke-miterlimit: 10;"
       d="M 1 0 L -0 0 "
       transform="matrix(34.376941,-0,0,34.376941,55,67.305586)"
       id="path174" />
    <path
       style="stroke:none;fill-rule:nonzero;fill:#00688b;opacity:1;fill-opacity:0.39215687"
       d="M 55 67.305588 L 82.811523 47.099335 L 89.376938 67.305588 "
       id="path180" />
    <path
       style="fill: none; stroke-width: 0.05; stroke-linecap: round; stroke-linejoin: round; stroke: rgb(50%,0%,20%); opacity: 1;stroke-miterlimit: 10;"
       d="M -0 -0 L 0.809017 0.587785 L 1 -0 "
       transform="matrix(34.376941,-0,-0,-34.376941,55,67.305586)"
       id="path182" />
    <path
       style="fill: none; stroke-width: 0.005; stroke-linecap: round; stroke-linejoin: round; stroke: rgb(50%,0%,20%); opacity: 1;stroke-miterlimit: 10;"
       d="M 1 -0 L -0 -0 "
       transform="matrix(34.376941,-0,-0,-34.376941,55,67.305586)"
       id="path184" />
    <path
       style="stroke:none;fill-rule:nonzero;fill:#00688b;opacity:1;fill-opacity:0.39215687"
       d="M 27.188477 47.099335 L 61.565414 47.099335 L 55 67.305588 "
       id="path190" />
    <path
       style="fill: none; stroke-width: 0.05; stroke-linecap: round; stroke-linejoin: round; stroke: rgb(50%,0%,20%); opacity: 1;stroke-miterlimit: 10;"
       d="M 0 -0 L 0.809017 0.587785 L 1 -0 "
       transform="matrix(27.811529,20.206259,20.206259,-27.811529,27.188471,47.099327)"
       id="path192" />
    <path
       style="fill: none; stroke-width: 0.005; stroke-linecap: round; stroke-linejoin: round; stroke: rgb(50%,0%,20%); opacity: 1;stroke-miterlimit: 10;"
       d="M 1 -0 L 0 -0 "
       transform="matrix(27.811529,20.206259,20.206259,-27.811529,27.188471,47.099327)"
       id="path194" />
    <path
       style="stroke:none;fill-rule:nonzero;fill:#00688b;opacity:1;stroke-width:1.7192;stroke-miterlimit:10;stroke-dasharray:none;fill-opacity:1"
       d="M 61.565414 47.099335 L 55 67.305588 L 82.811523 47.099335 "
       id="path200" />
    <path
       style="fill: none; stroke-width: 0.05; stroke-linecap: round; stroke-linejoin: round; stroke: rgb(50%,0%,20%); opacity: 1;stroke-miterlimit: 10;"
       d="M 0 0 L -0.190983 0.587785 L 0.618034 0 "
       transform="matrix(34.376941,-0,0,34.376941,61.565412,47.099327)"
       id="path202" />
    <path
       style="fill: none; stroke-width: 0.005; stroke-linecap: round; stroke-linejoin: round; stroke: rgb(50%,0%,20%); opacity: 1;stroke-miterlimit: 10;"
       d="M 0.618034 0 L 0 0 "
       transform="matrix(34.376941,-0,0,34.376941,61.565412,47.099327)"
       id="path204" />
    <path
       style="stroke:none;fill-rule:nonzero;fill:#00688b;opacity:1;stroke-width:1.7192;stroke-miterlimit:10;stroke-dasharray:none;fill-opacity:1"
       d="M 106.565414 120.206253 L 127.811523 120.206253 L 100 100 "
       id="path210" />
    <path
       style="fill: none; stroke-width: 0.05; stroke-linecap: round; stroke-linejoin: round; stroke: rgb(50%,0%,20%); opacity: 1;stroke-miterlimit: 10;"
       d="M 0 0 L -0.190983 0.587785 L 0.618034 -0 "
       transform="matrix(-10.623059,-32.694414,32.694414,-10.623059,106.565412,120.206259)"
       id="path212" />
    <path
       style="fill: none; stroke-width: 0.005; stroke-linecap: round; stroke-linejoin: round; stroke: rgb(50%,0%,20%); opacity: 1;stroke-miterlimit: 10;"
       d="M 0.618034 -0 L 0 0 "
       transform="matrix(-10.623059,-32.694414,32.694414,-10.623059,106.565412,120.206259)"
       id="path214" />
    <path
       style="stroke:none;fill-rule:nonzero;fill:#00688b;opacity:1;fill-opacity:0.39215687"
       d="M 117.188477 152.900665 L 106.565414 120.206253 L 127.811523 120.206253 "
       id="path220" />
    <path
       style="fill: none; stroke-width: 0.05; stroke-linecap: round; stroke-linejoin: round; stroke: rgb(50%,0%,20%); opacity: 1;stroke-miterlimit: 10;"
       d="M 0 -0 L 0.809017 0.587785 L 1 0 "
       transform="matrix(10.623059,-32.694414,-32.694414,-10.623059,117.188471,152.900673)"
       id="path222" />
    <path
       style="fill: none; stroke-width: 0.005; stroke-linecap: round; stroke-linejoin: round; stroke: rgb(50%,0%,20%); opacity: 1;stroke-miterlimit: 10;"
       d="M 1 0 L 0 -0 "
       transform="matrix(10.623059,-32.694414,-32.694414,-10.623059,117.188471,152.900673)"
       id="path224" />
    <path
       style="stroke:none;fill-rule:nonzero;fill:#00688b;opacity:1;fill-opacity:0.39215687"
       d="M 117.188477 152.900665 L 145 132.694412 L 127.811523 120.206253 "
       id="path230" />
    <path
       style="fill: none; stroke-width: 0.05; stroke-linecap: round; stroke-linejoin: round; stroke: rgb(50%,0%,20%); opacity: 1;stroke-miterlimit: 10;"
       d="M 0 0 L 0.809017 0.587785 L 1 -0 "
       transform="matrix(10.623059,-32.694414,32.694414,10.623059,117.188471,152.900673)"
       id="path232" />
    <path
       style="fill: none; stroke-width: 0.005; stroke-linecap: round; stroke-linejoin: round; stroke: rgb(50%,0%,20%); opacity: 1;stroke-miterlimit: 10;"
       d="M 1 -0 L 0 0 "
       transform="matrix(10.623059,-32.694414,32.694414,10.623059,117.188471,152.900673)"
       id="path234" />
    <path
       style="stroke:none;fill-rule:nonzero;fill:#00688b;opacity:1;fill-opacity:0.39215687"
       d="M 127.811523 185.595093 L 138.434586 152.900665 L 117.188477 152.900665 "
       id="path240" />
    <path
       style="fill: none; stroke-width: 0.05; stroke-linecap: round; stroke-linejoin: round; stroke: rgb(50%,0%,20%); opacity: 1;stroke-miterlimit: 10;"
       d="M -0 -0 L 0.809017 0.587785 L 1 0 "
       transform="matrix(-10.623059,-32.694414,32.694414,-10.623059,127.811529,185.595086)"
       id="path242" />
    <path
       style="fill: none; stroke-width: 0.005; stroke-linecap: round; stroke-linejoin: round; stroke: rgb(50%,0%,20%); opacity: 1;stroke-miterlimit: 10;"
       d="M 1 0 L -0 -0 "
       transform="matrix(-10.623059,-32.694414,32.694414,-10.623059,127.811529,185.595086)"
       id="path244" />
    <path
       style="stroke:none;fill-rule:nonzero;fill:#00688b;opacity:1;stroke-width:1.7192;stroke-miterlimit:10;stroke-dasharray:none;fill-opacity:1"
       d="M 138.434586 152.900665 L 117.188477 152.900665 L 145 132.694412 "
       id="path250" />
    <path
       style="fill: none; stroke-width: 0.05; stroke-linecap: round; stroke-linejoin: round; stroke: rgb(50%,0%,20%); opacity: 1;stroke-miterlimit: 10;"
       d="M 0 0 L -0.190983 0.587785 L 0.618034 0 "
       transform="matrix(10.623059,-32.694414,-32.694414,-10.623059,138.434588,152.900673)"
       id="path252" />
    <path
       style="fill: none; stroke-width: 0.005; stroke-linecap: round; stroke-linejoin: round; stroke: rgb(50%,0%,20%); opacity: 1;stroke-miterlimit: 10;"
       d="M 0.618034 0 L 0 0 "
       transform="matrix(10.623059,-32.694414,-32.694414,-10.623059,138.434588,152.900673)"
       id="path254" />
    <path
       style="stroke:none;fill-rule:nonzero;fill:#00688b;opacity:1;stroke-width:1.7192;stroke-miterlimit:10;stroke-dasharray:none;fill-opacity:1"
       d="M 106.565414 79.793747 L 127.811523 79.793747 L 100 100 "
       id="path260" />
    <path
       style="fill: none; stroke-width: 0.05; stroke-linecap: round; stroke-linejoin: round; stroke: rgb(50%,0%,20%); opacity: 1;stroke-miterlimit: 10;"
       d="M 0 0 L -0.190983 0.587785 L 0.618034 -0 "
       transform="matrix(-10.623059,32.694414,32.694414,10.623059,106.565412,79.793741)"
       id="path262" />
    <path
       style="fill: none; stroke-width: 0.005; stroke-linecap: round; stroke-linejoin: round; stroke: rgb(50%,0%,20%); opacity: 1;stroke-miterlimit: 10;"
       d="M 0.618034 -0 L 0 0 "
       transform="matrix(-10.623059,32.694414,32.694414,10.623059,106.565412,79.793741)"
       id="path264" />
    <path
       style="stroke:none;fill-rule:nonzero;fill:#00688b;opacity:1;fill-opacity:0.39215687"
       d="M 117.188477 47.099335 L 106.565414 79.793747 L 127.811523 79.793747 "
       id="path270" />
    <path
       style="fill: none; stroke-width: 0.05; stroke-linecap: round; stroke-linejoin: round; stroke: rgb(50%,0%,20%); opacity: 1;stroke-miterlimit: 10;"
       d="M 0 -0 L 0.809017 0.587785 L 1 0 "
       transform="matrix(10.623059,32.694414,-32.694414,10.623059,117.188471,47.099327)"
       id="path272" />
    <path
       style="fill: none; stroke-width: 0.005; stroke-linecap: round; stroke-linejoin: round; stroke: rgb(50%,0%,20%); opacity: 1;stroke-miterlimit: 10;"
       d="M 1 0 L 0 -0 "
       transform="matrix(10.623059,32.694414,-32.694414,10.623059,117.188471,47.099327)"
       id="path274" />
    <path
       style="stroke:none;fill-rule:nonzero;fill:#00688b;opacity:1;fill-opacity:0.39215687"
       d="M 117.188477 47.099335 L 145 67.305588 L 127.811523 79.793747 "
       id="path280" />
    <path
       style="fill: none; stroke-width: 0.05; stroke-linecap: round; stroke-linejoin: round; stroke: rgb(50%,0%,20%); opacity: 1;stroke-miterlimit: 10;"
       d="M 0 0 L 0.809017 0.587785 L 1 -0 "
       transform="matrix(10.623059,32.694414,32.694414,-10.623059,117.188471,47.099327)"
       id="path282" />
    <path
       style="fill: none; stroke-width: 0.005; stroke-linecap: round; stroke-linejoin: round; stroke: rgb(50%,0%,20%); opacity: 1;stroke-miterlimit: 10;"
       d="M 1 -0 L 0 0 "
       transform="matrix(10.623059,32.694414,32.694414,-10.623059,117.188471,47.099327)"
       id="path284" />
    <path
       style="stroke:none;fill-rule:nonzero;fill:#00688b;opacity:1;fill-opacity:0.39215687"
       d="M 127.811523 14.404907 L 138.434586 47.099335 L 117.188477 47.099335 "
       id="path290" />
    <path
       style="fill: none; stroke-width: 0.05; stroke-linecap: round; stroke-linejoin: round; stroke: rgb(50%,0%,20%); opacity: 1;stroke-miterlimit: 10;"
       d="M -0 -0 L 0.809017 0.587785 L 1 0 "
       transform="matrix(-10.623059,32.694414,32.694414,10.623059,127.811529,14.404914)"
       id="path292" />
    <path
       style="fill: none; stroke-width: 0.005; stroke-linecap: round; stroke-linejoin: round; stroke: rgb(50%,0%,20%); opacity: 1;stroke-miterlimit: 10;"
       d="M 1 0 L -0 -0 "
       transform="matrix(-10.623059,32.694414,32.694414,10.623059,127.811529,14.404914)"
       id="path294" />
    <path
       style="stroke:none;fill-rule:nonzero;fill:#00688b;opacity:1;stroke-width:1.7192;stroke-miterlimit:10;stroke-dasharray:none;fill-opacity:1"
       d="M 138.434586 47.099335 L 117.188477 47.099335 L 145 67.305588 "
       id="path300" />
    <path
       style="fill: none; stroke-width: 0.05; stroke-linecap: round; stroke-linejoin: round; stroke: rgb(50%,0%,20%); opacity: 1;stroke-miterlimit: 10;"
       d="M 0 0 L -0.190983 0.587785 L 0.618034 0 "
       transform="matrix(10.623059,32.694414,-32.694414,10.623059,138.434588,47.099327)"
       id="path302" />
    <path
       style="fill: none; stroke-width: 0.005; stroke-linecap: round; stroke-linejoin: round; stroke: rgb(50%,0%,20%); opacity: 1;stroke-miterlimit: 10;"
       d="M 0.618034 0 L 0 0 "
       transform="matrix(10.623059,32.694414,-32.694414,10.623059,138.434588,47.099327)"
       id="path304" />
    <path
       style="stroke:none;fill-rule:nonzero;fill:#00688b;opacity:1;stroke-width:1.7192;stroke-miterlimit:10;stroke-dasharray:none;fill-opacity:1"
       d="M 121.246124 100 L 127.811523 79.793747 L 100 100 "
       id="path310" />
    <path
       style="fill: none; stroke-width: 0.05; stroke-linecap: round; stroke-linejoin: round; stroke: rgb(50%,0%,20%); opacity: 1;stroke-miterlimit: 10;"
       d="M -0 0 L -0.190983 0.587785 L 0.618034 0 "
       transform="matrix(-34.376941,-0,0,-34.376941,121.246118,100)"
       id="path312" />
    <path
       style="fill: none; stroke-width: 0.005; stroke-linecap: round; stroke-linejoin: round; stroke: rgb(50%,0%,20%); opacity: 1;stroke-miterlimit: 10;"
       d="M 0.618034 0 L -0 0 "
       transform="matrix(-34.376941,-0,0,-34.376941,121.246118,100)"
       id="path314" />
    <path
       style="stroke:none;fill-rule:nonzero;fill:#00688b;opacity:1;fill-opacity:0.39215687"
       d="M 155.623062 100 L 121.246124 100 L 127.811523 79.793747 "
       id="path320" />
    <path
       style="fill: none; stroke-width: 0.05; stroke-linecap: round; stroke-linejoin: round; stroke: rgb(50%,0%,20%); opacity: 1;stroke-miterlimit: 10;"
       d="M -0 -0 L 0.809017 0.587785 L 1 0 "
       transform="matrix(-27.811529,-20.206259,-20.206259,27.811529,155.623059,100)"
       id="path322" />
    <path
       style="fill: none; stroke-width: 0.005; stroke-linecap: round; stroke-linejoin: round; stroke: rgb(50%,0%,20%); opacity: 1;stroke-miterlimit: 10;"
       d="M 1 0 L -0 -0 "
       transform="matrix(-27.811529,-20.206259,-20.206259,27.811529,155.623059,100)"
       id="path324" />
    <path
       style="stroke:none;fill-rule:nonzero;fill:#00688b;opacity:1;fill-opacity:0.39215687"
       d="M 155.623062 100 L 145 67.305588 L 127.811523 79.793747 "
       id="path330" />
    <path
       style="fill: none; stroke-width: 0.05; stroke-linecap: round; stroke-linejoin: round; stroke: rgb(50%,0%,20%); opacity: 1;stroke-miterlimit: 10;"
       d="M -0 0 L 0.809017 0.587785 L 1 -0 "
       transform="matrix(-27.811529,-20.206259,20.206259,-27.811529,155.623059,100)"
       id="path332" />
    <path
       style="fill: none; stroke-width: 0.005; stroke-linecap: round; stroke-linejoin: round; stroke: rgb(50%,0%,20%); opacity: 1;stroke-miterlimit: 10;"
       d="M 1 -0 L -0 0 "
       transform="matrix(-27.811529,-20.206259,20.206259,-27.811529,155.623059,100)"
       id="path334" />
    <path
       style="stroke:none;fill-rule:nonzero;fill:#00688b;opacity:1;fill-opacity:0.39215687"
       d="M 190 100 L 162.188477 79.793747 L 155.623062 100 "
       id="path340" />
    <path
       style="fill: none; stroke-width: 0.05; stroke-linecap: round; stroke-linejoin: round; stroke: rgb(50%,0%,20%); opacity: 1;stroke-miterlimit: 10;"
       d="M -0 0 L 0.809017 0.587785 L 1 0 "
       transform="matrix(-34.376941,-0,0,-34.376941,190,100)"
       id="path342" />
    <path
       style="fill: none; stroke-width: 0.005; stroke-linecap: round; stroke-linejoin: round; stroke: rgb(50%,0%,20%); opacity: 1;stroke-miterlimit: 10;"
       d="M 1 0 L -0 0 "
       transform="matrix(-34.376941,-0,0,-34.376941,190,100)"
       id="path344" />
    <path
       style="stroke:none;fill-rule:nonzero;fill:#00688b;opacity:1;stroke-width:1.7192;stroke-miterlimit:10;stroke-dasharray:none;fill-opacity:1"
       d="M 162.188477 79.793747 L 155.623062 100 L 145 67.305588 "
       id="path350" />
    <path
       style="fill: none; stroke-width: 0.05; stroke-linecap: round; stroke-linejoin: round; stroke: rgb(50%,0%,20%); opacity: 1;stroke-miterlimit: 10;"
       d="M -0 0 L -0.190983 0.587785 L 0.618034 0 "
       transform="matrix(-27.811529,-20.206259,-20.206259,27.811529,162.188471,79.793741)"
       id="path352" />
    <path
       style="fill: none; stroke-width: 0.005; stroke-linecap: round; stroke-linejoin: round; stroke: rgb(50%,0%,20%); opacity: 1;stroke-miterlimit: 10;"
       d="M 0.618034 0 L -0 0 "
       transform="matrix(-27.811529,-20.206259,-20.206259,27.811529,162.188471,79.793741)"
       id="path354" />
    <path
       style="stroke:none;fill-rule:nonzero;fill:#00688b;opacity:1;stroke-width:1.7192;stroke-miterlimit:10;stroke-dasharray:none;fill-opacity:1"
       d="M 121.246124 100 L 127.811523 120.206253 L 100 100 "
       id="path360" />
    <path
       style="fill: none; stroke-width: 0.05; stroke-linecap: round; stroke-linejoin: round; stroke: rgb(50%,0%,20%); opacity: 1;stroke-miterlimit: 10;"
       d="M -0 0 L -0.190983 0.587785 L 0.618034 0 "
       transform="matrix(-34.376941,0,0,34.376941,121.246118,100)"
       id="path362" />
    <path
       style="fill: none; stroke-width: 0.005; stroke-linecap: round; stroke-linejoin: round; stroke: rgb(50%,0%,20%); opacity: 1;stroke-miterlimit: 10;"
       d="M 0.618034 0 L -0 0 "
       transform="matrix(-34.376941,0,0,34.376941,121.246118,100)"
       id="path364" />
    <path
       style="stroke:none;fill-rule:nonzero;fill:#00688b;opacity:1;fill-opacity:0.39215687"
       d="M 155.623062 100 L 121.246124 100 L 127.811523 120.206253 "
       id="path370" />
    <path
       style="fill: none; stroke-width: 0.05; stroke-linecap: round; stroke-linejoin: round; stroke: rgb(50%,0%,20%); opacity: 1;stroke-miterlimit: 10;"
       d="M -0 -0 L 0.809017 0.587785 L 1 0 "
       transform="matrix(-27.811529,20.206259,-20.206259,-27.811529,155.623059,100)"
       id="path372" />
    <path
       style="fill: none; stroke-width: 0.005; stroke-linecap: round; stroke-linejoin: round; stroke: rgb(50%,0%,20%); opacity: 1;stroke-miterlimit: 10;"
       d="M 1 0 L -0 -0 "
       transform="matrix(-27.811529,20.206259,-20.206259,-27.811529,155.623059,100)"
       id="path374" />
    <path
       style="stroke:none;fill-rule:nonzero;fill:#00688b;opacity:1;fill-opacity:0.39215687"
       d="M 155.623062 100 L 145 132.694412 L 127.811523 120.206253 "
       id="path380" />
    <path
       style="fill: none; stroke-width: 0.05; stroke-linecap: round; stroke-linejoin: round; stroke: rgb(50%,0%,20%); opacity: 1;stroke-miterlimit: 10;"
       d="M -0 0 L 0.809017 0.587785 L 1 -0 "
       transform="matrix(-27.811529,20.206259,20.206259,27.811529,155.623059,100)"
       id="path382" />
    <path
       style="fill: none; stroke-width: 0.005; stroke-linecap: round; stroke-linejoin: round; stroke: rgb(50%,0%,20%); opacity: 1;stroke-miterlimit: 10;"
       d="M 1 -0 L -0 0 "
       transform="matrix(-27.811529,20.206259,20.206259,27.811529,155.623059,100)"
       id="path384" />
    <path
       style="stroke:none;fill-rule:nonzero;fill:#00688b;opacity:1;fill-opacity:0.39215687"
       d="M 190 100 L 162.188477 120.206253 L 155.623062 100 "
       id="path390" />
    <path
       style="fill: none; stroke-width: 0.05; stroke-linecap: round; stroke-linejoin: round; stroke: rgb(50%,0%,20%); opacity: 1;stroke-miterlimit: 10;"
       d="M -0 0 L 0.809017 0.587785 L 1 0 "
       transform="matrix(-34.376941,0,0,34.376941,190,100)"
       id="path392" />
    <path
       style="fill: none; stroke-width: 0.005; stroke-linecap: round; stroke-linejoin: round; stroke: rgb(50%,0%,20%); opacity: 1;stroke-miterlimit: 10;"
       d="M 1 0 L -0 0 "
       transform="matrix(-34.376941,0,0,34.376941,190,100)"
       id="path394" />
    <path
       style="stroke:none;fill-rule:nonzero;fill:#00688b;opacity:1;stroke-width:1.7192;stroke-miterlimit:10;stroke-dasharray:none;fill-opacity:1"
       d="M 162.188477 120.206253 L 155.623062 100 L 145 132.694412 "
       id="path400" />
    <path
       style="fill: none; stroke-width: 0.05; stroke-linecap: round; stroke-linejoin: round; stroke: rgb(50%,0%,20%); opacity: 1;stroke-miterlimit: 10;"
       d="M -0 0 L -0.190983 0.587785 L 0.618034 0 "
       transform="matrix(-27.811529,20.206259,-20.206259,-27.811529,162.188471,120.206259)"
       id="path402" />
    <path
       style="fill: none; stroke-width: 0.005; stroke-linecap: round; stroke-linejoin: round; stroke: rgb(50%,0%,20%); opacity: 1;stroke-miterlimit: 10;"
       d="M 0.618034 0 L -0 0 "
       transform="matrix(-27.811529,20.206259,-20.206259,-27.811529,162.188471,120.206259)"
       id="path404" />
    <path
       style="stroke:none;fill-rule:nonzero;fill:#00688b;opacity:1;stroke-width:1.7192;stroke-miterlimit:10;stroke-dasharray:none;fill-opacity:1"
       d="M 106.565414 79.793747 L 89.376938 67.305588 L 100 100 "
       id="path410" />
    <path
       style="fill: none; stroke-width: 0.05; stroke-linecap: round; stroke-linejoin: round; stroke: rgb(50%,0%,20%); opacity: 1;stroke-miterlimit: 10;"
       d="M 0 -0 L -0.190983 0.587785 L 0.618034 0 "
       transform="matrix(-10.623059,32.694414,-32.694414,-10.623059,106.565412,79.793741)"
       id="path412" />
    <path
       style="fill: none; stroke-width: 0.005; stroke-linecap: round; stroke-linejoin: round; stroke: rgb(50%,0%,20%); opacity: 1;stroke-miterlimit: 10;"
       d="M 0.618034 0 L 0 -0 "
       transform="matrix(-10.623059,32.694414,-32.694414,-10.623059,106.565412,79.793741)"
       id="path414" />
    <path
       style="stroke:none;fill-rule:nonzero;fill:#00688b;opacity:1;fill-opacity:0.39215687"
       d="M 117.188477 47.099335 L 106.565414 79.793747 L 89.376938 67.305588 "
       id="path420" />
    <path
       style="fill: none; stroke-width: 0.05; stroke-linecap: round; stroke-linejoin: round; stroke: rgb(50%,0%,20%); opacity: 1;stroke-miterlimit: 10;"
       d="M -0 0 L 0.809017 0.587785 L 1 -0 "
       transform="matrix(-27.811529,20.206259,20.206259,27.811529,117.188471,47.099327)"
       id="path422" />
    <path
       style="fill: none; stroke-width: 0.005; stroke-linecap: round; stroke-linejoin: round; stroke: rgb(50%,0%,20%); opacity: 1;stroke-miterlimit: 10;"
       d="M 1 -0 L -0 0 "
       transform="matrix(-27.811529,20.206259,20.206259,27.811529,117.188471,47.099327)"
       id="path424" />
    <path
       style="stroke:none;fill-rule:nonzero;fill:#00688b;opacity:1;fill-opacity:0.39215687"
       d="M 117.188477 47.099335 L 82.811523 47.099335 L 89.376938 67.305588 "
       id="path430" />
    <path
       style="fill: none; stroke-width: 0.05; stroke-linecap: round; stroke-linejoin: round; stroke: rgb(50%,0%,20%); opacity: 1;stroke-miterlimit: 10;"
       d="M -0 -0 L 0.809017 0.587785 L 1 0 "
       transform="matrix(-27.811529,20.206259,-20.206259,-27.811529,117.188471,47.099327)"
       id="path432" />
    <path
       style="fill: none; stroke-width: 0.005; stroke-linecap: round; stroke-linejoin: round; stroke: rgb(50%,0%,20%); opacity: 1;stroke-miterlimit: 10;"
       d="M 1 0 L -0 -0 "
       transform="matrix(-27.811529,20.206259,-20.206259,-27.811529,117.188471,47.099327)"
       id="path434" />
    <path
       style="stroke:none;fill-rule:nonzero;fill:#00688b;opacity:1;fill-opacity:0.39215687"
       d="M 127.811523 14.404907 L 100 34.611176 L 117.188477 47.099335 "
       id="path440" />
    <path
       style="fill: none; stroke-width: 0.05; stroke-linecap: round; stroke-linejoin: round; stroke: rgb(50%,0%,20%); opacity: 1;stroke-miterlimit: 10;"
       d="M -0 0 L 0.809017 0.587785 L 1 -0 "
       transform="matrix(-10.623059,32.694414,-32.694414,-10.623059,127.811529,14.404914)"
       id="path442" />
    <path
       style="fill: none; stroke-width: 0.005; stroke-linecap: round; stroke-linejoin: round; stroke: rgb(50%,0%,20%); opacity: 1;stroke-miterlimit: 10;"
       d="M 1 -0 L -0 0 "
       transform="matrix(-10.623059,32.694414,-32.694414,-10.623059,127.811529,14.404914)"
       id="path444" />
    <path
       style="stroke:none;fill-rule:nonzero;fill:#00688b;opacity:1;stroke-width:1.7192;stroke-miterlimit:10;stroke-dasharray:none;fill-opacity:1"
       d="M 100 34.611176 L 117.188477 47.099335 L 82.811523 47.099335 "
       id="path450" />
    <path
       style="fill: none; stroke-width: 0.05; stroke-linecap: round; stroke-linejoin: round; stroke: rgb(50%,0%,20%); opacity: 1;stroke-miterlimit: 10;"
       d="M 0 0 L -0.190983 0.587786 L 0.618034 0 "
       transform="matrix(-27.811529,20.206259,20.206259,27.811529,100,34.611172)"
       id="path452" />
    <path
       style="fill: none; stroke-width: 0.005; stroke-linecap: round; stroke-linejoin: round; stroke: rgb(50%,0%,20%); opacity: 1;stroke-miterlimit: 10;"
       d="M 0.618034 0 L 0 0 "
       transform="matrix(-27.811529,20.206259,20.206259,27.811529,100,34.611172)"
       id="path454" />
    <path
       style="stroke:none;fill-rule:nonzero;fill:#00688b;opacity:1;stroke-width:1.7192;stroke-miterlimit:10;stroke-dasharray:none;fill-opacity:1"
       d="M 106.565414 120.206253 L 89.376938 132.694412 L 100 100 "
       id="path460" />
    <path
       style="fill: none; stroke-width: 0.05; stroke-linecap: round; stroke-linejoin: round; stroke: rgb(50%,0%,20%); opacity: 1;stroke-miterlimit: 10;"
       d="M 0 -0 L -0.190983 0.587785 L 0.618034 0 "
       transform="matrix(-10.623059,-32.694414,-32.694414,10.623059,106.565412,120.206259)"
       id="path462" />
    <path
       style="fill: none; stroke-width: 0.005; stroke-linecap: round; stroke-linejoin: round; stroke: rgb(50%,0%,20%); opacity: 1;stroke-miterlimit: 10;"
       d="M 0.618034 0 L 0 -0 "
       transform="matrix(-10.623059,-32.694414,-32.694414,10.623059,106.565412,120.206259)"
       id="path464" />
    <path
       style="stroke:none;fill-rule:nonzero;fill:#00688b;opacity:1;fill-opacity:0.39215687"
       d="M 117.188477 152.900665 L 106.565414 120.206253 L 89.376938 132.694412 "
       id="path470" />
    <path
       style="fill: none; stroke-width: 0.05; stroke-linecap: round; stroke-linejoin: round; stroke: rgb(50%,0%,20%); opacity: 1;stroke-miterlimit: 10;"
       d="M -0 0 L 0.809017 0.587785 L 1 -0 "
       transform="matrix(-27.811529,-20.206259,20.206259,-27.811529,117.188471,152.900673)"
       id="path472" />
    <path
       style="fill: none; stroke-width: 0.005; stroke-linecap: round; stroke-linejoin: round; stroke: rgb(50%,0%,20%); opacity: 1;stroke-miterlimit: 10;"
       d="M 1 -0 L -0 0 "
       transform="matrix(-27.811529,-20.206259,20.206259,-27.811529,117.188471,152.900673)"
       id="path474" />
    <path
       style="stroke:none;fill-rule:nonzero;fill:#00688b;opacity:1;fill-opacity:0.39215687"
       d="M 117.188477 152.900665 L 82.811523 152.900665 L 89.376938 132.694412 "
       id="path480" />
    <path
       style="fill: none; stroke-width: 0.05; stroke-linecap: round; stroke-linejoin: round; stroke: rgb(50%,0%,20%); opacity: 1;stroke-miterlimit: 10;"
       d="M -0 -0 L 0.809017 0.587785 L 1 0 "
       transform="matrix(-27.811529,-20.206259,-20.206259,27.811529,117.188471,152.900673)"
       id="path482" />
    <path
       style="fill: none; stroke-width: 0.005; stroke-linecap: round; stroke-linejoin: round; stroke: rgb(50%,0%,20%); opacity: 1;stroke-miterlimit: 10;"
       d="M 1 0 L -0 -0 "
       transform="matrix(-27.811529,-20.206259,-20.206259,27.811529,117.188471,152.900673)"
       id="path484" />
    <path
       style="stroke:none;fill-rule:nonzero;fill:#00688b;opacity:1;fill-opacity:0.39215687"
       d="M 127.811523 185.595093 L 100 165.388824 L 117.188477 152.900665 "
       id="path490" />
    <path
       style="fill: none; stroke-width: 0.05; stroke-linecap: round; stroke-linejoin: round; stroke: rgb(50%,0%,20%); opacity: 1;stroke-miterlimit: 10;"
       d="M -0 0 L 0.809017 0.587785 L 1 -0 "
       transform="matrix(-10.623059,-32.694414,-32.694414,10.623059,127.811529,185.595086)"
       id="path492" />
    <path
       style="fill: none; stroke-width: 0.005; stroke-linecap: round; stroke-linejoin: round; stroke: rgb(50%,0%,20%); opacity: 1;stroke-miterlimit: 10;"
       d="M 1 -0 L -0 0 "
       transform="matrix(-10.623059,-32.694414,-32.694414,10.623059,127.811529,185.595086)"
       id="path494" />
    <path
       style="stroke:none;fill-rule:nonzero;fill:#00688b;opacity:1;stroke-width:1.7192;stroke-miterlimit:10;stroke-dasharray:none;fill-opacity:1"
       d="M 100 165.388824 L 117.188477 152.900665 L 82.811523 152.900665 "
       id="path500" />
    <path
       style="fill: none; stroke-width: 0.05; stroke-linecap: round; stroke-linejoin: round; stroke: rgb(50%,0%,20%); opacity: 1;stroke-miterlimit: 10;"
       d="M 0 0 L -0.190983 0.587786 L 0.618034 0 "
       transform="matrix(-27.811529,-20.206259,20.206259,-27.811529,100,165.388828)"
       id="path502" />
    <path
       style="fill: none; stroke-width: 0.005; stroke-linecap: round; stroke-linejoin: round; stroke: rgb(50%,0%,20%); opacity: 1;stroke-miterlimit: 10;"
       d="M 0.618034 0 L 0 0 "
       transform="matrix(-27.811529,-20.206259,20.206259,-27.811529,100,165.388828)"
       id="path504" />
  </g>
</svg>
