<?xml version="1.0" encoding="UTF-8" standalone="no"?>
<svg
   xmlns:dc="http://purl.org/dc/elements/1.1/"
   xmlns:cc="http://creativecommons.org/ns#"
   xmlns:rdf="http://www.w3.org/1999/02/22-rdf-syntax-ns#"
   xmlns:svg="http://www.w3.org/2000/svg"
   xmlns="http://www.w3.org/2000/svg"
   xmlns:sodipodi="http://sodipodi.sourceforge.net/DTD/sodipodi-0.dtd"
   xmlns:inkscape="http://www.inkscape.org/namespaces/inkscape"
   width="200pt"
   height="200pt"
   viewBox="0 0 200 200"
   version="1.1"
   id="svg2"
   inkscape:version="0.91 r13725"
   sodipodi:docname="Penrose_star_0.svg">
  <metadata
     id="metadata112">
    <rdf:RDF>
      <cc:Work
         rdf:about="">
        <dc:format>image/svg+xml</dc:format>
        <dc:type
           rdf:resource="http://purl.org/dc/dcmitype/StillImage" />
      </cc:Work>
    </rdf:RDF>
  </metadata>
  <sodipodi:namedview
     pagecolor="#ffffff"
     bordercolor="#666666"
     borderopacity="1"
     objecttolerance="10"
     gridtolerance="10"
     guidetolerance="10"
     inkscape:pageopacity="0"
     inkscape:pageshadow="2"
     inkscape:window-width="1920"
     inkscape:window-height="1021"
     id="namedview110"
     showgrid="false"
     inkscape:zoom="3.7657359"
     inkscape:cx="52.419349"
     inkscape:cy="153.74122"
     inkscape:window-x="0"
     inkscape:window-y="27"
     inkscape:window-maximized="1"
     inkscape:current-layer="surface0" />
  <defs
     id="defs4">
    <clipPath
       id="clip0">
      <rect
         width="200"
         height="200"
         id="rect7" />
    </clipPath>
  </defs>
  <g
     id="surface0"
     clip-path="url(#clip0)">
    <path
       style="stroke:none;fill-rule:nonzero;fill:#00688b;opacity:1;fill-opacity:1"
       d="M 44.376938 100 L 27.188477 47.099335 L 100 100 "
       id="path10" />
    <path
       style="fill:none;stroke-width:0.05;stroke-linecap:round;stroke-linejoin:round;stroke:#7f0033;opacity:1;stroke-miterlimit:10;stroke-opacity:1"
       d="M -0 0 L -0.190983 0.587785 L 0.618034 0 "
       transform="matrix(90,0,0,-90,44.376941,100)"
       id="path12" />
    <path
       style="fill: none; stroke-width: 0.005; stroke-linecap: round; stroke-linejoin: round; stroke: rgb(50%,0%,20%); opacity: 1;stroke-miterlimit: 10;"
       d="M 0.618034 0 L -0 0 "
       transform="matrix(90,0,0,-90,44.376941,100)"
       id="path14" />
    <path
       style="stroke:none;fill-rule:nonzero;fill:#00688b;opacity:1;fill-opacity:1"
       d="M 44.376938 100 L 27.188477 152.900665 L 100 100 "
       id="path20" />
    <path
       style="fill:none;stroke-width:0.05;stroke-linecap:round;stroke-linejoin:round;stroke:#7f0033;opacity:1;stroke-miterlimit:10;stroke-opacity:1"
       d="M -0 0 L -0.190983 0.587785 L 0.618034 0 "
       transform="matrix(90,0,0,90,44.376941,100)"
       id="path22" />
    <path
       style="fill:none;stroke-width:0.005;stroke-linecap:round;stroke-linejoin:round;stroke:#7f0033;opacity:1;stroke-miterlimit:10;stroke-opacity:1"
       d="M 0.618034 0 L -0 0 "
       transform="matrix(90,0,0,90,44.376941,100)"
       id="path24" />
    <path
       style="stroke:none;fill-rule:nonzero;fill:#00688b;opacity:1;fill-opacity:1"
       d="M 82.811523 152.900665 L 27.188477 152.900665 L 100 100 "
       id="path30" />
    <path
       style="fill:none;stroke-width:0.05;stroke-linecap:round;stroke-linejoin:round;stroke:#7f0033;opacity:1;stroke-miterlimit:10;stroke-opacity:1"
       d="M 0 0 L -0.190983 0.587785 L 0.618034 0 "
       transform="matrix(27.811529,-85.595086,-85.595086,-27.811529,82.811529,152.900673)"
       id="path32" />
    <path
       style="fill: none; stroke-width: 0.005; stroke-linecap: round; stroke-linejoin: round; stroke: rgb(50%,0%,20%); opacity: 1;stroke-miterlimit: 10;"
       d="M 0.618034 0 L 0 0 "
       transform="matrix(27.811529,-85.595086,-85.595086,-27.811529,82.811529,152.900673)"
       id="path34" />
    <path
       style="stroke:none;fill-rule:nonzero;fill:#00688b;opacity:1;fill-opacity:1"
       d="M 82.811523 47.099335 L 27.188477 47.099335 L 100 100 "
       id="path40" />
    <path
       style="fill:none;stroke-width:0.05;stroke-linecap:round;stroke-linejoin:round;stroke:#7f0033;opacity:1;stroke-miterlimit:10;stroke-opacity:1"
       d="M 0 0 L -0.190983 0.587785 L 0.618034 0 "
       transform="matrix(27.811529,85.595086,-85.595086,27.811529,82.811529,47.099327)"
       id="path42" />
    <path
       style="fill: none; stroke-width: 0.005; stroke-linecap: round; stroke-linejoin: round; stroke: rgb(50%,0%,20%); opacity: 1;stroke-miterlimit: 10;"
       d="M 0.618034 0 L 0 0 "
       transform="matrix(27.811529,85.595086,-85.595086,27.811529,82.811529,47.099327)"
       id="path44" />
    <path
       style="stroke:none;fill-rule:nonzero;fill:#00688b;opacity:1;fill-opacity:1"
       d="M 145 132.694412 L 127.811523 185.595093 L 100 100 "
       id="path50" />
    <path
       style="fill:none;stroke-width:0.05;stroke-linecap:round;stroke-linejoin:round;stroke:#7f0033;opacity:1;stroke-miterlimit:10;stroke-opacity:1"
       d="M 0 -0 L -0.190983 0.587785 L 0.618034 -0 "
       transform="matrix(-72.811529,-52.900673,-52.900673,72.811529,145,132.694414)"
       id="path52" />
    <path
       style="fill: none; stroke-width: 0.005; stroke-linecap: round; stroke-linejoin: round; stroke: rgb(50%,0%,20%); opacity: 1;stroke-miterlimit: 10;"
       d="M 0.618034 -0 L 0 -0 "
       transform="matrix(-72.811529,-52.900673,-52.900673,72.811529,145,132.694414)"
       id="path54" />
    <path
       style="stroke:none;fill-rule:nonzero;fill:#00688b;opacity:1;fill-opacity:1"
       d="M 145 67.305588 L 127.811523 14.404907 L 100 100 "
       id="path60" />
    <path
       style="fill:none;stroke-width:0.05;stroke-linecap:round;stroke-linejoin:round;stroke:#7f0033;opacity:1;stroke-miterlimit:10;stroke-opacity:1"
       d="M 0 -0 L -0.190983 0.587785 L 0.618034 0 "
       transform="matrix(-72.811529,52.900673,-52.900673,-72.811529,145,67.305586)"
       id="path62" />
    <path
       style="fill: none; stroke-width: 0.005; stroke-linecap: round; stroke-linejoin: round; stroke: rgb(50%,0%,20%); opacity: 1;stroke-miterlimit: 10;"
       d="M 0.618034 0 L 0 -0 "
       transform="matrix(-72.811529,52.900673,-52.900673,-72.811529,145,67.305586)"
       id="path64" />
    <path
       style="stroke:none;fill-rule:nonzero;fill:#00688b;opacity:1;fill-opacity:1"
       d="M 145 67.305588 L 190 100 L 100 100 "
       id="path70" />
    <path
       style="fill:none;stroke-width:0.05;stroke-linecap:round;stroke-linejoin:round;stroke:#7f0033;opacity:1;stroke-miterlimit:10;stroke-opacity:1"
       d="M 0 0 L -0.190983 0.587785 L 0.618034 0 "
       transform="matrix(-72.811529,52.900673,52.900673,72.811529,145,67.305586)"
       id="path72" />
    <path
       style="fill:none;stroke-width:0.005;stroke-linecap:round;stroke-linejoin:round;stroke:#7f0033;opacity:1;stroke-miterlimit:10;stroke-opacity:1"
       d="M 0.618034 0 L 0 0 "
       transform="matrix(-72.811529,52.900673,52.900673,72.811529,145,67.305586)"
       id="path74" />
    <path
       style="stroke:none;fill-rule:nonzero;fill:#00688b;opacity:1;fill-opacity:1"
       d="M 145 132.694412 L 190 100 L 100 100 "
       id="path80" />
    <path
       style="fill:none;stroke-width:0.05;stroke-linecap:round;stroke-linejoin:round;stroke:#7f0033;opacity:1;stroke-miterlimit:10;stroke-opacity:1"
       d="M 0 0 L -0.190983 0.587785 L 0.618034 -0 "
       transform="matrix(-72.811529,-52.900673,52.900673,-72.811529,145,132.694414)"
       id="path82" />
    <path
       style="fill:none;stroke-width:0.005;stroke-linecap:round;stroke-linejoin:round;stroke:#7f0033;opacity:1;stroke-miterlimit:10;stroke-opacity:1"
       d="M 0.618034 -0 L 0 0 "
       transform="matrix(-72.811529,-52.900673,52.900673,-72.811529,145,132.694414)"
       id="path84" />
    <path
       style="stroke:none;fill-rule:nonzero;fill:#00688b;opacity:1;fill-opacity:1"
       d="M 82.811523 47.099335 L 127.811523 14.404907 L 100 100 "
       id="path90" />
    <path
       style="fill:none;stroke-width:0.05;stroke-linecap:round;stroke-linejoin:round;stroke:#7f0033;opacity:1;stroke-miterlimit:10;stroke-opacity:1"
       d="M 0 -0 L -0.190983 0.587785 L 0.618034 0 "
       transform="matrix(27.811529,85.595086,85.595086,-27.811529,82.811529,47.099327)"
       id="path92" />
    <path
       style="fill:none;stroke-width:0.005;stroke-linecap:round;stroke-linejoin:round;stroke:#7f0033;opacity:1;stroke-miterlimit:10;stroke-opacity:1"
       d="M 0.618034 0 L 0 -0 "
       transform="matrix(27.811529,85.595086,85.595086,-27.811529,82.811529,47.099327)"
       id="path94" />
    <path
       style="stroke:none;fill-rule:nonzero;fill:#00688b;opacity:1;fill-opacity:1"
       d="M 82.811523 152.900665 L 127.811523 185.595093 L 100 100 "
       id="path100" />
    <path
       style="fill:none;stroke-width:0.05;stroke-linecap:round;stroke-linejoin:round;stroke:#7f0033;opacity:1;stroke-miterlimit:10;stroke-opacity:1"
       d="M 0 -0 L -0.190983 0.587785 L 0.618034 0 "
       transform="matrix(27.811529,-85.595086,85.595086,27.811529,82.811529,152.900673)"
       id="path102" />
    <path
       style="fill:none;stroke-width:0.005;stroke-linecap:round;stroke-linejoin:round;stroke:#7f0033;opacity:1;stroke-miterlimit:10;stroke-opacity:1"
       d="M 0.618034 0 L 0 -0 "
       transform="matrix(27.811529,-85.595086,85.595086,27.811529,82.811529,152.900673)"
       id="path104" />
  </g>
</svg>
