<?xml version="1.0" encoding="UTF-8"?>
<svg xmlns="http://www.w3.org/2000/svg" xmlns:xlink="http://www.w3.org/1999/xlink" width="2000pt" height="2000pt" viewBox="0 0 2000 2000" version="1.1">
<g id="surface21">
<path style=" stroke:none;fill-rule:nonzero;fill:rgb(69.7%,42.5%,33.3%);fill-opacity:1;" d="M 1587.785156 1190.984375 L 1363.269531 881.964844 L 1000 1000 Z M 1587.785156 1190.984375 L 1224.515625 1309.015625 L 1000 1000 Z M 1000 1618.035156 L 1224.515625 1309.015625 L 1000 1000 Z M 1000 1618.035156 L 775.484375 1309.015625 L 1000 1000 Z M 412.214844 1190.984375 L 775.484375 1309.015625 L 1000 1000 Z M 412.214844 1190.984375 L 636.730469 881.964844 L 1000 1000 Z M 636.730469 500 L 636.730469 881.964844 L 1000 1000 Z M 636.730469 500 L 1000 618.035156 L 1000 1000 Z M 1363.269531 500 L 1000 618.035156 L 1000 1000 Z M 1363.269531 500 L 1363.269531 881.964844 L 1000 1000 Z M 1363.269531 500 "/>
<path style=" stroke:none;fill-rule:nonzero;fill:rgb(0%,40.78%,54.51%);fill-opacity:1;" d="M 1363.269531 881.964844 L 1951.054688 690.984375 L 1587.785156 1190.984375 Z M 1951.054688 1309.015625 L 1951.054688 690.984375 L 1587.785156 1190.984375 Z M 1224.515625 1309.015625 L 1587.785156 1809.015625 L 1587.785156 1190.984375 Z M 1951.054688 1309.015625 L 1587.785156 1809.015625 L 1587.785156 1190.984375 Z M 1224.515625 1309.015625 L 1587.785156 1809.015625 L 1000 1618.035156 Z M 1000 2000 L 1587.785156 1809.015625 L 1000 1618.035156 Z M 775.484375 1309.015625 L 412.214844 1809.015625 L 1000 1618.035156 Z M 1000 2000 L 412.214844 1809.015625 L 1000 1618.035156 Z M 775.484375 1309.015625 L 412.214844 1809.015625 L 412.214844 1190.984375 Z M 48.945312 1309.015625 L 412.214844 1809.015625 L 412.214844 1190.984375 Z M 636.730469 881.964844 L 48.945312 690.984375 L 412.214844 1190.984375 Z M 48.945312 1309.015625 L 48.945312 690.984375 L 412.214844 1190.984375 Z M 636.730469 881.964844 L 48.945312 690.984375 L 636.730469 500 Z M 412.214844 190.984375 L 48.945312 690.984375 L 636.730469 500 Z M 1000 618.035156 L 1000 0 L 636.730469 500 Z M 412.214844 190.984375 L 1000 0 L 636.730469 500 Z M 1000 618.035156 L 1000 0 L 1363.269531 500 Z M 1587.785156 190.984375 L 1000 0 L 1363.269531 500 Z M 1363.269531 881.964844 L 1951.054688 690.984375 L 1363.269531 500 Z M 1587.785156 190.984375 L 1951.054688 690.984375 L 1363.269531 500 Z M 1587.785156 190.984375 "/>
<path style="fill:none;stroke-width:0.0381966;stroke-linecap:butt;stroke-linejoin:round;stroke:rgb(20%,20%,20%);stroke-opacity:1;stroke-miterlimit:10;" d="M 0 0 L 0.587785 0.190984 L 0.36327 -0.118035 M 0.587785 0.190984 L 0.36327 -0.118035 L 0.951055 -0.309016 M 0.587785 0.190984 L 0.951055 0.309016 L 0.951055 -0.309016 M 0 0 L 0.587785 0.190984 L 0.224516 0.309016 M 0.587785 0.190984 L 0.224516 0.309016 L 0.587785 0.809016 M 0.587785 0.190984 L 0.951055 0.309016 L 0.587785 0.809016 M 0 0 L 0 0.618035 L 0.224516 0.309016 M 0 0.618035 L 0.224516 0.309016 L 0.587785 0.809016 M 0 0.618035 L 0 1 L 0.587785 0.809016 M 0 0 L 0 0.618035 L -0.224516 0.309016 M 0 0.618035 L -0.224516 0.309016 L -0.587785 0.809016 M 0 0.618035 L 0 1 L -0.587785 0.809016 M 0 0 L -0.587785 0.190984 L -0.224516 0.309016 M -0.587785 0.190984 L -0.224516 0.309016 L -0.587785 0.809016 M -0.587785 0.190984 L -0.951055 0.309016 L -0.587785 0.809016 M 0 0 L -0.587785 0.190984 L -0.36327 -0.118035 M -0.587785 0.190984 L -0.36327 -0.118035 L -0.951055 -0.309016 M -0.587785 0.190984 L -0.951055 0.309016 L -0.951055 -0.309016 M 0 0 L -0.36327 -0.5 L -0.36327 -0.118035 M -0.36327 -0.5 L -0.36327 -0.118035 L -0.951055 -0.309016 M -0.36327 -0.5 L -0.587785 -0.809016 L -0.951055 -0.309016 M 0 0 L -0.36327 -0.5 L 0 -0.381965 M -0.36327 -0.5 L 0 -0.381965 L 0 -1 M -0.36327 -0.5 L -0.587785 -0.809016 L 0 -1 M 0 0 L 0.36327 -0.5 L 0 -0.381965 M 0.36327 -0.5 L 0 -0.381965 L 0 -1 M 0.36327 -0.5 L 0.587785 -0.809016 L 0 -1 M 0 0 L 0.36327 -0.5 L 0.36327 -0.118035 M 0.36327 -0.5 L 0.36327 -0.118035 L 0.951055 -0.309016 M 0.36327 -0.5 L 0.587785 -0.809016 L 0.951055 -0.309016 " transform="matrix(1000,0,0,1000,1000,1000)"/>
</g>
</svg>
