<?xml version="1.0" encoding="UTF-8"?>
<svg xmlns="http://www.w3.org/2000/svg" xmlns:xlink="http://www.w3.org/1999/xlink" width="2000pt" height="2000pt" viewBox="0 0 2000 2000" version="1.1">
<g id="surface26">
<path style=" stroke:none;fill-rule:nonzero;fill:rgb(69.7%,42.5%,33.3%);fill-opacity:1;" d="M 1587.785156 1190.984375 L 1812.300781 1118.035156 L 1726.542969 1000 Z M 1951.054688 927.050781 L 1812.300781 1118.035156 L 1726.542969 1000 Z M 1363.269531 1118.035156 L 1224.515625 927.050781 L 1363.269531 881.964844 Z M 1726.542969 763.933594 L 1587.785156 954.914062 L 1726.542969 1000 Z M 1587.785156 1190.984375 L 1587.785156 954.914062 L 1726.542969 1000 Z M 1587.785156 1190.984375 L 1726.542969 1381.964844 L 1587.785156 1427.050781 Z M 1726.542969 1618.035156 L 1726.542969 1381.964844 L 1587.785156 1427.050781 Z M 1363.269531 1118.035156 L 1138.757812 1190.984375 L 1224.515625 1309.015625 Z M 1449.027344 1618.035156 L 1449.027344 1381.964844 L 1587.785156 1427.050781 Z M 1587.785156 1190.984375 L 1449.027344 1381.964844 L 1587.785156 1427.050781 Z M 1000 1618.035156 L 1138.757812 1809.015625 L 1224.515625 1690.984375 Z M 1363.269531 1881.964844 L 1138.757812 1809.015625 L 1224.515625 1690.984375 Z M 1000 1381.964844 L 1138.757812 1190.984375 L 1224.515625 1309.015625 Z M 1449.027344 1618.035156 L 1224.515625 1545.085938 L 1224.515625 1690.984375 Z M 1000 1618.035156 L 1224.515625 1545.085938 L 1224.515625 1690.984375 Z M 1000 1618.035156 L 861.242188 1809.015625 L 775.484375 1690.984375 Z M 636.730469 1881.964844 L 861.242188 1809.015625 L 775.484375 1690.984375 Z M 1000 1381.964844 L 861.242188 1190.984375 L 775.484375 1309.015625 Z M 550.972656 1618.035156 L 775.484375 1545.085938 L 775.484375 1690.984375 Z M 1000 1618.035156 L 775.484375 1545.085938 L 775.484375 1690.984375 Z M 412.214844 1190.984375 L 273.457031 1381.964844 L 412.214844 1427.050781 Z M 273.457031 1618.035156 L 273.457031 1381.964844 L 412.214844 1427.050781 Z M 636.730469 1118.035156 L 861.242188 1190.984375 L 775.484375 1309.015625 Z M 550.972656 1618.035156 L 550.972656 1381.964844 L 412.214844 1427.050781 Z M 412.214844 1190.984375 L 550.972656 1381.964844 L 412.214844 1427.050781 Z M 412.214844 1190.984375 L 187.699219 1118.035156 L 273.457031 1000 Z M 48.945312 927.050781 L 187.699219 1118.035156 L 273.457031 1000 Z M 636.730469 1118.035156 L 775.484375 927.050781 L 636.730469 881.964844 Z M 273.457031 763.933594 L 412.214844 954.914062 L 273.457031 1000 Z M 412.214844 1190.984375 L 412.214844 954.914062 L 273.457031 1000 Z M 636.730469 500 L 412.214844 427.050781 L 412.214844 572.949219 Z M 187.699219 500 L 412.214844 427.050781 L 412.214844 572.949219 Z M 775.484375 690.984375 L 775.484375 927.050781 L 636.730469 881.964844 Z M 273.457031 763.933594 L 497.972656 690.984375 L 412.214844 572.949219 Z M 636.730469 500 L 497.972656 690.984375 L 412.214844 572.949219 Z M 636.730469 500 L 636.730469 263.933594 L 775.484375 309.015625 Z M 775.484375 72.949219 L 636.730469 263.933594 L 775.484375 309.015625 Z M 775.484375 690.984375 L 1000 763.933594 L 1000 618.035156 Z M 1000 236.066406 L 861.242188 427.050781 L 775.484375 309.015625 Z M 636.730469 500 L 861.242188 427.050781 L 775.484375 309.015625 Z M 1363.269531 500 L 1363.269531 263.933594 L 1224.515625 309.015625 Z M 1224.515625 72.949219 L 1363.269531 263.933594 L 1224.515625 309.015625 Z M 1224.515625 690.984375 L 1000 763.933594 L 1000 618.035156 Z M 1000 236.066406 L 1138.757812 427.050781 L 1224.515625 309.015625 Z M 1363.269531 500 L 1138.757812 427.050781 L 1224.515625 309.015625 Z M 1363.269531 500 L 1587.785156 427.050781 L 1587.785156 572.949219 Z M 1812.300781 500 L 1587.785156 427.050781 L 1587.785156 572.949219 Z M 1224.515625 690.984375 L 1224.515625 927.050781 L 1363.269531 881.964844 Z M 1726.542969 763.933594 L 1502.027344 690.984375 L 1587.785156 572.949219 Z M 1363.269531 500 L 1502.027344 690.984375 L 1587.785156 572.949219 Z M 1363.269531 500 "/>
<path style=" stroke:none;fill-rule:nonzero;fill:rgb(0%,40.78%,54.51%);fill-opacity:1;" d="M 1812.300781 1118.035156 L 1587.785156 1190.984375 L 1951.054688 1309.015625 Z M 1951.054688 927.050781 L 1951.054688 690.984375 L 1726.542969 1000 Z M 1812.300781 1118.035156 L 1951.054688 927.050781 L 1951.054688 1309.015625 Z M 1363.269531 1118.035156 L 1587.785156 1190.984375 L 1363.269531 881.964844 Z M 1224.515625 927.050781 L 1363.269531 1118.035156 L 1000 1000 Z M 1726.542969 763.933594 L 1951.054688 690.984375 L 1726.542969 1000 Z M 1587.785156 954.914062 L 1726.542969 763.933594 L 1363.269531 881.964844 Z M 1587.785156 954.914062 L 1587.785156 1190.984375 L 1363.269531 881.964844 Z M 1726.542969 1381.964844 L 1587.785156 1190.984375 L 1951.054688 1309.015625 Z M 1726.542969 1618.035156 L 1587.785156 1809.015625 L 1587.785156 1427.050781 Z M 1726.542969 1381.964844 L 1726.542969 1618.035156 L 1951.054688 1309.015625 Z M 1363.269531 1118.035156 L 1587.785156 1190.984375 L 1224.515625 1309.015625 Z M 1138.757812 1190.984375 L 1363.269531 1118.035156 L 1000 1000 Z M 1449.027344 1618.035156 L 1587.785156 1809.015625 L 1587.785156 1427.050781 Z M 1449.027344 1381.964844 L 1449.027344 1618.035156 L 1224.515625 1309.015625 Z M 1449.027344 1381.964844 L 1587.785156 1190.984375 L 1224.515625 1309.015625 Z M 1138.757812 1809.015625 L 1000 1618.035156 L 1000 2000 Z M 1363.269531 1881.964844 L 1587.785156 1809.015625 L 1224.515625 1690.984375 Z M 1138.757812 1809.015625 L 1363.269531 1881.964844 L 1000 2000 Z M 1000 1381.964844 L 1000 1618.035156 L 1224.515625 1309.015625 Z M 1138.757812 1190.984375 L 1000 1381.964844 L 1000 1000 Z M 1449.027344 1618.035156 L 1587.785156 1809.015625 L 1224.515625 1690.984375 Z M 1224.515625 1545.085938 L 1449.027344 1618.035156 L 1224.515625 1309.015625 Z M 1224.515625 1545.085938 L 1000 1618.035156 L 1224.515625 1309.015625 Z M 861.242188 1809.015625 L 1000 1618.035156 L 1000 2000 Z M 636.730469 1881.964844 L 412.214844 1809.015625 L 775.484375 1690.984375 Z M 861.242188 1809.015625 L 636.730469 1881.964844 L 1000 2000 Z M 1000 1381.964844 L 1000 1618.035156 L 775.484375 1309.015625 Z M 861.242188 1190.984375 L 1000 1381.964844 L 1000 1000 Z M 550.972656 1618.035156 L 412.214844 1809.015625 L 775.484375 1690.984375 Z M 775.484375 1545.085938 L 550.972656 1618.035156 L 775.484375 1309.015625 Z M 775.484375 1545.085938 L 1000 1618.035156 L 775.484375 1309.015625 Z M 273.457031 1381.964844 L 412.214844 1190.984375 L 48.945312 1309.015625 Z M 273.457031 1618.035156 L 412.214844 1809.015625 L 412.214844 1427.050781 Z M 273.457031 1381.964844 L 273.457031 1618.035156 L 48.945312 1309.015625 Z M 636.730469 1118.035156 L 412.214844 1190.984375 L 775.484375 1309.015625 Z M 861.242188 1190.984375 L 636.730469 1118.035156 L 1000 1000 Z M 550.972656 1618.035156 L 412.214844 1809.015625 L 412.214844 1427.050781 Z M 550.972656 1381.964844 L 550.972656 1618.035156 L 775.484375 1309.015625 Z M 550.972656 1381.964844 L 412.214844 1190.984375 L 775.484375 1309.015625 Z M 187.699219 1118.035156 L 412.214844 1190.984375 L 48.945312 1309.015625 Z M 48.945312 927.050781 L 48.945312 690.984375 L 273.457031 1000 Z M 187.699219 1118.035156 L 48.945312 927.050781 L 48.945312 1309.015625 Z M 636.730469 1118.035156 L 412.214844 1190.984375 L 636.730469 881.964844 Z M 775.484375 927.050781 L 636.730469 1118.035156 L 1000 1000 Z M 273.457031 763.933594 L 48.945312 690.984375 L 273.457031 1000 Z M 412.214844 954.914062 L 273.457031 763.933594 L 636.730469 881.964844 Z M 412.214844 954.914062 L 412.214844 1190.984375 L 636.730469 881.964844 Z M 412.214844 427.050781 L 636.730469 500 L 412.214844 190.984375 Z M 187.699219 500 L 48.945312 690.984375 L 412.214844 572.949219 Z M 412.214844 427.050781 L 187.699219 500 L 412.214844 190.984375 Z M 775.484375 690.984375 L 636.730469 500 L 636.730469 881.964844 Z M 775.484375 927.050781 L 775.484375 690.984375 L 1000 1000 Z M 273.457031 763.933594 L 48.945312 690.984375 L 412.214844 572.949219 Z M 497.972656 690.984375 L 273.457031 763.933594 L 636.730469 881.964844 Z M 497.972656 690.984375 L 636.730469 500 L 636.730469 881.964844 Z M 636.730469 263.933594 L 636.730469 500 L 412.214844 190.984375 Z M 775.484375 72.949219 L 1000 0 L 775.484375 309.015625 Z M 636.730469 263.933594 L 775.484375 72.949219 L 412.214844 190.984375 Z M 775.484375 690.984375 L 636.730469 500 L 1000 618.035156 Z M 1000 763.933594 L 775.484375 690.984375 L 1000 1000 Z M 1000 236.066406 L 1000 0 L 775.484375 309.015625 Z M 861.242188 427.050781 L 1000 236.066406 L 1000 618.035156 Z M 861.242188 427.050781 L 636.730469 500 L 1000 618.035156 Z M 1363.269531 263.933594 L 1363.269531 500 L 1587.785156 190.984375 Z M 1224.515625 72.949219 L 1000 0 L 1224.515625 309.015625 Z M 1363.269531 263.933594 L 1224.515625 72.949219 L 1587.785156 190.984375 Z M 1224.515625 690.984375 L 1363.269531 500 L 1000 618.035156 Z M 1000 763.933594 L 1224.515625 690.984375 L 1000 1000 Z M 1000 236.066406 L 1000 0 L 1224.515625 309.015625 Z M 1138.757812 427.050781 L 1000 236.066406 L 1000 618.035156 Z M 1138.757812 427.050781 L 1363.269531 500 L 1000 618.035156 Z M 1587.785156 427.050781 L 1363.269531 500 L 1587.785156 190.984375 Z M 1812.300781 500 L 1951.054688 690.984375 L 1587.785156 572.949219 Z M 1587.785156 427.050781 L 1812.300781 500 L 1587.785156 190.984375 Z M 1224.515625 690.984375 L 1363.269531 500 L 1363.269531 881.964844 Z M 1224.515625 927.050781 L 1224.515625 690.984375 L 1000 1000 Z M 1726.542969 763.933594 L 1951.054688 690.984375 L 1587.785156 572.949219 Z M 1502.027344 690.984375 L 1726.542969 763.933594 L 1363.269531 881.964844 Z M 1502.027344 690.984375 L 1363.269531 500 L 1363.269531 881.964844 Z M 1502.027344 690.984375 "/>
<path style="fill:none;stroke-width:0.0236068;stroke-linecap:butt;stroke-linejoin:round;stroke:rgb(20%,20%,20%);stroke-opacity:1;stroke-miterlimit:10;" d="M 0.726543 0 L 0.587785 0.190984 L 0.812301 0.118035 M 0.951055 0.309016 L 0.812301 0.118035 L 0.587785 0.190984 M 0.726543 0 L 0.951055 -0.0729492 L 0.951055 -0.309016 M 0.951055 0.309016 L 0.812301 0.118035 L 0.951055 -0.0729492 M 0.726543 0 L 0.951055 -0.0729492 L 0.812301 0.118035 M 0.36327 -0.118035 L 0.36327 0.118035 L 0.587785 0.190984 M 0 0 L 0.224516 -0.0729492 L 0.36327 0.118035 M 0.36327 -0.118035 L 0.36327 0.118035 L 0.224516 -0.0729492 M 0.726543 0 L 0.726543 -0.236066 L 0.951055 -0.309016 M 0.36327 -0.118035 L 0.587785 -0.0450859 L 0.726543 -0.236066 M 0.726543 0 L 0.726543 -0.236066 L 0.587785 -0.0450859 M 0.726543 0 L 0.587785 0.190984 L 0.587785 -0.0450859 M 0.36327 -0.118035 L 0.587785 -0.0450859 L 0.587785 0.190984 M 0.587785 0.427051 L 0.587785 0.190984 L 0.726543 0.381965 M 0.951055 0.309016 L 0.726543 0.381965 L 0.587785 0.190984 M 0.587785 0.427051 L 0.726543 0.618035 L 0.587785 0.809016 M 0.951055 0.309016 L 0.726543 0.381965 L 0.726543 0.618035 M 0.587785 0.427051 L 0.726543 0.618035 L 0.726543 0.381965 M 0.224516 0.309016 L 0.36327 0.118035 L 0.587785 0.190984 M 0 0 L 0.138758 0.190984 L 0.36327 0.118035 M 0.224516 0.309016 L 0.36327 0.118035 L 0.138758 0.190984 M 0.587785 0.427051 L 0.449027 0.618035 L 0.587785 0.809016 M 0.224516 0.309016 L 0.449027 0.381965 L 0.449027 0.618035 M 0.587785 0.427051 L 0.449027 0.618035 L 0.449027 0.381965 M 0.587785 0.427051 L 0.587785 0.190984 L 0.449027 0.381965 M 0.224516 0.309016 L 0.449027 0.381965 L 0.587785 0.190984 M 0.224516 0.690984 L 0 0.618035 L 0.138758 0.809016 M 0 1 L 0.138758 0.809016 L 0 0.618035 M 0.224516 0.690984 L 0.36327 0.881965 L 0.587785 0.809016 M 0 1 L 0.138758 0.809016 L 0.36327 0.881965 M 0.224516 0.690984 L 0.36327 0.881965 L 0.138758 0.809016 M 0.224516 0.309016 L 0 0.381965 L 0 0.618035 M 0 0 L 0.138758 0.190984 L 0 0.381965 M 0.224516 0.309016 L 0 0.381965 L 0.138758 0.190984 M 0.224516 0.690984 L 0.449027 0.618035 L 0.587785 0.809016 M 0.224516 0.309016 L 0.224516 0.545086 L 0.449027 0.618035 M 0.224516 0.690984 L 0.449027 0.618035 L 0.224516 0.545086 M 0.224516 0.690984 L 0 0.618035 L 0.224516 0.545086 M 0.224516 0.309016 L 0.224516 0.545086 L 0 0.618035 M -0.224516 0.690984 L 0 0.618035 L -0.138758 0.809016 M 0 1 L -0.138758 0.809016 L 0 0.618035 M -0.224516 0.690984 L -0.36327 0.881965 L -0.587785 0.809016 M 0 1 L -0.138758 0.809016 L -0.36327 0.881965 M -0.224516 0.690984 L -0.36327 0.881965 L -0.138758 0.809016 M -0.224516 0.309016 L 0 0.381965 L 0 0.618035 M 0 0 L -0.138758 0.190984 L 0 0.381965 M -0.224516 0.309016 L 0 0.381965 L -0.138758 0.190984 M -0.224516 0.690984 L -0.449027 0.618035 L -0.587785 0.809016 M -0.224516 0.309016 L -0.224516 0.545086 L -0.449027 0.618035 M -0.224516 0.690984 L -0.449027 0.618035 L -0.224516 0.545086 M -0.224516 0.690984 L 0 0.618035 L -0.224516 0.545086 M -0.224516 0.309016 L -0.224516 0.545086 L 0 0.618035 M -0.587785 0.427051 L -0.587785 0.190984 L -0.726543 0.381965 M -0.951055 0.309016 L -0.726543 0.381965 L -0.587785 0.190984 M -0.587785 0.427051 L -0.726543 0.618035 L -0.587785 0.809016 M -0.951055 0.309016 L -0.726543 0.381965 L -0.726543 0.618035 M -0.587785 0.427051 L -0.726543 0.618035 L -0.726543 0.381965 M -0.224516 0.309016 L -0.36327 0.118035 L -0.587785 0.190984 M 0 0 L -0.138758 0.190984 L -0.36327 0.118035 M -0.224516 0.309016 L -0.36327 0.118035 L -0.138758 0.190984 M -0.587785 0.427051 L -0.449027 0.618035 L -0.587785 0.809016 M -0.224516 0.309016 L -0.449027 0.381965 L -0.449027 0.618035 M -0.587785 0.427051 L -0.449027 0.618035 L -0.449027 0.381965 M -0.587785 0.427051 L -0.587785 0.190984 L -0.449027 0.381965 M -0.224516 0.309016 L -0.449027 0.381965 L -0.587785 0.190984 M -0.726543 0 L -0.587785 0.190984 L -0.812301 0.118035 M -0.951055 0.309016 L -0.812301 0.118035 L -0.587785 0.190984 M -0.726543 0 L -0.951055 -0.0729492 L -0.951055 -0.309016 M -0.951055 0.309016 L -0.812301 0.118035 L -0.951055 -0.0729492 M -0.726543 0 L -0.951055 -0.0729492 L -0.812301 0.118035 M -0.36327 -0.118035 L -0.36327 0.118035 L -0.587785 0.190984 M 0 0 L -0.224516 -0.0729492 L -0.36327 0.118035 M -0.36327 -0.118035 L -0.36327 0.118035 L -0.224516 -0.0729492 M -0.726543 0 L -0.726543 -0.236066 L -0.951055 -0.309016 M -0.36327 -0.118035 L -0.587785 -0.0450859 L -0.726543 -0.236066 M -0.726543 0 L -0.726543 -0.236066 L -0.587785 -0.0450859 M -0.726543 0 L -0.587785 0.190984 L -0.587785 -0.0450859 M -0.36327 -0.118035 L -0.587785 -0.0450859 L -0.587785 0.190984 M -0.587785 -0.427051 L -0.36327 -0.5 L -0.587785 -0.572949 M -0.587785 -0.809016 L -0.587785 -0.572949 L -0.36327 -0.5 M -0.587785 -0.427051 L -0.812301 -0.5 L -0.951055 -0.309016 M -0.587785 -0.809016 L -0.587785 -0.572949 L -0.812301 -0.5 M -0.587785 -0.427051 L -0.812301 -0.5 L -0.587785 -0.572949 M -0.36327 -0.118035 L -0.224516 -0.309016 L -0.36327 -0.5 M 0 0 L -0.224516 -0.0729492 L -0.224516 -0.309016 M -0.36327 -0.118035 L -0.224516 -0.309016 L -0.224516 -0.0729492 M -0.587785 -0.427051 L -0.726543 -0.236066 L -0.951055 -0.309016 M -0.36327 -0.118035 L -0.502027 -0.309016 L -0.726543 -0.236066 M -0.587785 -0.427051 L -0.726543 -0.236066 L -0.502027 -0.309016 M -0.587785 -0.427051 L -0.36327 -0.5 L -0.502027 -0.309016 M -0.36327 -0.118035 L -0.502027 -0.309016 L -0.36327 -0.5 M -0.224516 -0.690984 L -0.36327 -0.5 L -0.36327 -0.736066 M -0.587785 -0.809016 L -0.36327 -0.736066 L -0.36327 -0.5 M -0.224516 -0.690984 L -0.224516 -0.927051 L 0 -1 M -0.587785 -0.809016 L -0.36327 -0.736066 L -0.224516 -0.927051 M -0.224516 -0.690984 L -0.224516 -0.927051 L -0.36327 -0.736066 M 0 -0.381965 L -0.224516 -0.309016 L -0.36327 -0.5 M 0 0 L 0 -0.236066 L -0.224516 -0.309016 M 0 -0.381965 L -0.224516 -0.309016 L 0 -0.236066 M -0.224516 -0.690984 L 0 -0.763934 L 0 -1 M 0 -0.381965 L -0.138758 -0.572949 L 0 -0.763934 M -0.224516 -0.690984 L 0 -0.763934 L -0.138758 -0.572949 M -0.224516 -0.690984 L -0.36327 -0.5 L -0.138758 -0.572949 M 0 -0.381965 L -0.138758 -0.572949 L -0.36327 -0.5 M 0.224516 -0.690984 L 0.36327 -0.5 L 0.36327 -0.736066 M 0.587785 -0.809016 L 0.36327 -0.736066 L 0.36327 -0.5 M 0.224516 -0.690984 L 0.224516 -0.927051 L 0 -1 M 0.587785 -0.809016 L 0.36327 -0.736066 L 0.224516 -0.927051 M 0.224516 -0.690984 L 0.224516 -0.927051 L 0.36327 -0.736066 M 0 -0.381965 L 0.224516 -0.309016 L 0.36327 -0.5 M 0 0 L 0 -0.236066 L 0.224516 -0.309016 M 0 -0.381965 L 0.224516 -0.309016 L 0 -0.236066 M 0.224516 -0.690984 L 0 -0.763934 L 0 -1 M 0 -0.381965 L 0.138758 -0.572949 L 0 -0.763934 M 0.224516 -0.690984 L 0 -0.763934 L 0.138758 -0.572949 M 0.224516 -0.690984 L 0.36327 -0.5 L 0.138758 -0.572949 M 0 -0.381965 L 0.138758 -0.572949 L 0.36327 -0.5 M 0.587785 -0.427051 L 0.36327 -0.5 L 0.587785 -0.572949 M 0.587785 -0.809016 L 0.587785 -0.572949 L 0.36327 -0.5 M 0.587785 -0.427051 L 0.812301 -0.5 L 0.951055 -0.309016 M 0.587785 -0.809016 L 0.587785 -0.572949 L 0.812301 -0.5 M 0.587785 -0.427051 L 0.812301 -0.5 L 0.587785 -0.572949 M 0.36327 -0.118035 L 0.224516 -0.309016 L 0.36327 -0.5 M 0 0 L 0.224516 -0.0729492 L 0.224516 -0.309016 M 0.36327 -0.118035 L 0.224516 -0.309016 L 0.224516 -0.0729492 M 0.587785 -0.427051 L 0.726543 -0.236066 L 0.951055 -0.309016 M 0.36327 -0.118035 L 0.502027 -0.309016 L 0.726543 -0.236066 M 0.587785 -0.427051 L 0.726543 -0.236066 L 0.502027 -0.309016 M 0.587785 -0.427051 L 0.36327 -0.5 L 0.502027 -0.309016 M 0.36327 -0.118035 L 0.502027 -0.309016 L 0.36327 -0.5 " transform="matrix(1000,0,0,1000,1000,1000)"/>
</g>
</svg>
