<?xml version="1.0" encoding="UTF-8"?>
<svg xmlns="http://www.w3.org/2000/svg" xmlns:xlink="http://www.w3.org/1999/xlink" width="2000pt" height="2000pt" viewBox="0 0 2000 2000" version="1.1">
<g id="surface30">
<path style=" stroke:none;fill-rule:nonzero;fill:rgb(69.7%,42.5%,33.3%);fill-opacity:1;" d="M 1726.542969 1000 L 1726.542969 1145.898438 L 1812.300781 1118.035156 Z M 1812.300781 1263.933594 L 1726.542969 1145.898438 L 1812.300781 1118.035156 Z M 1812.300781 881.964844 L 1951.054688 836.882812 L 1951.054688 927.050781 Z M 1951.054688 1163.117188 L 1865.300781 1045.085938 L 1812.300781 1118.035156 Z M 1726.542969 1000 L 1865.300781 1045.085938 L 1812.300781 1118.035156 Z M 1449.027344 1000 L 1449.027344 1145.898438 L 1363.269531 1118.035156 Z M 1138.757812 1045.085938 L 1277.515625 1000 L 1224.515625 927.050781 Z M 1363.269531 881.964844 L 1277.515625 1000 L 1224.515625 927.050781 Z M 1812.300781 881.964844 L 1812.300781 736.066406 L 1726.542969 763.933594 Z M 1502.027344 836.882812 L 1640.785156 881.964844 L 1587.785156 954.914062 Z M 1726.542969 1000 L 1640.785156 881.964844 L 1587.785156 954.914062 Z M 1726.542969 1000 L 1587.785156 1045.085938 L 1587.785156 954.914062 Z M 1449.027344 1000 L 1587.785156 1045.085938 L 1587.785156 954.914062 Z M 1587.785156 1427.050781 L 1673.542969 1309.015625 L 1726.542969 1381.964844 Z M 1812.300781 1263.933594 L 1673.542969 1309.015625 L 1726.542969 1381.964844 Z M 1587.785156 1572.949219 L 1673.542969 1690.984375 L 1726.542969 1618.035156 Z M 1865.300781 1427.050781 L 1726.542969 1472.136719 L 1726.542969 1381.964844 Z M 1587.785156 1427.050781 L 1726.542969 1472.136719 L 1726.542969 1381.964844 Z M 1363.269531 1263.933594 L 1449.027344 1145.898438 L 1363.269531 1118.035156 Z M 1138.757812 1045.085938 L 1224.515625 1163.117188 L 1138.757812 1190.984375 Z M 1224.515625 1309.015625 L 1224.515625 1163.117188 L 1138.757812 1190.984375 Z M 1587.785156 1572.949219 L 1502.027344 1690.984375 L 1449.027344 1618.035156 Z M 1310.269531 1427.050781 L 1449.027344 1472.136719 L 1449.027344 1381.964844 Z M 1587.785156 1427.050781 L 1449.027344 1472.136719 L 1449.027344 1381.964844 Z M 1587.785156 1427.050781 L 1502.027344 1309.015625 L 1449.027344 1381.964844 Z M 1363.269531 1263.933594 L 1502.027344 1309.015625 L 1449.027344 1381.964844 Z M 1224.515625 1690.984375 L 1085.757812 1736.066406 L 1138.757812 1809.015625 Z M 1000 1854.101562 L 1085.757812 1736.066406 L 1138.757812 1809.015625 Z M 1363.269531 1736.066406 L 1449.027344 1854.101562 L 1363.269531 1881.964844 Z M 1138.757812 1954.914062 L 1224.515625 1836.882812 L 1138.757812 1809.015625 Z M 1224.515625 1690.984375 L 1224.515625 1836.882812 L 1138.757812 1809.015625 Z M 1138.757812 1427.050781 L 1000 1472.136719 L 1000 1381.964844 Z M 1000 1145.898438 L 1085.757812 1263.933594 L 1138.757812 1190.984375 Z M 1224.515625 1309.015625 L 1085.757812 1263.933594 L 1138.757812 1190.984375 Z M 1363.269531 1736.066406 L 1502.027344 1690.984375 L 1449.027344 1618.035156 Z M 1310.269531 1427.050781 L 1310.269531 1572.949219 L 1224.515625 1545.085938 Z M 1224.515625 1690.984375 L 1310.269531 1572.949219 L 1224.515625 1545.085938 Z M 1224.515625 1690.984375 L 1138.757812 1572.949219 L 1224.515625 1545.085938 Z M 1138.757812 1427.050781 L 1138.757812 1572.949219 L 1224.515625 1545.085938 Z M 775.484375 1690.984375 L 914.242188 1736.066406 L 861.242188 1809.015625 Z M 1000 1854.101562 L 914.242188 1736.066406 L 861.242188 1809.015625 Z M 636.730469 1736.066406 L 550.972656 1854.101562 L 636.730469 1881.964844 Z M 861.242188 1954.914062 L 775.484375 1836.882812 L 861.242188 1809.015625 Z M 775.484375 1690.984375 L 775.484375 1836.882812 L 861.242188 1809.015625 Z M 861.242188 1427.050781 L 1000 1472.136719 L 1000 1381.964844 Z M 1000 1145.898438 L 914.242188 1263.933594 L 861.242188 1190.984375 Z M 775.484375 1309.015625 L 914.242188 1263.933594 L 861.242188 1190.984375 Z M 636.730469 1736.066406 L 497.972656 1690.984375 L 550.972656 1618.035156 Z M 689.730469 1427.050781 L 689.730469 1572.949219 L 775.484375 1545.085938 Z M 775.484375 1690.984375 L 689.730469 1572.949219 L 775.484375 1545.085938 Z M 775.484375 1690.984375 L 861.242188 1572.949219 L 775.484375 1545.085938 Z M 861.242188 1427.050781 L 861.242188 1572.949219 L 775.484375 1545.085938 Z M 412.214844 1427.050781 L 326.457031 1309.015625 L 273.457031 1381.964844 Z M 187.699219 1263.933594 L 326.457031 1309.015625 L 273.457031 1381.964844 Z M 412.214844 1572.949219 L 326.457031 1690.984375 L 273.457031 1618.035156 Z M 134.699219 1427.050781 L 273.457031 1472.136719 L 273.457031 1381.964844 Z M 412.214844 1427.050781 L 273.457031 1472.136719 L 273.457031 1381.964844 Z M 636.730469 1263.933594 L 550.972656 1145.898438 L 636.730469 1118.035156 Z M 861.242188 1045.085938 L 775.484375 1163.117188 L 861.242188 1190.984375 Z M 775.484375 1309.015625 L 775.484375 1163.117188 L 861.242188 1190.984375 Z M 412.214844 1572.949219 L 497.972656 1690.984375 L 550.972656 1618.035156 Z M 689.730469 1427.050781 L 550.972656 1472.136719 L 550.972656 1381.964844 Z M 412.214844 1427.050781 L 550.972656 1472.136719 L 550.972656 1381.964844 Z M 412.214844 1427.050781 L 497.972656 1309.015625 L 550.972656 1381.964844 Z M 636.730469 1263.933594 L 497.972656 1309.015625 L 550.972656 1381.964844 Z M 273.457031 1000 L 273.457031 1145.898438 L 187.699219 1118.035156 Z M 187.699219 1263.933594 L 273.457031 1145.898438 L 187.699219 1118.035156 Z M 187.699219 881.964844 L 48.945312 836.882812 L 48.945312 927.050781 Z M 48.945312 1163.117188 L 134.699219 1045.085938 L 187.699219 1118.035156 Z M 273.457031 1000 L 134.699219 1045.085938 L 187.699219 1118.035156 Z M 550.972656 1000 L 550.972656 1145.898438 L 636.730469 1118.035156 Z M 861.242188 1045.085938 L 722.484375 1000 L 775.484375 927.050781 Z M 636.730469 881.964844 L 722.484375 1000 L 775.484375 927.050781 Z M 187.699219 881.964844 L 187.699219 736.066406 L 273.457031 763.933594 Z M 497.972656 836.882812 L 359.214844 881.964844 L 412.214844 954.914062 Z M 273.457031 1000 L 359.214844 881.964844 L 412.214844 954.914062 Z M 273.457031 1000 L 412.214844 1045.085938 L 412.214844 954.914062 Z M 550.972656 1000 L 412.214844 1045.085938 L 412.214844 954.914062 Z M 412.214844 572.949219 L 497.972656 454.914062 L 412.214844 427.050781 Z M 497.972656 309.015625 L 497.972656 454.914062 L 412.214844 427.050781 Z M 273.457031 618.035156 L 134.699219 572.949219 L 187.699219 500 Z M 326.457031 309.015625 L 326.457031 454.914062 L 412.214844 427.050781 Z M 412.214844 572.949219 L 326.457031 454.914062 L 412.214844 427.050781 Z M 636.730469 736.066406 L 722.484375 618.035156 L 775.484375 690.984375 Z M 914.242188 881.964844 L 775.484375 836.882812 L 775.484375 927.050781 Z M 636.730469 881.964844 L 775.484375 836.882812 L 775.484375 927.050781 Z M 273.457031 618.035156 L 187.699219 736.066406 L 273.457031 763.933594 Z M 497.972656 836.882812 L 412.214844 718.847656 L 497.972656 690.984375 Z M 412.214844 572.949219 L 412.214844 718.847656 L 497.972656 690.984375 Z M 412.214844 572.949219 L 550.972656 618.035156 L 497.972656 690.984375 Z M 636.730469 736.066406 L 550.972656 618.035156 L 497.972656 690.984375 Z M 775.484375 309.015625 L 636.730469 354.101562 L 636.730469 263.933594 Z M 497.972656 309.015625 L 636.730469 354.101562 L 636.730469 263.933594 Z M 861.242188 190.984375 L 861.242188 45.085938 L 775.484375 72.949219 Z M 550.972656 145.898438 L 689.730469 190.984375 L 636.730469 263.933594 Z M 775.484375 309.015625 L 689.730469 190.984375 L 636.730469 263.933594 Z M 861.242188 572.949219 L 722.484375 618.035156 L 775.484375 690.984375 Z M 914.242188 881.964844 L 914.242188 736.066406 L 1000 763.933594 Z M 1000 618.035156 L 914.242188 736.066406 L 1000 763.933594 Z M 861.242188 190.984375 L 1000 145.898438 L 1000 236.066406 Z M 1000 472.136719 L 914.242188 354.101562 L 861.242188 427.050781 Z M 775.484375 309.015625 L 914.242188 354.101562 L 861.242188 427.050781 Z M 775.484375 309.015625 L 775.484375 454.914062 L 861.242188 427.050781 Z M 861.242188 572.949219 L 775.484375 454.914062 L 861.242188 427.050781 Z M 1224.515625 309.015625 L 1363.269531 354.101562 L 1363.269531 263.933594 Z M 1502.027344 309.015625 L 1363.269531 354.101562 L 1363.269531 263.933594 Z M 1138.757812 190.984375 L 1138.757812 45.085938 L 1224.515625 72.949219 Z M 1449.027344 145.898438 L 1310.269531 190.984375 L 1363.269531 263.933594 Z M 1224.515625 309.015625 L 1310.269531 190.984375 L 1363.269531 263.933594 Z M 1138.757812 572.949219 L 1277.515625 618.035156 L 1224.515625 690.984375 Z M 1085.757812 881.964844 L 1085.757812 736.066406 L 1000 763.933594 Z M 1000 618.035156 L 1085.757812 736.066406 L 1000 763.933594 Z M 1138.757812 190.984375 L 1000 145.898438 L 1000 236.066406 Z M 1000 472.136719 L 1085.757812 354.101562 L 1138.757812 427.050781 Z M 1224.515625 309.015625 L 1085.757812 354.101562 L 1138.757812 427.050781 Z M 1224.515625 309.015625 L 1224.515625 454.914062 L 1138.757812 427.050781 Z M 1138.757812 572.949219 L 1224.515625 454.914062 L 1138.757812 427.050781 Z M 1587.785156 572.949219 L 1502.027344 454.914062 L 1587.785156 427.050781 Z M 1502.027344 309.015625 L 1502.027344 454.914062 L 1587.785156 427.050781 Z M 1726.542969 618.035156 L 1865.300781 572.949219 L 1812.300781 500 Z M 1673.542969 309.015625 L 1673.542969 454.914062 L 1587.785156 427.050781 Z M 1587.785156 572.949219 L 1673.542969 454.914062 L 1587.785156 427.050781 Z M 1363.269531 736.066406 L 1277.515625 618.035156 L 1224.515625 690.984375 Z M 1085.757812 881.964844 L 1224.515625 836.882812 L 1224.515625 927.050781 Z M 1363.269531 881.964844 L 1224.515625 836.882812 L 1224.515625 927.050781 Z M 1726.542969 618.035156 L 1812.300781 736.066406 L 1726.542969 763.933594 Z M 1502.027344 836.882812 L 1587.785156 718.847656 L 1502.027344 690.984375 Z M 1587.785156 572.949219 L 1587.785156 718.847656 L 1502.027344 690.984375 Z M 1587.785156 572.949219 L 1449.027344 618.035156 L 1502.027344 690.984375 Z M 1363.269531 736.066406 L 1449.027344 618.035156 L 1502.027344 690.984375 Z M 1363.269531 736.066406 "/>
<path style=" stroke:none;fill-rule:nonzero;fill:rgb(0%,40.78%,54.51%);fill-opacity:1;" d="M 1726.542969 1145.898438 L 1726.542969 1000 L 1587.785156 1190.984375 Z M 1812.300781 1263.933594 L 1951.054688 1309.015625 L 1812.300781 1118.035156 Z M 1726.542969 1145.898438 L 1812.300781 1263.933594 L 1587.785156 1190.984375 Z M 1812.300781 881.964844 L 1726.542969 1000 L 1951.054688 927.050781 Z M 1951.054688 836.882812 L 1812.300781 881.964844 L 1951.054688 690.984375 Z M 1951.054688 1163.117188 L 1951.054688 1309.015625 L 1812.300781 1118.035156 Z M 1865.300781 1045.085938 L 1951.054688 1163.117188 L 1951.054688 927.050781 Z M 1865.300781 1045.085938 L 1726.542969 1000 L 1951.054688 927.050781 Z M 1449.027344 1000 L 1363.269531 881.964844 L 1363.269531 1118.035156 Z M 1449.027344 1145.898438 L 1449.027344 1000 L 1587.785156 1190.984375 Z M 1138.757812 1045.085938 L 1000 1000 L 1224.515625 927.050781 Z M 1277.515625 1000 L 1138.757812 1045.085938 L 1363.269531 1118.035156 Z M 1277.515625 1000 L 1363.269531 881.964844 L 1363.269531 1118.035156 Z M 1812.300781 881.964844 L 1726.542969 1000 L 1726.542969 763.933594 Z M 1812.300781 736.066406 L 1812.300781 881.964844 L 1951.054688 690.984375 Z M 1502.027344 836.882812 L 1363.269531 881.964844 L 1587.785156 954.914062 Z M 1640.785156 881.964844 L 1502.027344 836.882812 L 1726.542969 763.933594 Z M 1640.785156 881.964844 L 1726.542969 1000 L 1726.542969 763.933594 Z M 1587.785156 1045.085938 L 1726.542969 1000 L 1587.785156 1190.984375 Z M 1449.027344 1000 L 1363.269531 881.964844 L 1587.785156 954.914062 Z M 1587.785156 1045.085938 L 1449.027344 1000 L 1587.785156 1190.984375 Z M 1673.542969 1309.015625 L 1587.785156 1427.050781 L 1587.785156 1190.984375 Z M 1812.300781 1263.933594 L 1951.054688 1309.015625 L 1726.542969 1381.964844 Z M 1673.542969 1309.015625 L 1812.300781 1263.933594 L 1587.785156 1190.984375 Z M 1587.785156 1572.949219 L 1587.785156 1427.050781 L 1726.542969 1618.035156 Z M 1673.542969 1690.984375 L 1587.785156 1572.949219 L 1587.785156 1809.015625 Z M 1865.300781 1427.050781 L 1951.054688 1309.015625 L 1726.542969 1381.964844 Z M 1726.542969 1472.136719 L 1865.300781 1427.050781 L 1726.542969 1618.035156 Z M 1726.542969 1472.136719 L 1587.785156 1427.050781 L 1726.542969 1618.035156 Z M 1363.269531 1263.933594 L 1224.515625 1309.015625 L 1363.269531 1118.035156 Z M 1449.027344 1145.898438 L 1363.269531 1263.933594 L 1587.785156 1190.984375 Z M 1138.757812 1045.085938 L 1000 1000 L 1138.757812 1190.984375 Z M 1224.515625 1163.117188 L 1138.757812 1045.085938 L 1363.269531 1118.035156 Z M 1224.515625 1163.117188 L 1224.515625 1309.015625 L 1363.269531 1118.035156 Z M 1587.785156 1572.949219 L 1587.785156 1427.050781 L 1449.027344 1618.035156 Z M 1502.027344 1690.984375 L 1587.785156 1572.949219 L 1587.785156 1809.015625 Z M 1310.269531 1427.050781 L 1224.515625 1309.015625 L 1449.027344 1381.964844 Z M 1449.027344 1472.136719 L 1310.269531 1427.050781 L 1449.027344 1618.035156 Z M 1449.027344 1472.136719 L 1587.785156 1427.050781 L 1449.027344 1618.035156 Z M 1502.027344 1309.015625 L 1587.785156 1427.050781 L 1587.785156 1190.984375 Z M 1363.269531 1263.933594 L 1224.515625 1309.015625 L 1449.027344 1381.964844 Z M 1502.027344 1309.015625 L 1363.269531 1263.933594 L 1587.785156 1190.984375 Z M 1085.757812 1736.066406 L 1224.515625 1690.984375 L 1000 1618.035156 Z M 1000 1854.101562 L 1000 2000 L 1138.757812 1809.015625 Z M 1085.757812 1736.066406 L 1000 1854.101562 L 1000 1618.035156 Z M 1363.269531 1736.066406 L 1224.515625 1690.984375 L 1363.269531 1881.964844 Z M 1449.027344 1854.101562 L 1363.269531 1736.066406 L 1587.785156 1809.015625 Z M 1138.757812 1954.914062 L 1000 2000 L 1138.757812 1809.015625 Z M 1224.515625 1836.882812 L 1138.757812 1954.914062 L 1363.269531 1881.964844 Z M 1224.515625 1836.882812 L 1224.515625 1690.984375 L 1363.269531 1881.964844 Z M 1138.757812 1427.050781 L 1224.515625 1309.015625 L 1000 1381.964844 Z M 1000 1472.136719 L 1138.757812 1427.050781 L 1000 1618.035156 Z M 1000 1145.898438 L 1000 1000 L 1138.757812 1190.984375 Z M 1085.757812 1263.933594 L 1000 1145.898438 L 1000 1381.964844 Z M 1085.757812 1263.933594 L 1224.515625 1309.015625 L 1000 1381.964844 Z M 1363.269531 1736.066406 L 1224.515625 1690.984375 L 1449.027344 1618.035156 Z M 1502.027344 1690.984375 L 1363.269531 1736.066406 L 1587.785156 1809.015625 Z M 1310.269531 1427.050781 L 1224.515625 1309.015625 L 1224.515625 1545.085938 Z M 1310.269531 1572.949219 L 1310.269531 1427.050781 L 1449.027344 1618.035156 Z M 1310.269531 1572.949219 L 1224.515625 1690.984375 L 1449.027344 1618.035156 Z M 1138.757812 1572.949219 L 1224.515625 1690.984375 L 1000 1618.035156 Z M 1138.757812 1427.050781 L 1224.515625 1309.015625 L 1224.515625 1545.085938 Z M 1138.757812 1572.949219 L 1138.757812 1427.050781 L 1000 1618.035156 Z M 914.242188 1736.066406 L 775.484375 1690.984375 L 1000 1618.035156 Z M 1000 1854.101562 L 1000 2000 L 861.242188 1809.015625 Z M 914.242188 1736.066406 L 1000 1854.101562 L 1000 1618.035156 Z M 636.730469 1736.066406 L 775.484375 1690.984375 L 636.730469 1881.964844 Z M 550.972656 1854.101562 L 636.730469 1736.066406 L 412.214844 1809.015625 Z M 861.242188 1954.914062 L 1000 2000 L 861.242188 1809.015625 Z M 775.484375 1836.882812 L 861.242188 1954.914062 L 636.730469 1881.964844 Z M 775.484375 1836.882812 L 775.484375 1690.984375 L 636.730469 1881.964844 Z M 861.242188 1427.050781 L 775.484375 1309.015625 L 1000 1381.964844 Z M 1000 1472.136719 L 861.242188 1427.050781 L 1000 1618.035156 Z M 1000 1145.898438 L 1000 1000 L 861.242188 1190.984375 Z M 914.242188 1263.933594 L 1000 1145.898438 L 1000 1381.964844 Z M 914.242188 1263.933594 L 775.484375 1309.015625 L 1000 1381.964844 Z M 636.730469 1736.066406 L 775.484375 1690.984375 L 550.972656 1618.035156 Z M 497.972656 1690.984375 L 636.730469 1736.066406 L 412.214844 1809.015625 Z M 689.730469 1427.050781 L 775.484375 1309.015625 L 775.484375 1545.085938 Z M 689.730469 1572.949219 L 689.730469 1427.050781 L 550.972656 1618.035156 Z M 689.730469 1572.949219 L 775.484375 1690.984375 L 550.972656 1618.035156 Z M 861.242188 1572.949219 L 775.484375 1690.984375 L 1000 1618.035156 Z M 861.242188 1427.050781 L 775.484375 1309.015625 L 775.484375 1545.085938 Z M 861.242188 1572.949219 L 861.242188 1427.050781 L 1000 1618.035156 Z M 326.457031 1309.015625 L 412.214844 1427.050781 L 412.214844 1190.984375 Z M 187.699219 1263.933594 L 48.945312 1309.015625 L 273.457031 1381.964844 Z M 326.457031 1309.015625 L 187.699219 1263.933594 L 412.214844 1190.984375 Z M 412.214844 1572.949219 L 412.214844 1427.050781 L 273.457031 1618.035156 Z M 326.457031 1690.984375 L 412.214844 1572.949219 L 412.214844 1809.015625 Z M 134.699219 1427.050781 L 48.945312 1309.015625 L 273.457031 1381.964844 Z M 273.457031 1472.136719 L 134.699219 1427.050781 L 273.457031 1618.035156 Z M 273.457031 1472.136719 L 412.214844 1427.050781 L 273.457031 1618.035156 Z M 636.730469 1263.933594 L 775.484375 1309.015625 L 636.730469 1118.035156 Z M 550.972656 1145.898438 L 636.730469 1263.933594 L 412.214844 1190.984375 Z M 861.242188 1045.085938 L 1000 1000 L 861.242188 1190.984375 Z M 775.484375 1163.117188 L 861.242188 1045.085938 L 636.730469 1118.035156 Z M 775.484375 1163.117188 L 775.484375 1309.015625 L 636.730469 1118.035156 Z M 412.214844 1572.949219 L 412.214844 1427.050781 L 550.972656 1618.035156 Z M 497.972656 1690.984375 L 412.214844 1572.949219 L 412.214844 1809.015625 Z M 689.730469 1427.050781 L 775.484375 1309.015625 L 550.972656 1381.964844 Z M 550.972656 1472.136719 L 689.730469 1427.050781 L 550.972656 1618.035156 Z M 550.972656 1472.136719 L 412.214844 1427.050781 L 550.972656 1618.035156 Z M 497.972656 1309.015625 L 412.214844 1427.050781 L 412.214844 1190.984375 Z M 636.730469 1263.933594 L 775.484375 1309.015625 L 550.972656 1381.964844 Z M 497.972656 1309.015625 L 636.730469 1263.933594 L 412.214844 1190.984375 Z M 273.457031 1145.898438 L 273.457031 1000 L 412.214844 1190.984375 Z M 187.699219 1263.933594 L 48.945312 1309.015625 L 187.699219 1118.035156 Z M 273.457031 1145.898438 L 187.699219 1263.933594 L 412.214844 1190.984375 Z M 187.699219 881.964844 L 273.457031 1000 L 48.945312 927.050781 Z M 48.945312 836.882812 L 187.699219 881.964844 L 48.945312 690.984375 Z M 48.945312 1163.117188 L 48.945312 1309.015625 L 187.699219 1118.035156 Z M 134.699219 1045.085938 L 48.945312 1163.117188 L 48.945312 927.050781 Z M 134.699219 1045.085938 L 273.457031 1000 L 48.945312 927.050781 Z M 550.972656 1000 L 636.730469 881.964844 L 636.730469 1118.035156 Z M 550.972656 1145.898438 L 550.972656 1000 L 412.214844 1190.984375 Z M 861.242188 1045.085938 L 1000 1000 L 775.484375 927.050781 Z M 722.484375 1000 L 861.242188 1045.085938 L 636.730469 1118.035156 Z M 722.484375 1000 L 636.730469 881.964844 L 636.730469 1118.035156 Z M 187.699219 881.964844 L 273.457031 1000 L 273.457031 763.933594 Z M 187.699219 736.066406 L 187.699219 881.964844 L 48.945312 690.984375 Z M 497.972656 836.882812 L 636.730469 881.964844 L 412.214844 954.914062 Z M 359.214844 881.964844 L 497.972656 836.882812 L 273.457031 763.933594 Z M 359.214844 881.964844 L 273.457031 1000 L 273.457031 763.933594 Z M 412.214844 1045.085938 L 273.457031 1000 L 412.214844 1190.984375 Z M 550.972656 1000 L 636.730469 881.964844 L 412.214844 954.914062 Z M 412.214844 1045.085938 L 550.972656 1000 L 412.214844 1190.984375 Z M 497.972656 454.914062 L 412.214844 572.949219 L 636.730469 500 Z M 497.972656 309.015625 L 412.214844 190.984375 L 412.214844 427.050781 Z M 497.972656 454.914062 L 497.972656 309.015625 L 636.730469 500 Z M 273.457031 618.035156 L 412.214844 572.949219 L 187.699219 500 Z M 134.699219 572.949219 L 273.457031 618.035156 L 48.945312 690.984375 Z M 326.457031 309.015625 L 412.214844 190.984375 L 412.214844 427.050781 Z M 326.457031 454.914062 L 326.457031 309.015625 L 187.699219 500 Z M 326.457031 454.914062 L 412.214844 572.949219 L 187.699219 500 Z M 636.730469 736.066406 L 636.730469 881.964844 L 775.484375 690.984375 Z M 722.484375 618.035156 L 636.730469 736.066406 L 636.730469 500 Z M 914.242188 881.964844 L 1000 1000 L 775.484375 927.050781 Z M 775.484375 836.882812 L 914.242188 881.964844 L 775.484375 690.984375 Z M 775.484375 836.882812 L 636.730469 881.964844 L 775.484375 690.984375 Z M 273.457031 618.035156 L 412.214844 572.949219 L 273.457031 763.933594 Z M 187.699219 736.066406 L 273.457031 618.035156 L 48.945312 690.984375 Z M 497.972656 836.882812 L 636.730469 881.964844 L 497.972656 690.984375 Z M 412.214844 718.847656 L 497.972656 836.882812 L 273.457031 763.933594 Z M 412.214844 718.847656 L 412.214844 572.949219 L 273.457031 763.933594 Z M 550.972656 618.035156 L 412.214844 572.949219 L 636.730469 500 Z M 636.730469 736.066406 L 636.730469 881.964844 L 497.972656 690.984375 Z M 550.972656 618.035156 L 636.730469 736.066406 L 636.730469 500 Z M 636.730469 354.101562 L 775.484375 309.015625 L 636.730469 500 Z M 497.972656 309.015625 L 412.214844 190.984375 L 636.730469 263.933594 Z M 636.730469 354.101562 L 497.972656 309.015625 L 636.730469 500 Z M 861.242188 190.984375 L 775.484375 309.015625 L 775.484375 72.949219 Z M 861.242188 45.085938 L 861.242188 190.984375 L 1000 0 Z M 550.972656 145.898438 L 412.214844 190.984375 L 636.730469 263.933594 Z M 689.730469 190.984375 L 550.972656 145.898438 L 775.484375 72.949219 Z M 689.730469 190.984375 L 775.484375 309.015625 L 775.484375 72.949219 Z M 861.242188 572.949219 L 1000 618.035156 L 775.484375 690.984375 Z M 722.484375 618.035156 L 861.242188 572.949219 L 636.730469 500 Z M 914.242188 881.964844 L 1000 1000 L 1000 763.933594 Z M 914.242188 736.066406 L 914.242188 881.964844 L 775.484375 690.984375 Z M 914.242188 736.066406 L 1000 618.035156 L 775.484375 690.984375 Z M 861.242188 190.984375 L 775.484375 309.015625 L 1000 236.066406 Z M 1000 145.898438 L 861.242188 190.984375 L 1000 0 Z M 1000 472.136719 L 1000 618.035156 L 861.242188 427.050781 Z M 914.242188 354.101562 L 1000 472.136719 L 1000 236.066406 Z M 914.242188 354.101562 L 775.484375 309.015625 L 1000 236.066406 Z M 775.484375 454.914062 L 775.484375 309.015625 L 636.730469 500 Z M 861.242188 572.949219 L 1000 618.035156 L 861.242188 427.050781 Z M 775.484375 454.914062 L 861.242188 572.949219 L 636.730469 500 Z M 1363.269531 354.101562 L 1224.515625 309.015625 L 1363.269531 500 Z M 1502.027344 309.015625 L 1587.785156 190.984375 L 1363.269531 263.933594 Z M 1363.269531 354.101562 L 1502.027344 309.015625 L 1363.269531 500 Z M 1138.757812 190.984375 L 1224.515625 309.015625 L 1224.515625 72.949219 Z M 1138.757812 45.085938 L 1138.757812 190.984375 L 1000 0 Z M 1449.027344 145.898438 L 1587.785156 190.984375 L 1363.269531 263.933594 Z M 1310.269531 190.984375 L 1449.027344 145.898438 L 1224.515625 72.949219 Z M 1310.269531 190.984375 L 1224.515625 309.015625 L 1224.515625 72.949219 Z M 1138.757812 572.949219 L 1000 618.035156 L 1224.515625 690.984375 Z M 1277.515625 618.035156 L 1138.757812 572.949219 L 1363.269531 500 Z M 1085.757812 881.964844 L 1000 1000 L 1000 763.933594 Z M 1085.757812 736.066406 L 1085.757812 881.964844 L 1224.515625 690.984375 Z M 1085.757812 736.066406 L 1000 618.035156 L 1224.515625 690.984375 Z M 1138.757812 190.984375 L 1224.515625 309.015625 L 1000 236.066406 Z M 1000 145.898438 L 1138.757812 190.984375 L 1000 0 Z M 1000 472.136719 L 1000 618.035156 L 1138.757812 427.050781 Z M 1085.757812 354.101562 L 1000 472.136719 L 1000 236.066406 Z M 1085.757812 354.101562 L 1224.515625 309.015625 L 1000 236.066406 Z M 1224.515625 454.914062 L 1224.515625 309.015625 L 1363.269531 500 Z M 1138.757812 572.949219 L 1000 618.035156 L 1138.757812 427.050781 Z M 1224.515625 454.914062 L 1138.757812 572.949219 L 1363.269531 500 Z M 1502.027344 454.914062 L 1587.785156 572.949219 L 1363.269531 500 Z M 1502.027344 309.015625 L 1587.785156 190.984375 L 1587.785156 427.050781 Z M 1502.027344 454.914062 L 1502.027344 309.015625 L 1363.269531 500 Z M 1726.542969 618.035156 L 1587.785156 572.949219 L 1812.300781 500 Z M 1865.300781 572.949219 L 1726.542969 618.035156 L 1951.054688 690.984375 Z M 1673.542969 309.015625 L 1587.785156 190.984375 L 1587.785156 427.050781 Z M 1673.542969 454.914062 L 1673.542969 309.015625 L 1812.300781 500 Z M 1673.542969 454.914062 L 1587.785156 572.949219 L 1812.300781 500 Z M 1363.269531 736.066406 L 1363.269531 881.964844 L 1224.515625 690.984375 Z M 1277.515625 618.035156 L 1363.269531 736.066406 L 1363.269531 500 Z M 1085.757812 881.964844 L 1000 1000 L 1224.515625 927.050781 Z M 1224.515625 836.882812 L 1085.757812 881.964844 L 1224.515625 690.984375 Z M 1224.515625 836.882812 L 1363.269531 881.964844 L 1224.515625 690.984375 Z M 1726.542969 618.035156 L 1587.785156 572.949219 L 1726.542969 763.933594 Z M 1812.300781 736.066406 L 1726.542969 618.035156 L 1951.054688 690.984375 Z M 1502.027344 836.882812 L 1363.269531 881.964844 L 1502.027344 690.984375 Z M 1587.785156 718.847656 L 1502.027344 836.882812 L 1726.542969 763.933594 Z M 1587.785156 718.847656 L 1587.785156 572.949219 L 1726.542969 763.933594 Z M 1449.027344 618.035156 L 1587.785156 572.949219 L 1363.269531 500 Z M 1363.269531 736.066406 L 1363.269531 881.964844 L 1502.027344 690.984375 Z M 1449.027344 618.035156 L 1363.269531 736.066406 L 1363.269531 500 Z M 1449.027344 618.035156 "/>
<path style="fill:none;stroke-width:0.0145898;stroke-linecap:butt;stroke-linejoin:round;stroke:rgb(20%,20%,20%);stroke-opacity:1;stroke-miterlimit:10;" d="M 0.812301 0.118035 L 0.726543 0 L 0.726543 0.145898 M 0.587785 0.190984 L 0.726543 0.145898 L 0.726543 0 M 0.812301 0.118035 L 0.812301 0.263934 L 0.951055 0.309016 M 0.587785 0.190984 L 0.726543 0.145898 L 0.812301 0.263934 M 0.812301 0.118035 L 0.812301 0.263934 L 0.726543 0.145898 M 0.951055 -0.0729492 L 0.812301 -0.118035 L 0.726543 0 M 0.951055 -0.309016 L 0.951055 -0.163117 L 0.812301 -0.118035 M 0.951055 -0.0729492 L 0.812301 -0.118035 L 0.951055 -0.163117 M 0.812301 0.118035 L 0.951055 0.163117 L 0.951055 0.309016 M 0.951055 -0.0729492 L 0.865301 0.0450859 L 0.951055 0.163117 M 0.812301 0.118035 L 0.951055 0.163117 L 0.865301 0.0450859 M 0.812301 0.118035 L 0.726543 0 L 0.865301 0.0450859 M 0.951055 -0.0729492 L 0.865301 0.0450859 L 0.726543 0 M 0.36327 0.118035 L 0.449027 0 L 0.36327 -0.118035 M 0.587785 0.190984 L 0.449027 0.145898 L 0.449027 0 M 0.36327 0.118035 L 0.449027 0 L 0.449027 0.145898 M 0.224516 -0.0729492 L 0.138758 0.0450859 L 0 0 M 0.36327 0.118035 L 0.277516 0 L 0.138758 0.0450859 M 0.224516 -0.0729492 L 0.138758 0.0450859 L 0.277516 0 M 0.224516 -0.0729492 L 0.36327 -0.118035 L 0.277516 0 M 0.36327 0.118035 L 0.277516 0 L 0.36327 -0.118035 M 0.726543 -0.236066 L 0.812301 -0.118035 L 0.726543 0 M 0.951055 -0.309016 L 0.812301 -0.263934 L 0.812301 -0.118035 M 0.726543 -0.236066 L 0.812301 -0.118035 L 0.812301 -0.263934 M 0.587785 -0.0450859 L 0.502027 -0.163117 L 0.36327 -0.118035 M 0.726543 -0.236066 L 0.640785 -0.118035 L 0.502027 -0.163117 M 0.587785 -0.0450859 L 0.502027 -0.163117 L 0.640785 -0.118035 M 0.587785 -0.0450859 L 0.726543 0 L 0.640785 -0.118035 M 0.726543 -0.236066 L 0.640785 -0.118035 L 0.726543 0 M 0.587785 -0.0450859 L 0.726543 0 L 0.587785 0.0450859 M 0.587785 0.190984 L 0.587785 0.0450859 L 0.726543 0 M 0.587785 -0.0450859 L 0.449027 0 L 0.36327 -0.118035 M 0.587785 0.190984 L 0.587785 0.0450859 L 0.449027 0 M 0.587785 -0.0450859 L 0.449027 0 L 0.587785 0.0450859 M 0.726543 0.381965 L 0.587785 0.427051 L 0.673543 0.309016 M 0.587785 0.190984 L 0.673543 0.309016 L 0.587785 0.427051 M 0.726543 0.381965 L 0.812301 0.263934 L 0.951055 0.309016 M 0.587785 0.190984 L 0.673543 0.309016 L 0.812301 0.263934 M 0.726543 0.381965 L 0.812301 0.263934 L 0.673543 0.309016 M 0.726543 0.618035 L 0.587785 0.572949 L 0.587785 0.427051 M 0.587785 0.809016 L 0.673543 0.690984 L 0.587785 0.572949 M 0.726543 0.618035 L 0.587785 0.572949 L 0.673543 0.690984 M 0.726543 0.381965 L 0.865301 0.427051 L 0.951055 0.309016 M 0.726543 0.618035 L 0.726543 0.472137 L 0.865301 0.427051 M 0.726543 0.381965 L 0.865301 0.427051 L 0.726543 0.472137 M 0.726543 0.381965 L 0.587785 0.427051 L 0.726543 0.472137 M 0.726543 0.618035 L 0.726543 0.472137 L 0.587785 0.427051 M 0.36327 0.118035 L 0.36327 0.263934 L 0.224516 0.309016 M 0.587785 0.190984 L 0.449027 0.145898 L 0.36327 0.263934 M 0.36327 0.118035 L 0.36327 0.263934 L 0.449027 0.145898 M 0.138758 0.190984 L 0.138758 0.0450859 L 0 0 M 0.36327 0.118035 L 0.224516 0.163117 L 0.138758 0.0450859 M 0.138758 0.190984 L 0.138758 0.0450859 L 0.224516 0.163117 M 0.138758 0.190984 L 0.224516 0.309016 L 0.224516 0.163117 M 0.36327 0.118035 L 0.224516 0.163117 L 0.224516 0.309016 M 0.449027 0.618035 L 0.587785 0.572949 L 0.587785 0.427051 M 0.587785 0.809016 L 0.502027 0.690984 L 0.587785 0.572949 M 0.449027 0.618035 L 0.587785 0.572949 L 0.502027 0.690984 M 0.449027 0.381965 L 0.31027 0.427051 L 0.224516 0.309016 M 0.449027 0.618035 L 0.449027 0.472137 L 0.31027 0.427051 M 0.449027 0.381965 L 0.31027 0.427051 L 0.449027 0.472137 M 0.449027 0.381965 L 0.587785 0.427051 L 0.449027 0.472137 M 0.449027 0.618035 L 0.449027 0.472137 L 0.587785 0.427051 M 0.449027 0.381965 L 0.587785 0.427051 L 0.502027 0.309016 M 0.587785 0.190984 L 0.502027 0.309016 L 0.587785 0.427051 M 0.449027 0.381965 L 0.36327 0.263934 L 0.224516 0.309016 M 0.587785 0.190984 L 0.502027 0.309016 L 0.36327 0.263934 M 0.449027 0.381965 L 0.36327 0.263934 L 0.502027 0.309016 M 0.138758 0.809016 L 0.224516 0.690984 L 0.0857578 0.736066 M 0 0.618035 L 0.0857578 0.736066 L 0.224516 0.690984 M 0.138758 0.809016 L 0 0.854102 L 0 1 M 0 0.618035 L 0.0857578 0.736066 L 0 0.854102 M 0.138758 0.809016 L 0 0.854102 L 0.0857578 0.736066 M 0.36327 0.881965 L 0.36327 0.736066 L 0.224516 0.690984 M 0.587785 0.809016 L 0.449027 0.854102 L 0.36327 0.736066 M 0.36327 0.881965 L 0.36327 0.736066 L 0.449027 0.854102 M 0.138758 0.809016 L 0.138758 0.954914 L 0 1 M 0.36327 0.881965 L 0.224516 0.836883 L 0.138758 0.954914 M 0.138758 0.809016 L 0.138758 0.954914 L 0.224516 0.836883 M 0.138758 0.809016 L 0.224516 0.690984 L 0.224516 0.836883 M 0.36327 0.881965 L 0.224516 0.836883 L 0.224516 0.690984 M 0 0.381965 L 0.138758 0.427051 L 0.224516 0.309016 M 0 0.618035 L 0 0.472137 L 0.138758 0.427051 M 0 0.381965 L 0.138758 0.427051 L 0 0.472137 M 0.138758 0.190984 L 0 0.145898 L 0 0 M 0 0.381965 L 0.0857578 0.263934 L 0 0.145898 M 0.138758 0.190984 L 0 0.145898 L 0.0857578 0.263934 M 0.138758 0.190984 L 0.224516 0.309016 L 0.0857578 0.263934 M 0 0.381965 L 0.0857578 0.263934 L 0.224516 0.309016 M 0.449027 0.618035 L 0.36327 0.736066 L 0.224516 0.690984 M 0.587785 0.809016 L 0.502027 0.690984 L 0.36327 0.736066 M 0.449027 0.618035 L 0.36327 0.736066 L 0.502027 0.690984 M 0.224516 0.545086 L 0.31027 0.427051 L 0.224516 0.309016 M 0.449027 0.618035 L 0.31027 0.572949 L 0.31027 0.427051 M 0.224516 0.545086 L 0.31027 0.427051 L 0.31027 0.572949 M 0.224516 0.545086 L 0.224516 0.690984 L 0.31027 0.572949 M 0.449027 0.618035 L 0.31027 0.572949 L 0.224516 0.690984 M 0.224516 0.545086 L 0.224516 0.690984 L 0.138758 0.572949 M 0 0.618035 L 0.138758 0.572949 L 0.224516 0.690984 M 0.224516 0.545086 L 0.138758 0.427051 L 0.224516 0.309016 M 0 0.618035 L 0.138758 0.572949 L 0.138758 0.427051 M 0.224516 0.545086 L 0.138758 0.427051 L 0.138758 0.572949 M -0.138758 0.809016 L -0.224516 0.690984 L -0.0857578 0.736066 M 0 0.618035 L -0.0857578 0.736066 L -0.224516 0.690984 M -0.138758 0.809016 L 0 0.854102 L 0 1 M 0 0.618035 L -0.0857578 0.736066 L 0 0.854102 M -0.138758 0.809016 L 0 0.854102 L -0.0857578 0.736066 M -0.36327 0.881965 L -0.36327 0.736066 L -0.224516 0.690984 M -0.587785 0.809016 L -0.449027 0.854102 L -0.36327 0.736066 M -0.36327 0.881965 L -0.36327 0.736066 L -0.449027 0.854102 M -0.138758 0.809016 L -0.138758 0.954914 L 0 1 M -0.36327 0.881965 L -0.224516 0.836883 L -0.138758 0.954914 M -0.138758 0.809016 L -0.138758 0.954914 L -0.224516 0.836883 M -0.138758 0.809016 L -0.224516 0.690984 L -0.224516 0.836883 M -0.36327 0.881965 L -0.224516 0.836883 L -0.224516 0.690984 M 0 0.381965 L -0.138758 0.427051 L -0.224516 0.309016 M 0 0.618035 L 0 0.472137 L -0.138758 0.427051 M 0 0.381965 L -0.138758 0.427051 L 0 0.472137 M -0.138758 0.190984 L 0 0.145898 L 0 0 M 0 0.381965 L -0.0857578 0.263934 L 0 0.145898 M -0.138758 0.190984 L 0 0.145898 L -0.0857578 0.263934 M -0.138758 0.190984 L -0.224516 0.309016 L -0.0857578 0.263934 M 0 0.381965 L -0.0857578 0.263934 L -0.224516 0.309016 M -0.449027 0.618035 L -0.36327 0.736066 L -0.224516 0.690984 M -0.587785 0.809016 L -0.502027 0.690984 L -0.36327 0.736066 M -0.449027 0.618035 L -0.36327 0.736066 L -0.502027 0.690984 M -0.224516 0.545086 L -0.31027 0.427051 L -0.224516 0.309016 M -0.449027 0.618035 L -0.31027 0.572949 L -0.31027 0.427051 M -0.224516 0.545086 L -0.31027 0.427051 L -0.31027 0.572949 M -0.224516 0.545086 L -0.224516 0.690984 L -0.31027 0.572949 M -0.449027 0.618035 L -0.31027 0.572949 L -0.224516 0.690984 M -0.224516 0.545086 L -0.224516 0.690984 L -0.138758 0.572949 M 0 0.618035 L -0.138758 0.572949 L -0.224516 0.690984 M -0.224516 0.545086 L -0.138758 0.427051 L -0.224516 0.309016 M 0 0.618035 L -0.138758 0.572949 L -0.138758 0.427051 M -0.224516 0.545086 L -0.138758 0.427051 L -0.138758 0.572949 M -0.726543 0.381965 L -0.587785 0.427051 L -0.673543 0.309016 M -0.587785 0.190984 L -0.673543 0.309016 L -0.587785 0.427051 M -0.726543 0.381965 L -0.812301 0.263934 L -0.951055 0.309016 M -0.587785 0.190984 L -0.673543 0.309016 L -0.812301 0.263934 M -0.726543 0.381965 L -0.812301 0.263934 L -0.673543 0.309016 M -0.726543 0.618035 L -0.587785 0.572949 L -0.587785 0.427051 M -0.587785 0.809016 L -0.673543 0.690984 L -0.587785 0.572949 M -0.726543 0.618035 L -0.587785 0.572949 L -0.673543 0.690984 M -0.726543 0.381965 L -0.865301 0.427051 L -0.951055 0.309016 M -0.726543 0.618035 L -0.726543 0.472137 L -0.865301 0.427051 M -0.726543 0.381965 L -0.865301 0.427051 L -0.726543 0.472137 M -0.726543 0.381965 L -0.587785 0.427051 L -0.726543 0.472137 M -0.726543 0.618035 L -0.726543 0.472137 L -0.587785 0.427051 M -0.36327 0.118035 L -0.36327 0.263934 L -0.224516 0.309016 M -0.587785 0.190984 L -0.449027 0.145898 L -0.36327 0.263934 M -0.36327 0.118035 L -0.36327 0.263934 L -0.449027 0.145898 M -0.138758 0.190984 L -0.138758 0.0450859 L 0 0 M -0.36327 0.118035 L -0.224516 0.163117 L -0.138758 0.0450859 M -0.138758 0.190984 L -0.138758 0.0450859 L -0.224516 0.163117 M -0.138758 0.190984 L -0.224516 0.309016 L -0.224516 0.163117 M -0.36327 0.118035 L -0.224516 0.163117 L -0.224516 0.309016 M -0.449027 0.618035 L -0.587785 0.572949 L -0.587785 0.427051 M -0.587785 0.809016 L -0.502027 0.690984 L -0.587785 0.572949 M -0.449027 0.618035 L -0.587785 0.572949 L -0.502027 0.690984 M -0.449027 0.381965 L -0.31027 0.427051 L -0.224516 0.309016 M -0.449027 0.618035 L -0.449027 0.472137 L -0.31027 0.427051 M -0.449027 0.381965 L -0.31027 0.427051 L -0.449027 0.472137 M -0.449027 0.381965 L -0.587785 0.427051 L -0.449027 0.472137 M -0.449027 0.618035 L -0.449027 0.472137 L -0.587785 0.427051 M -0.449027 0.381965 L -0.587785 0.427051 L -0.502027 0.309016 M -0.587785 0.190984 L -0.502027 0.309016 L -0.587785 0.427051 M -0.449027 0.381965 L -0.36327 0.263934 L -0.224516 0.309016 M -0.587785 0.190984 L -0.502027 0.309016 L -0.36327 0.263934 M -0.449027 0.381965 L -0.36327 0.263934 L -0.502027 0.309016 M -0.812301 0.118035 L -0.726543 0 L -0.726543 0.145898 M -0.587785 0.190984 L -0.726543 0.145898 L -0.726543 0 M -0.812301 0.118035 L -0.812301 0.263934 L -0.951055 0.309016 M -0.587785 0.190984 L -0.726543 0.145898 L -0.812301 0.263934 M -0.812301 0.118035 L -0.812301 0.263934 L -0.726543 0.145898 M -0.951055 -0.0729492 L -0.812301 -0.118035 L -0.726543 0 M -0.951055 -0.309016 L -0.951055 -0.163117 L -0.812301 -0.118035 M -0.951055 -0.0729492 L -0.812301 -0.118035 L -0.951055 -0.163117 M -0.812301 0.118035 L -0.951055 0.163117 L -0.951055 0.309016 M -0.951055 -0.0729492 L -0.865301 0.0450859 L -0.951055 0.163117 M -0.812301 0.118035 L -0.951055 0.163117 L -0.865301 0.0450859 M -0.812301 0.118035 L -0.726543 0 L -0.865301 0.0450859 M -0.951055 -0.0729492 L -0.865301 0.0450859 L -0.726543 0 M -0.36327 0.118035 L -0.449027 0 L -0.36327 -0.118035 M -0.587785 0.190984 L -0.449027 0.145898 L -0.449027 0 M -0.36327 0.118035 L -0.449027 0 L -0.449027 0.145898 M -0.224516 -0.0729492 L -0.138758 0.0450859 L 0 0 M -0.36327 0.118035 L -0.277516 0 L -0.138758 0.0450859 M -0.224516 -0.0729492 L -0.138758 0.0450859 L -0.277516 0 M -0.224516 -0.0729492 L -0.36327 -0.118035 L -0.277516 0 M -0.36327 0.118035 L -0.277516 0 L -0.36327 -0.118035 M -0.726543 -0.236066 L -0.812301 -0.118035 L -0.726543 0 M -0.951055 -0.309016 L -0.812301 -0.263934 L -0.812301 -0.118035 M -0.726543 -0.236066 L -0.812301 -0.118035 L -0.812301 -0.263934 M -0.587785 -0.0450859 L -0.502027 -0.163117 L -0.36327 -0.118035 M -0.726543 -0.236066 L -0.640785 -0.118035 L -0.502027 -0.163117 M -0.587785 -0.0450859 L -0.502027 -0.163117 L -0.640785 -0.118035 M -0.587785 -0.0450859 L -0.726543 0 L -0.640785 -0.118035 M -0.726543 -0.236066 L -0.640785 -0.118035 L -0.726543 0 M -0.587785 -0.0450859 L -0.726543 0 L -0.587785 0.0450859 M -0.587785 0.190984 L -0.587785 0.0450859 L -0.726543 0 M -0.587785 -0.0450859 L -0.449027 0 L -0.36327 -0.118035 M -0.587785 0.190984 L -0.587785 0.0450859 L -0.449027 0 M -0.587785 -0.0450859 L -0.449027 0 L -0.587785 0.0450859 M -0.587785 -0.572949 L -0.587785 -0.427051 L -0.502027 -0.545086 M -0.36327 -0.5 L -0.502027 -0.545086 L -0.587785 -0.427051 M -0.587785 -0.572949 L -0.502027 -0.690984 L -0.587785 -0.809016 M -0.36327 -0.5 L -0.502027 -0.545086 L -0.502027 -0.690984 M -0.587785 -0.572949 L -0.502027 -0.690984 L -0.502027 -0.545086 M -0.812301 -0.5 L -0.726543 -0.381965 L -0.587785 -0.427051 M -0.951055 -0.309016 L -0.865301 -0.427051 L -0.726543 -0.381965 M -0.812301 -0.5 L -0.726543 -0.381965 L -0.865301 -0.427051 M -0.587785 -0.572949 L -0.673543 -0.690984 L -0.587785 -0.809016 M -0.812301 -0.5 L -0.673543 -0.545086 L -0.673543 -0.690984 M -0.587785 -0.572949 L -0.673543 -0.690984 L -0.673543 -0.545086 M -0.587785 -0.572949 L -0.587785 -0.427051 L -0.673543 -0.545086 M -0.812301 -0.5 L -0.673543 -0.545086 L -0.587785 -0.427051 M -0.224516 -0.309016 L -0.36327 -0.263934 L -0.36327 -0.118035 M -0.36327 -0.5 L -0.277516 -0.381965 L -0.36327 -0.263934 M -0.224516 -0.309016 L -0.36327 -0.263934 L -0.277516 -0.381965 M -0.224516 -0.0729492 L -0.0857578 -0.118035 L 0 0 M -0.224516 -0.309016 L -0.224516 -0.163117 L -0.0857578 -0.118035 M -0.224516 -0.0729492 L -0.0857578 -0.118035 L -0.224516 -0.163117 M -0.224516 -0.0729492 L -0.36327 -0.118035 L -0.224516 -0.163117 M -0.224516 -0.309016 L -0.224516 -0.163117 L -0.36327 -0.118035 M -0.726543 -0.236066 L -0.726543 -0.381965 L -0.587785 -0.427051 M -0.951055 -0.309016 L -0.812301 -0.263934 L -0.726543 -0.381965 M -0.726543 -0.236066 L -0.726543 -0.381965 L -0.812301 -0.263934 M -0.502027 -0.309016 L -0.502027 -0.163117 L -0.36327 -0.118035 M -0.726543 -0.236066 L -0.587785 -0.281152 L -0.502027 -0.163117 M -0.502027 -0.309016 L -0.502027 -0.163117 L -0.587785 -0.281152 M -0.502027 -0.309016 L -0.587785 -0.427051 L -0.587785 -0.281152 M -0.726543 -0.236066 L -0.587785 -0.281152 L -0.587785 -0.427051 M -0.502027 -0.309016 L -0.587785 -0.427051 L -0.449027 -0.381965 M -0.36327 -0.5 L -0.449027 -0.381965 L -0.587785 -0.427051 M -0.502027 -0.309016 L -0.36327 -0.263934 L -0.36327 -0.118035 M -0.36327 -0.5 L -0.449027 -0.381965 L -0.36327 -0.263934 M -0.502027 -0.309016 L -0.36327 -0.263934 L -0.449027 -0.381965 M -0.36327 -0.736066 L -0.224516 -0.690984 L -0.36327 -0.645898 M -0.36327 -0.5 L -0.36327 -0.645898 L -0.224516 -0.690984 M -0.36327 -0.736066 L -0.502027 -0.690984 L -0.587785 -0.809016 M -0.36327 -0.5 L -0.36327 -0.645898 L -0.502027 -0.690984 M -0.36327 -0.736066 L -0.502027 -0.690984 L -0.36327 -0.645898 M -0.224516 -0.927051 L -0.138758 -0.809016 L -0.224516 -0.690984 M 0 -1 L -0.138758 -0.954914 L -0.138758 -0.809016 M -0.224516 -0.927051 L -0.138758 -0.809016 L -0.138758 -0.954914 M -0.36327 -0.736066 L -0.449027 -0.854102 L -0.587785 -0.809016 M -0.224516 -0.927051 L -0.31027 -0.809016 L -0.449027 -0.854102 M -0.36327 -0.736066 L -0.449027 -0.854102 L -0.31027 -0.809016 M -0.36327 -0.736066 L -0.224516 -0.690984 L -0.31027 -0.809016 M -0.224516 -0.927051 L -0.31027 -0.809016 L -0.224516 -0.690984 M -0.224516 -0.309016 L -0.138758 -0.427051 L 0 -0.381965 M -0.36327 -0.5 L -0.277516 -0.381965 L -0.138758 -0.427051 M -0.224516 -0.309016 L -0.138758 -0.427051 L -0.277516 -0.381965 M 0 -0.236066 L -0.0857578 -0.118035 L 0 0 M -0.224516 -0.309016 L -0.0857578 -0.263934 L -0.0857578 -0.118035 M 0 -0.236066 L -0.0857578 -0.118035 L -0.0857578 -0.263934 M 0 -0.236066 L 0 -0.381965 L -0.0857578 -0.263934 M -0.224516 -0.309016 L -0.0857578 -0.263934 L 0 -0.381965 M 0 -0.763934 L -0.138758 -0.809016 L -0.224516 -0.690984 M 0 -1 L 0 -0.854102 L -0.138758 -0.809016 M 0 -0.763934 L -0.138758 -0.809016 L 0 -0.854102 M -0.138758 -0.572949 L 0 -0.527863 L 0 -0.381965 M 0 -0.763934 L -0.0857578 -0.645898 L 0 -0.527863 M -0.138758 -0.572949 L 0 -0.527863 L -0.0857578 -0.645898 M -0.138758 -0.572949 L -0.224516 -0.690984 L -0.0857578 -0.645898 M 0 -0.763934 L -0.0857578 -0.645898 L -0.224516 -0.690984 M -0.138758 -0.572949 L -0.224516 -0.690984 L -0.224516 -0.545086 M -0.36327 -0.5 L -0.224516 -0.545086 L -0.224516 -0.690984 M -0.138758 -0.572949 L -0.138758 -0.427051 L 0 -0.381965 M -0.36327 -0.5 L -0.224516 -0.545086 L -0.138758 -0.427051 M -0.138758 -0.572949 L -0.138758 -0.427051 L -0.224516 -0.545086 M 0.36327 -0.736066 L 0.224516 -0.690984 L 0.36327 -0.645898 M 0.36327 -0.5 L 0.36327 -0.645898 L 0.224516 -0.690984 M 0.36327 -0.736066 L 0.502027 -0.690984 L 0.587785 -0.809016 M 0.36327 -0.5 L 0.36327 -0.645898 L 0.502027 -0.690984 M 0.36327 -0.736066 L 0.502027 -0.690984 L 0.36327 -0.645898 M 0.224516 -0.927051 L 0.138758 -0.809016 L 0.224516 -0.690984 M 0 -1 L 0.138758 -0.954914 L 0.138758 -0.809016 M 0.224516 -0.927051 L 0.138758 -0.809016 L 0.138758 -0.954914 M 0.36327 -0.736066 L 0.449027 -0.854102 L 0.587785 -0.809016 M 0.224516 -0.927051 L 0.31027 -0.809016 L 0.449027 -0.854102 M 0.36327 -0.736066 L 0.449027 -0.854102 L 0.31027 -0.809016 M 0.36327 -0.736066 L 0.224516 -0.690984 L 0.31027 -0.809016 M 0.224516 -0.927051 L 0.31027 -0.809016 L 0.224516 -0.690984 M 0.224516 -0.309016 L 0.138758 -0.427051 L 0 -0.381965 M 0.36327 -0.5 L 0.277516 -0.381965 L 0.138758 -0.427051 M 0.224516 -0.309016 L 0.138758 -0.427051 L 0.277516 -0.381965 M 0 -0.236066 L 0.0857578 -0.118035 L 0 0 M 0.224516 -0.309016 L 0.0857578 -0.263934 L 0.0857578 -0.118035 M 0 -0.236066 L 0.0857578 -0.118035 L 0.0857578 -0.263934 M 0 -0.236066 L 0 -0.381965 L 0.0857578 -0.263934 M 0.224516 -0.309016 L 0.0857578 -0.263934 L 0 -0.381965 M 0 -0.763934 L 0.138758 -0.809016 L 0.224516 -0.690984 M 0 -1 L 0 -0.854102 L 0.138758 -0.809016 M 0 -0.763934 L 0.138758 -0.809016 L 0 -0.854102 M 0.138758 -0.572949 L 0 -0.527863 L 0 -0.381965 M 0 -0.763934 L 0.0857578 -0.645898 L 0 -0.527863 M 0.138758 -0.572949 L 0 -0.527863 L 0.0857578 -0.645898 M 0.138758 -0.572949 L 0.224516 -0.690984 L 0.0857578 -0.645898 M 0 -0.763934 L 0.0857578 -0.645898 L 0.224516 -0.690984 M 0.138758 -0.572949 L 0.224516 -0.690984 L 0.224516 -0.545086 M 0.36327 -0.5 L 0.224516 -0.545086 L 0.224516 -0.690984 M 0.138758 -0.572949 L 0.138758 -0.427051 L 0 -0.381965 M 0.36327 -0.5 L 0.224516 -0.545086 L 0.138758 -0.427051 M 0.138758 -0.572949 L 0.138758 -0.427051 L 0.224516 -0.545086 M 0.587785 -0.572949 L 0.587785 -0.427051 L 0.502027 -0.545086 M 0.36327 -0.5 L 0.502027 -0.545086 L 0.587785 -0.427051 M 0.587785 -0.572949 L 0.502027 -0.690984 L 0.587785 -0.809016 M 0.36327 -0.5 L 0.502027 -0.545086 L 0.502027 -0.690984 M 0.587785 -0.572949 L 0.502027 -0.690984 L 0.502027 -0.545086 M 0.812301 -0.5 L 0.726543 -0.381965 L 0.587785 -0.427051 M 0.951055 -0.309016 L 0.865301 -0.427051 L 0.726543 -0.381965 M 0.812301 -0.5 L 0.726543 -0.381965 L 0.865301 -0.427051 M 0.587785 -0.572949 L 0.673543 -0.690984 L 0.587785 -0.809016 M 0.812301 -0.5 L 0.673543 -0.545086 L 0.673543 -0.690984 M 0.587785 -0.572949 L 0.673543 -0.690984 L 0.673543 -0.545086 M 0.587785 -0.572949 L 0.587785 -0.427051 L 0.673543 -0.545086 M 0.812301 -0.5 L 0.673543 -0.545086 L 0.587785 -0.427051 M 0.224516 -0.309016 L 0.36327 -0.263934 L 0.36327 -0.118035 M 0.36327 -0.5 L 0.277516 -0.381965 L 0.36327 -0.263934 M 0.224516 -0.309016 L 0.36327 -0.263934 L 0.277516 -0.381965 M 0.224516 -0.0729492 L 0.0857578 -0.118035 L 0 0 M 0.224516 -0.309016 L 0.224516 -0.163117 L 0.0857578 -0.118035 M 0.224516 -0.0729492 L 0.0857578 -0.118035 L 0.224516 -0.163117 M 0.224516 -0.0729492 L 0.36327 -0.118035 L 0.224516 -0.163117 M 0.224516 -0.309016 L 0.224516 -0.163117 L 0.36327 -0.118035 M 0.726543 -0.236066 L 0.726543 -0.381965 L 0.587785 -0.427051 M 0.951055 -0.309016 L 0.812301 -0.263934 L 0.726543 -0.381965 M 0.726543 -0.236066 L 0.726543 -0.381965 L 0.812301 -0.263934 M 0.502027 -0.309016 L 0.502027 -0.163117 L 0.36327 -0.118035 M 0.726543 -0.236066 L 0.587785 -0.281152 L 0.502027 -0.163117 M 0.502027 -0.309016 L 0.502027 -0.163117 L 0.587785 -0.281152 M 0.502027 -0.309016 L 0.587785 -0.427051 L 0.587785 -0.281152 M 0.726543 -0.236066 L 0.587785 -0.281152 L 0.587785 -0.427051 M 0.502027 -0.309016 L 0.587785 -0.427051 L 0.449027 -0.381965 M 0.36327 -0.5 L 0.449027 -0.381965 L 0.587785 -0.427051 M 0.502027 -0.309016 L 0.36327 -0.263934 L 0.36327 -0.118035 M 0.36327 -0.5 L 0.449027 -0.381965 L 0.36327 -0.263934 M 0.502027 -0.309016 L 0.36327 -0.263934 L 0.449027 -0.381965 " transform="matrix(1000,0,0,1000,1000,1000)"/>
</g>
</svg>
