<?xml version="1.0" encoding="UTF-8"?>
<svg xmlns="http://www.w3.org/2000/svg" xmlns:xlink="http://www.w3.org/1999/xlink" width="2000pt" height="2000pt" viewBox="0 0 2000 2000" version="1.1">
<g id="surface17">
<path style=" stroke:none;fill-rule:nonzero;fill:rgb(0%,40.78%,54.51%);fill-opacity:1;" d="M 1951.054688 690.984375 L 1000 1000 L 1951.054688 1309.015625 Z M 1587.785156 1809.015625 L 1000 1000 L 1951.054688 1309.015625 Z M 1587.785156 1809.015625 L 1000 1000 L 1000 2000 Z M 412.214844 1809.015625 L 1000 1000 L 1000 2000 Z M 412.214844 1809.015625 L 1000 1000 L 48.945312 1309.015625 Z M 48.945312 690.984375 L 1000 1000 L 48.945312 1309.015625 Z M 48.945312 690.984375 L 1000 1000 L 412.214844 190.984375 Z M 1000 0 L 1000 1000 L 412.214844 190.984375 Z M 1000 0 L 1000 1000 L 1587.785156 190.984375 Z M 1951.054688 690.984375 L 1000 1000 L 1587.785156 190.984375 Z M 1951.054688 690.984375 "/>
<path style="fill:none;stroke-width:0.1;stroke-linecap:butt;stroke-linejoin:round;stroke:rgb(20%,20%,20%);stroke-opacity:1;stroke-miterlimit:10;" d="M 0.951055 0.309016 L 0.951055 -0.309016 L 0 0 M 0.951055 0.309016 L 0.587785 0.809016 L 0 0 M 0 1 L 0.587785 0.809016 L 0 0 M 0 1 L -0.587785 0.809016 L 0 0 M -0.951055 0.309016 L -0.587785 0.809016 L 0 0 M -0.951055 0.309016 L -0.951055 -0.309016 L 0 0 M -0.587785 -0.809016 L -0.951055 -0.309016 L 0 0 M -0.587785 -0.809016 L 0 -1 L 0 0 M 0.587785 -0.809016 L 0 -1 L 0 0 M 0.587785 -0.809016 L 0.951055 -0.309016 L 0 0 " transform="matrix(1000,0,0,1000,1000,1000)"/>
</g>
</svg>
