<?xml version="1.0" encoding="utf-8" standalone="no"?>
<!DOCTYPE svg PUBLIC "-//W3C//DTD SVG 1.1//EN"
  "http://www.w3.org/Graphics/SVG/1.1/DTD/svg11.dtd">
<!-- Created with matplotlib (https://matplotlib.org/) -->
<svg height="288pt" version="1.1" viewBox="0 0 432 288" width="432pt" xmlns="http://www.w3.org/2000/svg" xmlns:xlink="http://www.w3.org/1999/xlink">
 <defs>
  <style type="text/css">
*{stroke-linecap:butt;stroke-linejoin:round;}
  </style>
 </defs>
 <g id="figure_1">
  <g id="patch_1">
   <path d="M 0 288 
L 432 288 
L 432 0 
L 0 0 
z
" style="fill:#ffffff;"/>
  </g>
  <g id="axes_1">
   <g id="patch_2">
    <path d="M 54 199.091528 
L 388.8 199.091528 
L 388.8 87.468472 
L 54 87.468472 
z
" style="fill:#ffffff;"/>
   </g>
   <g id="matplotlib.axis_1">
    <g id="xtick_1">
     <g id="line2d_1">
      <defs>
       <path d="M 0 0 
L 0 3.5 
" id="mce25008f65" style="stroke:#000000;stroke-width:0.8;"/>
      </defs>
      <g>
       <use style="stroke:#000000;stroke-width:0.8;" x="77.672727" xlink:href="#mce25008f65" y="199.091528"/>
      </g>
     </g>
     <g id="text_1">
      <!-- 10.0 -->
      <defs>
       <path d="M 12.40625 8.296875 
L 28.515625 8.296875 
L 28.515625 63.921875 
L 10.984375 60.40625 
L 10.984375 69.390625 
L 28.421875 72.90625 
L 38.28125 72.90625 
L 38.28125 8.296875 
L 54.390625 8.296875 
L 54.390625 0 
L 12.40625 0 
z
" id="DejaVuSans-49"/>
       <path d="M 31.78125 66.40625 
Q 24.171875 66.40625 20.328125 58.90625 
Q 16.5 51.421875 16.5 36.375 
Q 16.5 21.390625 20.328125 13.890625 
Q 24.171875 6.390625 31.78125 6.390625 
Q 39.453125 6.390625 43.28125 13.890625 
Q 47.125 21.390625 47.125 36.375 
Q 47.125 51.421875 43.28125 58.90625 
Q 39.453125 66.40625 31.78125 66.40625 
z
M 31.78125 74.21875 
Q 44.046875 74.21875 50.515625 64.515625 
Q 56.984375 54.828125 56.984375 36.375 
Q 56.984375 17.96875 50.515625 8.265625 
Q 44.046875 -1.421875 31.78125 -1.421875 
Q 19.53125 -1.421875 13.0625 8.265625 
Q 6.59375 17.96875 6.59375 36.375 
Q 6.59375 54.828125 13.0625 64.515625 
Q 19.53125 74.21875 31.78125 74.21875 
z
" id="DejaVuSans-48"/>
       <path d="M 10.6875 12.40625 
L 21 12.40625 
L 21 0 
L 10.6875 0 
z
" id="DejaVuSans-46"/>
      </defs>
      <g transform="translate(66.539915 213.689966)scale(0.1 -0.1)">
       <use xlink:href="#DejaVuSans-49"/>
       <use x="63.623047" xlink:href="#DejaVuSans-48"/>
       <use x="127.246094" xlink:href="#DejaVuSans-46"/>
       <use x="159.033203" xlink:href="#DejaVuSans-48"/>
      </g>
     </g>
    </g>
    <g id="xtick_2">
     <g id="line2d_2">
      <g>
       <use style="stroke:#000000;stroke-width:0.8;" x="119.945455" xlink:href="#mce25008f65" y="199.091528"/>
      </g>
     </g>
     <g id="text_2">
      <!-- 12.5 -->
      <defs>
       <path d="M 19.1875 8.296875 
L 53.609375 8.296875 
L 53.609375 0 
L 7.328125 0 
L 7.328125 8.296875 
Q 12.9375 14.109375 22.625 23.890625 
Q 32.328125 33.6875 34.8125 36.53125 
Q 39.546875 41.84375 41.421875 45.53125 
Q 43.3125 49.21875 43.3125 52.78125 
Q 43.3125 58.59375 39.234375 62.25 
Q 35.15625 65.921875 28.609375 65.921875 
Q 23.96875 65.921875 18.8125 64.3125 
Q 13.671875 62.703125 7.8125 59.421875 
L 7.8125 69.390625 
Q 13.765625 71.78125 18.9375 73 
Q 24.125 74.21875 28.421875 74.21875 
Q 39.75 74.21875 46.484375 68.546875 
Q 53.21875 62.890625 53.21875 53.421875 
Q 53.21875 48.921875 51.53125 44.890625 
Q 49.859375 40.875 45.40625 35.40625 
Q 44.1875 33.984375 37.640625 27.21875 
Q 31.109375 20.453125 19.1875 8.296875 
z
" id="DejaVuSans-50"/>
       <path d="M 10.796875 72.90625 
L 49.515625 72.90625 
L 49.515625 64.59375 
L 19.828125 64.59375 
L 19.828125 46.734375 
Q 21.96875 47.46875 24.109375 47.828125 
Q 26.265625 48.1875 28.421875 48.1875 
Q 40.625 48.1875 47.75 41.5 
Q 54.890625 34.8125 54.890625 23.390625 
Q 54.890625 11.625 47.5625 5.09375 
Q 40.234375 -1.421875 26.90625 -1.421875 
Q 22.3125 -1.421875 17.546875 -0.640625 
Q 12.796875 0.140625 7.71875 1.703125 
L 7.71875 11.625 
Q 12.109375 9.234375 16.796875 8.0625 
Q 21.484375 6.890625 26.703125 6.890625 
Q 35.15625 6.890625 40.078125 11.328125 
Q 45.015625 15.765625 45.015625 23.390625 
Q 45.015625 31 40.078125 35.4375 
Q 35.15625 39.890625 26.703125 39.890625 
Q 22.75 39.890625 18.8125 39.015625 
Q 14.890625 38.140625 10.796875 36.28125 
z
" id="DejaVuSans-53"/>
      </defs>
      <g transform="translate(108.812642 213.689966)scale(0.1 -0.1)">
       <use xlink:href="#DejaVuSans-49"/>
       <use x="63.623047" xlink:href="#DejaVuSans-50"/>
       <use x="127.246094" xlink:href="#DejaVuSans-46"/>
       <use x="159.033203" xlink:href="#DejaVuSans-53"/>
      </g>
     </g>
    </g>
    <g id="xtick_3">
     <g id="line2d_3">
      <g>
       <use style="stroke:#000000;stroke-width:0.8;" x="162.218182" xlink:href="#mce25008f65" y="199.091528"/>
      </g>
     </g>
     <g id="text_3">
      <!-- 15.0 -->
      <g transform="translate(151.085369 213.689966)scale(0.1 -0.1)">
       <use xlink:href="#DejaVuSans-49"/>
       <use x="63.623047" xlink:href="#DejaVuSans-53"/>
       <use x="127.246094" xlink:href="#DejaVuSans-46"/>
       <use x="159.033203" xlink:href="#DejaVuSans-48"/>
      </g>
     </g>
    </g>
    <g id="xtick_4">
     <g id="line2d_4">
      <g>
       <use style="stroke:#000000;stroke-width:0.8;" x="204.490909" xlink:href="#mce25008f65" y="199.091528"/>
      </g>
     </g>
     <g id="text_4">
      <!-- 17.5 -->
      <defs>
       <path d="M 8.203125 72.90625 
L 55.078125 72.90625 
L 55.078125 68.703125 
L 28.609375 0 
L 18.3125 0 
L 43.21875 64.59375 
L 8.203125 64.59375 
z
" id="DejaVuSans-55"/>
      </defs>
      <g transform="translate(193.358097 213.689966)scale(0.1 -0.1)">
       <use xlink:href="#DejaVuSans-49"/>
       <use x="63.623047" xlink:href="#DejaVuSans-55"/>
       <use x="127.246094" xlink:href="#DejaVuSans-46"/>
       <use x="159.033203" xlink:href="#DejaVuSans-53"/>
      </g>
     </g>
    </g>
    <g id="xtick_5">
     <g id="line2d_5">
      <g>
       <use style="stroke:#000000;stroke-width:0.8;" x="246.763636" xlink:href="#mce25008f65" y="199.091528"/>
      </g>
     </g>
     <g id="text_5">
      <!-- 20.0 -->
      <g transform="translate(235.630824 213.689966)scale(0.1 -0.1)">
       <use xlink:href="#DejaVuSans-50"/>
       <use x="63.623047" xlink:href="#DejaVuSans-48"/>
       <use x="127.246094" xlink:href="#DejaVuSans-46"/>
       <use x="159.033203" xlink:href="#DejaVuSans-48"/>
      </g>
     </g>
    </g>
    <g id="xtick_6">
     <g id="line2d_6">
      <g>
       <use style="stroke:#000000;stroke-width:0.8;" x="289.036364" xlink:href="#mce25008f65" y="199.091528"/>
      </g>
     </g>
     <g id="text_6">
      <!-- 22.5 -->
      <g transform="translate(277.903551 213.689966)scale(0.1 -0.1)">
       <use xlink:href="#DejaVuSans-50"/>
       <use x="63.623047" xlink:href="#DejaVuSans-50"/>
       <use x="127.246094" xlink:href="#DejaVuSans-46"/>
       <use x="159.033203" xlink:href="#DejaVuSans-53"/>
      </g>
     </g>
    </g>
    <g id="xtick_7">
     <g id="line2d_7">
      <g>
       <use style="stroke:#000000;stroke-width:0.8;" x="331.309091" xlink:href="#mce25008f65" y="199.091528"/>
      </g>
     </g>
     <g id="text_7">
      <!-- 25.0 -->
      <g transform="translate(320.176278 213.689966)scale(0.1 -0.1)">
       <use xlink:href="#DejaVuSans-50"/>
       <use x="63.623047" xlink:href="#DejaVuSans-53"/>
       <use x="127.246094" xlink:href="#DejaVuSans-46"/>
       <use x="159.033203" xlink:href="#DejaVuSans-48"/>
      </g>
     </g>
    </g>
    <g id="xtick_8">
     <g id="line2d_8">
      <g>
       <use style="stroke:#000000;stroke-width:0.8;" x="373.581818" xlink:href="#mce25008f65" y="199.091528"/>
      </g>
     </g>
     <g id="text_8">
      <!-- 27.5 -->
      <g transform="translate(362.449006 213.689966)scale(0.1 -0.1)">
       <use xlink:href="#DejaVuSans-50"/>
       <use x="63.623047" xlink:href="#DejaVuSans-55"/>
       <use x="127.246094" xlink:href="#DejaVuSans-46"/>
       <use x="159.033203" xlink:href="#DejaVuSans-53"/>
      </g>
     </g>
    </g>
   </g>
   <g id="matplotlib.axis_2">
    <g id="ytick_1">
     <g id="line2d_9">
      <defs>
       <path d="M 0 0 
L -3.5 0 
" id="m53e6a2f558" style="stroke:#000000;stroke-width:0.8;"/>
      </defs>
      <g>
       <use style="stroke:#000000;stroke-width:0.8;" x="54" xlink:href="#m53e6a2f558" y="175.044228"/>
      </g>
     </g>
     <g id="text_9">
      <!-- 0.0 -->
      <g transform="translate(31.096875 178.843447)scale(0.1 -0.1)">
       <use xlink:href="#DejaVuSans-48"/>
       <use x="63.623047" xlink:href="#DejaVuSans-46"/>
       <use x="95.410156" xlink:href="#DejaVuSans-48"/>
      </g>
     </g>
    </g>
    <g id="ytick_2">
     <g id="line2d_10">
      <g>
       <use style="stroke:#000000;stroke-width:0.8;" x="54" xlink:href="#m53e6a2f558" y="132.771501"/>
      </g>
     </g>
     <g id="text_10">
      <!-- 0.5 -->
      <g transform="translate(31.096875 136.57072)scale(0.1 -0.1)">
       <use xlink:href="#DejaVuSans-48"/>
       <use x="63.623047" xlink:href="#DejaVuSans-46"/>
       <use x="95.410156" xlink:href="#DejaVuSans-53"/>
      </g>
     </g>
    </g>
    <g id="ytick_3">
     <g id="line2d_11">
      <g>
       <use style="stroke:#000000;stroke-width:0.8;" x="54" xlink:href="#m53e6a2f558" y="90.498774"/>
      </g>
     </g>
     <g id="text_11">
      <!-- 1.0 -->
      <g transform="translate(31.096875 94.297993)scale(0.1 -0.1)">
       <use xlink:href="#DejaVuSans-49"/>
       <use x="63.623047" xlink:href="#DejaVuSans-46"/>
       <use x="95.410156" xlink:href="#DejaVuSans-48"/>
      </g>
     </g>
    </g>
   </g>
   <g id="line2d_12">
    <path clip-path="url(#p5ffb51e901)" d="M 69.218182 123.344769 
L 71.248626 111.760304 
L 72.669938 104.805591 
L 73.888204 99.858212 
L 74.903427 96.592153 
L 75.715604 94.61749 
L 76.527782 93.269725 
L 77.136916 92.703413 
L 77.543004 92.550443 
L 77.949093 92.584434 
L 78.355182 92.80355 
L 78.964316 93.464421 
L 79.573449 94.503292 
L 80.385627 96.43632 
L 81.197805 98.945028 
L 82.213027 102.806616 
L 83.431294 108.362988 
L 84.852605 115.882534 
L 86.883049 128.001784 
L 93.583516 169.320279 
L 95.004827 176.340945 
L 96.426139 182.196757 
L 97.644405 186.277968 
L 98.659628 189.019301 
L 99.67485 191.162366 
L 100.487028 192.446967 
L 101.299206 193.350226 
L 102.111383 193.872832 
L 102.720517 194.015397 
L 103.32965 193.944522 
L 103.938783 193.660498 
L 104.547917 193.163616 
L 105.360095 192.170497 
L 106.172272 190.800168 
L 107.187495 188.557855 
L 108.202717 185.728576 
L 109.420984 181.560537 
L 110.63925 176.551528 
L 112.060562 169.651198 
L 113.684917 160.55393 
L 116.121451 145.442326 
L 119.979295 121.399331 
L 121.806695 111.488208 
L 123.228007 105.030292 
L 124.243229 101.278459 
L 125.258451 98.372896 
L 126.070629 96.73413 
L 126.679762 95.943225 
L 127.288896 95.555168 
L 127.694985 95.53239 
L 128.101073 95.70684 
L 128.507162 96.085735 
L 129.116296 97.037235 
L 129.725429 98.41892 
L 130.537607 100.868632 
L 131.552829 104.788034 
L 132.771096 110.530432 
L 134.395452 119.481287 
L 137.238074 136.803893 
L 139.471563 149.89523 
L 140.892874 157.099476 
L 142.111141 162.164524 
L 143.126363 165.384487 
L 143.938541 167.186298 
L 144.547674 168.030521 
L 144.953763 168.332006 
L 145.359852 168.412092 
L 145.765941 168.265206 
L 146.17203 167.89959 
L 146.781163 166.964252 
L 147.390297 165.596441 
L 148.202474 163.161837 
L 149.217697 159.256186 
L 150.435963 153.523345 
L 152.060319 144.574702 
L 154.902941 127.232105 
L 157.13643 114.109114 
L 158.557742 106.879795 
L 159.776008 101.791313 
L 160.791231 98.551033 
L 161.603408 96.732772 
L 162.212542 95.876247 
L 162.618631 95.563757 
L 163.02472 95.45504 
L 163.430808 95.542733 
L 163.836897 95.819472 
L 164.446031 96.572934 
L 165.055164 97.71033 
L 165.867342 99.781133 
L 166.882564 103.177597 
L 167.897786 107.364408 
L 169.319098 114.334661 
L 170.943453 123.516366 
L 173.379987 138.726243 
L 177.237831 162.81203 
L 178.862187 171.662382 
L 180.283498 178.259514 
L 181.501765 182.982615 
L 182.720032 186.845522 
L 183.735254 189.407519 
L 184.750476 191.372159 
L 185.562654 192.513774 
L 186.374832 193.273081 
L 186.983965 193.591671 
L 187.593098 193.695213 
L 188.202232 193.583707 
L 188.811365 193.257152 
L 189.420499 192.715548 
L 190.232676 191.65889 
L 191.044854 190.219924 
L 192.060076 187.883596 
L 193.075299 184.94991 
L 194.293565 180.640976 
L 195.511832 175.471849 
L 196.933143 168.367228 
L 198.760543 157.852613 
L 201.603166 139.884799 
L 204.648833 120.99205 
L 206.273188 112.111952 
L 207.694499 105.507621 
L 208.912766 100.964039 
L 209.927988 98.117415 
L 210.740166 96.538028 
L 211.3493 95.799263 
L 211.958433 95.470204 
L 212.364522 95.490719 
L 212.770611 95.711734 
L 213.1767 96.14006 
L 213.785833 97.163239 
L 214.394966 98.611854 
L 215.207144 101.143249 
L 216.222366 105.152294 
L 217.440633 110.983404 
L 219.064989 120.01928 
L 222.516744 141.094171 
L 224.547189 152.593071 
L 225.9685 159.352322 
L 226.983722 163.238235 
L 227.7959 165.654396 
L 228.608078 167.363006 
L 229.217211 168.129083 
L 229.6233 168.374492 
L 230.029389 168.39556 
L 230.435478 168.191172 
L 230.841567 167.771254 
L 231.4507 166.760404 
L 232.059834 165.324123 
L 232.872012 162.809014 
L 233.887234 158.819753 
L 235.105501 153.010959 
L 236.729856 144.001164 
L 239.978568 124.18441 
L 242.009012 112.530499 
L 243.430323 105.573126 
L 244.445546 101.499735 
L 245.460768 98.36049 
L 246.272946 96.632765 
L 246.882079 95.84958 
L 247.288168 95.585139 
L 247.694257 95.521158 
L 248.100346 95.650364 
L 248.506435 95.965482 
L 249.115568 96.770837 
L 249.724701 97.953582 
L 250.536879 100.075201 
L 251.552101 103.520689 
L 252.770368 108.669008 
L 254.191679 115.824898 
L 256.019079 126.364301 
L 259.064746 145.586332 
L 261.907369 163.057106 
L 263.531724 171.849992 
L 264.953035 178.409711 
L 266.171302 183.123091 
L 267.389569 186.994682 
L 268.404791 189.576298 
L 269.420013 191.570377 
L 270.232191 192.741711 
L 271.044369 193.535472 
L 271.653502 193.882596 
L 272.262636 194.016657 
L 272.871769 193.937364 
L 273.480902 193.644427 
L 274.090036 193.137555 
L 274.902214 192.128436 
L 275.714391 190.737783 
L 276.729614 188.461884 
L 277.744836 185.587415 
L 278.963103 181.346047 
L 280.181369 176.238477 
L 281.602681 169.200203 
L 283.227036 159.985542 
L 285.66357 144.747949 
L 289.724459 119.246285 
L 291.551859 109.261221 
L 292.97317 102.71265 
L 294.191437 98.193509 
L 295.206659 95.340808 
L 296.018837 93.733811 
L 296.62797 92.958527 
L 297.237104 92.577584 
L 297.643192 92.554045 
L 298.049281 92.717248 
L 298.658415 93.298195 
L 299.267548 94.261873 
L 300.079726 96.102003 
L 300.891904 98.526227 
L 301.907126 102.294039 
L 303.125393 107.755232 
L 304.546704 115.187662 
L 306.374104 125.968579 
L 310.028904 149.296194 
L 312.465438 164.143579 
L 314.089793 172.857343 
L 315.511104 179.322007 
L 316.729371 183.924043 
L 317.947638 187.661265 
L 318.96286 190.116678 
L 319.978082 191.974495 
L 320.79026 193.031386 
L 321.602438 193.70737 
L 322.211571 193.964804 
L 322.820705 194.008658 
L 323.429838 193.839223 
L 324.038971 193.456791 
L 324.851149 192.616057 
L 325.663327 191.397871 
L 326.475505 189.802924 
L 327.490727 187.280472 
L 328.505949 184.17176 
L 329.724216 179.669342 
L 330.942483 174.326984 
L 332.363794 167.056731 
L 334.191194 156.420111 
L 337.64295 134.577632 
L 340.079483 119.783794 
L 341.703839 111.105022 
L 343.12515 104.71738 
L 344.140372 101.025849 
L 345.155595 98.188963 
L 345.967772 96.611139 
L 346.576906 95.869425 
L 347.186039 95.533537 
L 347.592128 95.547188 
L 347.998217 95.759383 
L 348.404306 96.177106 
L 349.013439 97.183884 
L 349.622573 98.616046 
L 350.43475 101.125664 
L 351.449973 105.108205 
L 352.668239 110.90941 
L 354.292595 119.910459 
L 357.541306 139.717477 
L 359.571751 151.372902 
L 360.993062 158.335856 
L 362.008284 162.415863 
L 363.023507 165.564139 
L 363.835684 167.300964 
L 364.444818 168.092059 
L 364.850907 168.356061 
L 365.256996 168.397134 
L 365.663084 168.212457 
L 366.069173 167.811487 
L 366.678307 166.827597 
L 367.28744 165.416486 
L 368.099618 162.932077 
L 369.11484 158.976452 
L 370.333107 153.200807 
L 371.957463 144.222404 
L 373.581818 134.403866 
L 373.581818 134.403866 
" style="fill:none;stroke:#000000;stroke-linecap:square;stroke-width:1.5;"/>
   </g>
   <g id="patch_3">
    <path d="M 54 199.091528 
L 54 87.468472 
" style="fill:none;stroke:#000000;stroke-linecap:square;stroke-linejoin:miter;stroke-width:0.8;"/>
   </g>
   <g id="patch_4">
    <path d="M 388.8 199.091528 
L 388.8 87.468472 
" style="fill:none;stroke:#000000;stroke-linecap:square;stroke-linejoin:miter;stroke-width:0.8;"/>
   </g>
   <g id="patch_5">
    <path d="M 54 199.091528 
L 388.8 199.091528 
" style="fill:none;stroke:#000000;stroke-linecap:square;stroke-linejoin:miter;stroke-width:0.8;"/>
   </g>
   <g id="patch_6">
    <path d="M 54 87.468472 
L 388.8 87.468472 
" style="fill:none;stroke:#000000;stroke-linecap:square;stroke-linejoin:miter;stroke-width:0.8;"/>
   </g>
  </g>
 </g>
 <defs>
  <clipPath id="p5ffb51e901">
   <rect height="111.623057" width="334.8" x="54" y="87.468472"/>
  </clipPath>
 </defs>
</svg>
