<?xml version="1.0" encoding="UTF-8" standalone="no"?>
<!-- Created with Inkscape (http://www.inkscape.org/) -->

<svg
   xmlns:dc="http://purl.org/dc/elements/1.1/"
   xmlns:cc="http://creativecommons.org/ns#"
   xmlns:rdf="http://www.w3.org/1999/02/22-rdf-syntax-ns#"
   xmlns:svg="http://www.w3.org/2000/svg"
   xmlns="http://www.w3.org/2000/svg"
   xmlns:sodipodi="http://sodipodi.sourceforge.net/DTD/sodipodi-0.dtd"
   xmlns:inkscape="http://www.inkscape.org/namespaces/inkscape"
   width="210mm"
   height="297mm"
   viewBox="0 0 744.09448819 1052.3622047"
   id="svg4631"
   version="1.1"
   inkscape:version="0.91 r13725"
   sodipodi:docname="idos.svg">
  <defs
     id="defs4633" />
  <sodipodi:namedview
     id="base"
     pagecolor="#ffffff"
     bordercolor="#666666"
     borderopacity="1.0"
     inkscape:pageopacity="0.0"
     inkscape:pageshadow="2"
     inkscape:zoom="0.9899495"
     inkscape:cx="82.606991"
     inkscape:cy="423.64067"
     inkscape:document-units="px"
     inkscape:current-layer="layer1"
     showgrid="false"
     inkscape:window-width="1920"
     inkscape:window-height="1021"
     inkscape:window-x="0"
     inkscape:window-y="27"
     inkscape:window-maximized="1" />
  <metadata
     id="metadata4636">
    <rdf:RDF>
      <cc:Work
         rdf:about="">
        <dc:format>image/svg+xml</dc:format>
        <dc:type
           rdf:resource="http://purl.org/dc/dcmitype/StillImage" />
        <dc:title />
      </cc:Work>
    </rdf:RDF>
  </metadata>
  <g
     inkscape:label="Calque 1"
     inkscape:groupmode="layer"
     id="layer1">
    <g
       transform="matrix(0.89398336,0,0,-0.89398336,18.946498,816.40769)"
       id="g5270">
      <path
         d="M 0,0 360,0 360,243 0,243 0,0 Z"
         style="fill:#ffffff;fill-opacity:1;fill-rule:nonzero;stroke:none"
         id="path5272"
         inkscape:connector-curvature="0" />
      <path
         d="M 0,243 360,243 360,0 0,0 0,243 Z"
         style="fill:none;stroke:#ffffff;stroke-width:0.03;stroke-linecap:butt;stroke-linejoin:miter;stroke-miterlimit:10;stroke-dasharray:none;stroke-opacity:1"
         id="path5274"
         inkscape:connector-curvature="0" />
      <path
         d="m 27.426,20.727 0,0.23 0.004,0.117 0,0.114 0.004,0.117 0,0.23 0.007,0.113 0,0.114 0.004,0.117 0,0.23 0.02,0.114 0.004,0.117 0,0.113 0.008,0.117 0,0.114 0.007,0.113 0,0.117 0.004,0.113 0.039,0.118 0,0.113 0.004,0.117 0.008,0.113 0,0.117 0.016,0.114 0,0.117 0.015,0.226 0.004,0.118 0.004,0.113 0.004,0.117 0,0.113 0.152,0.118 0,0.113 0.004,0.117 0.008,0.113 0.004,0.114 0.012,0.117 0.004,0.113 0.004,0.117 0.035,0.114 0,0.117 0.011,0.113 0.004,0.117 0.008,0.114 0.031,0.117 0.008,0.113 0,0.113 0.016,0.117 0,0.114 0.008,0.117 0.004,0.113 0,0.117 0.3,0.114 0.004,0.117 0.004,0.113 0.008,0.113 0,0.118 0.023,0.113 0.004,0.117 0.008,0.113 0.024,0.118 0.011,0.113 0.008,0.117 0.012,0.113 0,0.114 0.094,0.117 0.003,0.113 0.008,0.117 0.016,0.114 0.008,0.117 0.015,0.113 0.008,0.117 0.004,0.113 0.074,0.118 0.004,0.113 0.008,0.113 0.008,0.117 0.008,0.114 0.019,0.117 0.008,0.113 0.004,0.117 0.012,0.114 0.003,0.117 0.008,0.226 0,0.118 1.184,0.113 0.004,0.117 0,0.113 0.008,0.117 0.003,0.114 0.016,0.117 0.004,0.113 0.008,0.117 0.039,0.114 0.012,0.113 0.007,0.117 0.016,0.113 0.004,0.118 0.07,0.113 0.004,0.117 0.016,0.113 0.019,0.118 0.012,0.113 0.016,0.113 0.011,0.117 0.004,0.114 0.246,0.117 0.004,0.113 0.016,0.117 0.008,0.114 0.015,0.117 0.039,0.113 0.02,0.117 0.004,0.114 0.047,0.113 0.008,0.117 0.019,0.113 0.008,0.117 0.008,0.114 0.242,0.117 0.004,0.113 0.008,0.117 0.023,0.114 0.004,0.113 0.027,0.117 0.008,0.113 0.012,0.118 0.07,0.113 0.008,0.117 0.008,0.113 0.019,0.118 0.004,0.113 0.043,0.113 0.004,0.117 0.008,0.114 0.012,0.117 0.007,0.113 0.004,0.117 0.004,0.113 0,0.118 2.281,0.113 0,0.117 0.008,0.113 0.004,0.114 0.008,0.117 0.016,0.113 0.011,0.117 0.004,0.114 0.043,0.117 0.004,0.113 0.02,0.117 0.008,0.114 0.011,0.113 0.125,0.117 0.016,0.113 0.008,0.118 0.035,0.113 0.008,0.117 0.035,0.113 0.008,0.117 0.011,0.114 0.192,0.117 0.023,0.227 0.031,0.117 0.004,0.113 0.067,0.117 0.008,0.113 0.019,0.118 0.039,0.113 0.016,0.117 0.023,0.227 0,0.117 0.703,0.113 0,0.117 0.012,0.114 0.016,0.117 0.019,0.113 0.024,0.117 0.023,0.114 0.008,0.117 0.101,0.113 0.004,0.113 0.035,0.117 0.016,0.114 0.016,0.117 0.097,0.113 0.02,0.117 0.008,0.114 0.039,0.117 0.004,0.113 0.027,0.113 0.004,0.118 0.008,0.113 0.551,0.117 0.007,0.113 0.004,0.118 0.02,0.113 0.004,0.117 0.043,0.113 0.008,0.114 0.019,0.117 0.043,0.113 0.02,0.117 0.011,0.114 0.02,0.117 0.004,0.113 0.156,0.117 0.004,0.113 0.012,0.118 0.019,0.113 0.012,0.113 0.019,0.117 0.012,0.114 0.004,0.117 0.09,0.113 0,0.117 0.012,0.114 0.007,0.117 0.008,0.113 0.024,0.113 0.007,0.118 0.004,0.113 0.012,0.117 0.004,0.113 0.004,0.118 0,0.113 0.004,0.117 8.996,0.113 0.004,0.117 0,0.114 0.008,0.113 0.003,0.117 0.016,0.113 0.004,0.118 0.008,0.113 0.039,0.117 0.012,0.113 0.007,0.118 0.02,0.113 0.004,0.113 0.082,0.117 0.004,0.114 0.019,0.117 0.024,0.113 0.019,0.117 0.016,0.114 0.016,0.117 0.003,0.113 0.305,0.117 0.004,0.113 0.023,0.114 0.016,0.117 0.02,0.113 0.062,0.117 0.027,0.114 0.008,0.117 0.071,0.113 0.007,0.117 0.036,0.114 0.007,0.113 0.012,0.117 0.492,0.113 0.012,0.118 0.008,0.113 0.043,0.117 0.012,0.113 0.058,0.118 0.012,0.113 0.023,0.113 0.145,0.117 0.023,0.114 0.02,0.117 0.039,0.113 0.008,0.117 0.117,0.114 0.008,0.117 0.023,0.113 0.031,0.117 0.032,0.227 0.011,0.117 0.004,0.113 1.828,0.117 0,0.114 0.016,0.117 0.012,0.113 0.019,0.117 0.047,0.114 0.027,0.113 0.012,0.117 0.09,0.113 0.008,0.118 0.047,0.113 0.019,0.117 0.02,0.113 0.281,0.117 0.023,0.114 0.016,0.117 0.066,0.113 0.012,0.113 0.067,0.118 0.015,0.113 0.024,0.117 0.285,0.113 0.019,0.118 0.02,0.113 0.047,0.117 0.008,0.113 0.093,0.114 0.012,0.117 0.027,0.113 0.047,0.117 0.02,0.114 0.011,0.117 0.016,0.113 0.004,0.117 1.801,0.114 0,0.117 0.031,0.226 0.016,0.117 0.031,0.114 0.027,0.117 0.008,0.113 0.121,0.117 0.008,0.114 0.043,0.117 0.019,0.113 0.024,0.113 0.148,0.118 0.028,0.113 0.011,0.117 0.059,0.113 0.012,0.118 0.043,0.113 0.008,0.117 0.015,0.113 0.508,0.114 0.012,0.117 0.011,0.113 0.032,0.117 0.007,0.114 0.071,0.117 0.011,0.113 0.028,0.117 0.062,0.113 0.02,0.118 0.019,0.113 0.024,0.113 0,0.117 0.308,0.114 0.004,0.117 0.016,0.113 0.019,0.117 0.016,0.114 0.024,0.117 0.019,0.113 0.004,0.113 0.086,0.118 0.004,0.113 0.019,0.117 0.008,0.113 0.012,0.117 0.039,0.114 0.008,0.117 0.004,0.113 0.015,0.117 0,0.114 0.012,0.113 0,0.117 0.004,0.113 15.996,0.118 0,0.113 0.004,0.117 0.008,0.113 0.004,0.118 0.019,0.113 0.004,0.113 0.012,0.117 0.035,0.114 0.012,0.117 0.011,0.113 0.016,0.117 0.004,0.114 0.137,0.117 0.004,0.113 0.019,0.117 0.027,0.114 0.024,0.113 0.027,0.117 0.02,0.113 0.004,0.117 0.25,0.114 0.004,0.117 0.031,0.113 0.019,0.117 0.028,0.114 0.07,0.113 0.031,0.117 0.012,0.113 0.07,0.118 0.004,0.113 0.031,0.117 0.012,0.113 0.008,0.118 0.902,0.113 0.016,0.113 0.008,0.117 0.043,0.114 0.011,0.117 0.067,0.113 0.015,0.117 0.032,0.113 0.168,0.118 0.031,0.113 0.027,0.117 0.059,0.113 0.008,0.114 0.179,0.117 0.012,0.113 0.039,0.117 0.047,0.114 0.031,0.117 0.028,0.113 0.019,0.117 0.004,0.114 1.324,0.113 0.004,0.117 0.028,0.113 0.019,0.118 0.027,0.113 0.075,0.117 0.043,0.113 0.015,0.117 0.125,0.114 0.012,0.117 0.058,0.113 0.024,0.114 0.023,0.117 0.379,0.113 0.024,0.117 0.015,0.113 0.075,0.118 0.011,0.113 0.075,0.117 0.015,0.113 0.027,0.114 0.266,0.117 0.02,0.113 0.019,0.117 0.043,0.114 0.008,0.117 0.086,0.113 0.008,0.117 0.023,0.114 0.039,0.117 0.016,0.113 0.008,0.113 0.015,0.117 0,0.114 4.805,0.117 0.004,0.113 0.012,0.117 0.011,0.114 0.016,0.117 0.031,0.113 0.024,0.113 0.007,0.118 0.114,0.113 0.007,0.117 0.047,0.113 0.02,0.118 0.027,0.113 0.176,0.117 0.031,0.113 0.016,0.117 0.074,0.114 0.012,0.113 0.062,0.117 0.012,0.114 0.02,0.117 0.632,0.113 0.02,0.117 0.016,0.113 0.054,0.118 0.012,0.113 0.125,0.113 0.02,0.117 0.046,0.114 0.098,0.117 0.039,0.113 0.031,0.117 0.036,0.114 0.007,0.117 0.657,0.113 0.007,0.113 0.032,0.118 0.039,0.113 0.035,0.117 0.055,0.113 0.039,0.118 0.011,0.113 0.192,0.117 0.008,0.113 0.046,0.117 0.047,0.227 0.11,0.117 0.023,0.113 0.008,0.118 0.043,0.113 0.004,0.117 0.023,0.113 0.004,0.118 0.008,0.113 3.617,0.113 0.004,0.117 0.004,0.114 0.019,0.117 0.004,0.113 0.043,0.117 0.008,0.114 0.024,0.117 0.062,0.113 0.024,0.117 0.019,0.113 0.031,0.114 0.004,0.117 0.239,0.113 0.003,0.117 0.036,0.114 0.039,0.117 0.035,0.113 0.039,0.117 0.031,0.114 0.008,0.113 0.305,0.117 0.004,0.113 0.039,0.118 0.023,0.113 0.031,0.117 0.078,0.113 0.032,0.118 0.011,0.113 0.071,0.117 0.007,0.113 0.028,0.114 0.008,0.117 0.011,0.113 0.993,0.117 0.007,0.114 0.004,0.117 0.031,0.113 0.004,0.117 0.047,0.113 0.012,0.114 0.02,0.117 0.109,0.113 0.019,0.117 0.02,0.114 0.039,0.117 0.004,0.113 0.121,0.117 0.008,0.114 0.027,0.113 0.031,0.117 0.02,0.113 0.016,0.118 0.015,0.113 0.004,0.117 0.551,0.113 0,0.117 0.012,0.114 0.011,0.117 0.012,0.113 0.035,0.113 0.02,0.118 0.004,0.113 0.05,0.117 0.008,0.113 0.024,0.118 0.007,0.113 0.008,0.117 0.141,0.113 0.008,0.114 0.008,0.117 0.019,0.113 0.008,0.117 0.019,0.114 0.008,0.117 0.008,0.113 0.07,0.117 0.008,0.114 0.004,0.117 0.012,0.113 0.004,0.113 0.019,0.117 0.004,0.114 0.004,0.117 0.012,0.113 0.004,0.117 0,0.114 0.004,0.117 0,0.113 62.972,0.113 0.004,0.118 0,0.113 0.004,0.117 0.008,0.113 0.008,0.118 0.004,0.113 0.004,0.117 0.035,0.113 0,0.118 0.015,0.113 0.004,0.113 0.008,0.117 0.062,0.114 0.008,0.117 0.008,0.113 0.027,0.117 0.004,0.113 0.024,0.118 0.004,0.113 0.008,0.113 0.234,0.117 0.008,0.114 0.008,0.117 0.027,0.113 0.004,0.117 0.062,0.114 0.008,0.117 0.024,0.113 0.046,0.113 0.02,0.118 0.012,0.113 0.019,0.117 0.004,0.113 0.449,0.117 0.004,0.114 0.02,0.117 0.023,0.113 0.024,0.117 0.039,0.114 0.031,0.113 0.008,0.117 0.144,0.113 0.008,0.118 0.039,0.113 0.02,0.117 0.023,0.113 0.106,0.118 0.023,0.113 0.008,0.113 0.043,0.117 0.008,0.114 0.023,0.117 0.008,0.113 0.004,0.117 1.715,0.114 0.007,0.117 0.008,0.113 0.028,0.117 0.007,0.114 0.071,0.113 0.011,0.117 0.036,0.113 0.089,0.117 0.036,0.114 0.027,0.117 0.043,0.113 0.008,0.117 0.347,0.114 0.012,0.113 0.039,0.117 0.055,0.113 0.043,0.118 0.051,0.113 0.043,0.117 0.011,0.113 0.34,0.118 0.008,0.113 0.043,0.117 0.031,0.113 0.035,0.114 0.09,0.117 0.035,0.113 0.012,0.117 0.07,0.113 0.008,0.118 0.027,0.113 0.008,0.117 0.008,0.113 2.832,0.114 0.012,0.117 0.004,0.113 0.039,0.117 0.008,0.114 0.062,0.117 0.012,0.113 0.031,0.117 0.156,0.114 0.039,0.113 0.032,0.117 0.058,0.113 0.012,0.118 0.246,0.113 0.016,0.117 0.051,0.113 0.066,0.117 0.047,0.114 0.047,0.117 0.035,0.113 0.004,0.114 0.836,0.117 0.004,0.113 0.043,0.117 0.031,0.113 0.039,0.118 0.109,0.113 0.051,0.117 0.02,0.113 0.136,0.114 0.012,0.117 0.062,0.113 0.02,0.117 0.02,0.114 0.609,0.117 0.019,0.113 0.012,0.117 0.059,0.114 0.011,0.117 0.075,0.113 0.015,0.113 0.032,0.117 0.164,0.114 0.023,0.117 0.02,0.113 0.039,0.117 0.007,0.114 0.102,0.117 0.004,0.113 0.023,0.113 0.024,0.118 0.012,0.113 0.011,0.117 0.012,0.113 0,0.118 10.254,0.113 0.004,0.117 0.008,0.113 0.011,0.117 0.012,0.114 0.039,0.113 0.024,0.117 0.007,0.114 0.082,0.117 0.008,0.113 0.043,0.117 0.02,0.113 0.019,0.118 0.266,0.113 0.031,0.113 0.016,0.117 0.078,0.114 0.015,0.117 0.079,0.113 0.019,0.117 0.027,0.114 0.442,0.117 0.055,0.226 0.074,0.118 0.012,0.113 0.156,0.117 0.019,0.113 0.051,0.118 0.098,0.113 0.035,0.117 0.027,0.113 0.035,0.117 0.004,0.114 1.606,0.113 0.008,0.117 0.031,0.113 0.043,0.118 0.043,0.113 0.07,0.117 0.059,0.113 0.015,0.118 0.274,0.113 0.011,0.113 0.086,0.117 0.039,0.114 0.051,0.117 0.25,0.113 0.047,0.117 0.02,0.114 0.101,0.117 0.016,0.113 0.066,0.117 0.012,0.113 0.019,0.114 1.602,0.117 0.016,0.113 0.015,0.117 0.051,0.114 0.012,0.117 0.117,0.113 0.019,0.117 0.051,0.114 0.133,0.113 0.047,0.117 0.035,0.113 0.055,0.118 0.012,0.113 0.453,0.117 0.007,0.113 0.043,0.118 0.051,0.113 0.047,0.117 0.051,0.113 0.043,0.114 0.008,0.117 0.281,0.113 0.004,0.117 0.039,0.114 0.019,0.117 0.028,0.113 0.07,0.117 0.023,0.113 0.008,0.114 0.047,0.117 0.004,0.113 0.02,0.117 0.004,0.114 0.003,0.117 10.254,0.113 0.004,0.117 0.004,0.114 0.02,0.113 0.004,0.117 0.035,0.113 0.008,0.118 0.015,0.113 0.094,0.117 0.023,0.113 0.02,0.117 0.039,0.114 0.008,0.117 0.176,0.113 0.011,0.113 0.039,0.118 0.051,0.113 0.035,0.117 0.039,0.113 0.032,0.118 0.003,0.113 0.618,0.117 0.008,0.113 0.042,0.114 0.032,0.117 0.039,0.113 0.113,0.117 0.051,0.114 0.019,0.117 0.133,0.113 0.012,0.117 0.059,0.114 0.019,0.117 0.023,0.113 0.825,0.113 0.019,0.117 0.016,0.114 0.074,0.117 0.012,0.113 0.097,0.117 0.02,0.114 0.039,0.117 0.23,0.113 0.036,0.113 0.031,0.118 0.062,0.113 0.012,0.117 0.172,0.113 0.012,0.118 0.035,0.113 0.043,0.117 0.023,0.113 0.024,0.118 0.019,0.113 0.004,0.113 2.836,0.117 0,0.114 0.02,0.117 0.015,0.113 0.02,0.117 0.054,0.113 0.036,0.118 0.011,0.113 0.11,0.113 0.011,0.117 0.055,0.114 0.02,0.117 0.027,0.113 0.328,0.117 0.027,0.114 0.02,0.117 0.078,0.113 0.016,0.113 0.078,0.118 0.015,0.113 0.028,0.117 0.34,0.113 0.023,0.117 0.02,0.114 0.054,0.117 0.012,0.113 0.109,0.117 0.012,0.114 0.031,0.113 0.059,0.117 0.02,0.113 0.015,0.118 0.02,0.113 0,0.117 1.715,0.113 0.003,0.118 0.012,0.113 0.016,0.113 0.019,0.117 0.028,0.114 0.027,0.117 0.008,0.113 0.117,0.117 0.004,0.114 0.043,0.117 0.019,0.113 0.02,0.117 0.137,0.114 0.023,0.113 0.012,0.117 0.054,0.113 0.008,0.117 0.039,0.114 0.008,0.117 0.012,0.113 0.445,0.117 0.008,0.114 0.012,0.113 0.023,0.117 0.008,0.113 0.059,0.118 0.007,0.113 0.024,0.117 0.051,0.113 0.015,0.118 0.016,0.113 0.015,0.117 0.004,0.113 0.239,0.114 0,0.117 0.011,0.113 0.016,0.117 0.016,0.113 0.015,0.118 0.016,0.113 0.004,0.117 0.062,0.113 0.004,0.114 0.012,0.117 0.008,0.113 0.008,0.117 0.031,0.114 0.008,0.117 0,0.113 0.011,0.117 0,0.114 0.008,0.117 0,0.113 0.004,0.113 62.973,0.118 0,0.113 0.004,0.117 0.004,0.113 0,0.117 0.011,0.114 0.004,0.117 0.004,0.113 0.02,0.114 0.007,0.117 0.008,0.113 0.008,0.117 0.004,0.113 0.074,0.118 0.004,0.113 0.012,0.117 0.015,0.113 0.012,0.114 0.016,0.117 0.011,0.113 0.004,0.117 0.145,0.114 0,0.117 0.019,0.113 0.012,0.117 0.016,0.114 0.043,0.117 0.019,0.113 0.004,0.113 0.043,0.117 0.004,0.114 0.02,0.117 0.003,0.113 0.008,0.117 0.547,0.114 0.008,0.117 0.008,0.113 0.027,0.113 0.008,0.118 0.043,0.113 0.012,0.117 0.019,0.113 0.113,0.118 0.02,0.113 0.02,0.117 0.035,0.113 0.008,0.117 0.117,0.114 0.007,0.113 0.028,0.117 0.031,0.114 0.02,0.117 0.019,0.113 0.012,0.117 0.004,0.113 0.996,0.118 0.004,0.113 0.019,0.113 0.012,0.117 0.023,0.114 0.055,0.117 0.031,0.113 0.012,0.117 0.098,0.114 0.008,0.117 0.046,0.113 0.02,0.117 0.02,0.114 0.292,0.113 0.024,0.117 0.012,0.113 0.058,0.118 0.012,0.113 0.062,0.117 0.012,0.113 0.024,0.117 0.226,0.114 0.016,0.113 0.015,0.117 0.039,0.113 0.008,0.118 0.075,0.113 0.007,0.117 0.02,0.113 0.035,0.118 0.016,0.113 0.007,0.113 0.012,0.117 0,0.114 3.621,0.117 0,0.113 0.012,0.117 0.016,0.114 0.015,0.117 0.032,0.113 0.023,0.117 0.008,0.113 0.121,0.114 0.008,0.117 0.043,0.113 0.023,0.117 0.027,0.114 0.18,0.117 0.031,0.113 0.016,0.117 0.074,0.114 0.012,0.113 0.062,0.117 0.012,0.113 0.02,0.118 0.648,0.113 0.02,0.117 0.019,0.113 0.055,0.118 0.012,0.113 0.121,0.117 0.019,0.113 0.047,0.114 0.102,0.117 0.039,0.113 0.027,0.117 0.039,0.114 0.008,0.117 0.641,0.113 0.003,0.117 0.032,0.113 0.039,0.114 0.035,0.117 0.055,0.113 0.039,0.117 0.011,0.114 0.188,0.117 0.008,0.113 0.047,0.117 0.019,0.114 0.027,0.117 0.106,0.113 0.019,0.113 0.008,0.118 0.039,0.113 0.008,0.117 0.02,0.113 0.007,0.117 0.004,0.114 4.805,0.117 0.004,0.113 0.008,0.113 0.019,0.118 0.004,0.113 0.051,0.117 0.008,0.113 0.023,0.118 0.071,0.113 0.027,0.117 0.023,0.113 0.039,0.114 0.004,0.117 0.274,0.113 0.011,0.117 0.04,0.114 0.046,0.117 0.043,0.113 0.047,0.117 0.039,0.114 0.008,0.117 0.387,0.113 0.008,0.113 0.047,0.117 0.031,0.114 0.039,0.117 0.105,0.113 0.043,0.117 0.012,0.114 0.094,0.117 0.008,0.113 0.039,0.113 0.011,0.118 0.012,0.113 1.32,0.117 0.012,0.113 0.012,0.118 0.043,0.113 0.008,0.117 0.07,0.113 0.012,0.118 0.031,0.113 0.168,0.113 0.031,0.117 0.027,0.114 0.059,0.117 0.008,0.113 0.183,0.117 0.012,0.113 0.039,0.118 0.047,0.113 0.027,0.113 0.032,0.117 0.019,0.114 0.004,0.117 0.91,0.113 0,0.117 0.024,0.114 0.015,0.117 0.02,0.113 0.058,0.117 0.028,0.114 0.012,0.113 0.085,0.117 0.012,0.113 0.039,0.117 0.012,0.114 0.016,0.117 0.242,0.113 0.015,0.117 0.008,0.114 0.039,0.113 0.008,0.117 0.043,0.113 0.008,0.118 0.012,0.113 0.132,0.117 0.008,0.113 0.008,0.118 0.023,0.113 0.004,0.113 0.039,0.117 0.004,0.114 0.012,0.117 0.016,0.113 0.007,0.117 0.004,0.114 0.004,0.117 0,0.113 16,0.117 0,0.114 0.004,0.113 0.004,0.117 0.008,0.113 0.012,0.117 0.007,0.114 0.004,0.117 0.043,0.113 0.004,0.117 0.02,0.114 0.008,0.113 0.011,0.117 0.078,0.113 0.016,0.118 0.008,0.113 0.035,0.117 0.004,0.113 0.031,0.118 0.004,0.113 0.012,0.117 0.301,0.113 0.011,0.114 0.012,0.117 0.031,0.113 0.008,0.117 0.074,0.113 0.008,0.118 0.031,0.113 0.059,0.117 0.023,0.113 0.016,0.114 0.023,0.117 0.004,0.113 0.512,0.117 0.004,0.114 0.023,0.117 0.028,0.113 0.027,0.117 0.043,0.114 0.035,0.117 0.008,0.113 0.16,0.113 0.008,0.118 0.039,0.113 0.024,0.117 0.023,0.113 0.109,0.117 0.024,0.114 0.008,0.117 0.043,0.113 0.007,0.114 0.028,0.117 0.004,0.113 0.007,0.117 1.797,0.113 0.008,0.118 0.008,0.113 0.023,0.117 0.004,0.113 0.063,0.114 0.011,0.117 0.028,0.113 0.078,0.117 0.031,0.114 0.024,0.117 0.039,0.113 0.004,0.117 0.293,0.114 0.007,0.117 0.039,0.113 0.043,0.113 0.04,0.117 0.042,0.114 0.036,0.117 0.007,0.113 0.289,0.117 0.008,0.114 0.039,0.117 0.024,0.113 0.027,0.113 0.078,0.118 0.028,0.113 0.011,0.117 0.059,0.113 0.004,0.118 0.023,0.113 0.008,0.117 0.008,0.113 1.824,0.117 0.008,0.114 0.004,0.113 0.027,0.117 0.004,0.114 0.043,0.117 0.008,0.113 0.023,0.117 0.106,0.113 0.023,0.118 0.02,0.113 0.039,0.113 0.008,0.117 0.152,0.114 0.012,0.117 0.031,0.113 0.039,0.117 0.027,0.114 0.028,0.117 0.023,0.113 0.004,0.117 0.496,0.114 0.004,0.113 0.02,0.117 0.019,0.113 0.02,0.118 0.058,0.113 0.028,0.117 0.011,0.113 0.071,0.117 0.007,0.114 0.032,0.113 0.011,0.117 0.012,0.113 0.301,0.118 0.008,0.113 0.008,0.117 0.027,0.113 0.008,0.118 0.035,0.113 0.004,0.113 0.015,0.117 0.078,0.114 0.012,0.117 0.008,0.113 0.02,0.117 0,0.114 0.046,0.117 0.004,0.113 0.008,0.117 0.012,0.113 0.004,0.114 0.008,0.117 0.003,0.113 0,0.117 8.997,0.114 0.003,0.117 0,0.113 0.004,0.117 0.004,0.114 0.012,0.113 0.008,0.117 0.004,0.113 0.023,0.118 0.004,0.113 0.016,0.117 0.004,0.113 0.007,0.118 0.086,0.113 0.008,0.117 0.004,0.113 0.027,0.114 0.004,0.117 0.028,0.113 0.007,0.117 0.008,0.114 0.153,0.117 0.011,0.113 0.008,0.117 0.024,0.113 0.007,0.114 0.055,0.117 0.004,0.113 0.02,0.117 0.035,0.114 0.015,0.117 0.008,0.113 0.012,0.117 0.004,0.114 0.551,0.117 0.003,0.113 0.012,0.113 0.016,0.118 0.019,0.113 0.028,0.117 0.019,0.113 0.008,0.117 0.105,0.114 0.004,0.117 0.036,0.113 0.015,0.113 0.016,0.118 0.097,0.113 0.016,0.117 0.008,0.113 0.039,0.118 0.004,0.113 0.027,0.117 0.004,0.113 0.008,0.118 0.695,0.113 0.008,0.113 0.008,0.117 0.019,0.114 0.004,0.117 0.047,0.113 0.008,0.117 0.023,0.114 0.055,0.117 0.02,0.113 0.015,0.113 0.024,0.117 0.004,0.114 0.195,0.117 0.004,0.113 0.019,0.117 0.024,0.114 0.019,0.117 0.024,0.113 0.019,0.113 0.004,0.118 0.133,0.113 0.004,0.117 0.019,0.113 0.008,0.118 0.016,0.113 0.031,0.117 0.012,0.113 0.004,0.118 0.023,0.113 0.004,0.113 0.008,0.117 0.004,0.114 0,0.117 2.281,0.113 0,0.117 0.004,0.113 0.008,0.118 0.004,0.113 0.015,0.113 0.004,0.117 0.008,0.114 0.039,0.117 0.012,0.113 0.008,0.117 0.015,0.114 0.004,0.117 0.074,0.113 0.004,0.117 0.016,0.114 0.019,0.113 0.016,0.117 0.016,0.113 0.011,0.117 0,0.114 0.247,0.117 0.003,0.113 0.012,0.117 0.012,0.114 0.015,0.113 0.04,0.117 0.019,0.113 0.004,0.118 0.047,0.113 0.004,0.117 0.023,0.113 0.004,0.118 0.008,0.113 0.246,0.117 0.008,0.113 0.004,0.114 0.023,0.117 0.004,0.113 0.027,0.117 0.008,0.114 0.012,0.117 0.066,0.113 0.008,0.117 0.012,0.114 0.015,0.113 0.004,0.117 0.043,0.113 0.004,0.117 0.008,0.114 0.012,0.117 0.004,0.113 0.008,0.117 0.003,0.114 0,0.113 1.184,0.117 0,0.113 0.004,0.118 0.004,0.113 0.004,0.117 0.011,0.113 0.008,0.118 0.004,0.113 0.024,0.117 0,0.113 0.015,0.114 0.004,0.117 0.004,0.113 0.074,0.117 0.008,0.113 0.004,0.118 0.02,0.113 0.003,0.117 0.02,0.113 0.004,0.114 0.004,0.117 0.094,0.113 0.003,0.117 0.008,0.114 0.012,0.117 0.004,0.113 0.031,0.117 0.004,0.114 0.008,0.117 0.015,0.113 0.008,0.113 0.004,0.118 0.008,0.113 0,0.117 0.301,0.113 0,0.117 0.004,0.114 0.007,0.117 0.004,0.113 0.008,0.114 0.008,0.117 0.004,0.113 0.035,0.117 0,0.113 0.012,0.118 0.004,0.113 0.008,0.117 0.031,0.113 0.004,0.118 0.004,0.113 0.011,0.113 0.004,0.117 0.008,0.114 0,0.117 0.004,0.113 0.152,0.117 0.004,0.114 0,0.117 0.008,0.113 0,0.113 0.012,0.117 0,0.114 0.008,0.117 0.011,0.113 0.004,0.117 0.004,0.114 0.004,0.117 0,0.113 0.043,0.113 0,0.118 0.004,0.113 0.004,0.117 0.004,0.113 0.004,0.118 0,0.113 0.003,0.117 0.02,0.113 0,0.117 0.004,0.114 0,0.113 0.004,0.117 0.004,0.114 0,0.117 0.004,0.113 0,0.23 0.004,0.118 0,0.226"
         style="fill:none;stroke:#00688b;stroke-width:1.60000002;stroke-linecap:square;stroke-linejoin:miter;stroke-miterlimit:3.25;stroke-dasharray:none;stroke-opacity:1"
         id="path5276"
         inkscape:connector-curvature="0" />
      <path
         d="m 27.426,20.613 0,3.774"
         style="fill:none;stroke:#000000;stroke-width:0.5;stroke-linecap:butt;stroke-linejoin:miter;stroke-miterlimit:3.25;stroke-dasharray:none;stroke-opacity:1"
         id="path5278"
         inkscape:connector-curvature="0" />
      <path
         d="m 42.77,20.613 0,2.266"
         style="fill:none;stroke:#000000;stroke-width:0.5;stroke-linecap:butt;stroke-linejoin:miter;stroke-miterlimit:3.25;stroke-dasharray:none;stroke-opacity:1"
         id="path5280"
         inkscape:connector-curvature="0" />
      <path
         d="m 58.109,20.613 0,2.266"
         style="fill:none;stroke:#000000;stroke-width:0.5;stroke-linecap:butt;stroke-linejoin:miter;stroke-miterlimit:3.25;stroke-dasharray:none;stroke-opacity:1"
         id="path5282"
         inkscape:connector-curvature="0" />
      <path
         d="m 73.453,20.613 0,2.266"
         style="fill:none;stroke:#000000;stroke-width:0.5;stroke-linecap:butt;stroke-linejoin:miter;stroke-miterlimit:3.25;stroke-dasharray:none;stroke-opacity:1"
         id="path5284"
         inkscape:connector-curvature="0" />
      <path
         d="m 88.797,20.613 0,3.774"
         style="fill:none;stroke:#000000;stroke-width:0.5;stroke-linecap:butt;stroke-linejoin:miter;stroke-miterlimit:3.25;stroke-dasharray:none;stroke-opacity:1"
         id="path5286"
         inkscape:connector-curvature="0" />
      <text
         transform="matrix(1,0,0,-1,80.174711,4.206781)"
         style="font-variant:normal;font-weight:normal;font-size:15px;font-family:'Linux Libertine Display';-inkscape-font-specification:LinLibertineDisplay;writing-mode:lr-tb;fill:#000000;fill-opacity:1;fill-rule:nonzero;stroke:none"
         id="text5288">
        <tspan
           x="0 6.96 10.245"
           y="0"
           sodipodi:role="line"
           id="tspan5290">0.2</tspan>
      </text>
      <path
         d="m 104.137,20.613 0,2.266"
         style="fill:none;stroke:#000000;stroke-width:0.5;stroke-linecap:butt;stroke-linejoin:miter;stroke-miterlimit:3.25;stroke-dasharray:none;stroke-opacity:1"
         id="path5292"
         inkscape:connector-curvature="0" />
      <path
         d="m 119.48,20.613 0,2.266"
         style="fill:none;stroke:#000000;stroke-width:0.5;stroke-linecap:butt;stroke-linejoin:miter;stroke-miterlimit:3.25;stroke-dasharray:none;stroke-opacity:1"
         id="path5294"
         inkscape:connector-curvature="0" />
      <path
         d="m 134.82,20.613 0,2.266"
         style="fill:none;stroke:#000000;stroke-width:0.5;stroke-linecap:butt;stroke-linejoin:miter;stroke-miterlimit:3.25;stroke-dasharray:none;stroke-opacity:1"
         id="path5296"
         inkscape:connector-curvature="0" />
      <path
         d="m 150.164,20.613 0,3.774"
         style="fill:none;stroke:#000000;stroke-width:0.5;stroke-linecap:butt;stroke-linejoin:miter;stroke-miterlimit:3.25;stroke-dasharray:none;stroke-opacity:1"
         id="path5298"
         inkscape:connector-curvature="0" />
      <text
         transform="matrix(1,0,0,-1,141.54327,4.206781)"
         style="font-variant:normal;font-weight:normal;font-size:15px;font-family:'Linux Libertine Display';-inkscape-font-specification:LinLibertineDisplay;writing-mode:lr-tb;fill:#000000;fill-opacity:1;fill-rule:nonzero;stroke:none"
         id="text5300">
        <tspan
           x="0 6.96 10.245"
           y="0"
           sodipodi:role="line"
           id="tspan5302">0.4</tspan>
      </text>
      <path
         d="m 165.508,20.613 0,2.266"
         style="fill:none;stroke:#000000;stroke-width:0.5;stroke-linecap:butt;stroke-linejoin:miter;stroke-miterlimit:3.25;stroke-dasharray:none;stroke-opacity:1"
         id="path5304"
         inkscape:connector-curvature="0" />
      <path
         d="m 180.848,20.613 0,2.266"
         style="fill:none;stroke:#000000;stroke-width:0.5;stroke-linecap:butt;stroke-linejoin:miter;stroke-miterlimit:3.25;stroke-dasharray:none;stroke-opacity:1"
         id="path5306"
         inkscape:connector-curvature="0" />
      <path
         d="m 196.191,20.613 0,2.266"
         style="fill:none;stroke:#000000;stroke-width:0.5;stroke-linecap:butt;stroke-linejoin:miter;stroke-miterlimit:3.25;stroke-dasharray:none;stroke-opacity:1"
         id="path5308"
         inkscape:connector-curvature="0" />
      <path
         d="m 211.531,20.613 0,3.774"
         style="fill:none;stroke:#000000;stroke-width:0.5;stroke-linecap:butt;stroke-linejoin:miter;stroke-miterlimit:3.25;stroke-dasharray:none;stroke-opacity:1"
         id="path5310"
         inkscape:connector-curvature="0" />
      <text
         transform="matrix(1,0,0,-1,202.91183,4.206781)"
         style="font-variant:normal;font-weight:normal;font-size:15px;font-family:'Linux Libertine Display';-inkscape-font-specification:LinLibertineDisplay;writing-mode:lr-tb;fill:#000000;fill-opacity:1;fill-rule:nonzero;stroke:none"
         id="text5312">
        <tspan
           x="0 6.96 10.245"
           y="0"
           sodipodi:role="line"
           id="tspan5314">0.6</tspan>
      </text>
      <path
         d="m 226.875,20.613 0,2.266"
         style="fill:none;stroke:#000000;stroke-width:0.5;stroke-linecap:butt;stroke-linejoin:miter;stroke-miterlimit:3.25;stroke-dasharray:none;stroke-opacity:1"
         id="path5316"
         inkscape:connector-curvature="0" />
      <path
         d="m 242.215,20.613 0,2.266"
         style="fill:none;stroke:#000000;stroke-width:0.5;stroke-linecap:butt;stroke-linejoin:miter;stroke-miterlimit:3.25;stroke-dasharray:none;stroke-opacity:1"
         id="path5318"
         inkscape:connector-curvature="0" />
      <path
         d="m 257.559,20.613 0,2.266"
         style="fill:none;stroke:#000000;stroke-width:0.5;stroke-linecap:butt;stroke-linejoin:miter;stroke-miterlimit:3.25;stroke-dasharray:none;stroke-opacity:1"
         id="path5320"
         inkscape:connector-curvature="0" />
      <path
         d="m 272.902,20.613 0,3.774"
         style="fill:none;stroke:#000000;stroke-width:0.5;stroke-linecap:butt;stroke-linejoin:miter;stroke-miterlimit:3.25;stroke-dasharray:none;stroke-opacity:1"
         id="path5322"
         inkscape:connector-curvature="0" />
      <text
         transform="matrix(1,0,0,-1,264.28039,4.206781)"
         style="font-variant:normal;font-weight:normal;font-size:15px;font-family:'Linux Libertine Display';-inkscape-font-specification:LinLibertineDisplay;writing-mode:lr-tb;fill:#000000;fill-opacity:1;fill-rule:nonzero;stroke:none"
         id="text5324">
        <tspan
           x="0 6.96 10.245"
           y="0"
           sodipodi:role="line"
           id="tspan5326">0.8</tspan>
      </text>
      <path
         d="m 288.242,20.613 0,2.266"
         style="fill:none;stroke:#000000;stroke-width:0.5;stroke-linecap:butt;stroke-linejoin:miter;stroke-miterlimit:3.25;stroke-dasharray:none;stroke-opacity:1"
         id="path5328"
         inkscape:connector-curvature="0" />
      <path
         d="m 303.586,20.613 0,2.266"
         style="fill:none;stroke:#000000;stroke-width:0.5;stroke-linecap:butt;stroke-linejoin:miter;stroke-miterlimit:3.25;stroke-dasharray:none;stroke-opacity:1"
         id="path5330"
         inkscape:connector-curvature="0" />
      <path
         d="m 318.926,20.613 0,2.266"
         style="fill:none;stroke:#000000;stroke-width:0.5;stroke-linecap:butt;stroke-linejoin:miter;stroke-miterlimit:3.25;stroke-dasharray:none;stroke-opacity:1"
         id="path5332"
         inkscape:connector-curvature="0" />
      <path
         d="m 334.27,20.613 0,3.774"
         style="fill:none;stroke:#000000;stroke-width:0.5;stroke-linecap:butt;stroke-linejoin:miter;stroke-miterlimit:3.25;stroke-dasharray:none;stroke-opacity:1"
         id="path5334"
         inkscape:connector-curvature="0" />
      <text
         transform="matrix(1,0,0,-1,325.64895,4.206781)"
         style="font-variant:normal;font-weight:normal;font-size:15px;font-family:'Linux Libertine Display';-inkscape-font-specification:LinLibertineDisplay;writing-mode:lr-tb;fill:#000000;fill-opacity:1;fill-rule:nonzero;stroke:none"
         id="text5336">
        <tspan
           x="0 6.96 10.245"
           y="0"
           sodipodi:role="line"
           id="tspan5338">1.0</tspan>
      </text>
      <path
         d="m 21.035,20.613 319.629,0"
         style="fill:none;stroke:#000000;stroke-width:0.5;stroke-linecap:butt;stroke-linejoin:miter;stroke-miterlimit:3.25;stroke-dasharray:none;stroke-opacity:1"
         id="path5340"
         inkscape:connector-curvature="0" />
      <text
         transform="matrix(1,0,0,-1,348.66211,14.136469)"
         style="font-variant:normal;font-weight:normal;font-size:20px;font-family:'Linux Libertine Display';-inkscape-font-specification:LinLibertineDisplay;writing-mode:lr-tb;fill:#000000;fill-opacity:1;fill-rule:nonzero;stroke:none"
         id="text5342">
        <tspan
           x="0"
           y="0"
           id="tspan5344">E</tspan>
      </text>
      <path
         d="m 27.426,20.613 3.777,0"
         style="fill:none;stroke:#000000;stroke-width:0.5;stroke-linecap:butt;stroke-linejoin:miter;stroke-miterlimit:3.25;stroke-dasharray:none;stroke-opacity:1"
         id="path5346"
         inkscape:connector-curvature="0" />
      <path
         d="m 27.426,29.797 2.265,0"
         style="fill:none;stroke:#000000;stroke-width:0.5;stroke-linecap:butt;stroke-linejoin:miter;stroke-miterlimit:3.25;stroke-dasharray:none;stroke-opacity:1"
         id="path5348"
         inkscape:connector-curvature="0" />
      <path
         d="m 27.426,38.984 2.265,0"
         style="fill:none;stroke:#000000;stroke-width:0.5;stroke-linecap:butt;stroke-linejoin:miter;stroke-miterlimit:3.25;stroke-dasharray:none;stroke-opacity:1"
         id="path5350"
         inkscape:connector-curvature="0" />
      <path
         d="m 27.426,48.172 2.265,0"
         style="fill:none;stroke:#000000;stroke-width:0.5;stroke-linecap:butt;stroke-linejoin:miter;stroke-miterlimit:3.25;stroke-dasharray:none;stroke-opacity:1"
         id="path5352"
         inkscape:connector-curvature="0" />
      <path
         d="m 27.426,57.355 3.777,0"
         style="fill:none;stroke:#000000;stroke-width:0.5;stroke-linecap:butt;stroke-linejoin:miter;stroke-miterlimit:3.25;stroke-dasharray:none;stroke-opacity:1"
         id="path5354"
         inkscape:connector-curvature="0" />
      <text
         transform="matrix(1,0,0,-1,7.185547,52.496266)"
         style="font-variant:normal;font-weight:normal;font-size:15px;font-family:'Linux Libertine Display';-inkscape-font-specification:LinLibertineDisplay;writing-mode:lr-tb;fill:#000000;fill-opacity:1;fill-rule:nonzero;stroke:none"
         id="text5356">
        <tspan
           x="0 6.96 10.245"
           y="0"
           sodipodi:role="line"
           id="tspan5358">0.2</tspan>
      </text>
      <path
         d="m 27.426,66.543 2.265,0"
         style="fill:none;stroke:#000000;stroke-width:0.5;stroke-linecap:butt;stroke-linejoin:miter;stroke-miterlimit:3.25;stroke-dasharray:none;stroke-opacity:1"
         id="path5360"
         inkscape:connector-curvature="0" />
      <path
         d="m 27.426,75.727 2.265,0"
         style="fill:none;stroke:#000000;stroke-width:0.5;stroke-linecap:butt;stroke-linejoin:miter;stroke-miterlimit:3.25;stroke-dasharray:none;stroke-opacity:1"
         id="path5362"
         inkscape:connector-curvature="0" />
      <path
         d="m 27.426,84.914 2.265,0"
         style="fill:none;stroke:#000000;stroke-width:0.5;stroke-linecap:butt;stroke-linejoin:miter;stroke-miterlimit:3.25;stroke-dasharray:none;stroke-opacity:1"
         id="path5364"
         inkscape:connector-curvature="0" />
      <path
         d="m 27.426,94.098 3.777,0"
         style="fill:none;stroke:#000000;stroke-width:0.5;stroke-linecap:butt;stroke-linejoin:miter;stroke-miterlimit:3.25;stroke-dasharray:none;stroke-opacity:1"
         id="path5366"
         inkscape:connector-curvature="0" />
      <text
         transform="matrix(1,0,0,-1,7.185547,89.238876)"
         style="font-variant:normal;font-weight:normal;font-size:15px;font-family:'Linux Libertine Display';-inkscape-font-specification:LinLibertineDisplay;writing-mode:lr-tb;fill:#000000;fill-opacity:1;fill-rule:nonzero;stroke:none"
         id="text5368">
        <tspan
           x="0 6.96 10.245"
           y="0"
           sodipodi:role="line"
           id="tspan5370">0.4</tspan>
      </text>
      <path
         d="m 27.426,103.285 2.265,0"
         style="fill:none;stroke:#000000;stroke-width:0.5;stroke-linecap:butt;stroke-linejoin:miter;stroke-miterlimit:3.25;stroke-dasharray:none;stroke-opacity:1"
         id="path5372"
         inkscape:connector-curvature="0" />
      <path
         d="m 27.426,112.469 2.265,0"
         style="fill:none;stroke:#000000;stroke-width:0.5;stroke-linecap:butt;stroke-linejoin:miter;stroke-miterlimit:3.25;stroke-dasharray:none;stroke-opacity:1"
         id="path5374"
         inkscape:connector-curvature="0" />
      <path
         d="m 27.426,121.656 2.265,0"
         style="fill:none;stroke:#000000;stroke-width:0.5;stroke-linecap:butt;stroke-linejoin:miter;stroke-miterlimit:3.25;stroke-dasharray:none;stroke-opacity:1"
         id="path5376"
         inkscape:connector-curvature="0" />
      <path
         d="m 27.426,130.84 3.777,0"
         style="fill:none;stroke:#000000;stroke-width:0.5;stroke-linecap:butt;stroke-linejoin:miter;stroke-miterlimit:3.25;stroke-dasharray:none;stroke-opacity:1"
         id="path5378"
         inkscape:connector-curvature="0" />
      <text
         transform="matrix(1,0,0,-1,7.185547,125.98149)"
         style="font-variant:normal;font-weight:normal;font-size:15px;font-family:'Linux Libertine Display';-inkscape-font-specification:LinLibertineDisplay;writing-mode:lr-tb;fill:#000000;fill-opacity:1;fill-rule:nonzero;stroke:none"
         id="text5380">
        <tspan
           x="0 6.96 10.245"
           y="0"
           sodipodi:role="line"
           id="tspan5382">0.6</tspan>
      </text>
      <path
         d="m 27.426,140.027 2.265,0"
         style="fill:none;stroke:#000000;stroke-width:0.5;stroke-linecap:butt;stroke-linejoin:miter;stroke-miterlimit:3.25;stroke-dasharray:none;stroke-opacity:1"
         id="path5384"
         inkscape:connector-curvature="0" />
      <path
         d="m 27.426,149.211 2.265,0"
         style="fill:none;stroke:#000000;stroke-width:0.5;stroke-linecap:butt;stroke-linejoin:miter;stroke-miterlimit:3.25;stroke-dasharray:none;stroke-opacity:1"
         id="path5386"
         inkscape:connector-curvature="0" />
      <path
         d="m 27.426,158.398 2.265,0"
         style="fill:none;stroke:#000000;stroke-width:0.5;stroke-linecap:butt;stroke-linejoin:miter;stroke-miterlimit:3.25;stroke-dasharray:none;stroke-opacity:1"
         id="path5388"
         inkscape:connector-curvature="0" />
      <path
         d="m 27.426,167.582 3.777,0"
         style="fill:none;stroke:#000000;stroke-width:0.5;stroke-linecap:butt;stroke-linejoin:miter;stroke-miterlimit:3.25;stroke-dasharray:none;stroke-opacity:1"
         id="path5390"
         inkscape:connector-curvature="0" />
      <text
         transform="matrix(1,0,0,-1,7.185547,162.72409)"
         style="font-variant:normal;font-weight:normal;font-size:15px;font-family:'Linux Libertine Display';-inkscape-font-specification:LinLibertineDisplay;writing-mode:lr-tb;fill:#000000;fill-opacity:1;fill-rule:nonzero;stroke:none"
         id="text5392">
        <tspan
           x="0 6.96 10.245"
           y="0"
           sodipodi:role="line"
           id="tspan5394">0.8</tspan>
      </text>
      <path
         d="m 27.426,176.77 2.265,0"
         style="fill:none;stroke:#000000;stroke-width:0.5;stroke-linecap:butt;stroke-linejoin:miter;stroke-miterlimit:3.25;stroke-dasharray:none;stroke-opacity:1"
         id="path5396"
         inkscape:connector-curvature="0" />
      <path
         d="m 27.426,185.953 2.265,0"
         style="fill:none;stroke:#000000;stroke-width:0.5;stroke-linecap:butt;stroke-linejoin:miter;stroke-miterlimit:3.25;stroke-dasharray:none;stroke-opacity:1"
         id="path5398"
         inkscape:connector-curvature="0" />
      <path
         d="m 27.426,195.141 2.265,0"
         style="fill:none;stroke:#000000;stroke-width:0.5;stroke-linecap:butt;stroke-linejoin:miter;stroke-miterlimit:3.25;stroke-dasharray:none;stroke-opacity:1"
         id="path5400"
         inkscape:connector-curvature="0" />
      <path
         d="m 27.426,204.324 3.777,0"
         style="fill:none;stroke:#000000;stroke-width:0.5;stroke-linecap:butt;stroke-linejoin:miter;stroke-miterlimit:3.25;stroke-dasharray:none;stroke-opacity:1"
         id="path5402"
         inkscape:connector-curvature="0" />
      <text
         transform="matrix(1,0,0,-1,7.185547,199.4667)"
         style="font-variant:normal;font-weight:normal;font-size:15px;font-family:'Linux Libertine Display';-inkscape-font-specification:LinLibertineDisplay;writing-mode:lr-tb;fill:#000000;fill-opacity:1;fill-rule:nonzero;stroke:none"
         id="text5404">
        <tspan
           x="0 6.96 10.245"
           y="0"
           sodipodi:role="line"
           id="tspan5406">1.0</tspan>
      </text>
      <path
         d="m 27.426,213.512 2.265,0"
         style="fill:none;stroke:#000000;stroke-width:0.5;stroke-linecap:butt;stroke-linejoin:miter;stroke-miterlimit:3.25;stroke-dasharray:none;stroke-opacity:1"
         id="path5408"
         inkscape:connector-curvature="0" />
      <path
         d="m 27.426,16.664 0,197.539"
         style="fill:none;stroke:#000000;stroke-width:0.5;stroke-linecap:butt;stroke-linejoin:miter;stroke-miterlimit:3.25;stroke-dasharray:none;stroke-opacity:1"
         id="path5410"
         inkscape:connector-curvature="0" />
      <text
         transform="matrix(1,0,0,-1,-0.290527,225.125)"
         style="font-variant:normal;font-weight:normal;font-size:20px;font-family:'Linux Libertine Display';-inkscape-font-specification:LinLibertineDisplay;writing-mode:lr-tb;fill:#000000;fill-opacity:1;fill-rule:nonzero;stroke:none"
         id="text5412">
        <tspan
           x="0 5.3200002 15.04 24.66"
           y="0"
           sodipodi:role="line"
           id="tspan5414">idos</tspan>
      </text>
      <text
         transform="matrix(1,0,0,-1,30.629473,225.125)"
         style="font-variant:normal;font-weight:normal;font-size:20px;font-family:Mathematica;-inkscape-font-specification:Mathematica;writing-mode:lr-tb;fill:#000000;fill-opacity:1;fill-rule:nonzero;stroke:none"
         id="text5416">
        <tspan
           x="0"
           y="0"
           id="tspan5418">(</tspan>
      </text>
      <text
         transform="matrix(1,0,0,-1,37.029473,225.125)"
         style="font-variant:normal;font-weight:normal;font-size:20px;font-family:'Linux Libertine Display';-inkscape-font-specification:LinLibertineDisplay;writing-mode:lr-tb;fill:#000000;fill-opacity:1;fill-rule:nonzero;stroke:none"
         id="text5420">
        <tspan
           x="0"
           y="0"
           id="tspan5422">E</tspan>
      </text>
      <text
         transform="matrix(1,0,0,-1,48.349473,225.125)"
         style="font-variant:normal;font-weight:normal;font-size:20px;font-family:Mathematica;-inkscape-font-specification:Mathematica;writing-mode:lr-tb;fill:#000000;fill-opacity:1;fill-rule:nonzero;stroke:none"
         id="text5424">
        <tspan
           x="0"
           y="0"
           id="tspan5426">)</tspan>
      </text>
    </g>
    <g
       transform="matrix(0.89398336,0,0,-0.89398336,363.58702,814.10529)"
       id="g6357">
      <path
         d="M 0,0 360,0 360,243 0,243 0,0 Z"
         style="fill:#ffffff;fill-opacity:1;fill-rule:nonzero;stroke:none"
         id="path6359"
         inkscape:connector-curvature="0" />
      <path
         d="M 0,243 360,243 360,0 0,0 0,243 Z"
         style="fill:none;stroke:#ffffff;stroke-width:0.03;stroke-linecap:butt;stroke-linejoin:miter;stroke-miterlimit:10;stroke-dasharray:none;stroke-opacity:1"
         id="path6361"
         inkscape:connector-curvature="0" />
      <path
         d="m 32.148,29.367 0.004,0.469 0.016,0.465 0.023,0.465 0.028,0.464 0.047,0.465 0.039,0.469 0.011,0.465 0.2,0.465 0.011,0.465 0.082,0.468 0.039,0.465 0.043,0.465 0.348,0.465 0.063,0.465 0.031,0.468 0.16,0.465 0.023,0.465 0.133,0.465 0.028,0.469 0.043,0.465 1.367,0.464 0.101,0.93 0.153,0.469 0.031,0.465 0.348,0.465 0.046,0.464 0.137,0.469 0.277,0.465 0.11,0.465 0.082,0.465 0.109,0.465 0.012,0.468 2.621,0.465 0.024,0.465 0.109,0.465 0.148,0.465 0.145,0.468 0.219,0.465 0.175,0.465 0.047,0.465 0.852,0.469 0.039,0.465 0.23,0.464 0.114,0.465 0.132,0.465 0.622,0.469 0.121,0.465 0.058,0.465 0.25,0.464 0.031,0.469 0.157,0.465 0.027,0.465 0.039,0.465 9.973,0.464 0.051,0.469 0.046,0.465 0.168,0.465 0.039,0.465 0.411,0.468 0.07,0.465 0.191,0.465 0.536,0.465 0.199,0.465 0.16,0.469 0.258,0.464 0.039,0.465 2.031,0.465 0.055,0.469 0.242,0.465 0.305,0.465 0.257,0.464 0.309,0.465 0.246,0.469 0.055,0.465 1.988,0.465 0.043,0.465 0.262,0.468 0.164,0.465 0.203,0.465 0.543,0.465 0.191,0.465 0.071,0.468 0.41,0.465 0.039,0.465 0.164,0.465 0.047,0.469 0.047,0.465 16.504,0.464 0.054,0.465 0.039,0.465 0.215,0.469 0.047,0.465 0.355,0.465 0.082,0.464 0.18,0.469 0.918,0.465 0.211,0.465 0.18,0.465 0.363,0.465 0.063,0.468 1.433,0.465 0.078,0.465 0.309,0.465 0.383,0.469 0.265,0.464 0.27,0.465 0.207,0.465 0.039,0.465 4.855,0.469 0.032,0.464 0.242,0.465 0.18,0.465 0.242,0.469 0.633,0.465 0.3,0.465 0.11,0.464 0.789,0.465 0.074,0.469 0.352,0.465 0.117,0.465 0.121,0.465 3.551,0.468 0.109,0.465 0.07,0.465 0.352,0.465 0.066,0.465 0.426,0.468 0.09,0.465 0.172,0.465 0.968,0.465 0.133,0.469 0.114,0.465 0.23,0.464 0.043,0.465 0.586,0.465 0.035,0.469 0.125,0.465 0.137,0.465 0.082,0.464 0.07,0.469 0.051,0.465 0.012,0.465 59.73,0.465 0.008,0.465 0.066,0.468 0.055,0.465 0.082,0.465 0.215,0.465 0.133,0.469 0.051,0.464 0.476,0.465 0.051,0.465 0.25,0.465 0.105,0.469 0.118,0.465 1.558,0.464 0.164,0.465 0.094,0.469 0.469,0.465 0.082,0.465 0.465,0.464 0.093,0.465 0.164,0.469 2.579,0.465 0.167,0.465 0.157,0.465 0.418,0.468 0.086,0.465 0.898,0.465 0.109,0.465 0.305,0.465 0.559,0.469 0.218,0.464 0.153,0.465 0.195,0.465 0.027,0.469 9.364,0.465 0.035,0.464 0.183,0.465 0.247,0.465 0.257,0.469 0.411,0.465 0.339,0.465 0.094,0.464 1.586,0.469 0.082,0.465 0.488,0.465 0.243,0.465 0.277,0.465 1.461,0.468 0.269,0.465 0.133,0.465 0.586,0.465 0.082,0.465 0.391,0.468 0.074,0.465 0.106,0.465 9.324,0.465 0.093,0.469 0.09,0.465 0.297,0.464 0.067,0.465 0.699,0.465 0.109,0.469 0.301,0.465 0.754,0.465 0.273,0.464 0.219,0.469 0.324,0.465 0.047,0.465 2.653,0.465 0.05,0.464 0.246,0.469 0.305,0.465 0.258,0.465 0.312,0.465 0.239,0.469 0.054,0.464 1.621,0.465 0.036,0.465 0.214,0.465 0.129,0.469 0.153,0.465 0.41,0.464 0.133,0.465 0.047,0.469 0.273,0.465 0.023,0.465 0.106,0.464 0.031,0.465 0.031,0.469 59.719,0.465 0.031,0.465 0.02,0.465 0.117,0.468 0.024,0.465 0.199,0.465 0.047,0.465 0.101,0.465 0.535,0.468 0.129,0.465 0.114,0.465 0.234,0.465 0.039,0.469 1.035,0.465 0.059,0.464 0.23,0.465 0.293,0.465 0.211,0.469 0.227,0.465 0.175,0.465 0.036,0.464 3.597,0.469 0.035,0.465 0.25,0.465 0.18,0.465 0.242,0.465 0.649,0.468 0.301,0.465 0.109,0.465 0.773,0.465 0.075,0.469 0.347,0.464 0.113,0.465 0.118,0.465 4.804,0.465 0.125,0.469 0.082,0.465 0.426,0.464 0.082,0.465 0.555,0.469 0.121,0.465 0.234,0.465 1.336,0.465 0.207,0.464 0.176,0.469 0.367,0.465 0.063,0.465 1.008,0.465 0.062,0.468 0.215,0.465 0.25,0.465 0.148,0.465 0.133,0.465 0.098,0.468 0.019,0.465 16.524,0.465 0.012,0.465 0.105,0.469 0.086,0.465 0.121,0.464 0.328,0.465 0.192,0.465 0.07,0.469 0.64,0.465 0.063,0.465 0.32,0.464 0.129,0.469 0.137,0.465 1.926,0.465 0.164,0.465 0.097,0.465 0.469,0.468 0.082,0.465 0.465,0.465 0.094,0.465 0.16,0.469 1.969,0.464 0.136,0.465 0.122,0.465 0.316,0.465 0.062,0.469 0.633,0.465 0.071,0.464 0.191,0.465 0.328,0.469 0.125,0.465 0.086,0.465 0.105,0.465 0.016,0.464 9.988,0.469 0.012,0.465 0.074,0.465 0.094,0.465 0.106,0.468 0.175,0.465 0.149,0.465 0.043,0.465 0.676,0.465 0.043,0.469 0.23,0.464 0.113,0.465 0.133,0.465 0.789,0.469 0.137,0.465 0.066,0.464 0.317,0.465 0.047,0.465 0.23,0.469 0.043,0.465 0.07,0.465 2.594,0.464 0.051,0.469 0.054,0.465 0.153,0.465 0.035,0.465 0.344,0.465 0.047,0.468 0.132,0.465 0.286,0.465 0.105,0.465 0.078,0.465 0.11,0.468 0.015,0.465 1.383,0.465 0.016,0.465 0.066,0.469 0.086,0.465 0.078,0.464 0.109,0.465 0.083,0.465 0.023,0.469 0.371,0.465 0.012,0.465 0.082,0.464 0.039,0.469 0.043,0.465 0.18,0.465 0.035,0.465 0.015,0.465 0.067,0.468 0.007,0.465 0.036,0.465 0.007,0.465 0.012,0.469"
         style="fill:none;stroke:#00688b;stroke-width:1.60000002;stroke-linecap:square;stroke-linejoin:miter;stroke-miterlimit:3.25;stroke-dasharray:none;stroke-opacity:1"
         id="path6363"
         inkscape:connector-curvature="0" />
      <path
         d="m 40.262,20.613 0,2.231"
         style="fill:none;stroke:#000000;stroke-width:0.5;stroke-linecap:butt;stroke-linejoin:miter;stroke-miterlimit:3.25;stroke-dasharray:none;stroke-opacity:1"
         id="path6365"
         inkscape:connector-curvature="0" />
      <path
         d="m 58.137,20.613 0,2.231"
         style="fill:none;stroke:#000000;stroke-width:0.5;stroke-linecap:butt;stroke-linejoin:miter;stroke-miterlimit:3.25;stroke-dasharray:none;stroke-opacity:1"
         id="path6367"
         inkscape:connector-curvature="0" />
      <path
         d="m 76.012,20.613 0,2.231"
         style="fill:none;stroke:#000000;stroke-width:0.5;stroke-linecap:butt;stroke-linejoin:miter;stroke-miterlimit:3.25;stroke-dasharray:none;stroke-opacity:1"
         id="path6369"
         inkscape:connector-curvature="0" />
      <path
         d="m 93.883,20.613 0,3.715"
         style="fill:none;stroke:#000000;stroke-width:0.5;stroke-linecap:butt;stroke-linejoin:miter;stroke-miterlimit:3.25;stroke-dasharray:none;stroke-opacity:1"
         id="path6371"
         inkscape:connector-curvature="0" />
      <text
         transform="matrix(1,0,0,-1,81.777677,4.206781)"
         style="font-variant:normal;font-weight:normal;font-size:15px;font-family:'Linux Libertine Display';-inkscape-font-specification:LinLibertineDisplay;writing-mode:lr-tb;fill:#000000;fill-opacity:1;fill-rule:nonzero;stroke:none"
         id="text6373">
        <tspan
           x="0 6.96 10.245 17.205"
           y="0"
           sodipodi:role="line"
           id="tspan6375">0.45</tspan>
      </text>
      <path
         d="m 111.758,20.613 0,2.231"
         style="fill:none;stroke:#000000;stroke-width:0.5;stroke-linecap:butt;stroke-linejoin:miter;stroke-miterlimit:3.25;stroke-dasharray:none;stroke-opacity:1"
         id="path6377"
         inkscape:connector-curvature="0" />
      <path
         d="m 129.633,20.613 0,2.231"
         style="fill:none;stroke:#000000;stroke-width:0.5;stroke-linecap:butt;stroke-linejoin:miter;stroke-miterlimit:3.25;stroke-dasharray:none;stroke-opacity:1"
         id="path6379"
         inkscape:connector-curvature="0" />
      <path
         d="m 147.508,20.613 0,2.231"
         style="fill:none;stroke:#000000;stroke-width:0.5;stroke-linecap:butt;stroke-linejoin:miter;stroke-miterlimit:3.25;stroke-dasharray:none;stroke-opacity:1"
         id="path6381"
         inkscape:connector-curvature="0" />
      <path
         d="m 165.383,20.613 0,2.231"
         style="fill:none;stroke:#000000;stroke-width:0.5;stroke-linecap:butt;stroke-linejoin:miter;stroke-miterlimit:3.25;stroke-dasharray:none;stroke-opacity:1"
         id="path6383"
         inkscape:connector-curvature="0" />
      <path
         d="m 183.258,20.613 0,3.715"
         style="fill:none;stroke:#000000;stroke-width:0.5;stroke-linecap:butt;stroke-linejoin:miter;stroke-miterlimit:3.25;stroke-dasharray:none;stroke-opacity:1"
         id="path6385"
         inkscape:connector-curvature="0" />
      <text
         transform="matrix(1,0,0,-1,171.14981,4.206781)"
         style="font-variant:normal;font-weight:normal;font-size:15px;font-family:'Linux Libertine Display';-inkscape-font-specification:LinLibertineDisplay;writing-mode:lr-tb;fill:#000000;fill-opacity:1;fill-rule:nonzero;stroke:none"
         id="text6387">
        <tspan
           x="0 6.96 10.245 17.205"
           y="0"
           sodipodi:role="line"
           id="tspan6389">0.50</tspan>
      </text>
      <path
         d="m 201.133,20.613 0,2.231"
         style="fill:none;stroke:#000000;stroke-width:0.5;stroke-linecap:butt;stroke-linejoin:miter;stroke-miterlimit:3.25;stroke-dasharray:none;stroke-opacity:1"
         id="path6391"
         inkscape:connector-curvature="0" />
      <path
         d="m 219.004,20.613 0,2.231"
         style="fill:none;stroke:#000000;stroke-width:0.5;stroke-linecap:butt;stroke-linejoin:miter;stroke-miterlimit:3.25;stroke-dasharray:none;stroke-opacity:1"
         id="path6393"
         inkscape:connector-curvature="0" />
      <path
         d="m 236.879,20.613 0,2.231"
         style="fill:none;stroke:#000000;stroke-width:0.5;stroke-linecap:butt;stroke-linejoin:miter;stroke-miterlimit:3.25;stroke-dasharray:none;stroke-opacity:1"
         id="path6395"
         inkscape:connector-curvature="0" />
      <path
         d="m 254.754,20.613 0,2.231"
         style="fill:none;stroke:#000000;stroke-width:0.5;stroke-linecap:butt;stroke-linejoin:miter;stroke-miterlimit:3.25;stroke-dasharray:none;stroke-opacity:1"
         id="path6397"
         inkscape:connector-curvature="0" />
      <path
         d="m 272.629,20.613 0,3.715"
         style="fill:none;stroke:#000000;stroke-width:0.5;stroke-linecap:butt;stroke-linejoin:miter;stroke-miterlimit:3.25;stroke-dasharray:none;stroke-opacity:1"
         id="path6399"
         inkscape:connector-curvature="0" />
      <text
         transform="matrix(1,0,0,-1,260.52195,4.206781)"
         style="font-variant:normal;font-weight:normal;font-size:15px;font-family:'Linux Libertine Display';-inkscape-font-specification:LinLibertineDisplay;writing-mode:lr-tb;fill:#000000;fill-opacity:1;fill-rule:nonzero;stroke:none"
         id="text6401">
        <tspan
           x="0 6.96 10.245 17.205"
           y="0"
           sodipodi:role="line"
           id="tspan6403">0.55</tspan>
      </text>
      <path
         d="m 290.504,20.613 0,2.231"
         style="fill:none;stroke:#000000;stroke-width:0.5;stroke-linecap:butt;stroke-linejoin:miter;stroke-miterlimit:3.25;stroke-dasharray:none;stroke-opacity:1"
         id="path6405"
         inkscape:connector-curvature="0" />
      <path
         d="m 308.379,20.613 0,2.231"
         style="fill:none;stroke:#000000;stroke-width:0.5;stroke-linecap:butt;stroke-linejoin:miter;stroke-miterlimit:3.25;stroke-dasharray:none;stroke-opacity:1"
         id="path6407"
         inkscape:connector-curvature="0" />
      <path
         d="m 326.254,20.613 0,2.231"
         style="fill:none;stroke:#000000;stroke-width:0.5;stroke-linecap:butt;stroke-linejoin:miter;stroke-miterlimit:3.25;stroke-dasharray:none;stroke-opacity:1"
         id="path6409"
         inkscape:connector-curvature="0" />
      <path
         d="m 25.852,20.613 314.808,0"
         style="fill:none;stroke:#000000;stroke-width:0.5;stroke-linecap:butt;stroke-linejoin:miter;stroke-miterlimit:3.25;stroke-dasharray:none;stroke-opacity:1"
         id="path6411"
         inkscape:connector-curvature="0" />
      <text
         transform="matrix(1,0,0,-1,348.66211,14.136469)"
         style="font-variant:normal;font-weight:normal;font-size:20px;font-family:'Linux Libertine Display';-inkscape-font-specification:LinLibertineDisplay;writing-mode:lr-tb;fill:#000000;fill-opacity:1;fill-rule:nonzero;stroke:none"
         id="text6413">
        <tspan
           x="0"
           y="0"
           id="tspan6415">E</tspan>
      </text>
      <path
         d="m 27.426,20.004 2.23,0"
         style="fill:none;stroke:#000000;stroke-width:0.5;stroke-linecap:butt;stroke-linejoin:miter;stroke-miterlimit:3.25;stroke-dasharray:none;stroke-opacity:1"
         id="path6417"
         inkscape:connector-curvature="0" />
      <path
         d="m 27.426,27.441 2.23,0"
         style="fill:none;stroke:#000000;stroke-width:0.5;stroke-linecap:butt;stroke-linejoin:miter;stroke-miterlimit:3.25;stroke-dasharray:none;stroke-opacity:1"
         id="path6419"
         inkscape:connector-curvature="0" />
      <path
         d="m 27.426,34.879 2.23,0"
         style="fill:none;stroke:#000000;stroke-width:0.5;stroke-linecap:butt;stroke-linejoin:miter;stroke-miterlimit:3.25;stroke-dasharray:none;stroke-opacity:1"
         id="path6421"
         inkscape:connector-curvature="0" />
      <path
         d="m 27.426,42.316 3.715,0"
         style="fill:none;stroke:#000000;stroke-width:0.5;stroke-linecap:butt;stroke-linejoin:miter;stroke-miterlimit:3.25;stroke-dasharray:none;stroke-opacity:1"
         id="path6423"
         inkscape:connector-curvature="0" />
      <text
         transform="matrix(1,0,0,-1,0.212891,37.4557)"
         style="font-variant:normal;font-weight:normal;font-size:15px;font-family:'Linux Libertine Display';-inkscape-font-specification:LinLibertineDisplay;writing-mode:lr-tb;fill:#000000;fill-opacity:1;fill-rule:nonzero;stroke:none"
         id="text6425">
        <tspan
           x="0 6.96 10.245 17.205"
           y="0"
           sodipodi:role="line"
           id="tspan6427">0.40</tspan>
      </text>
      <path
         d="m 27.426,49.754 2.23,0"
         style="fill:none;stroke:#000000;stroke-width:0.5;stroke-linecap:butt;stroke-linejoin:miter;stroke-miterlimit:3.25;stroke-dasharray:none;stroke-opacity:1"
         id="path6429"
         inkscape:connector-curvature="0" />
      <path
         d="m 27.426,57.191 2.23,0"
         style="fill:none;stroke:#000000;stroke-width:0.5;stroke-linecap:butt;stroke-linejoin:miter;stroke-miterlimit:3.25;stroke-dasharray:none;stroke-opacity:1"
         id="path6431"
         inkscape:connector-curvature="0" />
      <path
         d="m 27.426,64.629 2.23,0"
         style="fill:none;stroke:#000000;stroke-width:0.5;stroke-linecap:butt;stroke-linejoin:miter;stroke-miterlimit:3.25;stroke-dasharray:none;stroke-opacity:1"
         id="path6433"
         inkscape:connector-curvature="0" />
      <path
         d="m 27.426,72.066 2.23,0"
         style="fill:none;stroke:#000000;stroke-width:0.5;stroke-linecap:butt;stroke-linejoin:miter;stroke-miterlimit:3.25;stroke-dasharray:none;stroke-opacity:1"
         id="path6435"
         inkscape:connector-curvature="0" />
      <path
         d="m 27.426,79.5 3.715,0"
         style="fill:none;stroke:#000000;stroke-width:0.5;stroke-linecap:butt;stroke-linejoin:miter;stroke-miterlimit:3.25;stroke-dasharray:none;stroke-opacity:1"
         id="path6437"
         inkscape:connector-curvature="0" />
      <text
         transform="matrix(1,0,0,-1,0.212891,74.642571)"
         style="font-variant:normal;font-weight:normal;font-size:15px;font-family:'Linux Libertine Display';-inkscape-font-specification:LinLibertineDisplay;writing-mode:lr-tb;fill:#000000;fill-opacity:1;fill-rule:nonzero;stroke:none"
         id="text6439">
        <tspan
           x="0 6.96 10.245 17.205"
           y="0"
           sodipodi:role="line"
           id="tspan6441">0.45</tspan>
      </text>
      <path
         d="m 27.426,86.938 2.23,0"
         style="fill:none;stroke:#000000;stroke-width:0.5;stroke-linecap:butt;stroke-linejoin:miter;stroke-miterlimit:3.25;stroke-dasharray:none;stroke-opacity:1"
         id="path6443"
         inkscape:connector-curvature="0" />
      <path
         d="m 27.426,94.375 2.23,0"
         style="fill:none;stroke:#000000;stroke-width:0.5;stroke-linecap:butt;stroke-linejoin:miter;stroke-miterlimit:3.25;stroke-dasharray:none;stroke-opacity:1"
         id="path6445"
         inkscape:connector-curvature="0" />
      <path
         d="m 27.426,101.812 2.23,0"
         style="fill:none;stroke:#000000;stroke-width:0.5;stroke-linecap:butt;stroke-linejoin:miter;stroke-miterlimit:3.25;stroke-dasharray:none;stroke-opacity:1"
         id="path6447"
         inkscape:connector-curvature="0" />
      <path
         d="m 27.426,109.25 2.23,0"
         style="fill:none;stroke:#000000;stroke-width:0.5;stroke-linecap:butt;stroke-linejoin:miter;stroke-miterlimit:3.25;stroke-dasharray:none;stroke-opacity:1"
         id="path6449"
         inkscape:connector-curvature="0" />
      <path
         d="m 27.426,116.688 3.715,0"
         style="fill:none;stroke:#000000;stroke-width:0.5;stroke-linecap:butt;stroke-linejoin:miter;stroke-miterlimit:3.25;stroke-dasharray:none;stroke-opacity:1"
         id="path6451"
         inkscape:connector-curvature="0" />
      <text
         transform="matrix(1,0,0,-1,0.212891,111.82944)"
         style="font-variant:normal;font-weight:normal;font-size:15px;font-family:'Linux Libertine Display';-inkscape-font-specification:LinLibertineDisplay;writing-mode:lr-tb;fill:#000000;fill-opacity:1;fill-rule:nonzero;stroke:none"
         id="text6453">
        <tspan
           x="0 6.96 10.245 17.205"
           y="0"
           sodipodi:role="line"
           id="tspan6455">0.50</tspan>
      </text>
      <path
         d="m 27.426,124.125 2.23,0"
         style="fill:none;stroke:#000000;stroke-width:0.5;stroke-linecap:butt;stroke-linejoin:miter;stroke-miterlimit:3.25;stroke-dasharray:none;stroke-opacity:1"
         id="path6457"
         inkscape:connector-curvature="0" />
      <path
         d="m 27.426,131.562 2.23,0"
         style="fill:none;stroke:#000000;stroke-width:0.5;stroke-linecap:butt;stroke-linejoin:miter;stroke-miterlimit:3.25;stroke-dasharray:none;stroke-opacity:1"
         id="path6459"
         inkscape:connector-curvature="0" />
      <path
         d="m 27.426,139 2.23,0"
         style="fill:none;stroke:#000000;stroke-width:0.5;stroke-linecap:butt;stroke-linejoin:miter;stroke-miterlimit:3.25;stroke-dasharray:none;stroke-opacity:1"
         id="path6461"
         inkscape:connector-curvature="0" />
      <path
         d="m 27.426,146.438 2.23,0"
         style="fill:none;stroke:#000000;stroke-width:0.5;stroke-linecap:butt;stroke-linejoin:miter;stroke-miterlimit:3.25;stroke-dasharray:none;stroke-opacity:1"
         id="path6463"
         inkscape:connector-curvature="0" />
      <path
         d="m 27.426,153.875 3.715,0"
         style="fill:none;stroke:#000000;stroke-width:0.5;stroke-linecap:butt;stroke-linejoin:miter;stroke-miterlimit:3.25;stroke-dasharray:none;stroke-opacity:1"
         id="path6465"
         inkscape:connector-curvature="0" />
      <text
         transform="matrix(1,0,0,-1,0.212891,149.01631)"
         style="font-variant:normal;font-weight:normal;font-size:15px;font-family:'Linux Libertine Display';-inkscape-font-specification:LinLibertineDisplay;writing-mode:lr-tb;fill:#000000;fill-opacity:1;fill-rule:nonzero;stroke:none"
         id="text6467">
        <tspan
           x="0 6.96 10.245 17.205"
           y="0"
           sodipodi:role="line"
           id="tspan6469">0.55</tspan>
      </text>
      <path
         d="m 27.426,161.312 2.23,0"
         style="fill:none;stroke:#000000;stroke-width:0.5;stroke-linecap:butt;stroke-linejoin:miter;stroke-miterlimit:3.25;stroke-dasharray:none;stroke-opacity:1"
         id="path6471"
         inkscape:connector-curvature="0" />
      <path
         d="m 27.426,168.75 2.23,0"
         style="fill:none;stroke:#000000;stroke-width:0.5;stroke-linecap:butt;stroke-linejoin:miter;stroke-miterlimit:3.25;stroke-dasharray:none;stroke-opacity:1"
         id="path6473"
         inkscape:connector-curvature="0" />
      <path
         d="m 27.426,176.188 2.23,0"
         style="fill:none;stroke:#000000;stroke-width:0.5;stroke-linecap:butt;stroke-linejoin:miter;stroke-miterlimit:3.25;stroke-dasharray:none;stroke-opacity:1"
         id="path6475"
         inkscape:connector-curvature="0" />
      <path
         d="m 27.426,183.625 2.23,0"
         style="fill:none;stroke:#000000;stroke-width:0.5;stroke-linecap:butt;stroke-linejoin:miter;stroke-miterlimit:3.25;stroke-dasharray:none;stroke-opacity:1"
         id="path6477"
         inkscape:connector-curvature="0" />
      <path
         d="m 27.426,191.062 3.715,0"
         style="fill:none;stroke:#000000;stroke-width:0.5;stroke-linecap:butt;stroke-linejoin:miter;stroke-miterlimit:3.25;stroke-dasharray:none;stroke-opacity:1"
         id="path6479"
         inkscape:connector-curvature="0" />
      <text
         transform="matrix(1,0,0,-1,0.212891,186.20318)"
         style="font-variant:normal;font-weight:normal;font-size:15px;font-family:'Linux Libertine Display';-inkscape-font-specification:LinLibertineDisplay;writing-mode:lr-tb;fill:#000000;fill-opacity:1;fill-rule:nonzero;stroke:none"
         id="text6481">
        <tspan
           x="0 6.96 10.245 17.205"
           y="0"
           sodipodi:role="line"
           id="tspan6483">0.60</tspan>
      </text>
      <path
         d="m 27.426,198.5 2.23,0"
         style="fill:none;stroke:#000000;stroke-width:0.5;stroke-linecap:butt;stroke-linejoin:miter;stroke-miterlimit:3.25;stroke-dasharray:none;stroke-opacity:1"
         id="path6485"
         inkscape:connector-curvature="0" />
      <path
         d="m 27.426,205.938 2.23,0"
         style="fill:none;stroke:#000000;stroke-width:0.5;stroke-linecap:butt;stroke-linejoin:miter;stroke-miterlimit:3.25;stroke-dasharray:none;stroke-opacity:1"
         id="path6487"
         inkscape:connector-curvature="0" />
      <path
         d="m 27.426,213.375 2.23,0"
         style="fill:none;stroke:#000000;stroke-width:0.5;stroke-linecap:butt;stroke-linejoin:miter;stroke-miterlimit:3.25;stroke-dasharray:none;stroke-opacity:1"
         id="path6489"
         inkscape:connector-curvature="0" />
      <path
         d="m 27.426,19.641 0,194.562"
         style="fill:none;stroke:#000000;stroke-width:0.5;stroke-linecap:butt;stroke-linejoin:miter;stroke-miterlimit:3.25;stroke-dasharray:none;stroke-opacity:1"
         id="path6491"
         inkscape:connector-curvature="0" />
      <text
         transform="matrix(1,0,0,-1,-0.290527,225.125)"
         style="font-variant:normal;font-weight:normal;font-size:20px;font-family:'Linux Libertine Display';-inkscape-font-specification:LinLibertineDisplay;writing-mode:lr-tb;fill:#000000;fill-opacity:1;fill-rule:nonzero;stroke:none"
         id="text6493">
        <tspan
           x="0 5.3200002 15.04 24.66"
           y="0"
           sodipodi:role="line"
           id="tspan6495">idos</tspan>
      </text>
      <text
         transform="matrix(1,0,0,-1,30.629473,225.125)"
         style="font-variant:normal;font-weight:normal;font-size:20px;font-family:Mathematica;-inkscape-font-specification:Mathematica;writing-mode:lr-tb;fill:#000000;fill-opacity:1;fill-rule:nonzero;stroke:none"
         id="text6497">
        <tspan
           x="0"
           y="0"
           id="tspan6499">(</tspan>
      </text>
      <text
         transform="matrix(1,0,0,-1,37.029473,225.125)"
         style="font-variant:normal;font-weight:normal;font-size:20px;font-family:'Linux Libertine Display';-inkscape-font-specification:LinLibertineDisplay;writing-mode:lr-tb;fill:#000000;fill-opacity:1;fill-rule:nonzero;stroke:none"
         id="text6501">
        <tspan
           x="0"
           y="0"
           id="tspan6503">E</tspan>
      </text>
      <text
         transform="matrix(1,0,0,-1,48.349473,225.125)"
         style="font-variant:normal;font-weight:normal;font-size:20px;font-family:Mathematica;-inkscape-font-specification:Mathematica;writing-mode:lr-tb;fill:#000000;fill-opacity:1;fill-rule:nonzero;stroke:none"
         id="text6505">
        <tspan
           x="0"
           y="0"
           id="tspan6507">)</tspan>
      </text>
    </g>
    <g
       id="g5203"
       transform="matrix(2.3054222,0,0,2.3054222,-471.67199,-815.29322)"
       style="opacity:0.5">
      <path
         inkscape:connector-curvature="0"
         id="path470"
         style="fill:none;stroke:#00688b;stroke-width:0.77499998;stroke-linecap:butt;stroke-linejoin:round;stroke-miterlimit:4;stroke-dasharray:none;stroke-opacity:0.94117599"
         d="m 299.96241,664.3639 c 0,8.94625 -7.24625,16.1925 -16.19125,16.1925 -8.94,0 -16.19125,-7.24625 -16.19125,-16.1925 0,-8.94 7.25125,-16.19125 16.19125,-16.19125 8.945,0 16.19125,7.25125 16.19125,16.19125 z" />
      <path
         inkscape:connector-curvature="0"
         id="path474"
         style="fill:none;stroke:#00688b;stroke-width:0.755;stroke-linecap:round;stroke-linejoin:miter;stroke-miterlimit:4;stroke-dasharray:none;stroke-opacity:0.94117599"
         d="m 503.85866,663.79265 c 0,38.79875 -31.455,70.255 -70.25375,70.255 -38.80375,0 -70.25875,-31.45625 -70.25875,-70.255 0,-38.80375 31.455,-70.25875 70.25875,-70.25875 38.79875,0 70.25375,31.455 70.25375,70.25875 z" />
      <path
         inkscape:connector-curvature="0"
         id="path478"
         style="fill:none;stroke:#00688b;stroke-width:0.755;stroke-linecap:round;stroke-linejoin:miter;stroke-miterlimit:4;stroke-dasharray:none;stroke-opacity:1"
         d="m 278.95116,648.79765 128.4475,-50.18" />
      <path
         inkscape:connector-curvature="0"
         id="path480"
         style="fill:none;stroke:#00688b;stroke-width:0.755;stroke-linecap:round;stroke-linejoin:miter;stroke-miterlimit:4;stroke-dasharray:none;stroke-opacity:1"
         d="m 279.15241,680.0339 129.69125,49.56" />
    </g>
  </g>
</svg>
