<?xml version="1.0" encoding="UTF-8" standalone="no"?>
<!-- Created with Inkscape (http://www.inkscape.org/) -->

<svg
   xmlns:dc="http://purl.org/dc/elements/1.1/"
   xmlns:cc="http://creativecommons.org/ns#"
   xmlns:rdf="http://www.w3.org/1999/02/22-rdf-syntax-ns#"
   xmlns:svg="http://www.w3.org/2000/svg"
   xmlns="http://www.w3.org/2000/svg"
   xmlns:sodipodi="http://sodipodi.sourceforge.net/DTD/sodipodi-0.dtd"
   xmlns:inkscape="http://www.inkscape.org/namespaces/inkscape"
   width="210mm"
   height="297mm"
   viewBox="0 0 744.09448819 1052.3622047"
   id="svg4631"
   version="1.1"
   inkscape:version="0.91 r13725"
   sodipodi:docname="ldos.svg">
  <defs
     id="defs4633" />
  <sodipodi:namedview
     id="base"
     pagecolor="#ffffff"
     bordercolor="#666666"
     borderopacity="1.0"
     inkscape:pageopacity="0.0"
     inkscape:pageshadow="2"
     inkscape:zoom="1.979899"
     inkscape:cx="384.75729"
     inkscape:cy="594.90106"
     inkscape:document-units="px"
     inkscape:current-layer="layer1"
     showgrid="false"
     inkscape:window-width="1920"
     inkscape:window-height="1021"
     inkscape:window-x="0"
     inkscape:window-y="27"
     inkscape:window-maximized="1" />
  <metadata
     id="metadata4636">
    <rdf:RDF>
      <cc:Work
         rdf:about="">
        <dc:format>image/svg+xml</dc:format>
        <dc:type
           rdf:resource="http://purl.org/dc/dcmitype/StillImage" />
        <dc:title></dc:title>
      </cc:Work>
    </rdf:RDF>
  </metadata>
  <g
     inkscape:label="Calque 1"
     inkscape:groupmode="layer"
     id="layer1">
    <g
       transform="matrix(0.74120448,0,0,-0.74120448,392.67397,768.74082)"
       id="g7519">
      <path
         d="M 0,0 360,0 360,223 0,223 0,0 Z"
         style="fill:#ffffff;fill-opacity:1;fill-rule:nonzero;stroke:none"
         id="path7521"
         inkscape:connector-curvature="0" />
      <path
         d="M 0,223 360,223 360,0 0,0 0,223 Z"
         style="fill:none;stroke:#ffffff;stroke-width:0.03;stroke-linecap:butt;stroke-linejoin:miter;stroke-miterlimit:10;stroke-dasharray:none;stroke-opacity:1"
         id="path7523"
         inkscape:connector-curvature="0" />
      <path
         d="m 17.129,30.523 0.094,0 0.097,0.004 0.196,0 0.382,0.004 0.774,0.008 0.191,0 0.196,0.004 0.386,0.004 0.77,0.008 0.097,0.004 0.29,0 0.386,0.007 0.774,0.008 0.093,0.004 0.098,0 0.195,0.004 0.383,0.004 0.774,0.016 0.211,0 0.207,0.003 0.418,0.008 0.839,0.02 0.102,0 0.106,0.004 0.21,0.004 0.418,0.007 0.836,0.024 0.106,0.004 0.105,0 0.207,0.008 0.422,0.011 0.102,0.004 0.105,0.004 0.211,0.004 0.418,0.016 0.106,0.004 0.101,0.003 0.211,0.008 0.418,0.016 0.836,0.039 0.102,0.004 0.293,0.012 0.39,0.023 0.195,0.008 0.196,0.012 0.39,0.027 0.098,0.004 0.098,0.008 0.195,0.011 1.172,0.094 0.098,0.012 0.097,0.008 0.196,0.019 0.39,0.043 0.391,0.047 0.39,0.051 0.098,0.015 0.098,0.012 0.39,0.063 0.196,0.035 0.097,0.015 0.098,0.02 0.195,0.035 0.391,0.086 0.098,0.023 0.093,0.024 0.192,0.047 0.097,0.027 0.094,0.027 0.192,0.055 0.195,0.063 0.191,0.066 0.383,0.149 0.094,0.042 0.097,0.043 0.192,0.094 0.094,0.051 0.097,0.051 0.192,0.113 0.093,0.059 0.098,0.062 0.192,0.141 0.093,0.074 0.098,0.078 0.191,0.172 0.098,0.094 0.094,0.101 0.097,0.106 0.094,0.113 0.098,0.121 0.094,0.129 0.191,0.289 0.098,0.16 0.093,0.172 0.098,0.188 0.094,0.203 0.097,0.218 0.094,0.243 0.098,0.261 0.094,0.286 0.097,0.316 0.094,0.348 0.098,0.386 0.093,0.43 0.098,0.477 0.094,0.539 0.097,0.609 0.098,0.691 0.094,0.793 0.097,0.911 0.094,1.054 0.098,1.239 0.094,1.464 0.097,1.75 0.094,2.121 0.098,2.602 0.101,3.551 0.106,4.609 0.105,6.113 0.102,8.309 0.105,11.563 0.102,16.328 0.105,22.8 0.106,29.489 0.101,30.972 0.106,21.43 0.101,6.375 0.106,-3.234 0.105,-7.965 0.102,-11.61 0.105,-10.789 0.102,-4.714 0.105,0.191 0.106,-0.332 0.101,-4.234 0.106,-10.043 0.101,-16.696 0.106,-20.011 0.105,-17.782 0.102,-12.937 0.105,-8.274 0.102,-4.472 0.105,-1.266 0.106,1.82 0.101,5.223 0.106,9.176 0.101,12.976 0.106,14.079 0.105,10.035 0.102,3.277 0.105,-1.711 0.102,-2.375 0.105,-0.07 0.106,0.441 0.102,-1.105 0.105,-1.028 0.102,0.973 0.105,1.039 0.105,-3.156 0.102,-9.957 0.105,-15.078 0.102,-15.266 0.106,-12.211 0.105,-8.801 0.102,-6.152 0.105,-4.297 0.102,-3.004 0.105,-2.082 0.106,-1.39 0.101,-0.836 0.106,-0.352 0.101,0.098 0.106,0.574 0.105,1.117 0.102,1.801 0.105,2.707 0.102,3.977 0.105,5.808 0.106,8.359 0.101,11.454 0.098,12.687 0.097,11.621 0.098,7.258 0.094,2.602 0.098,-0.313 0.097,-1.637 0.098,-1.828 0.097,-1.926 0.098,-3.406 0.094,-6.316 0.098,-8.289 0.097,-7.227 0.098,-4.031 0.098,-0.195 0.097,3.632 0.094,6.79 0.098,7.832 0.097,5.949 0.098,3.133 0.098,0.785 0.093,-1.977 0.098,-4.707 0.098,-5.648 0.097,-3.707 0.098,0.347 0.098,4.891 0.093,8.18 0.098,8.578 0.098,6.312 0.097,3.906 0.098,2.571 0.098,-0.067 0.093,-5.441 0.098,-11.883 0.098,-15.512 0.097,-14.668 0.098,-11.617 0.094,-8.558 0.097,-6.215 0.098,-4.559 0.098,-3.41 0.097,-2.605 0.098,-2.036 0.094,-1.613 0.097,-1.308 0.098,-1.071 0.098,-0.89 0.097,-0.75 0.098,-0.637 0.094,-0.547 0.097,-0.473 0.098,-0.41 0.098,-0.363 0.097,-0.316 0.098,-0.282 0.094,-0.25 0.097,-0.222 0.098,-0.2 0.098,-0.179 0.097,-0.16 0.094,-0.145 0.098,-0.133 0.098,-0.117 0.097,-0.109 0.106,-0.106 0.105,-0.093 0.106,-0.083 0.105,-0.074 0.102,-0.066 0.105,-0.059 0.106,-0.051 0.105,-0.043 0.106,-0.039 0.105,-0.031 0.105,-0.027 0.106,-0.02 0.211,-0.023 0.207,0 0.105,0.008 0.106,0.015 0.105,0.02 0.106,0.027 0.105,0.035 0.106,0.039 0.105,0.047 0.106,0.055 0.105,0.062 0.102,0.075 0.105,0.086 0.106,0.093 0.105,0.11 0.106,0.121 0.105,0.14 0.105,0.157 0.106,0.179 0.105,0.204 0.106,0.23 0.101,0.266 0.106,0.308 0.105,0.356 0.106,0.414 0.105,0.488 0.106,0.578 0.105,0.692 0.106,0.839 0.105,1.032 0.106,1.285 0.105,1.633 0.102,2.113 0.105,2.805 0.106,3.816 0.105,5.309 0.106,7.519 0.105,10.551 0.105,13.773 0.106,14.711 0.105,10.5 0.106,3.11 0.101,-2.973 0.106,-5.16 0.105,-2.973 0.106,-0.492 0.105,-1.543 0.106,-4.434 0.105,-5.98 0.106,-4.836 0.101,-1.336 0.106,2.231 0.101,3.878 0.102,3.352 0.105,1.723 0.102,-0.219 0.105,-1.895 0.102,-4.156 0.102,-7.812 0.105,-9.907 0.102,-8.906 0.105,-6.656 0.102,-4.594 0.105,-3.058 0.102,-1.938 0.101,-1.098 0.106,-0.394 0.101,0.262 0.106,0.961 0.101,1.804 0.102,2.918 0.105,4.446 0.102,6.449 0.105,8.472 0.102,8.899 0.105,6.094 0.102,2.046 0.101,-0.273 0.106,-0.84 0.101,-0.273 0.106,0.07 0.102,-0.055 0.101,-0.183 0.106,0.047 0.101,0.742 0.106,0.539 0.101,-1.254 0.102,-4.988 0.105,-8.438 0.102,-8.754 0.105,-6.933 0.102,-4.856 0.105,-3.203 0.102,-1.996 0.101,-1.086 0.106,-0.34 0.101,0.348 0.106,1.078 0.101,1.957 0.102,3.109 0.105,4.696 0.102,6.781 0.106,8.973 0.101,9.683 0.102,7.262 0.105,3.707 0.102,1.73 0.105,0.188 0.102,-1.711 0.105,-3.316 0.102,-3.887 0.101,-2.328 0.106,1.191 0.101,4.688 0.098,5.668 0.094,4.722 0.097,2.383 0.098,0.543 0.094,1.461 0.097,4.008 0.098,4.527 0.094,1.336 0.098,-4.414 0.097,-10.551 0.094,-13.648 0.098,-12.742 0.093,-10.036 0.098,-7.386 0.098,-5.367 0.093,-3.942 0.098,-2.953 0.098,-2.258 0.093,-1.762 0.098,-1.402 0.098,-1.133 0.094,-0.929 0.097,-0.774 0.098,-0.652 0.094,-0.555 0.097,-0.472 0.094,-0.415 0.098,-0.359 0.097,-0.316 0.094,-0.278 0.098,-0.246 0.097,-0.222 0.094,-0.2 0.098,-0.175 0.097,-0.164 0.094,-0.145 0.098,-0.137 0.094,-0.121 0.097,-0.109 0.098,-0.106 0.094,-0.093 0.097,-0.086 0.098,-0.082 0.094,-0.075 0.097,-0.07 0.098,-0.062 0.191,-0.118 0.094,-0.05 0.098,-0.051 0.097,-0.047 0.094,-0.043 0.098,-0.039 0.098,-0.035 0.191,-0.071 0.098,-0.031 0.093,-0.027 0.098,-0.027 0.094,-0.028 0.195,-0.047 0.191,-0.039 0.106,-0.019 0.102,-0.02 0.316,-0.047 0.101,-0.015 0.211,-0.024 0.102,-0.008 0.105,-0.011 0.211,-0.016 0.102,-0.004 0.105,-0.008 0.106,-0.004 0.101,-0.003 0.106,0 0.105,-0.004 0.418,0 0.102,0.004 0.316,0.011 0.102,0.008 0.211,0.016 0.101,0.008 0.106,0.011 0.105,0.008 0.106,0.016 0.101,0.011 0.211,0.032 0.106,0.019 0.101,0.016 0.211,0.043 0.102,0.023 0.211,0.055 0.105,0.031 0.102,0.031 0.105,0.032 0.207,0.078 0.106,0.043 0.211,0.094 0.101,0.054 0.106,0.059 0.105,0.062 0.207,0.141 0.106,0.082 0.105,0.086 0.102,0.098 0.105,0.105 0.106,0.113 0.101,0.125 0.106,0.141 0.105,0.156 0.098,0.16 0.097,0.18 0.098,0.199 0.098,0.227 0.097,0.25 0.094,0.285 0.098,0.324 0.098,0.375 0.097,0.43 0.098,0.5 0.097,0.586 0.098,0.699 0.098,0.836 0.097,1.023 0.098,1.258 0.098,1.582 0.097,2.02 0.098,2.636 0.098,3.52 0.097,4.789 0.098,6.613 0.098,9.067 0.093,11.777 0.098,13.18 0.098,10.937 0.097,5.598 0.098,0.734 0.098,-2.461 0.097,-3.672 0.098,-2.5 0.098,-1.652 0.097,-3.387 0.098,-6.246 0.098,-8.113 0.097,-7.984 0.098,-6.028 0.098,-3.332 0.097,-0.593 0.098,2.035 0.094,4.351 0.097,5.606 0.098,5.109 0.098,3.442 0.097,1.394 0.098,-0.488 0.098,-1.344 0.097,-0.957 0.098,-1.34 0.098,-4.137 0.097,-7.015 0.098,-7.356 0.098,-5.836 0.097,-3.945 0.098,-2.293 0.098,-0.898 0.097,0.375 0.094,1.703 0.098,3.25 0.097,5.066 0.098,6.766 0.098,7.121 0.097,4.875 0.098,1.441 0.098,-0.394 0.097,-0.797 0.094,-0.797 0.094,0.102 0.097,1.332 0.094,1.691 0.098,1.52 0.093,1.347 0.098,1.203 0.094,1.153 0.098,0.258 0.093,-2.27 0.094,-6.113 0.098,-8.887 0.093,-8.887 0.098,-7.23 0.094,-5.387 0.098,-3.922 0.093,-2.871 0.098,-2.137 0.094,-1.617 0.097,-1.25 0.094,-0.98 0.094,-0.778 0.098,-0.621 0.093,-0.504 0.098,-0.406 0.094,-0.328 0.097,-0.262 0.094,-0.207 0.098,-0.156 0.093,-0.117 0.094,-0.078 0.098,-0.039 0.094,-0.004 0.097,0.035 0.094,0.066 0.098,0.11 0.093,0.148 0.098,0.199 0.094,0.25 0.097,0.313 0.094,0.39 0.094,0.481 0.098,0.594 0.093,0.742 0.098,0.933 0.094,1.188 0.097,1.535 0.094,2.012 0.098,2.695 0.094,3.672 0.093,5.043 0.098,6.836 0.094,8.637 0.097,9.187 0.094,7.102 0.098,3.597 0.094,1.063 0.097,-0.629 0.094,-2.148 0.098,-3.356 0.093,-4.207 0.094,-4.641 0.098,-3.773 0.101,-1.535 0.106,1.492 0.101,3.348 0.106,3.324 0.105,2.578 0.102,1.09 0.105,-2.172 0.102,-4.895 0.105,-4.523 0.102,-1.801 0.105,1.672 0.102,4.875 0.105,6.34 0.102,4.59 0.105,1.695 0.102,1.078 0.106,1.153 0.101,-1.399 0.106,-5.953 0.101,-9.344 0.106,-9.625 0.105,-7.793 0.102,-5.66 0.105,-3.988 0.102,-2.82 0.105,-2.024 0.102,-1.469 0.105,-1.074 0.102,-0.789 0.105,-0.562 0.102,-0.391 0.105,-0.238 0.102,-0.114 0.105,0.012 0.102,0.133 0.105,0.254 0.102,0.394 0.105,0.559 0.106,0.758 0.101,1.008 0.106,1.347 0.101,1.801 0.106,2.449 0.101,3.391 0.106,4.765 0.101,6.711 0.106,9.118 0.101,10.953 0.106,10.039 0.102,5.637 0.105,1.05 0.102,-0.117 0.105,0.317 0.102,-1.032 0.105,-2.195 0.105,-0.531 0.102,1.457 0.106,0.226 0.101,-3.566 0.106,-6.781 0.101,-7.543 0.106,-5.75 0.101,-2.758 0.106,0.437 0.093,3.36 0.098,6.258 0.098,8.609 0.097,9.144 0.098,7.243 0.094,4.082 0.097,1.375 0.098,-0.676 0.098,-2.852 0.093,-3.414 0.098,-0.578 0.098,4.324 0.097,8.7 0.094,10.031 0.098,8.008 0.098,4.73 0.097,0.359 0.094,-6.5 0.098,-14.031 0.097,-17.578 0.098,-16.113 0.094,-12.563 0.097,-9.203 0.098,-6.672 0.098,-4.886 0.093,-3.661 0.098,-2.793 0.098,-2.179 0.097,-1.731 0.094,-1.398 0.098,-1.149 0.097,-0.953 0.098,-0.8 0.094,-0.68 0.097,-0.586 0.098,-0.504 0.098,-0.441 0.093,-0.387 0.098,-0.344 0.098,-0.301 0.097,-0.273 0.094,-0.242 0.098,-0.219 0.098,-0.199 0.097,-0.18 0.094,-0.164 0.098,-0.148 0.097,-0.137 0.098,-0.129 0.094,-0.117 0.097,-0.106 0.098,-0.101 0.098,-0.094 0.093,-0.086 0.196,-0.156 0.097,-0.071 0.094,-0.066 0.195,-0.121 0.098,-0.055 0.094,-0.054 0.195,-0.094 0.211,-0.094 0.207,-0.082 0.106,-0.039 0.105,-0.035 0.211,-0.067 0.102,-0.031 0.105,-0.031 0.211,-0.055 0.105,-0.023 0.106,-0.028 0.207,-0.043 0.105,-0.023 0.317,-0.059 0.101,-0.019 0.106,-0.016 0.211,-0.035 0.211,-0.031 0.207,-0.027 0.422,-0.051 0.101,-0.012 0.317,-0.035 0.105,-0.008 0.105,-0.012 0.208,-0.019 0.21,-0.016 0.211,-0.019 0.418,-0.032 0.106,-0.007 0.105,-0.004 0.207,-0.016 0.422,-0.023 0.102,-0.008 0.105,-0.004 0.211,-0.012 0.418,-0.019 0.106,-0.008 0.101,-0.004 0.207,-0.008 0.41,-0.015 0.102,-0.004 0.105,-0.004 0.204,-0.008 0.414,-0.016 0.101,-0.004 0.102,0 0.207,-0.007 0.41,-0.012 0.824,-0.02 0.102,-0.004 0.105,0 0.207,-0.007 0.41,-0.008 0.102,0 0.105,-0.004 0.203,-0.004 0.415,-0.008 0.101,0 0.102,-0.004 0.207,0 0.41,-0.008 0.824,-0.011 0.098,0 0.093,-0.004 0.192,0 0.387,-0.004 0.093,-0.004 0.289,0 0.383,-0.004 0.098,-0.004 0.285,0 0.387,-0.004 0.765,-0.004 0.098,-0.004 0.285,0 0.387,-0.003 0.383,0 0.383,-0.004 0.578,0 0.191,-0.004 0.977,0 0.207,-0.004 4.164,0 0.101,0.004 1.145,0 0.105,0.004 0.731,0 0.094,0.004 0.683,0 0.094,0.003 0.293,0 0.387,0.004 0.195,0 0.195,0.004 0.387,0 0.777,0.008 0.098,0.004 0.293,0 0.387,0.004 0.097,0.004 0.098,0 0.195,0.004 0.387,0.004 0.098,0 0.097,0.004 0.196,0 0.386,0.007 0.778,0.012 0.105,0.004 0.106,0 0.21,0.008 0.422,0.008 0.106,0 0.105,0.004 0.211,0.003 0.418,0.012 0.106,0.004 0.105,0 0.211,0.008 0.422,0.012 0.422,0.015 0.422,0.012 0.101,0.004 0.106,0.008 0.633,0.023 0.105,0.008 0.105,0.004 0.211,0.011 0.422,0.02 0.106,0.008 0.105,0.004 0.207,0.015 0.106,0.004 0.738,0.055 0.422,0.035 0.101,0.008 0.106,0.012 0.207,0.019 0.102,0.012 0.105,0.008 0.207,0.023 0.102,0.012 0.101,0.015 0.207,0.024 0.414,0.062 0.106,0.016 0.101,0.016 0.207,0.035 0.102,0.019 0.105,0.02 0.207,0.043 0.102,0.023 0.105,0.024 0.207,0.051 0.102,0.027 0.105,0.031 0.204,0.059 0.105,0.035 0.102,0.035 0.207,0.074 0.105,0.043 0.102,0.043 0.207,0.098 0.105,0.051 0.102,0.054 0.105,0.059 0.102,0.062 0.101,0.071 0.106,0.07 0.207,0.16 0.101,0.09 0.106,0.098 0.101,0.105 0.106,0.117 0.101,0.125 0.106,0.133 0.101,0.153 0.102,0.164 0.106,0.179 0.101,0.199 0.106,0.223 0.101,0.25 0.106,0.281 0.101,0.317 0.106,0.359 0.101,0.414 0.098,0.442 0.094,0.504 0.097,0.589 0.098,0.688 0.098,0.808 0.093,0.969 0.098,1.168 0.098,1.434 0.093,1.777 0.098,2.254 0.098,2.902 0.093,3.825 0.098,5.14 0.098,7.039 0.094,9.699 0.097,13.063 0.098,16.109 0.094,16.125 0.097,10.899 0.098,3.156 0.094,-1.91 0.097,-3.356 0.098,-4.265 0.094,-6.125 0.097,-6.649 0.098,-4.011 0.098,-0.106 0.093,1.828 0.098,0.879 0.098,-0.676 0.093,-2.257 0.098,-5.223 0.098,-8.719 0.094,-10.472 0.097,-9.672 0.098,-7.496 0.094,-5.258 0.097,-3.434 0.098,-1.996 0.094,-0.797 0.097,0.317 0.098,1.504 0.094,2.914 0.097,4.636 0.098,6.551 0.094,7.902 0.097,7.461 0.098,4.789 0.098,0.922 0.093,-1.929 0.098,-1.805 0.098,0.387 0.094,1.695 0.097,0.363 0.098,-1.691 0.094,-1.434 0.097,0.719 0.098,1.875 0.094,0.016 0.097,-3.809 0.098,-7.176 0.094,-8.574 0.097,-7.859 0.098,-6.161 0.106,-4.812 0.101,-3.348 0.106,-2.32 0.105,-1.605 0.106,-1.086 0.101,-0.692 0.106,-0.367 0.105,-0.078 0.105,0.207 0.102,0.523 0.105,0.891 0.106,1.367 0.105,2.024 0.102,2.957 0.105,4.293 0.106,6.074 0.105,7.902 0.102,8.481 0.105,6.632 0.106,3.129 0.105,-0.328 0.102,-1.886 0.105,-0.817 0.106,0.293 0.105,-1.687 0.106,-5.149 0.101,-6.051 0.106,-4.136 0.105,-1.196 0.106,1.875 0.101,4.68 0.106,6.125 0.105,4.574 0.106,0.965 0.101,-1.414 0.106,-2.195 0.105,-2.496 0.106,-1.164 0.101,1.839 0.106,4.649 0.105,5.558 0.106,4.813 0.101,3.168 0.106,0.586 0.105,-3.043 0.106,-7.727 0.105,-10.898 0.102,-10.418 0.105,-8.074 0.106,-5.782 0.105,-4.093 0.102,-2.946 0.105,-2.171 0.106,-1.637 0.105,-1.266 0.102,-0.996 0.105,-0.801 0.106,-0.652 0.105,-0.539 0.102,-0.453 0.105,-0.379 0.106,-0.328 0.105,-0.278 0.102,-0.242 0.097,-0.199 0.098,-0.172 0.098,-0.156 0.097,-0.137 0.098,-0.121 0.098,-0.109 0.097,-0.098 0.098,-0.086 0.097,-0.078 0.098,-0.066 0.098,-0.063 0.097,-0.055 0.098,-0.047 0.098,-0.042 0.097,-0.036 0.098,-0.031 0.098,-0.027 0.097,-0.024 0.196,-0.031 0.097,-0.008 0.098,-0.004 0.098,0 0.097,0.004 0.098,0.008 0.098,0.012 0.097,0.015 0.098,0.02 0.098,0.027 0.097,0.032 0.098,0.035 0.098,0.043 0.097,0.047 0.098,0.054 0.098,0.063 0.097,0.074 0.098,0.078 0.097,0.09 0.098,0.101 0.098,0.114 0.097,0.129 0.098,0.144 0.098,0.164 0.097,0.188 0.098,0.215 0.098,0.246 0.097,0.281 0.098,0.332 0.098,0.387 0.097,0.457 0.098,0.543 0.098,0.66 0.097,0.805 0.098,0.996 0.098,1.261 0.097,1.621 0.098,2.125 0.098,2.856 0.097,3.902 0.098,5.391 0.098,7.34 0.097,9.265 0.098,9.66 0.094,6.993 0.097,2.683 0.094,-0.308 0.098,-1.539 0.093,-1.942 0.098,-2.234 0.094,-2.465 0.098,-2.531 0.093,-1.641 0.098,-0.164 0.094,0.5 0.097,0.484 0.094,0.489 0.098,-0.785 0.094,-3.934 0.097,-6.578 0.094,-6.86 0.098,-5.535 0.093,-3.906 0.098,-2.512 0.094,-1.394 0.097,-0.457 0.094,0.418 0.098,1.363 0.094,2.496 0.097,3.895 0.094,5.445 0.098,6.426 0.093,5.429 0.098,2.129 0.094,-0.855 0.097,-1.09 0.094,0.52 0.098,1.656 0.094,1.254 0.097,0.027 0.094,-1.394 0.098,-2.665 0.093,-3.859 0.098,-5.117 0.094,-5.395 0.097,-4.48 0.094,-3.149 0.098,-1.921 0.094,-0.887 0.097,0.035 0.094,0.949 0.098,1.981 0.093,3.226 0.098,4.657 0.094,5.886 0.097,6.117 0.094,5.153 0.098,3.828 0.094,1.91 0.097,-0.828 0.094,-2.59 0.098,-1.828 0.093,0.82 0.098,3.524 0.094,4.328 0.098,2.57 0.093,0.625 0.098,0.832 0.094,1.547 0.105,-0.594 0.102,-5.933 0.105,-9.926 0.102,-10.168 0.105,-8.16 0.106,-5.918 0.101,-4.199 0.106,-3.012 0.101,-2.203 0.106,-1.656 0.101,-1.274 0.106,-1 0.105,-0.797 0.102,-0.644 0.105,-0.535 0.102,-0.442 0.105,-0.375 0.102,-0.316 0.105,-0.274 0.106,-0.234 0.101,-0.203 0.106,-0.176 0.101,-0.156 0.106,-0.137 0.101,-0.117 0.106,-0.106 0.105,-0.093 0.102,-0.082 0.105,-0.071 0.102,-0.062 0.105,-0.055 0.102,-0.047 0.105,-0.043 0.106,-0.035 0.101,-0.027 0.106,-0.024 0.101,-0.019 0.106,-0.012 0.102,-0.008 0.105,-0.004 0.105,0 0.102,0.004 0.106,0.012 0.101,0.016 0.106,0.019 0.105,0.027 0.102,0.032 0.105,0.035 0.102,0.043 0.105,0.051 0.102,0.054 0.105,0.063 0.106,0.074 0.101,0.082 0.106,0.094 0.101,0.101 0.106,0.118 0.101,0.132 0.106,0.153 0.105,0.168 0.102,0.195 0.105,0.223 0.102,0.257 0.105,0.297 0.098,0.321 0.094,0.375 0.097,0.437 0.098,0.516 0.098,0.621 0.097,0.746 0.094,0.918 0.098,1.141 0.097,1.445 0.098,1.867 0.098,2.465 0.093,3.316 0.098,4.543 0.098,6.254 0.097,8.363 0.098,10.125 0.094,9.844 0.097,6.473 0.098,1.941 0.098,-0.734 0.097,-1.805 0.094,-3.769 0.098,-5.922 0.097,-5.656 0.098,-3.059 0.098,0.285 0.093,3.02 0.098,3.695 0.098,1.66 0.097,-1.265 0.098,-2.918 0.094,-3.77 0.097,-4.395 0.098,-3.781 0.098,-1.84 0.097,0.618 0.094,2.921 0.098,4.282 0.098,4.14 0.097,3.301 0.098,2.52 0.094,1.449 0.097,0.316 0.098,-0.39 0.098,-0.68 0.097,-2.234 0.094,-5.637 0.098,-7.957 0.097,-7.653 0.098,-6.031 0.098,-4.379 0.093,-3.101 0.098,-2.184 0.098,-1.531 0.097,-1.051 0.094,-0.687 0.098,-0.387 0.097,-0.133 0.098,0.113 0.098,0.36 0.093,0.644 0.098,0.977 0.098,1.41 0.097,1.984 0.106,3.071 0.105,4.433 0.106,6.328 0.101,8.461 0.106,9.414 0.105,7.149 0.106,2.906 0.105,0.176 0.106,-0.652 0.105,-0.188 0.106,0.23 0.101,0.126 0.106,0 0.105,0.21 0.106,0.981 0.105,0.851 0.106,-1.019 0.105,-4.902 0.105,-8.352 0.102,-8.457 0.106,-6.402 0.105,-4.133 0.105,-2.27 0.106,-0.781 0.105,0.555 0.106,1.937 0.105,3.594 0.102,5.754 0.105,8.441 0.106,10.91 0.105,11.047 0.106,7.93 0.105,4.391 0.106,1.679 0.105,-0.777 0.102,-1.926 0.105,-0.226 0.106,3.886 0.105,6.996 0.106,6.614 0.105,4.461 0.106,3.386 0.105,0.719 0.102,-6.992 0.105,-15.453 0.106,-18.106 0.105,-15.367 0.105,-11.308 0.106,-7.989 0.105,-5.668 0.106,-4.105 0.101,-3.047 0.106,-2.324 0.105,-1.805 0.106,-1.433 0.105,-1.157 0.106,-0.949 0.105,-0.789 0.106,-0.664 0.101,-0.567 0.106,-0.484 0.105,-0.418 0.106,-0.363 0.105,-0.324 0.102,-0.278 0.105,-0.246 0.102,-0.222 0.101,-0.2 0.106,-0.179 0.101,-0.164 0.106,-0.149 0.101,-0.137 0.102,-0.125 0.105,-0.113 0.102,-0.105 0.105,-0.098 0.102,-0.09 0.102,-0.082 0.207,-0.148 0.105,-0.067 0.102,-0.066 0.101,-0.059 0.106,-0.054 0.203,-0.102 0.207,-0.09 0.105,-0.039 0.102,-0.039 0.207,-0.074 0.101,-0.031 0.106,-0.032 0.203,-0.058 0.106,-0.028 0.101,-0.027 0.207,-0.047 0.102,-0.023 0.105,-0.024 0.203,-0.039 0.106,-0.019 0.101,-0.02 0.207,-0.035 0.41,-0.062 0.106,-0.012 0.102,-0.016 0.207,-0.023 0.101,-0.012 0.106,-0.012 0.207,-0.023 0.203,-0.024 0.207,-0.019 0.414,-0.035 0.094,-0.008 0.097,-0.008 0.192,-0.012 0.386,-0.027 0.094,-0.008 0.098,-0.004 0.574,-0.035 0.195,-0.008 0.192,-0.011 0.383,-0.02 0.195,-0.008 0.574,-0.023 0.098,0 0.093,-0.004 0.196,-0.008 0.383,-0.012 0.097,-0.003 0.094,-0.004 0.191,-0.004 0.387,-0.012 0.098,-0.004 0.094,0 0.191,-0.008 0.387,-0.007 0.769,-0.016 0.102,-0.004 0.105,0 0.207,-0.004 0.418,-0.008 0.106,0 0.105,-0.004 0.207,-0.004 0.418,-0.003 0.102,-0.004 0.105,0 0.207,-0.004 0.418,-0.004 0.836,-0.012 0.207,0 0.211,-0.004 0.414,-0.004 0.418,0 0.418,-0.004 0.102,0 0.105,-0.004 0.211,0 0.414,-0.003 0.418,0 0.418,-0.004 0.582,0 0.195,-0.004 0.973,0 0.195,-0.004 4.086,0 0.196,0.004 0.953,0 0.191,0.004 0.766,0 0.379,0.004 0.382,0 0.383,0.003 0.192,0 0.187,0.004 0.383,0 0.098,0.004 0.285,0 0.383,0.004 0.187,0 0.192,0.004 0.382,0.004 0.762,0.008 0.106,0 0.101,0.004 0.207,0 0.414,0.008 0.106,0 0.101,0.003 0.207,0 0.414,0.008 0.106,0 0.101,0.004 1.45,0.028 0.105,0.003 0.102,0 0.207,0.008 0.414,0.008 0.105,0.004 0.102,0.004 0.207,0.004 0.414,0.011 0.105,0.004 0.102,0.004 0.207,0.008 0.414,0.012 0.105,0.004 0.102,0.004 0.207,0.007 0.414,0.02 0.195,0.008 0.192,0.008 0.387,0.019 0.097,0.004 0.098,0.008 0.191,0.012 0.387,0.019 0.098,0.008 0.093,0.008 0.196,0.011 0.386,0.028 0.098,0.008 0.094,0.007 0.195,0.016 0.387,0.039 0.094,0.008 0.097,0.012 0.196,0.019 0.093,0.012 0.098,0.008 0.191,0.023 0.098,0.012 0.098,0.015 0.191,0.024 0.387,0.059 0.097,0.019 0.098,0.016 0.192,0.035 0.195,0.039 0.191,0.039 0.098,0.023 0.098,0.02 0.191,0.051 0.098,0.023 0.093,0.027 0.196,0.059 0.105,0.031 0.106,0.035 0.207,0.079 0.105,0.039 0.106,0.047 0.207,0.093 0.105,0.051 0.106,0.055 0.105,0.058 0.105,0.063 0.102,0.07 0.105,0.07 0.211,0.161 0.106,0.086 0.101,0.097 0.106,0.102 0.105,0.113 0.106,0.121 0.105,0.133 0.102,0.148 0.105,0.157 0.106,0.175 0.105,0.196 0.106,0.215 0.101,0.242 0.106,0.269 0.105,0.301 0.106,0.344 0.105,0.39 0.102,0.45 0.105,0.519 0.106,0.606 0.105,0.711 0.106,0.851 0.101,1.024 0.106,1.25 0.105,1.55 0.106,1.961 0.105,2.524 0.106,3.332 0.101,4.5 0.106,6.23 0.105,8.797 0.106,12.418 0.105,16.66 0.102,19.043 0.105,15.535 0.106,6.825 0.105,-0.996 0.105,-5.821 0.102,-9.562 0.105,-10.75 0.106,-7.52 0.105,-1.867 0.106,2.742 0.101,3.774 0.106,1.515 0.105,-1.609 0.106,-4.262 0.105,-7.508 0.102,-9.976 0.098,-8.567 0.097,-5.921 0.098,-2.907 0.101,0.012 0.098,2.879 0.098,5.625 0.097,7.32 0.098,6.395 0.098,3.179 0.097,0.524 0.098,-0.43 0.098,-0.019 0.097,0.82 0.098,1.039 0.098,0.828 0.097,0.481 0.098,-0.305 0.098,-2.633 0.097,-6.609 0.098,-9.895 0.098,-10.164 0.097,-8.348 0.098,-6.199 0.098,-4.484 0.097,-3.246 0.098,-2.391 0.098,-1.785 0.097,-1.352 0.098,-1.027 0.097,-0.785 0.098,-0.598 0.098,-0.437 0.097,-0.305 0.098,-0.187 0.098,-0.079 0.097,0.024 0.098,0.137 0.102,0.257 0.097,0.391 0.098,0.551 0.098,0.754 0.097,1.011 0.098,1.356 0.098,1.832 0.097,2.504 0.098,3.461 0.098,4.832 0.097,6.644 0.098,8.555 0.098,9.266 0.097,7.238 0.098,3.621 0.097,1.078 0.098,-0.57 0.098,-2.125 0.097,-3.414 0.098,-4.34 0.098,-4.824 0.097,-3.903 0.098,-1.535 0.098,1.199 0.097,3.11 0.098,3.41 0.098,2.773 0.097,1.805 0.094,-0.394 0.098,-3.375 0.094,-4.668 0.097,-3.418 0.098,-0.739 0.094,2.305 0.097,4.906 0.094,5.793 0.098,4.078 0.093,1.61 0.098,0.984 0.094,1.098 0.097,-0.754 0.094,-4.617 0.098,-8.149 0.094,-9.324 0.097,-8.238 0.098,-6.363 0.094,-4.665 0.097,-3.394 0.094,-2.504 0.098,-1.875 0.093,-1.434 0.098,-1.113 0.094,-0.879 0.098,-0.699 0.093,-0.563 0.098,-0.453 0.094,-0.367 0.097,-0.297 0.098,-0.234 0.094,-0.184 0.097,-0.136 0.094,-0.094 0.098,-0.059 0.094,-0.019 0.097,0.011 0.094,0.055 0.098,0.086 0.093,0.133 0.098,0.176 0.094,0.222 0.097,0.286 0.098,0.355 0.094,0.437 0.097,0.547 0.094,0.676 0.098,0.844 0.094,1.074 0.097,1.375 0.094,1.797 0.098,2.391 0.093,3.238 0.098,4.441 0.094,6.075 0.098,7.953 0.097,9.222 0.094,8.367 0.098,4.821 0.093,0.449 0.098,-1.742 0.094,-0.899 0.097,0.403 0.102,-0.696 0.105,-3.332 0.106,-3.41 0.101,-0.586 0.106,2.364 0.101,2.64 0.106,-0.176 0.105,-3.511 0.102,-5.86 0.105,-7.082 0.106,-6.488 0.102,-4.703 0.105,-2.809 0.102,-1.172 0.105,0.305 0.105,1.82 0.102,3.567 0.105,5.547 0.106,7.175 0.102,7.231 0.105,5.508 0.102,3.074 0.105,0.644 0.106,-0.714 0.101,-0.36 0.106,-0.5 0.101,-3.449 0.106,-6.34 0.105,-6.031 0.102,-3.551 0.105,-0.531 0.106,2.586 0.101,5.793 0.106,8.515 0.101,8.954 0.106,6.242 0.105,3.304 0.102,2.415 0.105,3.046 0.102,3.45 0.105,1.902 0.106,-2.191 0.101,-8.454 0.106,-13.347 0.105,-13.582 0.102,-10.844 0.105,-7.852 0.102,-5.558 0.105,-3.985 0.106,-2.918 0.101,-2.191 0.106,-1.687 0.101,-1.321 0.106,-1.058 0.105,-0.86 0.102,-0.711 0.105,-0.593 0.106,-0.5 0.101,-0.43 0.106,-0.367 0.101,-0.321 0.106,-0.281 0.105,-0.242 0.102,-0.219 0.097,-0.183 0.098,-0.16 0.098,-0.149 0.097,-0.133 0.094,-0.125 0.098,-0.109 0.097,-0.102 0.098,-0.093 0.098,-0.086 0.097,-0.079 0.098,-0.074 0.094,-0.066 0.097,-0.063 0.098,-0.058 0.195,-0.106 0.098,-0.047 0.094,-0.043 0.195,-0.078 0.195,-0.07 0.192,-0.059 0.098,-0.027 0.292,-0.07 0.196,-0.039 0.191,-0.035 0.098,-0.016 0.098,-0.012 0.097,-0.015 0.098,-0.012 0.094,-0.012 0.097,-0.008 0.098,-0.011 0.195,-0.016 0.098,-0.004 0.094,-0.008 0.39,-0.015 0.485,0 0.097,0.004 0.098,0 0.098,0.003 0.093,0.004 0.098,0.008 0.098,0.004 0.293,0.024 0.093,0.007 0.196,0.024 0.105,0.012 0.317,0.046 0.211,0.039 0.21,0.043 0.102,0.024 0.316,0.082 0.106,0.035 0.105,0.031 0.211,0.078 0.211,0.086 0.211,0.102 0.106,0.058 0.101,0.059 0.211,0.137 0.106,0.078 0.105,0.082 0.106,0.094 0.105,0.097 0.105,0.11 0.106,0.117 0.105,0.133 0.106,0.144 0.105,0.16 0.102,0.176 0.105,0.199 0.106,0.223 0.105,0.25 0.106,0.285 0.105,0.324 0.106,0.372 0.105,0.433 0.106,0.504 0.105,0.594 0.106,0.711 0.105,0.859 0.106,1.051 0.101,1.305 0.106,1.66 0.105,2.144 0.105,2.844 0.106,3.867 0.105,5.383 0.106,7.617 0.105,10.684 0.106,13.91 0.105,14.77 0.106,10.41 0.105,2.82 0.102,-3.137 0.105,-4.898 0.106,-3.024 0.105,-1 0.106,-1.492 0.105,-4.332 0.106,-6.504 0.101,-5.25 0.102,-1.367 0.105,2.707 0.102,4.539 0.105,2.906 0.102,0.637 0.105,0.262 0.102,-0.633 0.101,-3.82 0.106,-7.645 0.101,-9.652 0.106,-8.93 0.101,-6.828 0.106,-4.75 0.102,-3.16 0.101,-1.992 0.106,-1.106 0.101,-0.371 0.106,0.32 0.101,1.067 0.106,1.969 0.101,3.171 0.102,4.79 0.105,6.812 0.102,8.57 0.105,8.559 0.102,5.855 0.105,1.512 0.102,-1.82 0.101,-1.586 0.106,0.926 0.101,1.929 0.106,-0.117 0.101,-1.859 0.106,-0.469 0.101,1.863 0.102,1.414 0.105,-2.386 0.102,-6.649 0.106,-8.867 0.101,-8.371 0.106,-6.438 0.101,-4.468 0.102,-2.942 0.105,-1.82 0.102,-0.973 0.105,-0.269 0.102,0.387 0.105,1.089 0.102,1.934 0.101,3.047 0.106,4.578 0.101,6.609 0.106,8.813 0.101,9.879 0.106,8.254 0.101,4.461 0.102,0.988 0.105,-0.227 0.102,-0.66 0.106,-2.855 0.101,-4.52 0.106,-2.73 0.093,1.121 0.098,4.578 0.098,5.98 0.093,4.399 0.098,1.777 0.098,0.617 0.093,1.602 0.098,3.758 0.094,4.425 0.097,1.809 0.098,-3.73 0.094,-10 0.098,-13.485 0.097,-12.894 0.094,-10.274 0.098,-7.59 0.097,-5.507 0.094,-4.039 0.098,-3.012 0.097,-2.297 0.094,-1.789 0.098,-1.414 0.097,-1.145 0.094,-0.933 0.098,-0.774 0.097,-0.644 0.094,-0.551 0.098,-0.469 0.098,-0.402 0.093,-0.348 0.098,-0.305 0.098,-0.265 0.093,-0.235 0.098,-0.207 0.098,-0.183 0.093,-0.16 0.098,-0.145 0.094,-0.133 0.097,-0.113 0.098,-0.101 0.094,-0.094 0.098,-0.078 0.097,-0.075 0.094,-0.062 0.098,-0.059 0.097,-0.047 0.094,-0.043 0.098,-0.035 0.097,-0.031 0.094,-0.027 0.098,-0.02 0.097,-0.011 0.094,-0.012 0.098,-0.004 0.097,0 0.094,0.004 0.098,0.008 0.097,0.015 0.094,0.02 0.098,0.023 0.098,0.028 0.093,0.035 0.098,0.039 0.094,0.043 0.105,0.058 0.106,0.063 0.105,0.07 0.102,0.078 0.105,0.09 0.106,0.102 0.105,0.109 0.102,0.125 0.105,0.141 0.106,0.152 0.105,0.172 0.102,0.195 0.105,0.215 0.106,0.246 0.101,0.277 0.106,0.317 0.105,0.359 0.106,0.41 0.101,0.481 0.106,0.558 0.105,0.657 0.105,0.777 0.102,0.938 0.105,1.144 0.106,1.41 0.105,1.781 0.102,2.282 0.105,2.996 0.106,4.031 0.102,5.555 0.105,7.808 0.105,10.981 0.106,14.699 0.101,16.844 0.106,13.996 0.105,6.789 0.106,0.398 0.101,-2.789 0.106,-4.515 0.105,-7.16 0.106,-9.434 0.101,-8.027 0.106,-3.375 0.105,1.988 0.102,5.664 0.105,5.555 0.106,2.781 0.105,0.176 0.102,-2.946 0.105,-6.574 0.106,-8.39 0.105,-6.911 0.102,-3.179 0.105,1.238 0.106,5.508 0.105,8.476 0.102,8.379 0.105,5.219 0.106,2.102 0.101,1.859 0.106,2.207 0.105,0.48 0.106,-2.652 0.101,-7.832 0.098,-11.851 0.098,-12.708 0.097,-10.664 0.098,-7.925 0.098,-5.637 0.097,-3.957 0.098,-2.762 0.098,-1.898 0.097,-1.25 0.098,-0.731 0.097,-0.297 0.098,0.11 0.098,0.515 0.097,0.954 0.098,1.476 0.098,2.125 0.097,2.988 0.098,4.184 0.098,5.859 0.097,8.2 0.098,11.183 0.094,14.039 0.097,14.598 0.098,10.961 0.098,4.965 0.097,0.105 0.098,-1.5 0.098,0.09 0.097,1.414 0.098,0.391 0.098,-0.575 0.097,0.653 0.098,2.367 0.098,1.277 0.097,-3.367 0.098,-9.41 0.098,-13.133 0.097,-12.535 0.098,-9.355 0.098,-5.797 0.097,-2.664 0.098,0.105 0.098,2.828 0.097,5.879 0.098,9.574 0.094,13.918 0.097,17.797 0.098,18.535 0.098,14.586 0.097,8.621 0.098,3.668 0.098,0.282 0.097,-0.317 0.098,3.664 0.098,9.371 0.097,11.282 0.098,8.671 0.098,4.879 0.097,-1.203 0.098,-13.066 0.098,-25.461 0.097,-29.613 0.098,-25.84 0.097,-19.657 0.094,-14.039 0.098,-10.226 0.094,-7.559 0.097,-5.695 0.094,-4.387 0.098,-3.441 0.093,-2.75 0.094,-2.235 0.098,-1.836 0.094,-1.535 0.097,-1.293 0.094,-1.101 0.098,-0.949 0.093,-0.821 0.098,-0.715 0.094,-0.628 0.097,-0.559 0.094,-0.492 0.098,-0.446 0.094,-0.394 0.097,-0.359 0.094,-0.325 0.094,-0.293 0.097,-0.269 0.094,-0.246 0.098,-0.227 0.094,-0.207 0.097,-0.191 0.094,-0.176 0.098,-0.164 0.191,-0.293 0.094,-0.133 0.097,-0.125 0.094,-0.113 0.098,-0.11 0.094,-0.101 0.093,-0.098 0.192,-0.176 0.097,-0.078 0.094,-0.078 0.192,-0.14 0.097,-0.063 0.094,-0.062 0.191,-0.114 0.098,-0.054 0.094,-0.051 0.191,-0.094 0.094,-0.043 0.098,-0.043 0.191,-0.078 0.094,-0.039 0.097,-0.035 0.192,-0.067 0.383,-0.117 0.101,-0.031 0.106,-0.027 0.207,-0.055 0.101,-0.024 0.106,-0.027 0.207,-0.043 0.105,-0.023 0.102,-0.02 0.207,-0.039 0.414,-0.074 0.105,-0.016 0.102,-0.015 0.211,-0.032 0.414,-0.058 0.102,-0.012 0.105,-0.012 0.207,-0.027 0.414,-0.043 0.106,-0.012 0.101,-0.007 0.621,-0.059 0.211,-0.016 0.621,-0.047 0.102,-0.007 0.105,-0.004 0.207,-0.016 0.414,-0.023 0.832,-0.047 0.094,-0.004 0.293,-0.012 0.387,-0.019 0.094,-0.004 0.293,-0.012 0.386,-0.016 0.098,-0.004 0.094,0 0.195,-0.007 0.387,-0.016 0.773,-0.023 0.098,0 0.097,-0.004 0.192,-0.004 0.387,-0.012 0.777,-0.019 0.094,0 0.097,-0.004 0.196,-0.004 1.16,-0.024 0.109,-0.004 0.106,0 0.214,-0.004 0.434,-0.007 0.863,-0.016 0.219,0 0.645,-0.012 0.867,-0.011 0.215,0 0.214,-0.004 0.434,-0.004 0.863,-0.012 0.215,0 0.219,-0.004 0.43,-0.004 0.218,0 0.215,-0.004 0.215,0 0.109,-0.004 0.11,0"
         style="fill:none;stroke:#00688b;stroke-width:1.60000002;stroke-linecap:square;stroke-linejoin:miter;stroke-miterlimit:3.25;stroke-dasharray:none;stroke-opacity:1"
         id="path7525"
         inkscape:connector-curvature="0" />
      <path
         d="m 19.371,30.371 0,3.879"
         style="fill:none;stroke:#000000;stroke-width:0.5;stroke-linecap:butt;stroke-linejoin:miter;stroke-miterlimit:3.25;stroke-dasharray:none;stroke-opacity:1"
         id="path7527"
         inkscape:connector-curvature="0" />
      <text
         transform="matrix(1,0,0,-1,0,5.917845)"
         style="font-variant:normal;font-weight:normal;font-size:24px;font-family:'Linux Libertine Display';-inkscape-font-specification:LinLibertineDisplay;writing-mode:lr-tb;fill:#000000;fill-opacity:1;fill-rule:nonzero;stroke:none"
         id="text7529">
        <tspan
           x="0 11.136 16.392 27.528"
           y="0"
           sodipodi:role="line"
           id="tspan7531">0.40</tspan>
      </text>
      <path
         d="m 34.883,30.371 0,2.328"
         style="fill:none;stroke:#000000;stroke-width:0.5;stroke-linecap:butt;stroke-linejoin:miter;stroke-miterlimit:3.25;stroke-dasharray:none;stroke-opacity:1"
         id="path7533"
         inkscape:connector-curvature="0" />
      <path
         d="m 50.395,30.371 0,2.328"
         style="fill:none;stroke:#000000;stroke-width:0.5;stroke-linecap:butt;stroke-linejoin:miter;stroke-miterlimit:3.25;stroke-dasharray:none;stroke-opacity:1"
         id="path7535"
         inkscape:connector-curvature="0" />
      <path
         d="m 65.906,30.371 0,2.328"
         style="fill:none;stroke:#000000;stroke-width:0.5;stroke-linecap:butt;stroke-linejoin:miter;stroke-miterlimit:3.25;stroke-dasharray:none;stroke-opacity:1"
         id="path7537"
         inkscape:connector-curvature="0" />
      <path
         d="m 81.414,30.371 0,2.328"
         style="fill:none;stroke:#000000;stroke-width:0.5;stroke-linecap:butt;stroke-linejoin:miter;stroke-miterlimit:3.25;stroke-dasharray:none;stroke-opacity:1"
         id="path7539"
         inkscape:connector-curvature="0" />
      <path
         d="m 96.926,30.371 0,3.879"
         style="fill:none;stroke:#000000;stroke-width:0.5;stroke-linecap:butt;stroke-linejoin:miter;stroke-miterlimit:3.25;stroke-dasharray:none;stroke-opacity:1"
         id="path7541"
         inkscape:connector-curvature="0" />
      <text
         transform="matrix(1,0,0,-1,77.555591,5.917845)"
         style="font-variant:normal;font-weight:normal;font-size:24px;font-family:'Linux Libertine Display';-inkscape-font-specification:LinLibertineDisplay;writing-mode:lr-tb;fill:#000000;fill-opacity:1;fill-rule:nonzero;stroke:none"
         id="text7543">
        <tspan
           x="0 11.136 16.392 27.528"
           y="0"
           sodipodi:role="line"
           id="tspan7545">0.45</tspan>
      </text>
      <path
         d="m 112.438,30.371 0,2.328"
         style="fill:none;stroke:#000000;stroke-width:0.5;stroke-linecap:butt;stroke-linejoin:miter;stroke-miterlimit:3.25;stroke-dasharray:none;stroke-opacity:1"
         id="path7547"
         inkscape:connector-curvature="0" />
      <path
         d="m 127.949,30.371 0,2.328"
         style="fill:none;stroke:#000000;stroke-width:0.5;stroke-linecap:butt;stroke-linejoin:miter;stroke-miterlimit:3.25;stroke-dasharray:none;stroke-opacity:1"
         id="path7549"
         inkscape:connector-curvature="0" />
      <path
         d="m 143.461,30.371 0,2.328"
         style="fill:none;stroke:#000000;stroke-width:0.5;stroke-linecap:butt;stroke-linejoin:miter;stroke-miterlimit:3.25;stroke-dasharray:none;stroke-opacity:1"
         id="path7551"
         inkscape:connector-curvature="0" />
      <path
         d="m 158.973,30.371 0,2.328"
         style="fill:none;stroke:#000000;stroke-width:0.5;stroke-linecap:butt;stroke-linejoin:miter;stroke-miterlimit:3.25;stroke-dasharray:none;stroke-opacity:1"
         id="path7553"
         inkscape:connector-curvature="0" />
      <path
         d="m 174.48,30.371 0,3.879"
         style="fill:none;stroke:#000000;stroke-width:0.5;stroke-linecap:butt;stroke-linejoin:miter;stroke-miterlimit:3.25;stroke-dasharray:none;stroke-opacity:1"
         id="path7555"
         inkscape:connector-curvature="0" />
      <text
         transform="matrix(1,0,0,-1,155.11118,5.917845)"
         style="font-variant:normal;font-weight:normal;font-size:24px;font-family:'Linux Libertine Display';-inkscape-font-specification:LinLibertineDisplay;writing-mode:lr-tb;fill:#000000;fill-opacity:1;fill-rule:nonzero;stroke:none"
         id="text7557">
        <tspan
           x="0 11.136 16.392 27.528"
           y="0"
           sodipodi:role="line"
           id="tspan7559">0.50</tspan>
      </text>
      <path
         d="m 189.992,30.371 0,2.328"
         style="fill:none;stroke:#000000;stroke-width:0.5;stroke-linecap:butt;stroke-linejoin:miter;stroke-miterlimit:3.25;stroke-dasharray:none;stroke-opacity:1"
         id="path7561"
         inkscape:connector-curvature="0" />
      <path
         d="m 205.504,30.371 0,2.328"
         style="fill:none;stroke:#000000;stroke-width:0.5;stroke-linecap:butt;stroke-linejoin:miter;stroke-miterlimit:3.25;stroke-dasharray:none;stroke-opacity:1"
         id="path7563"
         inkscape:connector-curvature="0" />
      <path
         d="m 221.016,30.371 0,2.328"
         style="fill:none;stroke:#000000;stroke-width:0.5;stroke-linecap:butt;stroke-linejoin:miter;stroke-miterlimit:3.25;stroke-dasharray:none;stroke-opacity:1"
         id="path7565"
         inkscape:connector-curvature="0" />
      <path
         d="m 236.527,30.371 0,2.328"
         style="fill:none;stroke:#000000;stroke-width:0.5;stroke-linecap:butt;stroke-linejoin:miter;stroke-miterlimit:3.25;stroke-dasharray:none;stroke-opacity:1"
         id="path7567"
         inkscape:connector-curvature="0" />
      <path
         d="m 252.039,30.371 0,3.879"
         style="fill:none;stroke:#000000;stroke-width:0.5;stroke-linecap:butt;stroke-linejoin:miter;stroke-miterlimit:3.25;stroke-dasharray:none;stroke-opacity:1"
         id="path7569"
         inkscape:connector-curvature="0" />
      <text
         transform="matrix(1,0,0,-1,232.66677,5.917845)"
         style="font-variant:normal;font-weight:normal;font-size:24px;font-family:'Linux Libertine Display';-inkscape-font-specification:LinLibertineDisplay;writing-mode:lr-tb;fill:#000000;fill-opacity:1;fill-rule:nonzero;stroke:none"
         id="text7571">
        <tspan
           x="0 11.136 16.392 27.528"
           y="0"
           sodipodi:role="line"
           id="tspan7573">0.55</tspan>
      </text>
      <path
         d="m 267.551,30.371 0,2.328"
         style="fill:none;stroke:#000000;stroke-width:0.5;stroke-linecap:butt;stroke-linejoin:miter;stroke-miterlimit:3.25;stroke-dasharray:none;stroke-opacity:1"
         id="path7575"
         inkscape:connector-curvature="0" />
      <path
         d="m 283.059,30.371 0,2.328"
         style="fill:none;stroke:#000000;stroke-width:0.5;stroke-linecap:butt;stroke-linejoin:miter;stroke-miterlimit:3.25;stroke-dasharray:none;stroke-opacity:1"
         id="path7577"
         inkscape:connector-curvature="0" />
      <path
         d="m 298.57,30.371 0,2.328"
         style="fill:none;stroke:#000000;stroke-width:0.5;stroke-linecap:butt;stroke-linejoin:miter;stroke-miterlimit:3.25;stroke-dasharray:none;stroke-opacity:1"
         id="path7579"
         inkscape:connector-curvature="0" />
      <path
         d="m 314.082,30.371 0,2.328"
         style="fill:none;stroke:#000000;stroke-width:0.5;stroke-linecap:butt;stroke-linejoin:miter;stroke-miterlimit:3.25;stroke-dasharray:none;stroke-opacity:1"
         id="path7581"
         inkscape:connector-curvature="0" />
      <path
         d="m 329.594,30.371 0,3.879"
         style="fill:none;stroke:#000000;stroke-width:0.5;stroke-linecap:butt;stroke-linejoin:miter;stroke-miterlimit:3.25;stroke-dasharray:none;stroke-opacity:1"
         id="path7583"
         inkscape:connector-curvature="0" />
      <text
         transform="matrix(1,0,0,-1,310.22236,5.917845)"
         style="font-variant:normal;font-weight:normal;font-size:24px;font-family:'Linux Libertine Display';-inkscape-font-specification:LinLibertineDisplay;writing-mode:lr-tb;fill:#000000;fill-opacity:1;fill-rule:nonzero;stroke:none"
         id="text7585">
        <tspan
           x="0 11.136 16.392 27.528"
           y="0"
           sodipodi:role="line"
           id="tspan7587">0.60</tspan>
      </text>
      <path
         d="m 10.57,30.371 327.825,0"
         style="fill:none;stroke:#000000;stroke-width:0.5;stroke-linecap:butt;stroke-linejoin:miter;stroke-miterlimit:3.25;stroke-dasharray:none;stroke-opacity:1"
         id="path7589"
         inkscape:connector-curvature="0" />
      <text
         transform="matrix(1,0,0,-1,346.39453,22.597533)"
         style="font-variant:normal;font-weight:normal;font-size:24px;font-family:'Linux Libertine Display';-inkscape-font-specification:LinLibertineDisplay;writing-mode:lr-tb;fill:#000000;fill-opacity:1;fill-rule:nonzero;stroke:none"
         id="text7591">
        <tspan
           x="0"
           y="0"
           id="tspan7593">E</tspan>
      </text>
    </g>
    <g
       transform="matrix(0.74609016,0,0,-0.74609016,52.034215,770.63897)"
       id="g8327">
      <path
         d="M 0,0 360,0 360,229 0,229 0,0 Z"
         style="fill:#ffffff;fill-opacity:1;fill-rule:nonzero;stroke:none"
         id="path8329"
         inkscape:connector-curvature="0" />
      <path
         d="M 0,229 360,229 360,0 0,0 0,229 Z"
         style="fill:none;stroke:#ffffff;stroke-width:0.03;stroke-linecap:butt;stroke-linejoin:miter;stroke-miterlimit:10;stroke-dasharray:none;stroke-opacity:1"
         id="path8331"
         inkscape:connector-curvature="0" />
      <path
         d="m 7.012,30.465 0.797,0 0.796,0.004 0.797,0 0.797,0.004 0.399,0 0.398,0.004 0.996,0 0.199,0.003 0.399,0 0.793,0.004 0.433,0 0.434,0.004 0.43,0 0.433,0.004 0.43,0 0.434,0.004 0.863,0.004 0.105,0 0.11,0.004 0.215,0 0.433,0.004 0.215,0 0.215,0.004 0.433,0.004 0.215,0 0.215,0.004 0.434,0.003 0.863,0.008 0.102,0 0.097,0.004 0.203,0 0.403,0.008 0.203,0 0.199,0.004 0.406,0.008 0.199,0 0.204,0.004 0.402,0.007 0.101,0.004 0.102,0 0.199,0.004 0.403,0.008 0.101,0.004 0.102,0 0.203,0.008 0.402,0.008 0.102,0.003 0.097,0.004 0.204,0.004 0.402,0.016 0.203,0.008 0.199,0.008 0.407,0.015 0.097,0.004 0.102,0.004 0.203,0.012 0.402,0.019 0.098,0.004 0.101,0.008 0.196,0.012 0.101,0.007 0.098,0.008 0.195,0.012 0.102,0.008 0.097,0.008 0.2,0.015 0.394,0.039 0.196,0.024 0.199,0.023 0.097,0.012 0.102,0.012 0.293,0.047 0.101,0.015 0.196,0.035 0.101,0.02 0.098,0.019 0.195,0.043 0.102,0.024 0.098,0.027 0.097,0.024 0.102,0.031 0.195,0.062 0.199,0.074 0.196,0.086 0.101,0.047 0.196,0.11 0.101,0.062 0.098,0.067 0.097,0.074 0.098,0.082 0.102,0.09 0.097,0.101 0.098,0.11 0.101,0.125 0.098,0.14 0.098,0.16 0.101,0.184 0.098,0.207 0.098,0.242 0.097,0.285 0.102,0.332 0.098,0.403 0.097,0.48 0.102,0.594 0.097,0.746 0.106,1.043 0.109,1.402 0.106,1.965 0.109,2.887 0.106,4.527 0.109,7.762 0.105,15.004 0.106,33.469 0.109,70.617 0.106,43.836 0.109,-28.946 0.106,-8.929 0.109,-16.258 0.105,-38.043 0.106,-2.555 0.109,22.918 0.106,2.434 0.109,0.539 0.106,-15.383 0.109,-43.269 0.105,-25.676 0.11,-10.93 0.105,-4.793 0.106,-1.691 0.109,0.64 0.106,3.567 0.109,9.273 0.105,22.785 0.11,34.375 0.105,6.094 0.106,-12.082 0.109,-16.848 0.106,8.641 0.109,7.524 0.105,-11.602 0.11,-2.996 0.105,17.996 0.11,7.766 0.105,-13.047 0.106,-35.278 0.109,-19.691 0.105,-8.672 0.11,-4.324 0.105,-2.426 0.11,-1.465 0.105,-0.902 0.106,-0.539 0.109,-0.274 0.105,-0.043 0.11,0.192 0.105,0.457 0.11,0.832 0.105,1.414 0.109,2.461 0.106,4.617 0.105,9.777 0.11,22.481 0.105,29.535 0.11,-1.137 0.105,-4.367 0.109,-7.34 0.106,-4.683 0.105,7.675 0.11,-3.109 0.101,-19.891 0.098,-16.636 0.102,-6.239 0.097,-0.003 0.102,6.285 0.101,16.629 0.098,18.207 0.102,2.093 0.097,0.27 0.102,-0.18 0.101,-11.136 0.098,-18.477 0.102,-6.793 0.097,3.668 0.102,16.203 0.101,22.734 0.098,6.352 0.102,-2.453 0.097,10.726 0.102,8.551 0.101,-6.5 0.098,-35.687 0.102,-24.02 0.097,-11.015 0.102,-5.528 0.101,-3.136 0.098,-1.961 0.102,-1.313 0.101,-0.93 0.098,-0.683 0.101,-0.524 0.098,-0.406 0.102,-0.328 0.101,-0.266 0.098,-0.218 0.101,-0.184 0.098,-0.156 0.102,-0.133 0.101,-0.117 0.098,-0.098 0.101,-0.086 0.098,-0.078 0.102,-0.066 0.101,-0.063 0.098,-0.051 0.101,-0.047 0.098,-0.042 0.102,-0.04 0.101,-0.031 0.098,-0.031 0.101,-0.027 0.098,-0.024 0.203,-0.039 0.098,-0.016 0.203,-0.023 0.098,-0.012 0.101,-0.007 0.098,-0.004 0.203,-0.008 0.199,0 0.11,0.004 0.105,0.008 0.219,0.015 0.109,0.016 0.106,0.015 0.109,0.02 0.219,0.047 0.105,0.031 0.11,0.035 0.109,0.043 0.109,0.047 0.106,0.055 0.109,0.062 0.109,0.074 0.11,0.086 0.105,0.098 0.11,0.121 0.109,0.141 0.109,0.172 0.106,0.211 0.109,0.261 0.11,0.332 0.109,0.43 0.106,0.574 0.109,0.793 0.109,1.145 0.11,1.758 0.105,2.933 0.11,5.457 0.109,11.758 0.109,26.867 0.106,28.949 0.109,-2.558 0.109,-13.07 0.11,-20.215 0.105,0.058 0.11,10.961 0.109,0.238 0.109,-10.203 0.106,-17.547 0.109,-5.91 0.11,5.77 0.109,15.863 0.105,5.324 0.11,-2.761 0.109,4.289 0.11,1.91 0.105,-4.871 0.109,-21.739 0.11,-12.863 0.109,-5.558 0.106,-2.68 0.109,-1.426 0.109,-0.769 0.11,-0.36 0.105,-0.043 0.11,0.274 0.109,0.668 0.109,1.297 0.106,2.507 0.109,5.278 0.11,12.32 0.105,20.082 0.106,5.457 0.109,-3.812 0.105,-10.829 0.106,-4.964 0.105,8.312 0.11,3.399 0.105,-7.036 0.106,-5.293 0.105,9.235 0.106,8.113 0.109,2.563 0.105,-10.59 0.106,-19.157 0.105,-9.621 0.11,-4.25 0.105,-2.093 0.106,-1.102 0.105,-0.559 0.11,-0.195 0.105,0.113 0.105,0.442 0.106,0.89 0.109,1.649 0.106,3.144 0.105,6.684 0.106,15.211 0.109,19.465 0.106,0.504 0.105,-1.516 0.105,-4.191 0.11,3.246 0.105,-4.539 0.106,-15.574 0.105,-6.829 0.11,3.614 0.105,15.172 0.106,13.781 0.105,2.262 0.109,-7.352 0.106,-7.535 0.105,13.601 0.106,18.524 0.109,8.043 0.106,-12.02 0.105,-33.242 0.106,-18.055 0.109,-7.961 0.105,-4.007 0.106,-2.289 0.105,-1.442 0.11,-0.969 0.105,-0.687 0.106,-0.512 0.105,-0.387 0.106,-0.304 0.109,-0.246 0.106,-0.2 0.105,-0.164 0.105,-0.136 0.11,-0.118 0.105,-0.101 0.106,-0.086 0.105,-0.078 0.102,-0.063 0.097,-0.054 0.102,-0.051 0.098,-0.043 0.101,-0.043 0.196,-0.07 0.101,-0.028 0.098,-0.031 0.101,-0.023 0.196,-0.047 0.101,-0.02 0.098,-0.015 0.199,-0.036 0.098,-0.015 0.101,-0.012 0.098,-0.016 0.101,-0.011 0.098,-0.008 0.102,-0.012 0.195,-0.019 0.102,-0.008 0.097,-0.008 0.102,-0.008 0.195,-0.015 0.102,-0.004 0.199,-0.012 0.098,-0.004 0.101,-0.008 0.195,-0.008 0.102,-0.003 0.098,-0.004 0.101,0 0.196,-0.008 0.101,0 0.098,-0.004 0.101,0 0.098,-0.004 0.098,0 0.101,-0.004 1.09,0 0.102,0.004 0.097,0 0.102,0.004 0.097,0 0.098,0.004 0.102,0 0.105,0.004 0.219,0.008 0.105,0.003 0.11,0.004 0.105,0.004 0.215,0.012 0.109,0.008 0.106,0.004 0.219,0.015 0.105,0.008 0.11,0.012 0.214,0.019 0.106,0.012 0.109,0.012 0.106,0.015 0.109,0.012 0.109,0.02 0.106,0.015 0.109,0.02 0.106,0.019 0.109,0.024 0.106,0.023 0.109,0.028 0.109,0.031 0.106,0.035 0.109,0.035 0.106,0.043 0.109,0.047 0.105,0.051 0.11,0.062 0.105,0.067 0.11,0.078 0.109,0.09 0.106,0.105 0.109,0.125 0.105,0.149 0.11,0.179 0.105,0.219 0.11,0.277 0.105,0.352 0.109,0.461 0.11,0.621 0.105,0.879 0.11,1.301 0.105,2.062 0.109,3.61 0.106,7.164 0.109,16.324 0.106,31.136 0.109,10.458 0.11,-9.418 0.105,-4.778 0.109,-14.453 0.106,-0.082 0.109,6.856 0.106,0.097 0.109,-8.777 0.106,-19.223 0.109,-10.402 0.109,-3.957 0.098,-0.895 0.102,1.258 0.101,4.508 0.098,11.07 0.101,14.543 0.102,1.442 0.101,-5.524 0.098,2.02 0.102,-0.41 0.101,-1.204 0.102,5.207 0.097,-3.765 0.102,-15.629 0.102,-10.453 0.097,-4.68 0.102,-2.176 0.101,-0.992 0.102,-0.281 0.098,0.316 0.101,1.059 0.102,2.332 0.101,5.105 0.098,11.309 0.101,14.246 0.102,2.211 0.098,-2.219 0.101,-0.742 0.102,-7.605 0.101,-8.254 0.098,1.648 0.102,10.27 0.101,5.976 0.102,-2.238 0.097,-6.398 0.102,5.105 0.102,11.621 0.097,4.883 0.102,-6.824 0.101,-20.555 0.102,-12.426 0.098,-5.687 0.101,-2.891 0.102,-1.66 0.101,-1.043 0.098,-0.699 0.101,-0.496 0.102,-0.364 0.098,-0.273 0.101,-0.211 0.102,-0.164 0.101,-0.133 0.098,-0.105 0.102,-0.082 0.101,-0.063 0.102,-0.051 0.097,-0.039 0.102,-0.027 0.101,-0.016 0.098,-0.004 0.102,0.004 0.101,0.012 0.102,0.023 0.097,0.039 0.102,0.047 0.098,0.059 0.097,0.078 0.102,0.098 0.098,0.121 0.097,0.156 0.098,0.191 0.101,0.25 0.098,0.329 0.098,0.441 0.097,0.609 0.098,0.891 0.102,1.363 0.097,2.274 0.098,4.211 0.098,8.797 0.101,17.828 0.098,14.633 0.097,-2.598 0.098,-3.738 0.098,-6.872 0.101,1.942 0.098,1.117 0.098,-7.871 0.097,-13.199 0.102,-6.594 0.097,-1.273 0.098,3.105 0.098,9.41 0.097,10.649 0.102,0.91 0.098,0.269 0.097,-0.019 0.098,-3.477 0.102,-12.109 0.097,-7.379 0.098,-1.887 0.098,2.121 0.097,7.703 0.102,13.473 0.097,6.133 0.098,-2.121 0.098,-1.113 0.101,6.894 0.098,3.07 0.098,2.637 0.097,-14.625 0.098,-17.383 0.101,-8.543 0.098,-4.086 0.098,-2.207 0.097,-1.316 0.102,-0.852 0.098,-0.578 0.097,-0.41 0.098,-0.293 0.098,-0.219 0.101,-0.156 0.098,-0.113 0.097,-0.078 0.098,-0.047 0.098,-0.016 0.101,0.004 0.098,0.035 0.098,0.063 0.109,0.097 0.106,0.145 0.105,0.199 0.109,0.27 0.106,0.367 0.105,0.516 0.11,0.746 0.105,1.125 0.106,1.836 0.109,3.289 0.105,6.765 0.11,15.453 0.105,22.606 0.106,3.207 0.109,-9.512 0.106,-8.086 0.105,6.117 0.109,-0.168 0.106,-10.484 0.105,-2.062 0.11,10.871 0.105,5.09 0.11,1.199 0.105,-11.801 0.106,-17.184 0.109,-7.851 0.105,-2.852 0.106,-0.379 0.109,1.7 0.106,4.988 0.105,12.39 0.11,20.938 0.105,5.914 0.109,0.402 0.106,-0.074 0.105,1.324 0.11,-15.121 0.105,-14.203 0.106,-1.363 0.109,10.937 0.106,25.461 0.105,15.481 0.109,0.691 0.106,12.36 0.109,8.667 0.106,-25.199 0.105,-37.582 0.11,-17.687 0.105,-7.989 0.105,-4.16 0.11,-2.437 0.105,-1.559 0.106,-1.066 0.109,-0.762 0.106,-0.57 0.109,-0.434 0.105,-0.344 0.106,-0.273 0.109,-0.227 0.106,-0.187 0.105,-0.156 0.11,-0.133 0.105,-0.113 0.106,-0.102 0.101,-0.082 0.102,-0.07 0.097,-0.063 0.102,-0.058 0.098,-0.051 0.101,-0.047 0.098,-0.043 0.101,-0.039 0.098,-0.035 0.102,-0.032 0.097,-0.031 0.102,-0.027 0.097,-0.024 0.102,-0.023 0.199,-0.043 0.102,-0.019 0.097,-0.016 0.102,-0.02 0.098,-0.015 0.101,-0.012 0.098,-0.016 0.199,-0.023 0.102,-0.012 0.097,-0.011 0.2,-0.02 0.101,-0.008 0.098,-0.012 0.199,-0.015 0.203,-0.016 0.199,-0.011 0.098,-0.008 0.102,-0.004 0.199,-0.012 0.097,-0.008 0.102,-0.004 0.199,-0.007 0.399,-0.02 0.101,-0.004 0.098,-0.004 0.199,-0.008 0.102,0 0.097,-0.004 0.199,-0.007 0.102,-0.004 0.098,0 0.199,-0.008 0.402,-0.008 0.106,-0.004 0.109,-0.004 0.215,-0.004 0.434,-0.007 0.109,0 0.105,-0.004 0.219,-0.004 0.43,-0.008 0.219,0 0.214,-0.004 0.434,-0.004 0.105,-0.004 0.11,0 0.215,-0.004 0.433,-0.004 0.219,0 0.215,-0.003 0.433,-0.004 0.215,0 0.215,-0.004 0.434,-0.004 0.433,0 0.43,-0.004 0.867,-0.004 0.211,0 0.215,-0.004 0.637,0 0.211,-0.004 0.847,0 0.426,-0.004 0.848,0 0.105,-0.004 1.594,0 0.105,-0.004 1.989,0 0.398,-0.003 11.125,0 0.43,0.003 2.058,0 0.403,0.004 0.801,0 0.8,0.004 0.805,0 0.098,0.004 0.8,0 0.102,0.004 0.602,0 0.8,0.004 0.11,0 0.109,0.004 0.215,0 0.437,0.004 0.434,0 0.434,0.004 0.109,0.004 0.324,0 0.434,0.004 0.109,0.003 0.11,0 0.218,0.004 0.434,0.004 0.105,0 0.11,0.004 0.219,0 0.109,0.004 0.105,0 0.219,0.004 0.109,0 0.11,0.004 0.215,0.004 0.433,0.008 0.11,0 0.109,0.003 0.219,0.004 0.105,0.004 0.11,0 0.218,0.008 0.11,0 0.105,0.004 0.219,0.008 0.434,0.012 0.105,0.003 0.109,0.004 0.211,0.008 0.11,0.008 0.105,0.004 0.215,0.008 0.106,0.008 0.105,0.003 0.215,0.012 0.105,0.008 0.106,0.004 0.215,0.016 0.211,0.015 0.214,0.016 0.106,0.011 0.109,0.008 0.317,0.035 0.109,0.012 0.211,0.031 0.109,0.016 0.106,0.016 0.211,0.039 0.109,0.019 0.211,0.047 0.109,0.027 0.211,0.063 0.106,0.035 0.109,0.039 0.106,0.043 0.105,0.047 0.11,0.055 0.105,0.062 0.105,0.067 0.11,0.078 0.105,0.086 0.106,0.101 0.105,0.121 0.11,0.137 0.105,0.164 0.106,0.199 0.109,0.239 0.105,0.296 0.106,0.376 0.105,0.484 0.11,0.644 0.105,0.891 0.106,1.277 0.109,1.957 0.105,3.239 0.106,5.965 0.105,12.64 0.11,28.82 0.097,33.481 0.102,1.019 0.098,-18.414 0.101,-14.718 0.098,6.105 0.101,1.762 0.098,-10.594 0.098,-19.008 0.101,-8.133 0.098,4.461 0.102,14.473 0.097,5.727 0.102,-3.039 0.097,2.824 0.102,0.765 0.098,-0.593 0.101,-17.688 0.098,-16.308 0.098,-7.719 0.101,-3.727 0.098,-1.988 0.101,-1.121 0.098,-0.613 0.102,-0.258 0.097,0.047 0.102,0.379 0.097,0.835 0.102,1.606 0.098,3.133 0.101,6.672 0.098,14.191 0.097,14.715 0.102,0.402 0.098,-2.863 0.101,-7.078 0.098,-10.055 0.101,0.082 0.098,8.68 0.102,4.058 0.097,-2.855 0.102,-8.754 0.098,-1.73 0.097,9.011 0.102,7.762 0.097,2.75 0.102,0.875 0.098,-13.148 0.101,-15.375 0.098,-7.539 0.101,-3.602 0.098,-1.938 0.102,-1.152 0.097,-0.742 0.102,-0.496 0.098,-0.34 0.097,-0.234 0.102,-0.157 0.097,-0.097 0.102,-0.039 0.098,0.007 0.101,0.055 0.098,0.117 0.101,0.188 0.098,0.281 0.109,0.457 0.106,0.711 0.109,1.16 0.11,2.063 0.105,4.125 0.11,9.422 0.105,17.519 0.109,5.942 0.11,-6.512 0.105,0.258 0.11,-4.028 0.105,-4.816 0.109,5.406 0.11,2.617 0.105,-4.402 0.11,-12.98 0.105,-7.434 0.11,-2.516 0.109,0.086 0.105,2.766 0.11,7.949 0.105,12.859 0.11,2.594 0.109,0.098 0.105,-0.192 0.11,-0.441 0.105,-11.293 0.11,-8.156 0.109,-1.281 0.105,4.464 0.11,12.782 0.105,11.66 0.11,0.465 0.109,-0.356 0.106,8.563 0.109,4.402 0.105,-10.852 0.11,-22.136 0.109,-10.914 0.106,-4.852 0.109,-2.484 0.105,-1.446 0.11,-0.918 0.109,-0.624 0.106,-0.45 0.109,-0.332 0.105,-0.254 0.11,-0.199 0.109,-0.16 0.106,-0.133 0.109,-0.109 0.106,-0.09 0.109,-0.078 0.109,-0.067 0.106,-0.054 0.109,-0.051 0.11,-0.043 0.105,-0.039 0.109,-0.035 0.106,-0.028 0.109,-0.027 0.11,-0.023 0.105,-0.02 0.109,-0.019 0.098,-0.016 0.102,-0.016 0.304,-0.035 0.098,-0.008 0.203,-0.015 0.102,-0.004 0.097,-0.008 0.305,-0.012 0.102,0 0.097,-0.004 0.305,0 0.098,0.004 0.101,0 0.203,0.008 0.098,0.004 0.101,0.008 0.102,0.004 0.203,0.015 0.098,0.012 0.101,0.008 0.102,0.012 0.102,0.015 0.097,0.016 0.102,0.015 0.203,0.04 0.101,0.023 0.098,0.027 0.102,0.028 0.101,0.035 0.102,0.039 0.097,0.039 0.102,0.051 0.102,0.054 0.101,0.067 0.098,0.074 0.101,0.09 0.102,0.105 0.101,0.129 0.102,0.153 0.098,0.191 0.101,0.242 0.102,0.313 0.101,0.414 0.098,0.57 0.102,0.82 0.101,1.246 0.102,2.059 0.097,3.762 0.102,7.812 0.102,16.797 0.101,18.278 0.102,-0.336 0.097,-8.735 0.102,-11.617 0.098,0.84 0.101,5.488 0.098,-0.82 0.097,-8.059 0.098,-9.785 0.102,-2.348 0.097,5.172 0.098,9.184 0.101,1.66 0.098,-0.523 0.098,2.019 0.097,0.93 0.102,-6.973 0.098,-12.769 0.097,-6.93 0.098,-3.211 0.102,-1.621 0.097,-0.867 0.098,-0.442 0.097,-0.152 0.102,0.109 0.098,0.399 0.097,0.828 0.102,1.59 0.098,3.219 0.097,7.031 0.098,12.293 0.101,5.828 0.098,-1.985 0.098,-6.167 0.097,-3 0.102,4.699 0.098,1.629 0.097,-4.407 0.098,-1.574 0.102,6.285 0.097,3.95 0.098,-0.825 0.098,-10.98 0.101,-9.996 0.098,-4.711 0.097,-2.227 0.102,-1.14 0.098,-0.582 0.097,-0.243 0.098,0.02 0.101,0.289 0.098,0.633 0.098,1.191 0.097,2.266 0.102,4.707 0.098,10.058 0.097,12.118 0.098,1.211 0.102,-1.243 0.097,-1.586 0.098,1.075 0.101,-6.223 0.098,-8.43 0.098,-1.34 0.097,6.313 0.102,10.742 0.098,4.035 0.097,-2.48 0.11,-5.445 0.105,8.304 0.106,11.731 0.109,3.172 0.105,-16.262 0.11,-19.09 0.105,-8.684 0.106,-3.98 0.109,-2.102 0.106,-1.25 0.109,-0.804 0.105,-0.555 0.106,-0.398 0.109,-0.301 0.106,-0.231 0.109,-0.179 0.106,-0.149 0.109,-0.121 0.105,-0.098 0.106,-0.082 0.109,-0.074 0.106,-0.058 0.109,-0.051 0.106,-0.047 0.105,-0.039 0.109,-0.035 0.106,-0.032 0.109,-0.027 0.106,-0.023 0.105,-0.02 0.11,-0.019 0.105,-0.02 0.109,-0.012 0.106,-0.015 0.105,-0.012 0.11,-0.008 0.105,-0.011 0.11,-0.008 0.105,-0.004 0.109,-0.008 0.211,-0.008 0.11,-0.004 0.105,0 0.11,-0.004 0.211,0 0.109,0.004 0.105,0 0.11,0.004 0.211,0.008 0.109,0.004 0.106,0.008 0.109,0.008 0.105,0.007 0.106,0.012 0.109,0.012 0.106,0.012 0.109,0.011 0.106,0.016 0.109,0.019 0.211,0.039 0.101,0.024 0.102,0.027 0.098,0.028 0.101,0.031 0.098,0.035 0.101,0.043 0.098,0.043 0.102,0.055 0.101,0.058 0.098,0.071 0.101,0.078 0.098,0.093 0.102,0.11 0.097,0.133 0.102,0.164 0.101,0.199 0.098,0.246 0.102,0.32 0.097,0.426 0.102,0.578 0.101,0.824 0.098,1.246 0.102,2.02 0.097,3.629 0.102,7.375 0.097,15.984 0.102,20.223 0.102,0.934 0.097,-5.332 0.102,-7.247 0.097,1.789 0.102,-1.363 0.098,-11.355 0.101,-12.082 0.102,-4.754 0.097,0.301 0.102,5.73 0.098,11.359 0.101,4.219 0.098,-0.738 0.101,-0.07 0.102,0.531 0.098,-6.055 0.101,-11.945 0.098,-6.281 0.101,-2.262 0.102,-0.035 0.098,2.16 0.101,6.086 0.098,11.836 0.101,7.047 0.098,-0.75 0.102,-5.223 0.101,-0.84 0.098,6.539 0.101,0.824 0.098,1.641 0.102,5.539 0.097,-8.164 0.102,-16.152 0.101,-8.743 0.098,-4.05 0.102,-2.098 0.097,-1.211 0.11,-0.809 0.109,-0.511 0.109,-0.336 0.106,-0.215 0.109,-0.129 0.11,-0.062 0.105,0 0.11,0.054 0.109,0.125 0.109,0.2 0.106,0.308 0.109,0.457 0.109,0.703 0.106,1.117 0.109,1.934 0.11,3.738 0.109,8.34 0.106,17.442 0.109,11.085 0.109,-2.605 0.11,-3.727 0.105,-11.242 0.11,-3.84 0.109,8.243 0.105,5.414 0.11,-2.907 0.109,-9.46 0.11,-0.192 0.105,11.234 0.109,6.211 0.11,3.164 0.105,-5.375 0.11,-18.519 0.109,-10.664 0.109,-4.543 0.106,-2.125 0.109,-1.051 0.11,-0.465 0.109,-0.062 0.105,0.304 0.11,0.735 0.109,1.398 0.106,2.641 0.109,5.437 0.109,12.508 0.11,21.696 0.105,5.98 0.11,-1.203 0.109,-3.02 0.105,2.973 0.11,-6.852 0.109,-14.972 0.11,-1.981 0.105,13.274 0.109,19.476 0.11,4.731 0.109,-7.539 0.106,7.258 0.109,22.375 0.109,3.484 0.106,-34.254 0.109,-29.727 0.11,-12.906 0.109,-6.015 0.105,-3.2 0.106,-1.937 0.105,-1.27 0.106,-0.883 0.109,-0.64 0.106,-0.484 0.105,-0.376 0.106,-0.296 0.109,-0.239 0.105,-0.199 0.106,-0.164 0.105,-0.137 0.106,-0.117 0.109,-0.101 0.106,-0.09 0.105,-0.078 0.106,-0.067 0.109,-0.058 0.105,-0.055 0.211,-0.094 0.106,-0.039 0.109,-0.035 0.106,-0.031 0.316,-0.082 0.109,-0.024 0.211,-0.039 0.215,-0.035 0.211,-0.031 0.106,-0.012 0.105,-0.016 0.11,-0.011 0.105,-0.012 0.211,-0.02 0.105,-0.007 0.11,-0.012 0.316,-0.023 0.11,-0.008 0.211,-0.012 0.105,-0.008 0.105,-0.004 0.215,-0.011 0.106,-0.008 0.105,-0.004 0.215,-0.008 0.106,-0.004 0.105,-0.008 0.215,-0.008 0.422,-0.011 0.101,-0.004 0.098,-0.004 0.199,-0.004 0.098,-0.004 0.101,0 0.2,-0.008 0.097,0 0.098,-0.004 0.598,-0.011 0.097,0 0.098,-0.004 0.199,-0.004 0.399,-0.004 0.097,-0.004 0.098,0 0.199,-0.004 0.398,-0.004 0.098,0 0.102,-0.004 0.195,0 0.398,-0.004 0.098,-0.003 0.297,0 0.398,-0.004 0.098,-0.004 0.297,0 0.398,-0.004 0.793,-0.004 0.11,0 0.105,-0.004 0.645,0 0.109,-0.004 0.32,0 0.434,-0.004 0.859,0 0.86,-0.004 0.429,0 0.43,-0.004 1.078,0 0.215,-0.004 1.692,0 0.402,-0.003 11.129,0 0.789,0.003 1.922,0 0.215,0.004 1.386,0 0.106,0.004 1.07,0 0.426,0.004 0.426,0 0.429,0.004 0.852,0.004 0.398,0 0.399,0.004 0.398,0 0.403,0.004 0.398,0 1.195,0.012 0.199,0 0.2,0.003 0.398,0.004 0.199,0 0.2,0.004 0.398,0.004 0.098,0 0.101,0.004 0.199,0 0.399,0.008 0.098,0 0.101,0.004 0.199,0.004 0.399,0.004 0.105,0.003 0.11,0 0.214,0.008 0.11,0 0.109,0.004 0.215,0.004 0.109,0.004 0.106,0 0.219,0.008 0.429,0.012 0.11,0.003 0.105,0.004 0.219,0.008 0.105,0.004 0.11,0.004 0.215,0.008 0.109,0.004 0.109,0.008 0.215,0.007 0.11,0.008 0.105,0.004 0.215,0.012 0.219,0.015 0.215,0.016 0.109,0.008 0.105,0.008 0.219,0.019 0.106,0.008 0.218,0.023 0.106,0.012 0.109,0.016 0.11,0.011 0.214,0.032 0.11,0.015 0.105,0.016 0.11,0.02 0.105,0.023 0.109,0.02 0.11,0.023 0.215,0.055 0.109,0.031 0.105,0.035 0.11,0.035 0.109,0.043 0.106,0.043 0.109,0.051 0.109,0.058 0.106,0.063 0.101,0.063 0.102,0.074 0.102,0.086 0.101,0.093 0.098,0.11 0.101,0.125 0.102,0.148 0.102,0.172 0.101,0.207 0.098,0.246 0.101,0.305 0.102,0.379 0.101,0.484 0.102,0.629 0.102,0.844 0.097,1.183 0.102,1.735 0.101,2.711 0.102,4.625 0.101,8.836 0.098,19.101 0.102,37.246 0.101,21.809 0.102,-8.141 0.101,-12.582 0.098,-0.437 0.102,-11.051 0.101,-24.941 0.102,-14.524 0.101,-2.426 0.102,8.243 0.098,17.746 0.101,5.308 0.102,-1.32 0.101,-0.766 0.102,0.508 0.097,-10.59 0.102,-19.437 0.102,-10.27 0.101,-4.312 0.102,-1.524 0.101,0.309 0.098,2.441 0.101,6.477 0.102,14.594 0.102,14.906 0.101,0.98 0.098,-2.839 0.101,-9.715 0.102,-5.321 0.101,8.16 0.102,6.989 0.102,-3.676 0.097,-3.316 0.102,10.429 0.101,7.285 0.102,-5.468 0.101,-21.891 0.098,-14.375 0.102,-6.574 0.101,-3.305 0.102,-1.875 0.101,-1.168 0.102,-0.781 0.098,-0.535 0.097,-0.391 0.098,-0.289 0.101,-0.219 0.098,-0.16 0.098,-0.121 0.101,-0.086 0.098,-0.055 0.098,-0.027 0.101,-0.004 0.098,0.024 0.098,0.054 0.101,0.082 0.098,0.125 0.097,0.168 0.102,0.235 0.098,0.316 0.097,0.445 0.098,0.633 0.102,0.946 0.097,1.484 0.098,2.551 0.101,4.883 0.098,10.46 0.098,19.254 0.101,9.516 0.098,-3.676 0.098,-4.008 0.101,-5.961 0.098,3.051 0.097,0.36 0.102,-9.297 0.098,-12.68 0.097,-5.785 0.098,-0.926 0.102,3.254 0.097,9.508 0.098,10.805 0.101,0.953 0.098,0.203 0.098,-0.035 0.101,-3.555 0.098,-12.055 0.098,-7.16 0.101,-1.559 0.098,2.793 0.097,9.067 0.102,13.285 0.098,4.18 0.097,-2.914 0.098,1.41 0.102,6.805 0.097,3.374 0.098,-1.785 0.101,-19.375 0.098,-14.269 0.098,-6.625 0.101,-3.301 0.098,-1.859 0.098,-1.153 0.101,-0.765 0.098,-0.539 0.098,-0.391 0.097,-0.293 0.11,-0.246 0.105,-0.184 0.109,-0.144 0.106,-0.113 0.109,-0.09 0.106,-0.067 0.109,-0.051 0.106,-0.039 0.109,-0.023 0.105,-0.016 0.11,0 0.105,0.008 0.106,0.024 0.109,0.031 0.106,0.047 0.109,0.062 0.105,0.082 0.11,0.102 0.105,0.133 0.11,0.172 0.105,0.222 0.109,0.289 0.106,0.395 0.105,0.547 0.11,0.8 0.105,1.239 0.11,2.086 0.105,3.941 0.109,8.582 0.106,18.824 0.109,16.043 0.106,-2.582 0.109,-10.562 0.106,-8.481 0.105,5.801 0.109,3.102 0.106,-6.231 0.109,-10.629 0.106,-0.429 0.109,9.968 0.106,5.602 0.109,1.211 0.105,1.508 0.11,-8.399 0.105,-15.484 0.106,-7.664 0.109,-3.254 0.106,-1.426 0.109,-0.48 0.105,0.207 0.11,0.996 0.105,2.312 0.11,5.258 0.105,12.242 0.11,15.449 0.105,0.278 0.105,-4.645 0.11,3.043 0.105,-2.629 0.11,2.813 0.105,3.281 0.11,-11.855 0.105,-14.075 0.109,-5.894 0.098,-1.668 0.102,0.519 0.101,2.957 0.098,7.512 0.101,15.996 0.098,14.321 0.102,2.218 0.101,-2.14 0.098,-7.418 0.101,6.004 0.098,12.718 0.102,3.493 0.101,9.269 0.098,-10.75 0.101,-29.414 0.102,-16.625 0.098,-7.633 0.101,-3.922 0.098,-2.265 0.101,-1.434 0.102,-0.969 0.098,-0.691 0.101,-0.512 0.102,-0.39 0.097,-0.305 0.102,-0.246 0.098,-0.199 0.101,-0.164 0.102,-0.141 0.097,-0.117 0.102,-0.102 0.101,-0.086 0.098,-0.078 0.102,-0.066 0.097,-0.059 0.102,-0.051 0.101,-0.047 0.098,-0.042 0.203,-0.071 0.098,-0.031 0.101,-0.027 0.098,-0.024 0.203,-0.047 0.098,-0.019 0.203,-0.035 0.098,-0.016 0.101,-0.012 0.098,-0.015 0.203,-0.024 0.098,-0.008 0.203,-0.019 0.097,-0.008 0.102,-0.008 0.098,-0.008 0.203,-0.015 0.097,-0.004 0.204,-0.012 0.105,-0.004 0.109,-0.004 0.11,-0.007 0.109,-0.004 0.106,0 0.328,-0.012 0.105,0 0.11,-0.004 0.109,0 0.109,-0.004 1.082,0 0.11,0.004 0.109,0 0.11,0.004 0.109,0 0.105,0.004 0.11,0.004 0.109,0 0.11,0.004 0.105,0.004 0.219,0.007 0.109,0.008 0.106,0.004 0.109,0.004 0.109,0.008 0.11,0.004 0.215,0.015 0.218,0.016 0.11,0.012 0.105,0.007 0.219,0.024 0.215,0.027 0.109,0.012 0.11,0.016 0.109,0.019 0.109,0.016 0.106,0.019 0.218,0.047 0.11,0.027 0.105,0.028 0.11,0.031 0.218,0.07 0.106,0.043 0.109,0.047 0.11,0.055 0.109,0.059 0.105,0.066 0.106,0.074 0.109,0.09 0.106,0.098 0.105,0.117 0.106,0.137 0.109,0.164 0.106,0.195 0.105,0.242 0.106,0.301 0.109,0.387 0.105,0.5 0.106,0.679 0.105,0.953 0.11,1.411 0.105,2.238 0.106,3.898 0.105,7.696 0.109,17.39 0.106,33.004 0.105,13.606 0.106,-7.754 0.109,-18.028 0.106,-14.445 0.105,6.887 0.11,7.832 0.105,-1.969 0.106,-13.262 0.105,-15.57 0.109,-4.02 0.106,6.411 0.105,15.543 0.106,5.129 0.109,-3.368 0.106,4.118 0.105,1.503 0.106,-0.054 0.109,-19.102 0.105,-15.59 0.106,-6.863 0.105,-3.219 0.11,-1.675 0.105,-0.911 0.106,-0.453 0.109,-0.121 0.105,0.184 0.106,0.547 0.105,1.086 0.11,2.062 0.105,4.168 0.106,9.426 0.105,19.012 0.11,11.062 0.105,-2.461 0.105,-7.918 0.106,-9.461 0.109,5.028 0.106,7.207 0.105,-3.188 0.106,-8.414 0.109,4.684 0.106,10.933 0.105,3.883 0.109,-5.16 0.098,-18.832 0.098,-12.457 0.101,-5.699 0.098,-2.805 0.102,-1.508 0.097,-0.836 0.102,-0.43 0.097,-0.136 0.098,0.121 0.102,0.394 0.097,0.762 0.102,1.336 0.097,2.383 0.102,4.59 0.098,9.816 0.097,19.051 0.102,12.508 0.098,-1.926 0.101,-2.242 0.098,-2.5 0.101,2.84 0.098,-8.098 0.098,-14.254 0.101,-4.848 0.098,4.883 0.101,15.328 0.098,12.227 0.102,2.035 0.097,-6.656 0.098,-8.364 0.102,9.907 0.097,19.195 0.102,9.102 0.097,-1.758 0.102,-29.332 0.098,-24.016 0.097,-11.164 0.102,-5.465 0.098,-3.031 0.101,-1.856 0.098,-1.222 0.101,-0.856 0.098,-0.625 0.098,-0.472 0.101,-0.364 0.098,-0.289 0.101,-0.234 0.098,-0.191 0.102,-0.161 0.097,-0.132 0.098,-0.114 0.102,-0.097 0.097,-0.082 0.102,-0.075 0.097,-0.062 0.102,-0.055 0.098,-0.047 0.097,-0.043 0.102,-0.035 0.097,-0.035 0.102,-0.027 0.098,-0.024 0.101,-0.023 0.098,-0.016 0.109,-0.019 0.106,-0.012 0.109,-0.012 0.106,-0.011 0.218,-0.008 0.106,-0.004 0.215,0 0.109,0.008 0.105,0.004 0.11,0.007 0.109,0.012 0.106,0.012 0.109,0.015 0.106,0.02 0.109,0.019 0.105,0.024 0.11,0.027 0.109,0.032 0.106,0.035 0.109,0.039 0.105,0.047 0.11,0.046 0.105,0.059 0.11,0.066 0.109,0.075 0.106,0.082 0.109,0.097 0.105,0.114 0.11,0.132 0.105,0.157 0.11,0.187 0.109,0.223 0.105,0.273 0.11,0.344 0.105,0.43 0.11,0.562 0.105,0.758 0.11,1.055 0.109,1.543 0.105,2.426 0.11,4.164 0.105,8.097 0.11,18.164 0.109,36.903 0.105,18.785 0.11,-7.387 0.105,-12.629 0.11,2.004 0.105,-6.969 0.109,-24.73 0.11,-15.094 0.105,-1.387 0.11,11.399 0.105,20.414 0.11,3.769 0.105,0.403 0.109,-0.684 0.11,-14.027 0.105,-20.387 0.11,-8.168 0.105,-0.445 0.109,6.762 0.102,17.23 0.098,19.434 0.101,2.597 0.102,-7.207 0.101,2.477 0.098,8.683 0.102,2.317 0.101,6.515 0.102,-19.64 0.097,-27.489 0.102,-13.66 0.101,-6.359 0.102,-3.32 0.098,-1.903 0.101,-1.144 0.102,-0.692 0.101,-0.39 0.098,-0.153 0.102,0.043 0.101,0.246 0.098,0.481 0.101,0.785 0.102,1.231 0.102,1.961 0.097,3.289 0.102,6.023 0.101,12.438 0.102,26.593 0.098,29.91 0.101,2.329 0.102,-10.801 0.101,-15.426 0.098,6.879 0.101,9.656 0.102,-7.812 0.102,-8.707 0.097,14.664 0.102,13.375 0.101,-0.528 0.102,-28.187 0.098,-27.367 0.101,-12.414 0.102,-5.227 0.101,-1.852 0.098,0.321 0.101,2.472 0.102,5.75 0.102,12.481 0.097,27.719 0.102,40.402 0.101,12.602 0.102,-0.559 0.098,-1.316 0.101,-20.508 0.102,-5.699 0.101,31.39 0.098,26.137 0.101,2.191 0.102,26.992 0.098,1.7 0.101,-68.172 0.102,-52.625 0.101,-24.043 0.098,-11.75 0.102,-6.414 0.097,-3.961 0.098,-2.633 0.098,-1.844 0.101,-1.351 0.098,-1.02 0.097,-0.793 0.098,-0.633 0.102,-0.511 0.097,-0.422 0.098,-0.348 0.098,-0.297 0.101,-0.254 0.098,-0.218 0.098,-0.188 0.097,-0.168 0.098,-0.144 0.101,-0.129 0.098,-0.118 0.098,-0.101 0.097,-0.094 0.102,-0.086 0.098,-0.074 0.097,-0.07 0.098,-0.063 0.101,-0.058 0.196,-0.102 0.097,-0.047 0.102,-0.039 0.195,-0.078 0.098,-0.031 0.101,-0.031 0.098,-0.032 0.195,-0.054 0.098,-0.024 0.199,-0.043 0.098,-0.023 0.098,-0.02 0.199,-0.035 0.195,-0.031 0.199,-0.028 0.098,-0.015 0.098,-0.012 0.199,-0.023 0.195,-0.024 0.199,-0.019 0.098,-0.008 0.098,-0.012 0.199,-0.015 0.395,-0.032 0.105,-0.008 0.105,-0.003 0.215,-0.016 0.11,-0.008 0.105,-0.004 0.215,-0.011 0.105,-0.008 0.106,-0.004 0.215,-0.008 0.429,-0.02 0.106,-0.003 0.109,-0.004 0.211,-0.008 0.43,-0.016 0.105,-0.004 0.11,-0.004 0.211,-0.004 0.429,-0.011 0.106,-0.004 0.109,0 0.211,-0.008 0.43,-0.008 0.105,-0.004 0.11,0 0.211,-0.004 0.429,-0.007 0.106,-0.004 0.109,0 0.211,-0.004 0.43,-0.004 0.855,-0.012 0.102,-0.004 0.297,0 0.398,-0.008 0.203,0 0.199,-0.003 0.399,-0.004 0.398,0 0.399,-0.004 0.801,-0.008 0.199,0 0.199,-0.004 0.398,0 0.797,-0.004 0.102,-0.004 0.699,0 0.797,-0.004 0.113,-0.004 0.778,0 0.894,-0.004 0.11,0 0.113,-0.003 0.668,0 0.89,-0.004 0.891,0 0.891,-0.004 0.445,0 0.449,-0.004 0.891,0"
         style="fill:none;stroke:#00688b;stroke-width:1.60000002;stroke-linecap:square;stroke-linejoin:miter;stroke-miterlimit:3.25;stroke-dasharray:none;stroke-opacity:1"
         id="path8333"
         inkscape:connector-curvature="0" />
      <path
         d="m 7.012,30.426 0,2.406"
         style="fill:none;stroke:#000000;stroke-width:0.5;stroke-linecap:butt;stroke-linejoin:miter;stroke-miterlimit:3.25;stroke-dasharray:none;stroke-opacity:1"
         id="path8335"
         inkscape:connector-curvature="0" />
      <path
         d="m 20.539,30.426 0,2.406"
         style="fill:none;stroke:#000000;stroke-width:0.5;stroke-linecap:butt;stroke-linejoin:miter;stroke-miterlimit:3.25;stroke-dasharray:none;stroke-opacity:1"
         id="path8337"
         inkscape:connector-curvature="0" />
      <path
         d="m 34.062,30.426 0,4.008"
         style="fill:none;stroke:#000000;stroke-width:0.5;stroke-linecap:butt;stroke-linejoin:miter;stroke-miterlimit:3.25;stroke-dasharray:none;stroke-opacity:1"
         id="path8339"
         inkscape:connector-curvature="0" />
      <text
         transform="matrix(1,0,0,-1,20.271479,5.973589)"
         style="font-variant:normal;font-weight:normal;font-size:24px;font-family:'Linux Libertine Display';-inkscape-font-specification:LinLibertineDisplay;writing-mode:lr-tb;fill:#000000;fill-opacity:1;fill-rule:nonzero;stroke:none"
         id="text8341">
        <tspan
           x="0 11.136 16.392"
           y="0"
           sodipodi:role="line"
           id="tspan8343">0.0</tspan>
      </text>
      <path
         d="m 47.59,30.426 0,2.406"
         style="fill:none;stroke:#000000;stroke-width:0.5;stroke-linecap:butt;stroke-linejoin:miter;stroke-miterlimit:3.25;stroke-dasharray:none;stroke-opacity:1"
         id="path8345"
         inkscape:connector-curvature="0" />
      <path
         d="m 61.117,30.426 0,2.406"
         style="fill:none;stroke:#000000;stroke-width:0.5;stroke-linecap:butt;stroke-linejoin:miter;stroke-miterlimit:3.25;stroke-dasharray:none;stroke-opacity:1"
         id="path8347"
         inkscape:connector-curvature="0" />
      <path
         d="m 74.641,30.426 0,2.406"
         style="fill:none;stroke:#000000;stroke-width:0.5;stroke-linecap:butt;stroke-linejoin:miter;stroke-miterlimit:3.25;stroke-dasharray:none;stroke-opacity:1"
         id="path8349"
         inkscape:connector-curvature="0" />
      <path
         d="m 88.168,30.426 0,4.008"
         style="fill:none;stroke:#000000;stroke-width:0.5;stroke-linecap:butt;stroke-linejoin:miter;stroke-miterlimit:3.25;stroke-dasharray:none;stroke-opacity:1"
         id="path8351"
         inkscape:connector-curvature="0" />
      <text
         transform="matrix(1,0,0,-1,74.374606,5.973589)"
         style="font-variant:normal;font-weight:normal;font-size:24px;font-family:'Linux Libertine Display';-inkscape-font-specification:LinLibertineDisplay;writing-mode:lr-tb;fill:#000000;fill-opacity:1;fill-rule:nonzero;stroke:none"
         id="text8353">
        <tspan
           x="0 11.136 16.392"
           y="0"
           sodipodi:role="line"
           id="tspan8355">0.2</tspan>
      </text>
      <path
         d="m 101.691,30.426 0,2.406"
         style="fill:none;stroke:#000000;stroke-width:0.5;stroke-linecap:butt;stroke-linejoin:miter;stroke-miterlimit:3.25;stroke-dasharray:none;stroke-opacity:1"
         id="path8357"
         inkscape:connector-curvature="0" />
      <path
         d="m 115.219,30.426 0,2.406"
         style="fill:none;stroke:#000000;stroke-width:0.5;stroke-linecap:butt;stroke-linejoin:miter;stroke-miterlimit:3.25;stroke-dasharray:none;stroke-opacity:1"
         id="path8359"
         inkscape:connector-curvature="0" />
      <path
         d="m 128.746,30.426 0,2.406"
         style="fill:none;stroke:#000000;stroke-width:0.5;stroke-linecap:butt;stroke-linejoin:miter;stroke-miterlimit:3.25;stroke-dasharray:none;stroke-opacity:1"
         id="path8361"
         inkscape:connector-curvature="0" />
      <path
         d="m 142.27,30.426 0,4.008"
         style="fill:none;stroke:#000000;stroke-width:0.5;stroke-linecap:butt;stroke-linejoin:miter;stroke-miterlimit:3.25;stroke-dasharray:none;stroke-opacity:1"
         id="path8363"
         inkscape:connector-curvature="0" />
      <text
         transform="matrix(1,0,0,-1,128.47773,5.973589)"
         style="font-variant:normal;font-weight:normal;font-size:24px;font-family:'Linux Libertine Display';-inkscape-font-specification:LinLibertineDisplay;writing-mode:lr-tb;fill:#000000;fill-opacity:1;fill-rule:nonzero;stroke:none"
         id="text8365">
        <tspan
           x="0 11.136 16.392"
           y="0"
           sodipodi:role="line"
           id="tspan8367">0.4</tspan>
      </text>
      <path
         d="m 155.797,30.426 0,2.406"
         style="fill:none;stroke:#000000;stroke-width:0.5;stroke-linecap:butt;stroke-linejoin:miter;stroke-miterlimit:3.25;stroke-dasharray:none;stroke-opacity:1"
         id="path8369"
         inkscape:connector-curvature="0" />
      <path
         d="m 169.32,30.426 0,2.406"
         style="fill:none;stroke:#000000;stroke-width:0.5;stroke-linecap:butt;stroke-linejoin:miter;stroke-miterlimit:3.25;stroke-dasharray:none;stroke-opacity:1"
         id="path8371"
         inkscape:connector-curvature="0" />
      <path
         d="m 182.848,30.426 0,2.406"
         style="fill:none;stroke:#000000;stroke-width:0.5;stroke-linecap:butt;stroke-linejoin:miter;stroke-miterlimit:3.25;stroke-dasharray:none;stroke-opacity:1"
         id="path8373"
         inkscape:connector-curvature="0" />
      <path
         d="m 196.375,30.426 0,4.008"
         style="fill:none;stroke:#000000;stroke-width:0.5;stroke-linecap:butt;stroke-linejoin:miter;stroke-miterlimit:3.25;stroke-dasharray:none;stroke-opacity:1"
         id="path8375"
         inkscape:connector-curvature="0" />
      <text
         transform="matrix(1,0,0,-1,182.58086,5.973589)"
         style="font-variant:normal;font-weight:normal;font-size:24px;font-family:'Linux Libertine Display';-inkscape-font-specification:LinLibertineDisplay;writing-mode:lr-tb;fill:#000000;fill-opacity:1;fill-rule:nonzero;stroke:none"
         id="text8377">
        <tspan
           x="0 11.136 16.392"
           y="0"
           sodipodi:role="line"
           id="tspan8379">0.6</tspan>
      </text>
      <path
         d="m 209.898,30.426 0,2.406"
         style="fill:none;stroke:#000000;stroke-width:0.5;stroke-linecap:butt;stroke-linejoin:miter;stroke-miterlimit:3.25;stroke-dasharray:none;stroke-opacity:1"
         id="path8381"
         inkscape:connector-curvature="0" />
      <path
         d="m 223.426,30.426 0,2.406"
         style="fill:none;stroke:#000000;stroke-width:0.5;stroke-linecap:butt;stroke-linejoin:miter;stroke-miterlimit:3.25;stroke-dasharray:none;stroke-opacity:1"
         id="path8383"
         inkscape:connector-curvature="0" />
      <path
         d="m 236.953,30.426 0,2.406"
         style="fill:none;stroke:#000000;stroke-width:0.5;stroke-linecap:butt;stroke-linejoin:miter;stroke-miterlimit:3.25;stroke-dasharray:none;stroke-opacity:1"
         id="path8385"
         inkscape:connector-curvature="0" />
      <path
         d="m 250.477,30.426 0,4.008"
         style="fill:none;stroke:#000000;stroke-width:0.5;stroke-linecap:butt;stroke-linejoin:miter;stroke-miterlimit:3.25;stroke-dasharray:none;stroke-opacity:1"
         id="path8387"
         inkscape:connector-curvature="0" />
      <text
         transform="matrix(1,0,0,-1,236.68399,5.973589)"
         style="font-variant:normal;font-weight:normal;font-size:24px;font-family:'Linux Libertine Display';-inkscape-font-specification:LinLibertineDisplay;writing-mode:lr-tb;fill:#000000;fill-opacity:1;fill-rule:nonzero;stroke:none"
         id="text8389">
        <tspan
           x="0 11.136 16.392"
           y="0"
           sodipodi:role="line"
           id="tspan8391">0.8</tspan>
      </text>
      <path
         d="m 264.004,30.426 0,2.406"
         style="fill:none;stroke:#000000;stroke-width:0.5;stroke-linecap:butt;stroke-linejoin:miter;stroke-miterlimit:3.25;stroke-dasharray:none;stroke-opacity:1"
         id="path8393"
         inkscape:connector-curvature="0" />
      <path
         d="m 277.527,30.426 0,2.406"
         style="fill:none;stroke:#000000;stroke-width:0.5;stroke-linecap:butt;stroke-linejoin:miter;stroke-miterlimit:3.25;stroke-dasharray:none;stroke-opacity:1"
         id="path8395"
         inkscape:connector-curvature="0" />
      <path
         d="m 291.055,30.426 0,2.406"
         style="fill:none;stroke:#000000;stroke-width:0.5;stroke-linecap:butt;stroke-linejoin:miter;stroke-miterlimit:3.25;stroke-dasharray:none;stroke-opacity:1"
         id="path8397"
         inkscape:connector-curvature="0" />
      <path
         d="m 304.582,30.426 0,4.008"
         style="fill:none;stroke:#000000;stroke-width:0.5;stroke-linecap:butt;stroke-linejoin:miter;stroke-miterlimit:3.25;stroke-dasharray:none;stroke-opacity:1"
         id="path8399"
         inkscape:connector-curvature="0" />
      <text
         transform="matrix(1,0,0,-1,290.78711,5.973589)"
         style="font-variant:normal;font-weight:normal;font-size:24px;font-family:'Linux Libertine Display';-inkscape-font-specification:LinLibertineDisplay;writing-mode:lr-tb;fill:#000000;fill-opacity:1;fill-rule:nonzero;stroke:none"
         id="text8401">
        <tspan
           x="0 11.136 16.392"
           y="0"
           sodipodi:role="line"
           id="tspan8403">1.0</tspan>
      </text>
      <path
         d="m 318.105,30.426 0,2.406"
         style="fill:none;stroke:#000000;stroke-width:0.5;stroke-linecap:butt;stroke-linejoin:miter;stroke-miterlimit:3.25;stroke-dasharray:none;stroke-opacity:1"
         id="path8405"
         inkscape:connector-curvature="0" />
      <path
         d="m 331.633,30.426 0,2.406"
         style="fill:none;stroke:#000000;stroke-width:0.5;stroke-linecap:butt;stroke-linejoin:miter;stroke-miterlimit:3.25;stroke-dasharray:none;stroke-opacity:1"
         id="path8407"
         inkscape:connector-curvature="0" />
      <path
         d="m 0.25,30.426 338.145,0"
         style="fill:none;stroke:#000000;stroke-width:0.5;stroke-linecap:butt;stroke-linejoin:miter;stroke-miterlimit:3.25;stroke-dasharray:none;stroke-opacity:1"
         id="path8409"
         inkscape:connector-curvature="0" />
      <text
         transform="matrix(1,0,0,-1,346.39453,22.653276)"
         style="font-variant:normal;font-weight:normal;font-size:24px;font-family:'Linux Libertine Display';-inkscape-font-specification:LinLibertineDisplay;writing-mode:lr-tb;fill:#000000;fill-opacity:1;fill-rule:nonzero;stroke:none"
         id="text8411">
        <tspan
           x="0"
           y="0"
           id="tspan8413">E</tspan>
      </text>
    </g>
    <g
       id="g5203"
       transform="matrix(2.3054222,0,0,2.3054222,-471.67199,-815.29322)">
      <path
         inkscape:connector-curvature="0"
         id="path470"
         style="fill:none;stroke:#00688b;stroke-width:0.77499998;stroke-linecap:butt;stroke-linejoin:round;stroke-miterlimit:4;stroke-dasharray:none;stroke-opacity:0.94117599"
         d="m 299.96241,664.3639 c 0,8.94625 -7.24625,16.1925 -16.19125,16.1925 -8.94,0 -16.19125,-7.24625 -16.19125,-16.1925 0,-8.94 7.25125,-16.19125 16.19125,-16.19125 8.945,0 16.19125,7.25125 16.19125,16.19125 z" />
      <path
         inkscape:connector-curvature="0"
         id="path474"
         style="fill:none;stroke:#00688b;stroke-width:0.755;stroke-linecap:round;stroke-linejoin:miter;stroke-miterlimit:4;stroke-dasharray:none;stroke-opacity:0.94117599"
         d="m 503.85866,663.79265 c 0,38.79875 -31.455,70.255 -70.25375,70.255 -38.80375,0 -70.25875,-31.45625 -70.25875,-70.255 0,-38.80375 31.455,-70.25875 70.25875,-70.25875 38.79875,0 70.25375,31.455 70.25375,70.25875 z" />
      <path
         inkscape:connector-curvature="0"
         id="path478"
         style="fill:none;stroke:#00688b;stroke-width:0.755;stroke-linecap:round;stroke-linejoin:miter;stroke-miterlimit:4;stroke-dasharray:none;stroke-opacity:1"
         d="m 278.95116,648.79765 128.4475,-50.18" />
      <path
         inkscape:connector-curvature="0"
         id="path480"
         style="fill:none;stroke:#00688b;stroke-width:0.755;stroke-linecap:round;stroke-linejoin:miter;stroke-miterlimit:4;stroke-dasharray:none;stroke-opacity:1"
         d="m 279.15241,680.0339 129.69125,49.56" />
    </g>
  </g>
</svg>
