<?xml version="1.0" encoding="UTF-8"?>
<svg xmlns="http://www.w3.org/2000/svg" xmlns:xlink="http://www.w3.org/1999/xlink" width="1000pt" height="1000pt" viewBox="0 0 1000 1000" version="1.1">
<g id="surface83">
<path style=" stroke:none;fill-rule:nonzero;fill:rgb(54.51%,13.73%,0%);fill-opacity:1;" d="M 985.210938 986.191406 L 936.394531 937.378906 L 936.394531 868.339844 L 985.210938 917.15625 Z M 916.175781 819.527344 L 867.359375 770.710938 L 867.359375 701.675781 L 916.175781 750.492188 Z M 985.210938 819.527344 L 936.394531 868.339844 L 867.359375 868.339844 L 916.175781 819.527344 Z M 818.546875 583.824219 L 769.730469 535.007812 L 769.730469 465.972656 L 818.546875 514.789062 Z M 749.507812 417.15625 L 700.695312 368.339844 L 700.695312 299.304688 L 749.507812 348.121094 Z M 818.546875 417.15625 L 769.730469 465.972656 L 700.695312 465.972656 L 749.507812 417.15625 Z M 985.210938 583.824219 L 936.394531 632.640625 L 867.359375 632.640625 L 916.175781 583.824219 Z M 818.546875 652.859375 L 769.730469 701.675781 L 700.695312 701.675781 L 749.507812 652.859375 Z M 818.546875 583.824219 L 867.359375 632.640625 L 867.359375 701.675781 L 818.546875 652.859375 Z M 867.359375 701.675781 L 818.546875 750.492188 L 818.546875 819.527344 L 867.359375 770.710938 Z M 818.546875 750.492188 L 769.730469 701.675781 L 700.695312 701.675781 L 749.507812 750.492188 Z M 867.359375 701.675781 L 936.394531 701.675781 L 985.210938 750.492188 L 916.175781 750.492188 Z M 936.394531 701.675781 L 936.394531 632.640625 L 985.210938 583.824219 L 985.210938 652.859375 Z M 818.546875 583.824219 L 749.507812 583.824219 L 700.695312 535.007812 L 769.730469 535.007812 Z M 749.507812 583.824219 L 749.507812 652.859375 L 700.695312 701.675781 L 700.695312 632.640625 Z M 818.546875 583.824219 L 867.359375 535.007812 L 867.359375 465.972656 L 818.546875 514.789062 Z M 867.359375 535.007812 L 916.175781 583.824219 L 985.210938 583.824219 L 936.394531 535.007812 Z M 700.695312 701.675781 L 651.878906 750.492188 L 582.84375 750.492188 L 631.660156 701.675781 Z M 534.027344 770.710938 L 485.210938 819.527344 L 416.175781 819.527344 L 464.992188 770.710938 Z M 534.027344 701.675781 L 582.84375 750.492188 L 582.84375 819.527344 L 534.027344 770.710938 Z M 298.324219 868.339844 L 249.507812 917.15625 L 180.472656 917.15625 L 229.289062 868.339844 Z M 131.660156 937.378906 L 82.84375 986.191406 L 13.808594 986.191406 L 62.621094 937.378906 Z M 131.660156 868.339844 L 180.472656 917.15625 L 180.472656 986.191406 L 131.660156 937.378906 Z M 298.324219 701.675781 L 347.140625 750.492188 L 347.140625 819.527344 L 298.324219 770.710938 Z M 367.359375 868.339844 L 416.175781 917.15625 L 416.175781 986.191406 L 367.359375 937.378906 Z M 298.324219 868.339844 L 347.140625 819.527344 L 416.175781 819.527344 L 367.359375 868.339844 Z M 416.175781 819.527344 L 464.992188 868.339844 L 534.027344 868.339844 L 485.210938 819.527344 Z M 464.992188 868.339844 L 416.175781 917.15625 L 416.175781 986.191406 L 464.992188 937.378906 Z M 416.175781 819.527344 L 416.175781 750.492188 L 464.992188 701.675781 L 464.992188 770.710938 Z M 416.175781 750.492188 L 347.140625 750.492188 L 298.324219 701.675781 L 367.359375 701.675781 Z M 298.324219 868.339844 L 298.324219 937.378906 L 249.507812 986.191406 L 249.507812 917.15625 Z M 298.324219 937.378906 L 367.359375 937.378906 L 416.175781 986.191406 L 347.140625 986.191406 Z M 298.324219 868.339844 L 249.507812 819.527344 L 180.472656 819.527344 L 229.289062 868.339844 Z M 249.507812 819.527344 L 298.324219 770.710938 L 298.324219 701.675781 L 249.507812 750.492188 Z M 700.695312 701.675781 L 700.695312 770.710938 L 651.878906 819.527344 L 651.878906 750.492188 Z M 631.660156 868.339844 L 631.660156 937.378906 L 582.84375 986.191406 L 582.84375 917.15625 Z M 582.84375 819.527344 L 651.878906 819.527344 L 700.695312 868.339844 L 631.660156 868.339844 Z M 700.695312 868.339844 L 769.730469 868.339844 L 818.546875 917.15625 L 749.507812 917.15625 Z M 867.359375 937.378906 L 936.394531 937.378906 L 985.210938 986.191406 L 916.175781 986.191406 Z M 818.546875 986.191406 L 818.546875 917.15625 L 867.359375 868.339844 L 867.359375 937.378906 Z M 700.695312 868.339844 L 749.507812 819.527344 L 818.546875 819.527344 L 769.730469 868.339844 Z M 749.507812 819.527344 L 700.695312 770.710938 L 700.695312 701.675781 L 749.507812 750.492188 Z M 700.695312 868.339844 L 700.695312 937.378906 L 749.507812 986.191406 L 749.507812 917.15625 Z M 700.695312 937.378906 L 631.660156 937.378906 L 582.84375 986.191406 L 651.878906 986.191406 Z M 582.84375 986.191406 L 534.027344 937.378906 L 534.027344 868.339844 L 582.84375 917.15625 Z M 534.027344 937.378906 L 485.210938 986.191406 L 416.175781 986.191406 L 464.992188 937.378906 Z M 700.695312 701.675781 L 651.878906 652.859375 L 582.84375 652.859375 L 631.660156 701.675781 Z M 534.027344 632.640625 L 485.210938 583.824219 L 416.175781 583.824219 L 464.992188 632.640625 Z M 534.027344 701.675781 L 582.84375 652.859375 L 582.84375 583.824219 L 534.027344 632.640625 Z M 582.84375 583.824219 L 631.660156 535.007812 L 631.660156 465.972656 L 582.84375 514.789062 Z M 651.878906 417.15625 L 700.695312 368.339844 L 700.695312 299.304688 L 651.878906 348.121094 Z M 582.84375 417.15625 L 631.660156 465.972656 L 700.695312 465.972656 L 651.878906 417.15625 Z M 582.84375 583.824219 L 651.878906 583.824219 L 700.695312 535.007812 L 631.660156 535.007812 Z M 651.878906 583.824219 L 651.878906 652.859375 L 700.695312 701.675781 L 700.695312 632.640625 Z M 582.84375 583.824219 L 534.027344 535.007812 L 534.027344 465.972656 L 582.84375 514.789062 Z M 534.027344 535.007812 L 485.210938 583.824219 L 416.175781 583.824219 L 464.992188 535.007812 Z M 416.175781 583.824219 L 416.175781 652.859375 L 464.992188 701.675781 L 464.992188 632.640625 Z M 416.175781 652.859375 L 347.140625 652.859375 L 298.324219 701.675781 L 367.359375 701.675781 Z M 700.695312 299.304688 L 769.730469 299.304688 L 818.546875 348.121094 L 749.507812 348.121094 Z M 867.359375 368.339844 L 936.394531 368.339844 L 985.210938 417.15625 L 916.175781 417.15625 Z M 818.546875 417.15625 L 818.546875 348.121094 L 867.359375 299.304688 L 867.359375 368.339844 Z M 867.359375 299.304688 L 867.359375 230.269531 L 916.175781 181.453125 L 916.175781 250.492188 Z M 936.394531 132.640625 L 936.394531 63.605469 L 985.210938 14.789062 L 985.210938 83.824219 Z M 985.210938 181.453125 L 916.175781 181.453125 L 867.359375 132.640625 L 936.394531 132.640625 Z M 867.359375 299.304688 L 818.546875 250.492188 L 818.546875 181.453125 L 867.359375 230.269531 Z M 818.546875 250.492188 L 769.730469 299.304688 L 700.695312 299.304688 L 749.507812 250.492188 Z M 867.359375 299.304688 L 936.394531 299.304688 L 985.210938 250.492188 L 916.175781 250.492188 Z M 936.394531 299.304688 L 936.394531 368.339844 L 985.210938 417.15625 L 985.210938 348.121094 Z M 985.210938 417.15625 L 936.394531 465.972656 L 867.359375 465.972656 L 916.175781 417.15625 Z M 936.394531 465.972656 L 985.210938 514.789062 L 985.210938 583.824219 L 936.394531 535.007812 Z M 13.808594 14.789062 L 62.621094 63.605469 L 131.660156 63.605469 L 82.84375 14.789062 Z M 180.472656 83.824219 L 229.289062 132.640625 L 298.324219 132.640625 L 249.507812 83.824219 Z M 180.472656 14.789062 L 131.660156 63.605469 L 131.660156 132.640625 L 180.472656 83.824219 Z M 416.175781 181.453125 L 464.992188 230.269531 L 534.027344 230.269531 L 485.210938 181.453125 Z M 582.84375 250.492188 L 631.660156 299.304688 L 700.695312 299.304688 L 651.878906 250.492188 Z M 582.84375 181.453125 L 534.027344 230.269531 L 534.027344 299.304688 L 582.84375 250.492188 Z M 416.175781 14.789062 L 367.359375 63.605469 L 367.359375 132.640625 L 416.175781 83.824219 Z M 347.140625 181.453125 L 298.324219 230.269531 L 298.324219 299.304688 L 347.140625 250.492188 Z M 416.175781 181.453125 L 367.359375 132.640625 L 298.324219 132.640625 L 347.140625 181.453125 Z M 298.324219 132.640625 L 249.507812 181.453125 L 180.472656 181.453125 L 229.289062 132.640625 Z M 249.507812 181.453125 L 298.324219 230.269531 L 298.324219 299.304688 L 249.507812 250.492188 Z M 298.324219 132.640625 L 298.324219 63.605469 L 249.507812 14.789062 L 249.507812 83.824219 Z M 298.324219 63.605469 L 367.359375 63.605469 L 416.175781 14.789062 L 347.140625 14.789062 Z M 416.175781 181.453125 L 416.175781 250.492188 L 464.992188 299.304688 L 464.992188 230.269531 Z M 416.175781 250.492188 L 347.140625 250.492188 L 298.324219 299.304688 L 367.359375 299.304688 Z M 416.175781 181.453125 L 464.992188 132.640625 L 534.027344 132.640625 L 485.210938 181.453125 Z M 464.992188 132.640625 L 416.175781 83.824219 L 416.175781 14.789062 L 464.992188 63.605469 Z M 298.324219 299.304688 L 249.507812 348.121094 L 249.507812 417.15625 L 298.324219 368.339844 Z M 229.289062 465.972656 L 180.472656 514.789062 L 180.472656 583.824219 L 229.289062 535.007812 Z M 298.324219 465.972656 L 249.507812 417.15625 L 180.472656 417.15625 L 229.289062 465.972656 Z M 131.660156 701.675781 L 82.84375 750.492188 L 82.84375 819.527344 L 131.660156 770.710938 Z M 62.621094 868.339844 L 13.808594 917.15625 L 13.808594 986.191406 L 62.621094 937.378906 Z M 131.660156 868.339844 L 82.84375 819.527344 L 13.808594 819.527344 L 62.621094 868.339844 Z M 298.324219 701.675781 L 249.507812 652.859375 L 180.472656 652.859375 L 229.289062 701.675781 Z M 131.660156 632.640625 L 82.84375 583.824219 L 13.808594 583.824219 L 62.621094 632.640625 Z M 131.660156 701.675781 L 180.472656 652.859375 L 180.472656 583.824219 L 131.660156 632.640625 Z M 180.472656 583.824219 L 131.660156 535.007812 L 131.660156 465.972656 L 180.472656 514.789062 Z M 131.660156 535.007812 L 82.84375 583.824219 L 13.808594 583.824219 L 62.621094 535.007812 Z M 180.472656 583.824219 L 249.507812 583.824219 L 298.324219 535.007812 L 229.289062 535.007812 Z M 249.507812 583.824219 L 249.507812 652.859375 L 298.324219 701.675781 L 298.324219 632.640625 Z M 131.660156 701.675781 L 62.621094 701.675781 L 13.808594 750.492188 L 82.84375 750.492188 Z M 62.621094 701.675781 L 62.621094 632.640625 L 13.808594 583.824219 L 13.808594 652.859375 Z M 131.660156 701.675781 L 180.472656 750.492188 L 180.472656 819.527344 L 131.660156 770.710938 Z M 180.472656 750.492188 L 229.289062 701.675781 L 298.324219 701.675781 L 249.507812 750.492188 Z M 298.324219 299.304688 L 229.289062 299.304688 L 180.472656 348.121094 L 249.507812 348.121094 Z M 131.660156 368.339844 L 62.621094 368.339844 L 13.808594 417.15625 L 82.84375 417.15625 Z M 180.472656 417.15625 L 180.472656 348.121094 L 131.660156 299.304688 L 131.660156 368.339844 Z M 131.660156 299.304688 L 131.660156 230.269531 L 82.84375 181.453125 L 82.84375 250.492188 Z M 62.621094 132.640625 L 62.621094 63.605469 L 13.808594 14.789062 L 13.808594 83.824219 Z M 13.808594 181.453125 L 82.84375 181.453125 L 131.660156 132.640625 L 62.621094 132.640625 Z M 131.660156 299.304688 L 180.472656 250.492188 L 180.472656 181.453125 L 131.660156 230.269531 Z M 180.472656 250.492188 L 229.289062 299.304688 L 298.324219 299.304688 L 249.507812 250.492188 Z M 131.660156 299.304688 L 62.621094 299.304688 L 13.808594 250.492188 L 82.84375 250.492188 Z M 62.621094 299.304688 L 62.621094 368.339844 L 13.808594 417.15625 L 13.808594 348.121094 Z M 13.808594 417.15625 L 62.621094 465.972656 L 131.660156 465.972656 L 82.84375 417.15625 Z M 62.621094 465.972656 L 13.808594 514.789062 L 13.808594 583.824219 L 62.621094 535.007812 Z M 298.324219 299.304688 L 347.140625 348.121094 L 347.140625 417.15625 L 298.324219 368.339844 Z M 367.359375 465.972656 L 416.175781 514.789062 L 416.175781 583.824219 L 367.359375 535.007812 Z M 298.324219 465.972656 L 347.140625 417.15625 L 416.175781 417.15625 L 367.359375 465.972656 Z M 416.175781 417.15625 L 464.992188 368.339844 L 534.027344 368.339844 L 485.210938 417.15625 Z M 582.84375 348.121094 L 631.660156 299.304688 L 700.695312 299.304688 L 651.878906 348.121094 Z M 582.84375 417.15625 L 534.027344 368.339844 L 534.027344 299.304688 L 582.84375 348.121094 Z M 416.175781 417.15625 L 416.175781 348.121094 L 464.992188 299.304688 L 464.992188 368.339844 Z M 416.175781 348.121094 L 347.140625 348.121094 L 298.324219 299.304688 L 367.359375 299.304688 Z M 416.175781 417.15625 L 464.992188 465.972656 L 534.027344 465.972656 L 485.210938 417.15625 Z M 464.992188 465.972656 L 416.175781 514.789062 L 416.175781 583.824219 L 464.992188 535.007812 Z M 416.175781 583.824219 L 347.140625 583.824219 L 298.324219 535.007812 L 367.359375 535.007812 Z M 347.140625 583.824219 L 347.140625 652.859375 L 298.324219 701.675781 L 298.324219 632.640625 Z M 700.695312 299.304688 L 700.695312 230.269531 L 651.878906 181.453125 L 651.878906 250.492188 Z M 631.660156 132.640625 L 631.660156 63.605469 L 582.84375 14.789062 L 582.84375 83.824219 Z M 582.84375 181.453125 L 651.878906 181.453125 L 700.695312 132.640625 L 631.660156 132.640625 Z M 700.695312 132.640625 L 769.730469 132.640625 L 818.546875 83.824219 L 749.507812 83.824219 Z M 867.359375 63.605469 L 936.394531 63.605469 L 985.210938 14.789062 L 916.175781 14.789062 Z M 818.546875 14.789062 L 818.546875 83.824219 L 867.359375 132.640625 L 867.359375 63.605469 Z M 700.695312 132.640625 L 749.507812 181.453125 L 818.546875 181.453125 L 769.730469 132.640625 Z M 749.507812 181.453125 L 700.695312 230.269531 L 700.695312 299.304688 L 749.507812 250.492188 Z M 700.695312 132.640625 L 700.695312 63.605469 L 749.507812 14.789062 L 749.507812 83.824219 Z M 700.695312 63.605469 L 631.660156 63.605469 L 582.84375 14.789062 L 651.878906 14.789062 Z M 582.84375 14.789062 L 534.027344 63.605469 L 534.027344 132.640625 L 582.84375 83.824219 Z M 534.027344 63.605469 L 485.210938 14.789062 L 416.175781 14.789062 L 464.992188 63.605469 Z M 534.027344 63.605469 "/>
<path style=" stroke:none;fill-rule:nonzero;fill:rgb(0%,40.78%,54.51%);fill-opacity:1;" d="M 936.394531 868.339844 L 867.359375 868.339844 L 936.394531 937.378906 Z M 936.394531 868.339844 L 985.210938 819.527344 L 985.210938 917.15625 Z M 916.175781 819.527344 L 867.359375 868.339844 L 867.359375 770.710938 Z M 916.175781 819.527344 L 985.210938 819.527344 L 916.175781 750.492188 Z M 769.730469 465.972656 L 700.695312 465.972656 L 769.730469 535.007812 Z M 769.730469 465.972656 L 818.546875 417.15625 L 818.546875 514.789062 Z M 749.507812 417.15625 L 700.695312 465.972656 L 700.695312 368.339844 Z M 749.507812 417.15625 L 818.546875 417.15625 L 749.507812 348.121094 Z M 867.359375 632.640625 L 867.359375 701.675781 L 936.394531 632.640625 Z M 867.359375 632.640625 L 818.546875 583.824219 L 916.175781 583.824219 Z M 818.546875 652.859375 L 867.359375 701.675781 L 769.730469 701.675781 Z M 818.546875 652.859375 L 818.546875 583.824219 L 749.507812 652.859375 Z M 818.546875 750.492188 L 867.359375 701.675781 L 769.730469 701.675781 Z M 818.546875 750.492188 L 818.546875 819.527344 L 749.507812 750.492188 Z M 818.546875 819.527344 L 867.359375 868.339844 L 867.359375 770.710938 Z M 936.394531 701.675781 L 867.359375 701.675781 L 936.394531 632.640625 Z M 936.394531 701.675781 L 985.210938 750.492188 L 985.210938 652.859375 Z M 985.210938 750.492188 L 985.210938 819.527344 L 916.175781 750.492188 Z M 749.507812 583.824219 L 818.546875 583.824219 L 749.507812 652.859375 Z M 749.507812 583.824219 L 700.695312 535.007812 L 700.695312 632.640625 Z M 700.695312 535.007812 L 700.695312 465.972656 L 769.730469 535.007812 Z M 867.359375 535.007812 L 818.546875 583.824219 L 916.175781 583.824219 Z M 867.359375 535.007812 L 867.359375 465.972656 L 936.394531 535.007812 Z M 867.359375 465.972656 L 818.546875 417.15625 L 818.546875 514.789062 Z M 582.84375 750.492188 L 582.84375 819.527344 L 651.878906 750.492188 Z M 582.84375 750.492188 L 534.027344 701.675781 L 631.660156 701.675781 Z M 534.027344 770.710938 L 582.84375 819.527344 L 485.210938 819.527344 Z M 534.027344 770.710938 L 534.027344 701.675781 L 464.992188 770.710938 Z M 180.472656 917.15625 L 180.472656 986.191406 L 249.507812 917.15625 Z M 180.472656 917.15625 L 131.660156 868.339844 L 229.289062 868.339844 Z M 131.660156 937.378906 L 180.472656 986.191406 L 82.84375 986.191406 Z M 131.660156 937.378906 L 131.660156 868.339844 L 62.621094 937.378906 Z M 347.140625 819.527344 L 416.175781 819.527344 L 347.140625 750.492188 Z M 347.140625 819.527344 L 298.324219 868.339844 L 298.324219 770.710938 Z M 367.359375 868.339844 L 416.175781 819.527344 L 416.175781 917.15625 Z M 367.359375 868.339844 L 298.324219 868.339844 L 367.359375 937.378906 Z M 464.992188 868.339844 L 416.175781 819.527344 L 416.175781 917.15625 Z M 464.992188 868.339844 L 534.027344 868.339844 L 464.992188 937.378906 Z M 534.027344 868.339844 L 582.84375 819.527344 L 485.210938 819.527344 Z M 416.175781 750.492188 L 416.175781 819.527344 L 347.140625 750.492188 Z M 416.175781 750.492188 L 464.992188 701.675781 L 367.359375 701.675781 Z M 464.992188 701.675781 L 534.027344 701.675781 L 464.992188 770.710938 Z M 298.324219 937.378906 L 298.324219 868.339844 L 367.359375 937.378906 Z M 298.324219 937.378906 L 249.507812 986.191406 L 347.140625 986.191406 Z M 249.507812 986.191406 L 180.472656 986.191406 L 249.507812 917.15625 Z M 249.507812 819.527344 L 298.324219 868.339844 L 298.324219 770.710938 Z M 249.507812 819.527344 L 180.472656 819.527344 L 249.507812 750.492188 Z M 180.472656 819.527344 L 131.660156 868.339844 L 229.289062 868.339844 Z M 651.878906 819.527344 L 700.695312 868.339844 L 700.695312 770.710938 Z M 651.878906 819.527344 L 582.84375 819.527344 L 651.878906 750.492188 Z M 631.660156 868.339844 L 700.695312 868.339844 L 631.660156 937.378906 Z M 631.660156 868.339844 L 582.84375 819.527344 L 582.84375 917.15625 Z M 818.546875 917.15625 L 867.359375 868.339844 L 769.730469 868.339844 Z M 818.546875 917.15625 L 818.546875 986.191406 L 749.507812 917.15625 Z M 867.359375 937.378906 L 867.359375 868.339844 L 936.394531 937.378906 Z M 867.359375 937.378906 L 818.546875 986.191406 L 916.175781 986.191406 Z M 749.507812 819.527344 L 700.695312 868.339844 L 700.695312 770.710938 Z M 749.507812 819.527344 L 818.546875 819.527344 L 749.507812 750.492188 Z M 818.546875 819.527344 L 867.359375 868.339844 L 769.730469 868.339844 Z M 700.695312 937.378906 L 700.695312 868.339844 L 631.660156 937.378906 Z M 700.695312 937.378906 L 749.507812 986.191406 L 651.878906 986.191406 Z M 749.507812 986.191406 L 818.546875 986.191406 L 749.507812 917.15625 Z M 534.027344 937.378906 L 582.84375 986.191406 L 485.210938 986.191406 Z M 534.027344 937.378906 L 534.027344 868.339844 L 464.992188 937.378906 Z M 534.027344 868.339844 L 582.84375 819.527344 L 582.84375 917.15625 Z M 582.84375 652.859375 L 582.84375 583.824219 L 651.878906 652.859375 Z M 582.84375 652.859375 L 534.027344 701.675781 L 631.660156 701.675781 Z M 534.027344 632.640625 L 582.84375 583.824219 L 485.210938 583.824219 Z M 534.027344 632.640625 L 534.027344 701.675781 L 464.992188 632.640625 Z M 631.660156 465.972656 L 700.695312 465.972656 L 631.660156 535.007812 Z M 631.660156 465.972656 L 582.84375 417.15625 L 582.84375 514.789062 Z M 651.878906 417.15625 L 700.695312 465.972656 L 700.695312 368.339844 Z M 651.878906 417.15625 L 582.84375 417.15625 L 651.878906 348.121094 Z M 651.878906 583.824219 L 582.84375 583.824219 L 651.878906 652.859375 Z M 651.878906 583.824219 L 700.695312 535.007812 L 700.695312 632.640625 Z M 700.695312 535.007812 L 700.695312 465.972656 L 631.660156 535.007812 Z M 534.027344 535.007812 L 582.84375 583.824219 L 485.210938 583.824219 Z M 534.027344 535.007812 L 534.027344 465.972656 L 464.992188 535.007812 Z M 534.027344 465.972656 L 582.84375 417.15625 L 582.84375 514.789062 Z M 416.175781 652.859375 L 416.175781 583.824219 L 347.140625 652.859375 Z M 416.175781 652.859375 L 464.992188 701.675781 L 367.359375 701.675781 Z M 464.992188 701.675781 L 534.027344 701.675781 L 464.992188 632.640625 Z M 818.546875 348.121094 L 867.359375 299.304688 L 769.730469 299.304688 Z M 818.546875 348.121094 L 818.546875 417.15625 L 749.507812 348.121094 Z M 867.359375 368.339844 L 867.359375 299.304688 L 936.394531 368.339844 Z M 867.359375 368.339844 L 818.546875 417.15625 L 916.175781 417.15625 Z M 916.175781 181.453125 L 867.359375 132.640625 L 867.359375 230.269531 Z M 916.175781 181.453125 L 985.210938 181.453125 L 916.175781 250.492188 Z M 936.394531 132.640625 L 867.359375 132.640625 L 936.394531 63.605469 Z M 936.394531 132.640625 L 985.210938 181.453125 L 985.210938 83.824219 Z M 818.546875 250.492188 L 867.359375 299.304688 L 769.730469 299.304688 Z M 818.546875 250.492188 L 818.546875 181.453125 L 749.507812 250.492188 Z M 818.546875 181.453125 L 867.359375 132.640625 L 867.359375 230.269531 Z M 936.394531 299.304688 L 867.359375 299.304688 L 936.394531 368.339844 Z M 936.394531 299.304688 L 985.210938 250.492188 L 985.210938 348.121094 Z M 985.210938 250.492188 L 985.210938 181.453125 L 916.175781 250.492188 Z M 936.394531 465.972656 L 985.210938 417.15625 L 985.210938 514.789062 Z M 936.394531 465.972656 L 867.359375 465.972656 L 936.394531 535.007812 Z M 867.359375 465.972656 L 818.546875 417.15625 L 916.175781 417.15625 Z M 131.660156 63.605469 L 131.660156 132.640625 L 62.621094 63.605469 Z M 131.660156 63.605469 L 180.472656 14.789062 L 82.84375 14.789062 Z M 180.472656 83.824219 L 131.660156 132.640625 L 229.289062 132.640625 Z M 180.472656 83.824219 L 180.472656 14.789062 L 249.507812 83.824219 Z M 534.027344 230.269531 L 534.027344 299.304688 L 464.992188 230.269531 Z M 534.027344 230.269531 L 582.84375 181.453125 L 485.210938 181.453125 Z M 582.84375 250.492188 L 534.027344 299.304688 L 631.660156 299.304688 Z M 582.84375 250.492188 L 582.84375 181.453125 L 651.878906 250.492188 Z M 367.359375 132.640625 L 298.324219 132.640625 L 367.359375 63.605469 Z M 367.359375 132.640625 L 416.175781 181.453125 L 416.175781 83.824219 Z M 347.140625 181.453125 L 298.324219 132.640625 L 298.324219 230.269531 Z M 347.140625 181.453125 L 416.175781 181.453125 L 347.140625 250.492188 Z M 249.507812 181.453125 L 298.324219 132.640625 L 298.324219 230.269531 Z M 249.507812 181.453125 L 180.472656 181.453125 L 249.507812 250.492188 Z M 180.472656 181.453125 L 131.660156 132.640625 L 229.289062 132.640625 Z M 298.324219 63.605469 L 298.324219 132.640625 L 367.359375 63.605469 Z M 298.324219 63.605469 L 249.507812 14.789062 L 347.140625 14.789062 Z M 249.507812 14.789062 L 180.472656 14.789062 L 249.507812 83.824219 Z M 416.175781 250.492188 L 416.175781 181.453125 L 347.140625 250.492188 Z M 416.175781 250.492188 L 464.992188 299.304688 L 367.359375 299.304688 Z M 464.992188 299.304688 L 534.027344 299.304688 L 464.992188 230.269531 Z M 464.992188 132.640625 L 416.175781 181.453125 L 416.175781 83.824219 Z M 464.992188 132.640625 L 534.027344 132.640625 L 464.992188 63.605469 Z M 534.027344 132.640625 L 582.84375 181.453125 L 485.210938 181.453125 Z M 249.507812 417.15625 L 180.472656 417.15625 L 249.507812 348.121094 Z M 249.507812 417.15625 L 298.324219 465.972656 L 298.324219 368.339844 Z M 229.289062 465.972656 L 180.472656 417.15625 L 180.472656 514.789062 Z M 229.289062 465.972656 L 298.324219 465.972656 L 229.289062 535.007812 Z M 82.84375 819.527344 L 13.808594 819.527344 L 82.84375 750.492188 Z M 82.84375 819.527344 L 131.660156 868.339844 L 131.660156 770.710938 Z M 62.621094 868.339844 L 13.808594 819.527344 L 13.808594 917.15625 Z M 62.621094 868.339844 L 131.660156 868.339844 L 62.621094 937.378906 Z M 180.472656 652.859375 L 180.472656 583.824219 L 249.507812 652.859375 Z M 180.472656 652.859375 L 131.660156 701.675781 L 229.289062 701.675781 Z M 131.660156 632.640625 L 180.472656 583.824219 L 82.84375 583.824219 Z M 131.660156 632.640625 L 131.660156 701.675781 L 62.621094 632.640625 Z M 131.660156 535.007812 L 180.472656 583.824219 L 82.84375 583.824219 Z M 131.660156 535.007812 L 131.660156 465.972656 L 62.621094 535.007812 Z M 131.660156 465.972656 L 180.472656 417.15625 L 180.472656 514.789062 Z M 249.507812 583.824219 L 180.472656 583.824219 L 249.507812 652.859375 Z M 249.507812 583.824219 L 298.324219 535.007812 L 298.324219 632.640625 Z M 298.324219 535.007812 L 298.324219 465.972656 L 229.289062 535.007812 Z M 62.621094 701.675781 L 131.660156 701.675781 L 62.621094 632.640625 Z M 62.621094 701.675781 L 13.808594 750.492188 L 13.808594 652.859375 Z M 13.808594 750.492188 L 13.808594 819.527344 L 82.84375 750.492188 Z M 180.472656 750.492188 L 131.660156 701.675781 L 229.289062 701.675781 Z M 180.472656 750.492188 L 180.472656 819.527344 L 249.507812 750.492188 Z M 180.472656 819.527344 L 131.660156 868.339844 L 131.660156 770.710938 Z M 180.472656 348.121094 L 131.660156 299.304688 L 229.289062 299.304688 Z M 180.472656 348.121094 L 180.472656 417.15625 L 249.507812 348.121094 Z M 131.660156 368.339844 L 131.660156 299.304688 L 62.621094 368.339844 Z M 131.660156 368.339844 L 180.472656 417.15625 L 82.84375 417.15625 Z M 82.84375 181.453125 L 131.660156 132.640625 L 131.660156 230.269531 Z M 82.84375 181.453125 L 13.808594 181.453125 L 82.84375 250.492188 Z M 62.621094 132.640625 L 131.660156 132.640625 L 62.621094 63.605469 Z M 62.621094 132.640625 L 13.808594 181.453125 L 13.808594 83.824219 Z M 180.472656 250.492188 L 131.660156 299.304688 L 229.289062 299.304688 Z M 180.472656 250.492188 L 180.472656 181.453125 L 249.507812 250.492188 Z M 180.472656 181.453125 L 131.660156 132.640625 L 131.660156 230.269531 Z M 62.621094 299.304688 L 131.660156 299.304688 L 62.621094 368.339844 Z M 62.621094 299.304688 L 13.808594 250.492188 L 13.808594 348.121094 Z M 13.808594 250.492188 L 13.808594 181.453125 L 82.84375 250.492188 Z M 62.621094 465.972656 L 13.808594 417.15625 L 13.808594 514.789062 Z M 62.621094 465.972656 L 131.660156 465.972656 L 62.621094 535.007812 Z M 131.660156 465.972656 L 180.472656 417.15625 L 82.84375 417.15625 Z M 347.140625 417.15625 L 416.175781 417.15625 L 347.140625 348.121094 Z M 347.140625 417.15625 L 298.324219 465.972656 L 298.324219 368.339844 Z M 367.359375 465.972656 L 416.175781 417.15625 L 416.175781 514.789062 Z M 367.359375 465.972656 L 298.324219 465.972656 L 367.359375 535.007812 Z M 534.027344 368.339844 L 534.027344 299.304688 L 464.992188 368.339844 Z M 534.027344 368.339844 L 582.84375 417.15625 L 485.210938 417.15625 Z M 582.84375 348.121094 L 534.027344 299.304688 L 631.660156 299.304688 Z M 582.84375 348.121094 L 582.84375 417.15625 L 651.878906 348.121094 Z M 416.175781 348.121094 L 416.175781 417.15625 L 347.140625 348.121094 Z M 416.175781 348.121094 L 464.992188 299.304688 L 367.359375 299.304688 Z M 464.992188 299.304688 L 534.027344 299.304688 L 464.992188 368.339844 Z M 464.992188 465.972656 L 416.175781 417.15625 L 416.175781 514.789062 Z M 464.992188 465.972656 L 534.027344 465.972656 L 464.992188 535.007812 Z M 534.027344 465.972656 L 582.84375 417.15625 L 485.210938 417.15625 Z M 347.140625 583.824219 L 416.175781 583.824219 L 347.140625 652.859375 Z M 347.140625 583.824219 L 298.324219 535.007812 L 298.324219 632.640625 Z M 298.324219 535.007812 L 298.324219 465.972656 L 367.359375 535.007812 Z M 651.878906 181.453125 L 700.695312 132.640625 L 700.695312 230.269531 Z M 651.878906 181.453125 L 582.84375 181.453125 L 651.878906 250.492188 Z M 631.660156 132.640625 L 700.695312 132.640625 L 631.660156 63.605469 Z M 631.660156 132.640625 L 582.84375 181.453125 L 582.84375 83.824219 Z M 818.546875 83.824219 L 867.359375 132.640625 L 769.730469 132.640625 Z M 818.546875 83.824219 L 818.546875 14.789062 L 749.507812 83.824219 Z M 867.359375 63.605469 L 867.359375 132.640625 L 936.394531 63.605469 Z M 867.359375 63.605469 L 818.546875 14.789062 L 916.175781 14.789062 Z M 749.507812 181.453125 L 700.695312 132.640625 L 700.695312 230.269531 Z M 749.507812 181.453125 L 818.546875 181.453125 L 749.507812 250.492188 Z M 818.546875 181.453125 L 867.359375 132.640625 L 769.730469 132.640625 Z M 700.695312 63.605469 L 700.695312 132.640625 L 631.660156 63.605469 Z M 700.695312 63.605469 L 749.507812 14.789062 L 651.878906 14.789062 Z M 749.507812 14.789062 L 818.546875 14.789062 L 749.507812 83.824219 Z M 534.027344 63.605469 L 582.84375 14.789062 L 485.210938 14.789062 Z M 534.027344 63.605469 L 534.027344 132.640625 L 464.992188 63.605469 Z M 534.027344 132.640625 L 582.84375 181.453125 L 582.84375 83.824219 Z M 534.027344 132.640625 "/>
<path style="fill:none;stroke-width:0.1;stroke-linecap:butt;stroke-linejoin:round;stroke:rgb(20%,20%,20%);stroke-opacity:1;stroke-miterlimit:10;" d="M 9.94974 0.0000151079 L 9.449731 0.499984 L 9.449731 1.207126 L 9.94974 0.707117 Z M 9.242638 1.707095 L 8.742629 2.207104 L 8.742629 2.914206 L 9.242638 2.414198 Z M 9.94974 1.707095 L 9.449731 1.207126 L 8.742629 1.207126 L 9.242638 1.707095 Z M 9.449731 0.499984 L 9.449731 1.207126 L 8.742629 1.207126 M 9.94974 0.707117 L 9.449731 1.207126 L 9.94974 1.707095 M 8.742629 2.207104 L 9.242638 1.707095 L 8.742629 1.207126 M 9.242638 2.414198 L 9.242638 1.707095 L 9.94974 1.707095 M 8.24266 4.121318 L 7.742651 4.621327 L 7.742651 5.328429 L 8.24266 4.82842 Z M 7.535518 5.828438 L 7.035549 6.328447 L 7.035549 7.035549 L 7.535518 6.53554 Z M 8.24266 5.828438 L 7.742651 5.328429 L 7.035549 5.328429 L 7.535518 5.828438 Z M 7.742651 4.621327 L 7.742651 5.328429 L 7.035549 5.328429 M 8.24266 4.82842 L 7.742651 5.328429 L 8.24266 5.828438 M 7.035549 6.328447 L 7.535518 5.828438 L 7.035549 5.328429 M 7.535518 6.53554 L 7.535518 5.828438 L 8.24266 5.828438 M 9.94974 4.121318 L 9.449731 3.621309 L 8.742629 3.621309 L 9.242638 4.121318 Z M 8.24266 3.414215 L 7.742651 2.914206 L 7.035549 2.914206 L 7.535518 3.414215 Z M 8.24266 4.121318 L 8.742629 3.621309 L 8.742629 2.914206 L 8.24266 3.414215 Z M 9.449731 3.621309 L 8.742629 3.621309 L 8.742629 2.914206 M 9.242638 4.121318 L 8.742629 3.621309 L 8.24266 4.121318 M 7.742651 2.914206 L 8.24266 3.414215 L 8.742629 2.914206 M 7.535518 3.414215 L 8.24266 3.414215 L 8.24266 4.121318 M 8.742629 2.914206 L 8.24266 2.414198 L 8.24266 1.707095 L 8.742629 2.207104 Z M 8.24266 2.414198 L 7.742651 2.914206 L 7.035549 2.914206 L 7.535518 2.414198 Z M 7.742651 2.914206 L 8.24266 2.414198 L 8.742629 2.914206 M 7.535518 2.414198 L 8.24266 2.414198 L 8.24266 1.707095 M 8.742629 2.207104 L 8.24266 1.707095 L 8.742629 1.207126 M 8.742629 2.914206 L 9.449731 2.914206 L 9.94974 2.414198 L 9.242638 2.414198 Z M 9.449731 2.914206 L 9.449731 3.621309 L 9.94974 4.121318 L 9.94974 3.414215 Z M 9.449731 3.621309 L 9.449731 2.914206 L 8.742629 2.914206 M 9.94974 3.414215 L 9.449731 2.914206 L 9.94974 2.414198 M 9.242638 2.414198 L 9.94974 2.414198 L 9.94974 1.707095 M 8.24266 4.121318 L 7.535518 4.121318 L 7.035549 4.621327 L 7.742651 4.621327 Z M 7.535518 4.121318 L 7.535518 3.414215 L 7.035549 2.914206 L 7.035549 3.621309 Z M 7.535518 3.414215 L 7.535518 4.121318 L 8.24266 4.121318 M 7.035549 3.621309 L 7.535518 4.121318 L 7.035549 4.621327 M 7.742651 4.621327 L 7.035549 4.621327 L 7.035549 5.328429 M 8.24266 4.121318 L 8.742629 4.621327 L 8.742629 5.328429 L 8.24266 4.82842 Z M 8.742629 4.621327 L 9.242638 4.121318 L 9.94974 4.121318 L 9.449731 4.621327 Z M 9.242638 4.121318 L 8.742629 4.621327 L 8.24266 4.121318 M 9.449731 4.621327 L 8.742629 4.621327 L 8.742629 5.328429 M 8.24266 4.82842 L 8.742629 5.328429 L 8.24266 5.828438 M 7.035549 2.914206 L 6.53554 2.414198 L 5.828438 2.414198 L 6.328447 2.914206 Z M 5.328429 2.207104 L 4.82842 1.707095 L 4.121318 1.707095 L 4.621327 2.207104 Z M 5.328429 2.914206 L 5.828438 2.414198 L 5.828438 1.707095 L 5.328429 2.207104 Z M 6.53554 2.414198 L 5.828438 2.414198 L 5.828438 1.707095 M 6.328447 2.914206 L 5.828438 2.414198 L 5.328429 2.914206 M 4.82842 1.707095 L 5.328429 2.207104 L 5.828438 1.707095 M 4.621327 2.207104 L 5.328429 2.207104 L 5.328429 2.914206 M 2.914206 1.207126 L 2.414198 0.707117 L 1.707095 0.707117 L 2.207104 1.207126 Z M 1.207126 0.499984 L 0.707117 0.0000151079 L 0.0000151079 0.0000151079 L 0.499984 0.499984 Z M 1.207126 1.207126 L 1.707095 0.707117 L 1.707095 0.0000151079 L 1.207126 0.499984 Z M 2.414198 0.707117 L 1.707095 0.707117 L 1.707095 0.0000151079 M 2.207104 1.207126 L 1.707095 0.707117 L 1.207126 1.207126 M 0.707117 0.0000151079 L 1.207126 0.499984 L 1.707095 0.0000151079 M 0.499984 0.499984 L 1.207126 0.499984 L 1.207126 1.207126 M 2.914206 2.914206 L 3.414215 2.414198 L 3.414215 1.707095 L 2.914206 2.207104 Z M 3.621309 1.207126 L 4.121318 0.707117 L 4.121318 0.0000151079 L 3.621309 0.499984 Z M 2.914206 1.207126 L 3.414215 1.707095 L 4.121318 1.707095 L 3.621309 1.207126 Z M 3.414215 2.414198 L 3.414215 1.707095 L 4.121318 1.707095 M 2.914206 2.207104 L 3.414215 1.707095 L 2.914206 1.207126 M 4.121318 0.707117 L 3.621309 1.207126 L 4.121318 1.707095 M 3.621309 0.499984 L 3.621309 1.207126 L 2.914206 1.207126 M 4.121318 1.707095 L 4.621327 1.207126 L 5.328429 1.207126 L 4.82842 1.707095 Z M 4.621327 1.207126 L 4.121318 0.707117 L 4.121318 0.0000151079 L 4.621327 0.499984 Z M 4.121318 0.707117 L 4.621327 1.207126 L 4.121318 1.707095 M 4.621327 0.499984 L 4.621327 1.207126 L 5.328429 1.207126 M 4.82842 1.707095 L 5.328429 1.207126 L 5.828438 1.707095 M 4.121318 1.707095 L 4.121318 2.414198 L 4.621327 2.914206 L 4.621327 2.207104 Z M 4.121318 2.414198 L 3.414215 2.414198 L 2.914206 2.914206 L 3.621309 2.914206 Z M 3.414215 2.414198 L 4.121318 2.414198 L 4.121318 1.707095 M 3.621309 2.914206 L 4.121318 2.414198 L 4.621327 2.914206 M 4.621327 2.207104 L 4.621327 2.914206 L 5.328429 2.914206 M 2.914206 1.207126 L 2.914206 0.499984 L 2.414198 0.0000151079 L 2.414198 0.707117 Z M 2.914206 0.499984 L 3.621309 0.499984 L 4.121318 0.0000151079 L 3.414215 0.0000151079 Z M 3.621309 0.499984 L 2.914206 0.499984 L 2.914206 1.207126 M 3.414215 0.0000151079 L 2.914206 0.499984 L 2.414198 0.0000151079 M 2.414198 0.707117 L 2.414198 0.0000151079 L 1.707095 0.0000151079 M 2.914206 1.207126 L 2.414198 1.707095 L 1.707095 1.707095 L 2.207104 1.207126 Z M 2.414198 1.707095 L 2.914206 2.207104 L 2.914206 2.914206 L 2.414198 2.414198 Z M 2.914206 2.207104 L 2.414198 1.707095 L 2.914206 1.207126 M 2.414198 2.414198 L 2.414198 1.707095 L 1.707095 1.707095 M 2.207104 1.207126 L 1.707095 1.707095 L 1.207126 1.207126 M 7.035549 2.914206 L 7.035549 2.207104 L 6.53554 1.707095 L 6.53554 2.414198 Z M 6.328447 1.207126 L 6.328447 0.499984 L 5.828438 0.0000151079 L 5.828438 0.707117 Z M 5.828438 1.707095 L 6.53554 1.707095 L 7.035549 1.207126 L 6.328447 1.207126 Z M 7.035549 2.207104 L 6.53554 1.707095 L 7.035549 1.207126 M 6.53554 2.414198 L 6.53554 1.707095 L 5.828438 1.707095 M 6.328447 0.499984 L 6.328447 1.207126 L 7.035549 1.207126 M 5.828438 0.707117 L 6.328447 1.207126 L 5.828438 1.707095 M 7.035549 1.207126 L 7.742651 1.207126 L 8.24266 0.707117 L 7.535518 0.707117 Z M 8.742629 0.499984 L 9.449731 0.499984 L 9.94974 0.0000151079 L 9.242638 0.0000151079 Z M 8.24266 0.0000151079 L 8.24266 0.707117 L 8.742629 1.207126 L 8.742629 0.499984 Z M 7.742651 1.207126 L 8.24266 0.707117 L 8.742629 1.207126 M 7.535518 0.707117 L 8.24266 0.707117 L 8.24266 0.0000151079 M 9.449731 0.499984 L 8.742629 0.499984 L 8.742629 1.207126 M 9.242638 0.0000151079 L 8.742629 0.499984 L 8.24266 0.0000151079 M 7.035549 1.207126 L 7.535518 1.707095 L 8.24266 1.707095 L 7.742651 1.207126 Z M 7.535518 1.707095 L 7.035549 2.207104 L 7.035549 2.914206 L 7.535518 2.414198 Z M 7.035549 2.207104 L 7.535518 1.707095 L 7.035549 1.207126 M 7.535518 2.414198 L 7.535518 1.707095 L 8.24266 1.707095 M 7.742651 1.207126 L 8.24266 1.707095 L 8.742629 1.207126 M 7.035549 1.207126 L 7.035549 0.499984 L 7.535518 0.0000151079 L 7.535518 0.707117 Z M 7.035549 0.499984 L 6.328447 0.499984 L 5.828438 0.0000151079 L 6.53554 0.0000151079 Z M 6.328447 0.499984 L 7.035549 0.499984 L 7.035549 1.207126 M 6.53554 0.0000151079 L 7.035549 0.499984 L 7.535518 0.0000151079 M 7.535518 0.707117 L 7.535518 0.0000151079 L 8.24266 0.0000151079 M 5.828438 0.0000151079 L 5.328429 0.499984 L 5.328429 1.207126 L 5.828438 0.707117 Z M 5.328429 0.499984 L 4.82842 0.0000151079 L 4.121318 0.0000151079 L 4.621327 0.499984 Z M 4.82842 0.0000151079 L 5.328429 0.499984 L 5.828438 0.0000151079 M 4.621327 0.499984 L 5.328429 0.499984 L 5.328429 1.207126 M 5.828438 0.707117 L 5.328429 1.207126 L 5.828438 1.707095 M 7.035549 2.914206 L 6.53554 3.414215 L 5.828438 3.414215 L 6.328447 2.914206 Z M 5.328429 3.621309 L 4.82842 4.121318 L 4.121318 4.121318 L 4.621327 3.621309 Z M 5.328429 2.914206 L 5.828438 3.414215 L 5.828438 4.121318 L 5.328429 3.621309 Z M 6.53554 3.414215 L 5.828438 3.414215 L 5.828438 4.121318 M 6.328447 2.914206 L 5.828438 3.414215 L 5.328429 2.914206 M 4.82842 4.121318 L 5.328429 3.621309 L 5.828438 4.121318 M 4.621327 3.621309 L 5.328429 3.621309 L 5.328429 2.914206 M 5.828438 4.121318 L 6.328447 4.621327 L 6.328447 5.328429 L 5.828438 4.82842 Z M 6.53554 5.828438 L 7.035549 6.328447 L 7.035549 7.035549 L 6.53554 6.53554 Z M 5.828438 5.828438 L 6.328447 5.328429 L 7.035549 5.328429 L 6.53554 5.828438 Z M 6.328447 4.621327 L 6.328447 5.328429 L 7.035549 5.328429 M 5.828438 4.82842 L 6.328447 5.328429 L 5.828438 5.828438 M 7.035549 6.328447 L 6.53554 5.828438 L 7.035549 5.328429 M 6.53554 6.53554 L 6.53554 5.828438 L 5.828438 5.828438 M 5.828438 4.121318 L 6.53554 4.121318 L 7.035549 4.621327 L 6.328447 4.621327 Z M 6.53554 4.121318 L 6.53554 3.414215 L 7.035549 2.914206 L 7.035549 3.621309 Z M 6.53554 3.414215 L 6.53554 4.121318 L 5.828438 4.121318 M 7.035549 3.621309 L 6.53554 4.121318 L 7.035549 4.621327 M 6.328447 4.621327 L 7.035549 4.621327 L 7.035549 5.328429 M 5.828438 4.121318 L 5.328429 4.621327 L 5.328429 5.328429 L 5.828438 4.82842 Z M 5.328429 4.621327 L 4.82842 4.121318 L 4.121318 4.121318 L 4.621327 4.621327 Z M 4.82842 4.121318 L 5.328429 4.621327 L 5.828438 4.121318 M 4.621327 4.621327 L 5.328429 4.621327 L 5.328429 5.328429 M 5.828438 4.82842 L 5.328429 5.328429 L 5.828438 5.828438 M 4.121318 4.121318 L 4.121318 3.414215 L 4.621327 2.914206 L 4.621327 3.621309 Z M 4.121318 3.414215 L 3.414215 3.414215 L 2.914206 2.914206 L 3.621309 2.914206 Z M 3.414215 3.414215 L 4.121318 3.414215 L 4.121318 4.121318 M 3.621309 2.914206 L 4.121318 3.414215 L 4.621327 2.914206 M 4.621327 3.621309 L 4.621327 2.914206 L 5.328429 2.914206 M 7.035549 7.035549 L 7.742651 7.035549 L 8.24266 6.53554 L 7.535518 6.53554 Z M 8.742629 6.328447 L 9.449731 6.328447 L 9.94974 5.828438 L 9.242638 5.828438 Z M 8.24266 5.828438 L 8.24266 6.53554 L 8.742629 7.035549 L 8.742629 6.328447 Z M 7.742651 7.035549 L 8.24266 6.53554 L 8.742629 7.035549 M 7.535518 6.53554 L 8.24266 6.53554 L 8.24266 5.828438 M 9.449731 6.328447 L 8.742629 6.328447 L 8.742629 7.035549 M 9.242638 5.828438 L 8.742629 6.328447 L 8.24266 5.828438 M 8.742629 7.035549 L 8.742629 7.742651 L 9.242638 8.24266 L 9.242638 7.535518 Z M 9.449731 8.742629 L 9.449731 9.449731 L 9.94974 9.94974 L 9.94974 9.242638 Z M 9.94974 8.24266 L 9.242638 8.24266 L 8.742629 8.742629 L 9.449731 8.742629 Z M 8.742629 7.742651 L 9.242638 8.24266 L 8.742629 8.742629 M 9.242638 7.535518 L 9.242638 8.24266 L 9.94974 8.24266 M 9.449731 9.449731 L 9.449731 8.742629 L 8.742629 8.742629 M 9.94974 9.242638 L 9.449731 8.742629 L 9.94974 8.24266 M 8.742629 7.035549 L 8.24266 7.535518 L 8.24266 8.24266 L 8.742629 7.742651 Z M 8.24266 7.535518 L 7.742651 7.035549 L 7.035549 7.035549 L 7.535518 7.535518 Z M 7.742651 7.035549 L 8.24266 7.535518 L 8.742629 7.035549 M 7.535518 7.535518 L 8.24266 7.535518 L 8.24266 8.24266 M 8.742629 7.742651 L 8.24266 8.24266 L 8.742629 8.742629 M 8.742629 7.035549 L 9.449731 7.035549 L 9.94974 7.535518 L 9.242638 7.535518 Z M 9.449731 7.035549 L 9.449731 6.328447 L 9.94974 5.828438 L 9.94974 6.53554 Z M 9.449731 6.328447 L 9.449731 7.035549 L 8.742629 7.035549 M 9.94974 6.53554 L 9.449731 7.035549 L 9.94974 7.535518 M 9.242638 7.535518 L 9.94974 7.535518 L 9.94974 8.24266 M 9.94974 5.828438 L 9.449731 5.328429 L 8.742629 5.328429 L 9.242638 5.828438 Z M 9.449731 5.328429 L 9.94974 4.82842 L 9.94974 4.121318 L 9.449731 4.621327 Z M 9.94974 4.82842 L 9.449731 5.328429 L 9.94974 5.828438 M 9.449731 4.621327 L 9.449731 5.328429 L 8.742629 5.328429 M 9.242638 5.828438 L 8.742629 5.328429 L 8.24266 5.828438 M 0.0000151079 9.94974 L 0.499984 9.449731 L 1.207126 9.449731 L 0.707117 9.94974 Z M 1.707095 9.242638 L 2.207104 8.742629 L 2.914206 8.742629 L 2.414198 9.242638 Z M 1.707095 9.94974 L 1.207126 9.449731 L 1.207126 8.742629 L 1.707095 9.242638 Z M 0.499984 9.449731 L 1.207126 9.449731 L 1.207126 8.742629 M 0.707117 9.94974 L 1.207126 9.449731 L 1.707095 9.94974 M 2.207104 8.742629 L 1.707095 9.242638 L 1.207126 8.742629 M 2.414198 9.242638 L 1.707095 9.242638 L 1.707095 9.94974 M 4.121318 8.24266 L 4.621327 7.742651 L 5.328429 7.742651 L 4.82842 8.24266 Z M 5.828438 7.535518 L 6.328447 7.035549 L 7.035549 7.035549 L 6.53554 7.535518 Z M 5.828438 8.24266 L 5.328429 7.742651 L 5.328429 7.035549 L 5.828438 7.535518 Z M 4.621327 7.742651 L 5.328429 7.742651 L 5.328429 7.035549 M 4.82842 8.24266 L 5.328429 7.742651 L 5.828438 8.24266 M 6.328447 7.035549 L 5.828438 7.535518 L 5.328429 7.035549 M 6.53554 7.535518 L 5.828438 7.535518 L 5.828438 8.24266 M 4.121318 9.94974 L 3.621309 9.449731 L 3.621309 8.742629 L 4.121318 9.242638 Z M 3.414215 8.24266 L 2.914206 7.742651 L 2.914206 7.035549 L 3.414215 7.535518 Z M 4.121318 8.24266 L 3.621309 8.742629 L 2.914206 8.742629 L 3.414215 8.24266 Z M 3.621309 9.449731 L 3.621309 8.742629 L 2.914206 8.742629 M 4.121318 9.242638 L 3.621309 8.742629 L 4.121318 8.24266 M 2.914206 7.742651 L 3.414215 8.24266 L 2.914206 8.742629 M 3.414215 7.535518 L 3.414215 8.24266 L 4.121318 8.24266 M 2.914206 8.742629 L 2.414198 8.24266 L 1.707095 8.24266 L 2.207104 8.742629 Z M 2.414198 8.24266 L 2.914206 7.742651 L 2.914206 7.035549 L 2.414198 7.535518 Z M 2.914206 7.742651 L 2.414198 8.24266 L 2.914206 8.742629 M 2.414198 7.535518 L 2.414198 8.24266 L 1.707095 8.24266 M 2.207104 8.742629 L 1.707095 8.24266 L 1.207126 8.742629 M 2.914206 8.742629 L 2.914206 9.449731 L 2.414198 9.94974 L 2.414198 9.242638 Z M 2.914206 9.449731 L 3.621309 9.449731 L 4.121318 9.94974 L 3.414215 9.94974 Z M 3.621309 9.449731 L 2.914206 9.449731 L 2.914206 8.742629 M 3.414215 9.94974 L 2.914206 9.449731 L 2.414198 9.94974 M 2.414198 9.242638 L 2.414198 9.94974 L 1.707095 9.94974 M 4.121318 8.24266 L 4.121318 7.535518 L 4.621327 7.035549 L 4.621327 7.742651 Z M 4.121318 7.535518 L 3.414215 7.535518 L 2.914206 7.035549 L 3.621309 7.035549 Z M 3.414215 7.535518 L 4.121318 7.535518 L 4.121318 8.24266 M 3.621309 7.035549 L 4.121318 7.535518 L 4.621327 7.035549 M 4.621327 7.742651 L 4.621327 7.035549 L 5.328429 7.035549 M 4.121318 8.24266 L 4.621327 8.742629 L 5.328429 8.742629 L 4.82842 8.24266 Z M 4.621327 8.742629 L 4.121318 9.242638 L 4.121318 9.94974 L 4.621327 9.449731 Z M 4.121318 9.242638 L 4.621327 8.742629 L 4.121318 8.24266 M 4.621327 9.449731 L 4.621327 8.742629 L 5.328429 8.742629 M 4.82842 8.24266 L 5.328429 8.742629 L 5.828438 8.24266 M 2.914206 7.035549 L 2.414198 6.53554 L 2.414198 5.828438 L 2.914206 6.328447 Z M 2.207104 5.328429 L 1.707095 4.82842 L 1.707095 4.121318 L 2.207104 4.621327 Z M 2.914206 5.328429 L 2.414198 5.828438 L 1.707095 5.828438 L 2.207104 5.328429 Z M 2.414198 6.53554 L 2.414198 5.828438 L 1.707095 5.828438 M 2.914206 6.328447 L 2.414198 5.828438 L 2.914206 5.328429 M 1.707095 4.82842 L 2.207104 5.328429 L 1.707095 5.828438 M 2.207104 4.621327 L 2.207104 5.328429 L 2.914206 5.328429 M 1.207126 2.914206 L 0.707117 2.414198 L 0.707117 1.707095 L 1.207126 2.207104 Z M 0.499984 1.207126 L 0.0000151079 0.707117 L 0.0000151079 0.0000151079 L 0.499984 0.499984 Z M 1.207126 1.207126 L 0.707117 1.707095 L 0.0000151079 1.707095 L 0.499984 1.207126 Z M 0.707117 2.414198 L 0.707117 1.707095 L 0.0000151079 1.707095 M 1.207126 2.207104 L 0.707117 1.707095 L 1.207126 1.207126 M 0.0000151079 0.707117 L 0.499984 1.207126 L 0.0000151079 1.707095 M 0.499984 0.499984 L 0.499984 1.207126 L 1.207126 1.207126 M 2.914206 2.914206 L 2.414198 3.414215 L 1.707095 3.414215 L 2.207104 2.914206 Z M 1.207126 3.621309 L 0.707117 4.121318 L 0.0000151079 4.121318 L 0.499984 3.621309 Z M 1.207126 2.914206 L 1.707095 3.414215 L 1.707095 4.121318 L 1.207126 3.621309 Z M 2.414198 3.414215 L 1.707095 3.414215 L 1.707095 4.121318 M 2.207104 2.914206 L 1.707095 3.414215 L 1.207126 2.914206 M 0.707117 4.121318 L 1.207126 3.621309 L 1.707095 4.121318 M 0.499984 3.621309 L 1.207126 3.621309 L 1.207126 2.914206 M 1.707095 4.121318 L 1.207126 4.621327 L 1.207126 5.328429 L 1.707095 4.82842 Z M 1.207126 4.621327 L 0.707117 4.121318 L 0.0000151079 4.121318 L 0.499984 4.621327 Z M 0.707117 4.121318 L 1.207126 4.621327 L 1.707095 4.121318 M 0.499984 4.621327 L 1.207126 4.621327 L 1.207126 5.328429 M 1.707095 4.82842 L 1.207126 5.328429 L 1.707095 5.828438 M 1.707095 4.121318 L 2.414198 4.121318 L 2.914206 4.621327 L 2.207104 4.621327 Z M 2.414198 4.121318 L 2.414198 3.414215 L 2.914206 2.914206 L 2.914206 3.621309 Z M 2.414198 3.414215 L 2.414198 4.121318 L 1.707095 4.121318 M 2.914206 3.621309 L 2.414198 4.121318 L 2.914206 4.621327 M 2.207104 4.621327 L 2.914206 4.621327 L 2.914206 5.328429 M 1.207126 2.914206 L 0.499984 2.914206 L 0.0000151079 2.414198 L 0.707117 2.414198 Z M 0.499984 2.914206 L 0.499984 3.621309 L 0.0000151079 4.121318 L 0.0000151079 3.414215 Z M 0.499984 3.621309 L 0.499984 2.914206 L 1.207126 2.914206 M 0.0000151079 3.414215 L 0.499984 2.914206 L 0.0000151079 2.414198 M 0.707117 2.414198 L 0.0000151079 2.414198 L 0.0000151079 1.707095 M 1.207126 2.914206 L 1.707095 2.414198 L 1.707095 1.707095 L 1.207126 2.207104 Z M 1.707095 2.414198 L 2.207104 2.914206 L 2.914206 2.914206 L 2.414198 2.414198 Z M 2.207104 2.914206 L 1.707095 2.414198 L 1.207126 2.914206 M 2.414198 2.414198 L 1.707095 2.414198 L 1.707095 1.707095 M 1.207126 2.207104 L 1.707095 1.707095 L 1.207126 1.207126 M 2.914206 7.035549 L 2.207104 7.035549 L 1.707095 6.53554 L 2.414198 6.53554 Z M 1.207126 6.328447 L 0.499984 6.328447 L 0.0000151079 5.828438 L 0.707117 5.828438 Z M 1.707095 5.828438 L 1.707095 6.53554 L 1.207126 7.035549 L 1.207126 6.328447 Z M 2.207104 7.035549 L 1.707095 6.53554 L 1.207126 7.035549 M 2.414198 6.53554 L 1.707095 6.53554 L 1.707095 5.828438 M 0.499984 6.328447 L 1.207126 6.328447 L 1.207126 7.035549 M 0.707117 5.828438 L 1.207126 6.328447 L 1.707095 5.828438 M 1.207126 7.035549 L 1.207126 7.742651 L 0.707117 8.24266 L 0.707117 7.535518 Z M 0.499984 8.742629 L 0.499984 9.449731 L 0.0000151079 9.94974 L 0.0000151079 9.242638 Z M 0.0000151079 8.24266 L 0.707117 8.24266 L 1.207126 8.742629 L 0.499984 8.742629 Z M 1.207126 7.742651 L 0.707117 8.24266 L 1.207126 8.742629 M 0.707117 7.535518 L 0.707117 8.24266 L 0.0000151079 8.24266 M 0.499984 9.449731 L 0.499984 8.742629 L 1.207126 8.742629 M 0.0000151079 9.242638 L 0.499984 8.742629 L 0.0000151079 8.24266 M 1.207126 7.035549 L 1.707095 7.535518 L 1.707095 8.24266 L 1.207126 7.742651 Z M 1.707095 7.535518 L 2.207104 7.035549 L 2.914206 7.035549 L 2.414198 7.535518 Z M 2.207104 7.035549 L 1.707095 7.535518 L 1.207126 7.035549 M 2.414198 7.535518 L 1.707095 7.535518 L 1.707095 8.24266 M 1.207126 7.742651 L 1.707095 8.24266 L 1.207126 8.742629 M 1.207126 7.035549 L 0.499984 7.035549 L 0.0000151079 7.535518 L 0.707117 7.535518 Z M 0.499984 7.035549 L 0.499984 6.328447 L 0.0000151079 5.828438 L 0.0000151079 6.53554 Z M 0.499984 6.328447 L 0.499984 7.035549 L 1.207126 7.035549 M 0.0000151079 6.53554 L 0.499984 7.035549 L 0.0000151079 7.535518 M 0.707117 7.535518 L 0.0000151079 7.535518 L 0.0000151079 8.24266 M 0.0000151079 5.828438 L 0.499984 5.328429 L 1.207126 5.328429 L 0.707117 5.828438 Z M 0.499984 5.328429 L 0.0000151079 4.82842 L 0.0000151079 4.121318 L 0.499984 4.621327 Z M 0.0000151079 4.82842 L 0.499984 5.328429 L 0.0000151079 5.828438 M 0.499984 4.621327 L 0.499984 5.328429 L 1.207126 5.328429 M 0.707117 5.828438 L 1.207126 5.328429 L 1.707095 5.828438 M 2.914206 7.035549 L 3.414215 6.53554 L 3.414215 5.828438 L 2.914206 6.328447 Z M 3.621309 5.328429 L 4.121318 4.82842 L 4.121318 4.121318 L 3.621309 4.621327 Z M 2.914206 5.328429 L 3.414215 5.828438 L 4.121318 5.828438 L 3.621309 5.328429 Z M 3.414215 6.53554 L 3.414215 5.828438 L 4.121318 5.828438 M 2.914206 6.328447 L 3.414215 5.828438 L 2.914206 5.328429 M 4.121318 4.82842 L 3.621309 5.328429 L 4.121318 5.828438 M 3.621309 4.621327 L 3.621309 5.328429 L 2.914206 5.328429 M 4.121318 5.828438 L 4.621327 6.328447 L 5.328429 6.328447 L 4.82842 5.828438 Z M 5.828438 6.53554 L 6.328447 7.035549 L 7.035549 7.035549 L 6.53554 6.53554 Z M 5.828438 5.828438 L 5.328429 6.328447 L 5.328429 7.035549 L 5.828438 6.53554 Z M 4.621327 6.328447 L 5.328429 6.328447 L 5.328429 7.035549 M 4.82842 5.828438 L 5.328429 6.328447 L 5.828438 5.828438 M 6.328447 7.035549 L 5.828438 6.53554 L 5.328429 7.035549 M 6.53554 6.53554 L 5.828438 6.53554 L 5.828438 5.828438 M 4.121318 5.828438 L 4.121318 6.53554 L 4.621327 7.035549 L 4.621327 6.328447 Z M 4.121318 6.53554 L 3.414215 6.53554 L 2.914206 7.035549 L 3.621309 7.035549 Z M 3.414215 6.53554 L 4.121318 6.53554 L 4.121318 5.828438 M 3.621309 7.035549 L 4.121318 6.53554 L 4.621327 7.035549 M 4.621327 6.328447 L 4.621327 7.035549 L 5.328429 7.035549 M 4.121318 5.828438 L 4.621327 5.328429 L 5.328429 5.328429 L 4.82842 5.828438 Z M 4.621327 5.328429 L 4.121318 4.82842 L 4.121318 4.121318 L 4.621327 4.621327 Z M 4.121318 4.82842 L 4.621327 5.328429 L 4.121318 5.828438 M 4.621327 4.621327 L 4.621327 5.328429 L 5.328429 5.328429 M 4.82842 5.828438 L 5.328429 5.328429 L 5.828438 5.828438 M 4.121318 4.121318 L 3.414215 4.121318 L 2.914206 4.621327 L 3.621309 4.621327 Z M 3.414215 4.121318 L 3.414215 3.414215 L 2.914206 2.914206 L 2.914206 3.621309 Z M 3.414215 3.414215 L 3.414215 4.121318 L 4.121318 4.121318 M 2.914206 3.621309 L 3.414215 4.121318 L 2.914206 4.621327 M 3.621309 4.621327 L 2.914206 4.621327 L 2.914206 5.328429 M 7.035549 7.035549 L 7.035549 7.742651 L 6.53554 8.24266 L 6.53554 7.535518 Z M 6.328447 8.742629 L 6.328447 9.449731 L 5.828438 9.94974 L 5.828438 9.242638 Z M 5.828438 8.24266 L 6.53554 8.24266 L 7.035549 8.742629 L 6.328447 8.742629 Z M 7.035549 7.742651 L 6.53554 8.24266 L 7.035549 8.742629 M 6.53554 7.535518 L 6.53554 8.24266 L 5.828438 8.24266 M 6.328447 9.449731 L 6.328447 8.742629 L 7.035549 8.742629 M 5.828438 9.242638 L 6.328447 8.742629 L 5.828438 8.24266 M 7.035549 8.742629 L 7.742651 8.742629 L 8.24266 9.242638 L 7.535518 9.242638 Z M 8.742629 9.449731 L 9.449731 9.449731 L 9.94974 9.94974 L 9.242638 9.94974 Z M 8.24266 9.94974 L 8.24266 9.242638 L 8.742629 8.742629 L 8.742629 9.449731 Z M 7.742651 8.742629 L 8.24266 9.242638 L 8.742629 8.742629 M 7.535518 9.242638 L 8.24266 9.242638 L 8.24266 9.94974 M 9.449731 9.449731 L 8.742629 9.449731 L 8.742629 8.742629 M 9.242638 9.94974 L 8.742629 9.449731 L 8.24266 9.94974 M 7.035549 8.742629 L 7.535518 8.24266 L 8.24266 8.24266 L 7.742651 8.742629 Z M 7.535518 8.24266 L 7.035549 7.742651 L 7.035549 7.035549 L 7.535518 7.535518 Z M 7.035549 7.742651 L 7.535518 8.24266 L 7.035549 8.742629 M 7.535518 7.535518 L 7.535518 8.24266 L 8.24266 8.24266 M 7.742651 8.742629 L 8.24266 8.24266 L 8.742629 8.742629 M 7.035549 8.742629 L 7.035549 9.449731 L 7.535518 9.94974 L 7.535518 9.242638 Z M 7.035549 9.449731 L 6.328447 9.449731 L 5.828438 9.94974 L 6.53554 9.94974 Z M 6.328447 9.449731 L 7.035549 9.449731 L 7.035549 8.742629 M 6.53554 9.94974 L 7.035549 9.449731 L 7.535518 9.94974 M 7.535518 9.242638 L 7.535518 9.94974 L 8.24266 9.94974 M 5.828438 9.94974 L 5.328429 9.449731 L 5.328429 8.742629 L 5.828438 9.242638 Z M 5.328429 9.449731 L 4.82842 9.94974 L 4.121318 9.94974 L 4.621327 9.449731 Z M 4.82842 9.94974 L 5.328429 9.449731 L 5.828438 9.94974 M 4.621327 9.449731 L 5.328429 9.449731 L 5.328429 8.742629 M 5.828438 9.242638 L 5.328429 8.742629 L 5.828438 8.24266 " transform="matrix(97.631073,0,0,-97.631073,13.807119,986.192881)"/>
</g>
</svg>
